<svg xmlns="http://www.w3.org/2000/svg" viewBox="0 0 252.96 95.75"><defs><style>.cls-1{fill:#1a233a;}</style></defs><title>766-0</title><g id="Layer_2" data-name="Layer 2"><g id="Layer_1-2" data-name="Layer 1"><path class="cls-1" d="M10.67,4.67V30h4.82v6.26H4.41V4.67Z" transform="translate(-4.41 0)"/><path class="cls-1" d="M43.51,29.19a4.19,4.19,0,0,0,3.11,1.15,3.83,3.83,0,0,0,3-1.13,4.56,4.56,0,0,0,1-3.13V11.38h6.22v14c0,.63,0,1.22-.07,1.77s-.1,1-.15,1.36c.9.95,2.65,1.43,5.23,1.43v6.26a15.48,15.48,0,0,1-3.27-.28,7.5,7.5,0,0,1-2.06-.78,5.92,5.92,0,0,1-1.41-1.09c-.38-.4-.56-.59-.53-.57-1.38,2.06-4,3.09-8,3.09a15.24,15.24,0,0,1-2.24-.16,9,9,0,0,1-2.15-.63,8.26,8.26,0,0,1-1.94-1.18A5.3,5.3,0,0,1,39,33.28a9.41,9.41,0,0,1-3.1,2,10.5,10.5,0,0,1-4.32.91H13.79V30H22V15.9h6.26V30h3.35a6.65,6.65,0,0,0,1.56-.19,3.8,3.8,0,0,0,1.47-.68,3.43,3.43,0,0,0,1.06-1.28,4.68,4.68,0,0,0,.4-2.07V15.9h6.25v9.61A5,5,0,0,0,43.51,29.19Z" transform="translate(-4.41 0)"/><path class="cls-1" d="M63.62,30l-.06-.62c0-.42-.06-.85-.06-1.3a11.76,11.76,0,0,1,.93-4.69,12.35,12.35,0,0,1,2.5-3.81A11.75,11.75,0,0,1,70.66,17a11.34,11.34,0,0,1,4.6-.94,11.71,11.71,0,0,1,4.66.92,12.18,12.18,0,0,1,3.8,2.54,11.65,11.65,0,0,1,2.57,3.81A12.19,12.19,0,0,1,87.21,28a10.93,10.93,0,0,1-.08,1.3l-.07.62h4.11v6.26H83.86a11.17,11.17,0,0,1-3.77,2.6,12.09,12.09,0,0,1-4.83,1,11.28,11.28,0,0,1-4.73-1,11.83,11.83,0,0,1-3.71-2.58H60.11V30Zm13.87,3.17A5.47,5.47,0,0,0,79.31,32a5.31,5.31,0,0,0,1.21-1.77A5.61,5.61,0,0,0,81,28a6.29,6.29,0,0,0-.41-2.26,5.43,5.43,0,0,0-1.17-1.81,5.51,5.51,0,0,0-1.81-1.18,6,6,0,0,0-2.3-.44,5.13,5.13,0,0,0-2.2.46,5.63,5.63,0,0,0-1.74,1.2,5.44,5.44,0,0,0-1.15,1.81A6.12,6.12,0,0,0,69.76,28a6,6,0,0,0,.41,2.21,5.26,5.26,0,0,0,1.15,1.77,5.53,5.53,0,0,0,1.76,1.17,5.44,5.44,0,0,0,2.18.43A6.21,6.21,0,0,0,77.49,33.13Z" transform="translate(-4.41 0)"/><path class="cls-1" d="M97.65,30V15.9h6.25V30h3.36a6.65,6.65,0,0,0,1.56-.19,3.8,3.8,0,0,0,1.47-.68,3.52,3.52,0,0,0,1.06-1.28,4.69,4.69,0,0,0,.39-2.07V15.9H118v9.84a5,5,0,0,0,1.19,3.49,4.14,4.14,0,0,0,3.07,1.11,3.83,3.83,0,0,0,3-1.13,4.56,4.56,0,0,0,1-3.13V11.38h6.22v14q0,5.66-2.54,8.42t-7.71,2.77a15.24,15.24,0,0,1-2.24-.16,9,9,0,0,1-2.15-.63,8.26,8.26,0,0,1-1.94-1.18,5.12,5.12,0,0,1-1.25-1.34,9.35,9.35,0,0,1-3.11,2,10.42,10.42,0,0,1-4.31.91H89.43V30Z" transform="translate(-4.41 0)"/><path class="cls-1" d="M170.2,36.22h-10a20.32,20.32,0,0,1-5.33-.66,11.8,11.8,0,0,1-4.22-2.06A9.75,9.75,0,0,1,147.85,30a11,11,0,0,1-1-4.88,10.89,10.89,0,0,1,.9-4.45,10,10,0,0,1,2.64-3.52,12.37,12.37,0,0,1,4.22-2.32,17.8,17.8,0,0,1,5.62-.83h.26V12.13h6.26V30h3.47ZM152.48,9.5a2.9,2.9,0,0,1-1-2.38,2.92,2.92,0,0,1,1-2.3,3.88,3.88,0,0,1,4.87,0,2.93,2.93,0,0,1,1,2.3,2.9,2.9,0,0,1-1,2.38,3.93,3.93,0,0,1-4.83,0Zm8,10.78h-1.54a7.15,7.15,0,0,0-2.15.33,6.32,6.32,0,0,0-1.88,1,4.51,4.51,0,0,0-1.32,1.5,4.16,4.16,0,0,0-.49,2.06,4.57,4.57,0,0,0,.45,2.09,4.42,4.42,0,0,0,1.22,1.49,5.73,5.73,0,0,0,1.79.92,7.15,7.15,0,0,0,2.11.32h1.81Zm.19-10.78a2.9,2.9,0,0,1-1-2.38,2.93,2.93,0,0,1,1-2.3A3.58,3.58,0,0,1,163.07,4a3.54,3.54,0,0,1,2.45.86,2.91,2.91,0,0,1,1,2.3,2.93,2.93,0,0,1-1,2.38,3.93,3.93,0,0,1-4.83,0Z" transform="translate(-4.41 0)"/><path class="cls-1" d="M192,30V26.42a6.27,6.27,0,0,0-.23-1.83,3.92,3.92,0,0,0-.67-1.34,3.14,3.14,0,0,0-1.17-.92,3.81,3.81,0,0,0-1.66-.36h-16a11.23,11.23,0,0,1-1.45-2.56,9.72,9.72,0,0,1-.62-3.28l6.29-11.46h6.78l-5.84,11.08h10.29a14.14,14.14,0,0,1,4.66.7,8.71,8.71,0,0,1,3.52,2.28,7.56,7.56,0,0,1,1.83,3.45,18.51,18.51,0,0,1,.51,4.46v9.58H168.5V30Z" transform="translate(-4.41 0)"/><path class="cls-1" d="M202.38,44.42a10.14,10.14,0,0,1-1.58-.36l-.45-6.3c.9.23,1.53.37,1.9.42a8.07,8.07,0,0,0,1.11.07,2.14,2.14,0,0,0,1.83-.69,4.48,4.48,0,0,0,.51-2.51V14H212V30H216v6.26h-4.15a9.67,9.67,0,0,1-2.09,6.18c-1.27,1.41-3.23,2.11-5.86,2.11A13,13,0,0,1,202.38,44.42Z" transform="translate(-4.41 0)"/><path class="cls-1" d="M222.51,30V15.9h6.25V30h3.36a6.65,6.65,0,0,0,1.56-.19,3.8,3.8,0,0,0,1.47-.68,3.52,3.52,0,0,0,1.06-1.28,4.69,4.69,0,0,0,.39-2.07V15.9h6.26v9.61A5,5,0,0,0,244,29.19a4.17,4.17,0,0,0,3.11,1.15,3.84,3.84,0,0,0,3-1.13,4.56,4.56,0,0,0,1-3.13V11.38h6.22v14q0,5.66-2.55,8.42t-7.7,2.77a15.15,15.15,0,0,1-2.24-.16,8.86,8.86,0,0,1-2.15-.63,8.26,8.26,0,0,1-1.94-1.18,5.12,5.12,0,0,1-1.25-1.34,9.35,9.35,0,0,1-3.11,2,10.45,10.45,0,0,1-4.31.91H214.29V30Zm10.93-19.18a2.79,2.79,0,0,1-1-2.34,2.83,2.83,0,0,1,1-2.24,3.42,3.42,0,0,1,2.36-.85,3.47,3.47,0,0,1,2.37.85,2.82,2.82,0,0,1,1,2.24,2.77,2.77,0,0,1-1,2.34,3.69,3.69,0,0,1-2.31.79A3.61,3.61,0,0,1,233.44,10.78Zm4.22-5.92a2.45,2.45,0,0,1-.95-2.07,2.58,2.58,0,0,1,.87-2,3.39,3.39,0,0,1,4.3,0,2.58,2.58,0,0,1,.87,2,2.46,2.46,0,0,1-.93,2.07,3.29,3.29,0,0,1-2.09.72A3.34,3.34,0,0,1,237.66,4.86Zm3.77,5.92a2.79,2.79,0,0,1-1-2.34,2.83,2.83,0,0,1,1-2.24,3.42,3.42,0,0,1,2.36-.85,3.46,3.46,0,0,1,2.39.85,2.83,2.83,0,0,1,1,2.24,2.79,2.79,0,0,1-1,2.34,3.69,3.69,0,0,1-2.33.79A3.61,3.61,0,0,1,241.43,10.78Z" transform="translate(-4.41 0)"/><path class="cls-1" d="M40.78,93.29A9.19,9.19,0,0,1,39.36,93a6.4,6.4,0,0,1-1.16-.48,7.88,7.88,0,0,1-1.05-.69,4.08,4.08,0,0,1-1.34-1.8,6.05,6.05,0,0,1-.43-2.2V78.71H36.5V87.6a5.11,5.11,0,0,0,.39,2.17A3.75,3.75,0,0,0,38,91.13a5.19,5.19,0,0,0,1.75.85,8.18,8.18,0,0,0,2.13.27h3.79V70h3.6v1.13H46.8v18h3.9v1.12H46.8v3.13H42.57A15.58,15.58,0,0,1,40.78,93.29Z" transform="translate(-4.41 0)"/><path class="cls-1" d="M55.85,89.13V77H57V89.13h5.35v1.12H50.2V89.13Zm-2.62,6A1,1,0,0,1,54,93.38a1,1,0,0,1,.73.3,1,1,0,0,1,0,1.45,1,1,0,0,1-.73.3A1,1,0,0,1,53.23,95.13Zm4.47,0a1,1,0,1,1,.72.3A1,1,0,0,1,57.7,95.13Z" transform="translate(-4.41 0)"/><path class="cls-1" d="M65.72,89.13V77h1.13v1.7H76.4a4.75,4.75,0,0,1,2,.4A4.85,4.85,0,0,1,80,80.31a3.94,3.94,0,0,1,.84,1.53,6.46,6.46,0,0,1,.26,1.79v6.62H61.83V89.13Zm1.13,0H80v-5.2a6.32,6.32,0,0,0-.19-1.62,3.62,3.62,0,0,0-.64-1.25,2.92,2.92,0,0,0-1.17-.9,3.51,3.51,0,0,0-1.45-.33h-9.7Z" transform="translate(-4.41 0)"/><path class="cls-1" d="M88.16,95.41a11.69,11.69,0,0,1-1.91-.91l.53-1a11.77,11.77,0,0,0,1.76.81,5.1,5.1,0,0,0,1.81.32,4.17,4.17,0,0,0,2.76-.84,2.86,2.86,0,0,0,1-2.34v-1.2h-1.5a12.94,12.94,0,0,1-3.06-.35,7.85,7.85,0,0,1-2.64-1.13,6,6,0,0,1-1.84-2A6.86,6.86,0,0,1,85,81a5.88,5.88,0,0,1,1.64-2.1,7.74,7.74,0,0,1,2.58-1.37A11.51,11.51,0,0,1,92.62,77h2.63V89.13h3.87v1.12H95.25v1.2a3.91,3.91,0,0,1-1.36,3.15,5.44,5.44,0,0,1-3.64,1.15A5.91,5.91,0,0,1,88.16,95.41ZM86,86a5,5,0,0,0,1.4,1.71,6.2,6.2,0,0,0,2,1,8.66,8.66,0,0,0,2.46.35h2.2v-11h-2.2a7.2,7.2,0,0,0-2.32.39,6.8,6.8,0,0,0-2.06,1.1,5.69,5.69,0,0,0-1.48,1.72,4.71,4.71,0,0,0-.56,2.29A5.31,5.31,0,0,0,86,86Z" transform="translate(-4.41 0)"/><path class="cls-1" d="M104.27,89.13V77h1.13V89.13h5.35v1.12H98.63V89.13Zm-2.59-15.65a1,1,0,0,1,.72-1.75,1,1,0,1,1,0,2A1,1,0,0,1,101.68,73.48Zm4.47,0a1,1,0,1,1,.72.3A1,1,0,0,1,106.15,73.48Z" transform="translate(-4.41 0)"/><path class="cls-1" d="M114.15,89.13V70h3.6v1.13h-2.48V90.25h-5V89.13Z" transform="translate(-4.41 0)"/><path class="cls-1" d="M122.75,70V90.25h-1.12V70Z" transform="translate(-4.41 0)"/><path class="cls-1" d="M130.54,95.41a11.31,11.31,0,0,1-1.91-.91l.52-1a12.25,12.25,0,0,0,1.76.81,5.1,5.1,0,0,0,1.81.32,4.22,4.22,0,0,0,2.77-.84,2.89,2.89,0,0,0,1-2.34v-1.2H135a12.94,12.94,0,0,1-3.06-.35,7.85,7.85,0,0,1-2.64-1.13,6,6,0,0,1-1.85-2,6.25,6.25,0,0,1-.7-3.09,6.07,6.07,0,0,1,.58-2.67,5.85,5.85,0,0,1,1.63-2.1,7.69,7.69,0,0,1,2.59-1.37A11.46,11.46,0,0,1,135,77h2.62V91.45a3.88,3.88,0,0,1-1.36,3.15,5.44,5.44,0,0,1-3.64,1.15A5.82,5.82,0,0,1,130.54,95.41ZM128.39,86a5,5,0,0,0,1.4,1.71,6.1,6.1,0,0,0,2.05,1,8.55,8.55,0,0,0,2.46.35h2.2v-11h-2.2a7.26,7.26,0,0,0-2.33.39,6.92,6.92,0,0,0-2.06,1.1,5.52,5.52,0,0,0-1.47,1.72,4.6,4.6,0,0,0-.56,2.29A5.31,5.31,0,0,0,128.39,86Z" transform="translate(-4.41 0)"/><path class="cls-1" d="M154.77,93.29a9.29,9.29,0,0,1-1.41-.27,6.4,6.4,0,0,1-1.16-.48,7.88,7.88,0,0,1-1-.69,4,4,0,0,1-1.34-1.8,6.05,6.05,0,0,1-.43-2.2V78.71h1.12V87.6a5.11,5.11,0,0,0,.39,2.17A3.65,3.65,0,0,0,152,91.13a5.19,5.19,0,0,0,1.75.85,8.1,8.1,0,0,0,2.12.27h3.8V78.71h1.13V89.13h3.35v1.12H160.8v3.13h-4.23A15.89,15.89,0,0,1,154.77,93.29ZM154.52,75a1,1,0,1,1,.73.3A1,1,0,0,1,154.52,75Z" transform="translate(-4.41 0)"/><path class="cls-1" d="M175.07,89.13a14,14,0,0,0,.45-2.38,33.77,33.77,0,0,0,.15-3.57,6.25,6.25,0,0,0-.35-2.1,4.24,4.24,0,0,0-1.32-1.8,5.23,5.23,0,0,0-1.55-.84,6.63,6.63,0,0,0-2.1-.31,7.11,7.11,0,0,0-2.11.35,6.31,6.31,0,0,0-2,1l-.42-1a12.39,12.39,0,0,1,1.15-.64,8.06,8.06,0,0,1,1.12-.43,7.75,7.75,0,0,1,1.22-.27,12.17,12.17,0,0,1,1.43-.08,6.16,6.16,0,0,1,2.13.37,5.91,5.91,0,0,1,1.8,1,5.48,5.48,0,0,1,1.57,2.12,7.56,7.56,0,0,1,.55,3,26.91,26.91,0,0,1-.17,3,25.13,25.13,0,0,1-.43,2.56h3.35v1.12H163.65V89.13Z" transform="translate(-4.41 0)"/><path class="cls-1" d="M184.72,89.13V78.26h1.13V89.13h4.72a3.41,3.41,0,0,0,2.43-.9A3.47,3.47,0,0,0,194,85.6V78.26h1.12V85.4a4.11,4.11,0,0,0,1.26,2.84,4.3,4.3,0,0,0,1.4.89,4.87,4.87,0,0,0,1.84.32,3.88,3.88,0,0,0,3.11-1.17,4.47,4.47,0,0,0,1-3v-10h1.13V85a6.52,6.52,0,0,1,0,.79c0,.24-.05.48-.09.71a5.75,5.75,0,0,0,.69,1.14,3.58,3.58,0,0,0,1,.82,4.25,4.25,0,0,0,1.34.51,8.06,8.06,0,0,0,1.82.18v1.12a8.51,8.51,0,0,1-2-.2,5.64,5.64,0,0,1-1.46-.53,4.16,4.16,0,0,1-1-.78,4.73,4.73,0,0,1-.67-.94,4,4,0,0,1-1.81,2,6.08,6.08,0,0,1-2.94.65,6.23,6.23,0,0,1-3-.7,4.43,4.43,0,0,1-2-2,4,4,0,0,1-1.56,1.83,4.55,4.55,0,0,1-2.49.67h-11.5V89.13Zm6.75-15.65a1,1,0,1,1,.73.3A1,1,0,0,1,191.47,73.48Zm2.23-3.35a1,1,0,0,1-.3-.72,1,1,0,0,1,.3-.73,1,1,0,0,1,.72-.3,1,1,0,0,1,1,1,1,1,0,0,1-.3.72,1,1,0,0,1-.73.3A1,1,0,0,1,193.7,70.13ZM196,73.48a1,1,0,0,1,.72-1.75,1,1,0,0,1,.72.3,1,1,0,0,1,0,1.45,1,1,0,0,1-.72.3A1,1,0,0,1,196,73.48Z" transform="translate(-4.41 0)"/><path class="cls-1" d="M212.4,89.13V70h1.12V89.13h3.9v1.12H209V89.13Z" transform="translate(-4.41 0)"/><path class="cls-1" d="M220.82,89.13V70h3.6v1.13H222V90.25h-5V89.13Z" transform="translate(-4.41 0)"/></g></g></svg>