<svg xmlns="http://www.w3.org/2000/svg" viewBox="0 0 297.09 125.8"><defs><style>.cls-1{fill:#352f82;}.cls-2{fill:#ee8022;}.cls-3{fill:#3a3585;}.cls-4{fill:#413b89;}.cls-5{fill:#3d3887;}.cls-6{fill:#3c3686;}.cls-7{fill:#3b3585;}.cls-8{fill:#48438d;}</style></defs><title>7786-0</title><g id="Layer_2" data-name="Layer 2"><g id="Layer_1-2" data-name="Layer 1"><path class="cls-1" d="M157.33,69.6c-6.89.1-13.78.16-20.67.33-2.66.07-2.3-1.7-2.3-3.34q0-19.46,0-38.92c0-6-1.84-7.91-7.74-8.21-7.23-.37-7.22-.37-7.22,6.69,0,13.53-.08,27.05.06,40.57,0,2.75-.76,3.61-3.49,3.51-5.1-.19-10.22-.23-15.31,0-3,.14-4-.68-4-3.87.17-14.35,0-28.71.15-43.06,0-3.12-.82-4.23-3.93-3.91a31.18,31.18,0,0,1-7,0c-3.47-.43-4,1.13-4,4.2C82,37.8,81.86,52,82,66.23c0,2.84-.68,3.87-3.65,3.74-5.23-.23-10.49-.21-15.72,0-2.89.12-3.76-.78-3.73-3.69.14-14.22,0-28.43.14-42.64.05-3.31-.9-4.2-4.12-4.09-7.45.23-14.91.07-22.36.07-1.52,0-3.34-.22-3.94,1.49s1.13,2.34,2.14,3.18c4.13,3.45,8.45,6.69,12.43,10.3,6,5.48,8.38,12.34,5.84,20.23-2.62,8.16-8.39,13.49-16.9,14.6-10,1.31-20.12.28-30.18.49C.13,70,0,68.89,0,67.51c0-4.83.11-9.66,0-14.49-.06-2.21,1-2.43,2.79-2.41,5.25.06,10.49,0,15.74,0,1.4,0,2.91.12,3.6-1.4s-.45-2.66-1.46-3.56c-2-1.74-4-3.37-6.06-5-5.37-4.2-10.29-8.75-13.07-15.2C-1.83,17.66.58,9.54,7.9,5A32.85,32.85,0,0,1,25.25.2C61.69.07,98.12,0,134.55.18c15,.08,22.79,8.47,22.83,23.41,0,9,.09,17.94.14,26.9C159.31,56.88,159.71,63.26,157.33,69.6Z"/><path class="cls-2" d="M297.09,3.1c0-2.81-1-3.1-3.36-3.1-34.09.05-68.19,0-102.29.07a32.92,32.92,0,0,0-17,4.59c-6.63,3.95-9.29,10.61-7.49,18.11,1.39,5.78,5,10.07,9.29,13.89,3.18,2.85,6.64,5.38,9.89,8.16,1.22,1,2.84,2.2,2.18,4.1s-2.68,1.55-4.29,1.55c-8.84,0-17.67,0-26.51,0q-.09,9.56-.19,19.11c12.83,0,25.67.14,38.5,0A19.83,19.83,0,0,0,209.29,64c9.89-9.11,9.14-21.92-1.92-31.55-3.53-3.09-7.33-5.86-11-8.83-.82-.67-2-1.37-1.61-2.64s1.76-1.63,3.06-1.64c2.9,0,5.8,0,8.7,0H231c-7.27,14.23-9.56,28.24,1.66,40.52C244.8,73.12,259.18,72.56,274,63a13.33,13.33,0,0,1,.12,2.36c-.59,3.56.63,4.91,4.42,4.61a103.23,103.23,0,0,1,14.07,0c3.41.2,4.45-.82,4.43-4.32Q296.79,34.36,297.09,3.1ZM274.18,22.48c-.07,6.88,0,13.76,0,20.67-1.69.51-2.16-1-2.93-1.75-4.38-4.31-4.36-4.34-8.82.1-2.44,2.43-4.94,4.8-7.29,7.3-1.3,1.39-2.22,1.64-3.62.07a100.41,100.41,0,0,0-7.3-7.29c-1.7-1.54-1.4-2.54.12-3.95,3.12-2.9,6-6.08,9.18-8.91,2.09-1.85,2.61-3.31.1-5.07-1.35-.94-2.67-1.92-4-2.88l1-1.38c7,0,14,.06,21,0C274,19.33,274.2,20.58,274.18,22.48Z"/><path class="cls-3" d="M222,102.26c-.63-4.29-2.9-7.5-7.34-8.53a9.18,9.18,0,0,0-7.2,1c-1.06.67-2,2.53-3.16-.26-.45-1.08-2.22-.54-2.22,1.34q0,14.07.06,28.15c0,1.06.24,2,1.58,1.87s1.2-1.29,1.21-2.19c0-2.76,0-5.52,0-8.77a9.2,9.2,0,0,1,1.45.65c3.61,2.79,7.51,3,11.17.51C222.47,112.69,222.72,107.5,222,102.26Zm-3.38,7.56c-1.09,3.33-3.31,5.38-7,5.24s-5.58-2.53-6.25-6c-.24-1.21-.37-2.44-.57-3.8a43.47,43.47,0,0,1,.92-4.74,6,6,0,0,1,5.65-4.61,6.37,6.37,0,0,1,6.48,3.5A12.82,12.82,0,0,1,218.58,109.82Z"/><path class="cls-4" d="M157.17,100.46c0-4.42.08-8.84,0-13.25-.06-2.17.37-3.33,2.91-3.23,4.27.16,8.55,0,12.83,0,1.1,0,2.47-.13,2.36,1.49-.09,1.32-1.34,1.14-2.28,1.15-3.31,0-6.63.1-9.93,0-2.16-.08-2.8.72-2.9,2.87-.4,9.13-.48,9,8.56,9.19,2,0,5.64-1.3,5.67,1.15,0,2.76-3.57,1.26-5.49,1.3-8.69.18-8.47.09-8.79,8.65-.14,3.9,1.08,5.06,4.81,4.68a89,89,0,0,1,9.1-.06c1.05,0,2,.21,1.85,1.56-.13,1.15-1.12,1-1.91,1-4.83,0-9.66,0-14.49,0-1.9,0-2.3-.83-2.28-2.5C157.21,109.84,157.17,105.15,157.17,100.46Z"/><path class="cls-5" d="M245.85,106H250c2.07,0,4.13,0,6.19,0,1.35,0,1.94-.5,2-1.93.32-4.46-2.75-9.36-6.65-10.38a9.72,9.72,0,0,0-11.47,5.09,15.6,15.6,0,0,0-.4,13.2c1.43,3.51,4.29,5.29,8,5.53s6.88-.68,8.92-4c.57-.93,1.94-2.29.5-3.2s-2,.72-2.71,1.73c-3.43,4.74-9.45,4.16-11.85-1.09C240.77,107,241.42,106.05,245.85,106Zm1.54-10.22c3.76-.93,8,2.69,7.69,6.47-.09,1.4-.91,1.49-1.9,1.51-1.64,0-3.28,0-4.92,0a2.18,2.18,0,0,1-.81,0c-1.78-.74-5.07,1.77-5.32-1.49C241.9,99.24,244,96.65,247.39,95.82Z"/><path class="cls-6" d="M288.24,93.5c2.92-.13,5.56.49,7.13,3.2.54.93,1.59,2.34-.06,3.19-1.25.64-1.88-.33-2.41-1.48-1.2-2.58-3.52-2.79-6-2.44-1.8.27-3.17,1.18-3.49,3s.9,3.14,2.54,3.77c2.06.79,4.22,1.3,6.28,2.06,2.85,1,4.63,2.92,4.42,6.2s-1.92,5-4.84,6c-4.61,1.53-9.76.09-11.34-3.3-.51-1.07-1.34-2.57,0-3.34s2,.56,2.52,1.78c1.59,3.51,4.58,3.59,7.71,2.67a3.74,3.74,0,0,0,2.8-3.7,3.4,3.4,0,0,0-2.44-3.45c-1.67-.65-3.4-1.11-5.1-1.7-4.5-1.55-6.29-3.9-5.64-7.38C280.94,95.31,283.72,93.52,288.24,93.5Z"/><path class="cls-6" d="M269.28,93.49c3.21,0,6.05.7,7.39,4.07.3.74.67,1.69-.24,2.23A1.49,1.49,0,0,1,274.1,99a4.3,4.3,0,0,0-3.6-3c-2.6-.31-5.28-.19-6.06,2.85-.74,2.84,1.66,3.72,3.79,4.48,1.94.69,4,1.16,5.86,2,3.18,1.36,4.06,4,3.25,7.17-1,3.85-4.15,4.9-7.64,5.08s-6.92-.61-8.53-4.38c-.39-.9-1-2.25.43-2.84s1.78.5,2.21,1.65c1.2,3.2,3.85,3.66,6.79,3.15,2-.35,3.63-1.48,3.85-3.72s-1.18-3.26-3-3.92c-1.42-.52-2.88-1-4.32-1.4-3.54-1.11-6.43-2.8-5.91-7.19C261.64,95.36,264.53,93.48,269.28,93.49Z"/><path class="cls-7" d="M178.56,116.23c2.21-3,4.34-6,6.68-8.89,1.26-1.55,1.36-2.67,0-4.26-2.25-2.71-4.27-5.62-6.9-9.14,6.4.22,6.74,6.24,10.31,8.41,3.66-2,3.82-8.25,10.23-8.38-2.36,3.12-4.09,5.73-6.15,8s-2.27,3.91-.12,6.25c2.29,2.5,4.15,5.41,6.75,8.88-6.77-.48-7.1-6.91-11-9.19C184.75,110.34,184.48,116.47,178.56,116.23Z"/><path class="cls-8" d="M229.09,94c1.91,3.58,3.66-.17,5.61-.31,1.25-.08,3-1,3.44,1s-1.38,1.48-2.48,1.69c-3.79.74-5.12,3.43-5.23,6.9-.11,3.71,0,7.43-.05,11.14,0,1.17.33,2.72-1.65,2.58-1.67-.13-1.25-1.54-1.26-2.54-.1-6-.12-12.11-.21-18.16C227.25,95,227.24,94,229.09,94Z"/></g></g></svg>