<svg xmlns="http://www.w3.org/2000/svg" viewBox="0 0 66.11 66.11"><defs><style>.cls-1{fill:#1a233a;fill-rule:evenodd;}</style></defs><title>A1</title><g id="Layer_2" data-name="Layer 2"><g id="Layer_1-2" data-name="Layer 1"><path class="cls-1" d="M33.05,0A33,33,0,0,0,5.28,51L.26,62a2.88,2.88,0,0,0,2.63,4.08,2.84,2.84,0,0,0,.76-.1l13.84-3.8A33.05,33.05,0,1,0,33.05,0Zm0,60.34a27.26,27.26,0,0,1-13.73-3.72,2.9,2.9,0,0,0-1.46-.39,2.84,2.84,0,0,0-.76.1l-9,2.48,3.15-6.93A2.89,2.89,0,0,0,10.92,49,27.28,27.28,0,1,1,33.05,60.34Z"/><path class="cls-1" d="M45.76,38c-1.38-.82-3.18-1.75-4.81-1.08-1.25.51-2.05,2.47-2.86,3.47a1.21,1.21,0,0,1-1.55.34A21.81,21.81,0,0,1,25.65,31.4a1.33,1.33,0,0,1,.17-1.82,7.36,7.36,0,0,0,2-3.21,7,7,0,0,0-.88-3.8c-.66-1.42-1.39-3.43-2.81-4.23a3.82,3.82,0,0,0-4.17.62A8.47,8.47,0,0,0,17,25.67a9.49,9.49,0,0,0,.27,2.13,17.42,17.42,0,0,0,2,4.71,37.07,37.07,0,0,0,2.13,3.25,33,33,0,0,0,9.26,8.59,28.27,28.27,0,0,0,5.77,2.75c2.26.75,4.28,1.52,6.72,1.06a8.13,8.13,0,0,0,6.09-4.53,4,4,0,0,0,.29-2.31C49.21,39.72,47.05,38.78,45.76,38Z"/></g></g></svg>