<svg xmlns="http://www.w3.org/2000/svg" viewBox="0 0 95.64 95.63"><defs><style>.cls-1{fill:#1a233a;}.cls-2{fill:#de892e;}</style></defs><title>a3</title><g id="Layer_2" data-name="Layer 2"><g id="Layer_1-2" data-name="Layer 1"><path class="cls-1" d="M83.24,68.6c-2.11-.63-2.64-2.1-2.63-4.07.06-7.29,0-14.58,0-21.87,0-2.69.62-3.49,3.39-4.16C83.19,26.29,78,16.42,67.67,9.78c-12.48-8-25.5-8.24-38.38-.87C18.69,15,10.84,28.58,11.77,38.55a10.22,10.22,0,0,1,1.21.31,2.75,2.75,0,0,1,1.95,2.6C15,49.18,15,56.89,15,64.61c0,2.92-1,4-3.9,4H8.54A7.94,7.94,0,0,1,.17,61.28,15.21,15.21,0,0,1,0,59.37c0-3.75,0-7.51,0-11.26a14.52,14.52,0,0,1,.27-2.8c.84-3.91,3.28-6.09,7.55-6.76.72-12,5.55-22,14.94-29.68A38.67,38.67,0,0,1,48.73,0a40.13,40.13,0,0,1,39.1,38.6,7.23,7.23,0,0,1,5.78,2.93,10.7,10.7,0,0,1,2,7c0,3.67,0,7.34,0,11a9.51,9.51,0,0,1-2.82,7.05,6.13,6.13,0,0,1-4.46,1.94c-1,0-1.28.34-1.51,1.23A30,30,0,0,1,74.71,87.41c-4.19,3-9,4.17-14,4.93a8.52,8.52,0,0,1-1.4.18,2,2,0,0,0-1.91,1.15,4.1,4.1,0,0,1-3.69,1.93c-2.94,0-5.89.05-8.83,0a4.48,4.48,0,1,1,.07-9c2.86,0,5.72,0,8.58,0a4.76,4.76,0,0,1,3.73,1.64,1.71,1.71,0,0,0,1.15.53C71.53,87.93,79.71,80.5,83,69.61,83.09,69.33,83.14,69,83.24,68.6Z"/><path class="cls-2" d="M57.59,49.31c-.38-.05-.77-.07-1.14-.1a.25.25,0,0,1-.22-.18,0,0,0,0,0,0,0c0-.11,0-.22,0-.33v-.1a3.37,3.37,0,0,0-5.88-2.38h0a.71.71,0,0,1-1.13-.15c-.17-.33-.35-.63-.53-.91-1.49-2.27-3.23-3-5.4-2.45-2.53.65-3.71,2.34-3.73,5.45a1.11,1.11,0,0,1-1.06,1.11h0a3.41,3.41,0,0,0-3.18,2.46,3.35,3.35,0,0,0,1.22,3.57,4.23,4.23,0,0,0,2.72.71H54.92c.81,0,1.63,0,2.43-.06a3.33,3.33,0,0,0,.24-6.62ZM47.82,16.36A33.46,33.46,0,1,0,81.28,49.81,33.46,33.46,0,0,0,47.82,16.36Zm18.95,52.4a26.79,26.79,0,1,1-8.52-43.63c.75.32,1.48.66,2.19,1l.21.12a3.63,3.63,0,0,1-3.37,6.41l-.34-.19a19.53,19.53,0,1,0,8.79,9.43L57.9,47.48a1,1,0,0,0,.54.29,5,5,0,0,1-1.37,9.87H38.58a5,5,0,0,1-1.37-9.86c.38-.11.54-.22.57-.65a6.69,6.69,0,0,1,12.07-3.55c.11.14.22.28.36.48L61.64,36l6-4.22a26.52,26.52,0,0,1,4.11,5.95c.28.54.53,1.11.78,1.68a26.78,26.78,0,0,1-5.74,29.37ZM56.45,49.21a.25.25,0,0,1-.22-.18,0,0,0,0,0,0,0c0-.11,0-.22,0-.33v-.1a3.37,3.37,0,0,0-5.88-2.38h0a.71.71,0,0,1-1.13-.15c-.17-.33-.35-.63-.53-.91-1.49-2.27-3.23-3-5.4-2.45-2.53.65-3.71,2.34-3.73,5.45a1.11,1.11,0,0,1-1.06,1.11h0a3.41,3.41,0,0,0-3.18,2.46,3.35,3.35,0,0,0,1.22,3.57,4.23,4.23,0,0,0,2.72.71H54.92c.81,0,1.63,0,2.43-.06a3.33,3.33,0,0,0,.24-6.62C57.21,49.26,56.82,49.24,56.45,49.21Z"/></g></g></svg>