<svg xmlns="http://www.w3.org/2000/svg" viewBox="0 0 138.49 138.49"><defs><style>.cls-1{fill:#d9dadb;}.cls-2{fill:#de892e;}.cls-3{fill:#1a233a;}</style></defs><title>Assesiu</title><g id="Layer_2" data-name="Layer 2"><g id="Layer_1-2" data-name="Layer 1"><circle class="cls-1" cx="69.24" cy="69.24" r="69.24"/><path class="cls-2" d="M78,71.09c-.38-.06-.77-.07-1.14-.1a.26.26,0,0,1-.22-.18v0c0-.11,0-.23,0-.34v-.09A3.37,3.37,0,0,0,70.75,68h0a.7.7,0,0,1-1.12-.15q-.27-.48-.54-.9c-1.49-2.27-3.23-3-5.4-2.46-2.53.66-3.71,2.35-3.73,5.46A1.12,1.12,0,0,1,58.9,71h0a3.4,3.4,0,0,0-3.17,2.46,3.32,3.32,0,0,0,1.21,3.57,4.23,4.23,0,0,0,2.72.71H75.34c.81,0,1.63,0,2.43-.05A3.33,3.33,0,0,0,78,71.09ZM68.24,38.14A33.46,33.46,0,1,0,101.7,71.59,33.45,33.45,0,0,0,68.24,38.14Zm19,52.4a26.9,26.9,0,0,1-8.52,5.74,26.83,26.83,0,0,1-20.86,0A26.87,26.87,0,0,1,43.56,82,26.8,26.8,0,0,1,78.67,46.91c.75.31,1.48.66,2.19,1l.21.12a3.62,3.62,0,0,1-1.82,6.75,3.52,3.52,0,0,1-1.55-.35,2.79,2.79,0,0,1-.34-.18,19.53,19.53,0,1,0,8.79,9.43l-7.83,5.53a1,1,0,0,0,.54.3,5,5,0,0,1-1.37,9.86q-9.24,0-18.49,0a5,5,0,0,1-1.37-9.86c.38-.11.54-.21.57-.64a6.7,6.7,0,0,1,12.08-3.56c.1.15.21.29.35.48l11.43-8.07,6-4.23a27,27,0,0,1,4.11,5.95q.42.83.78,1.68a26.79,26.79,0,0,1-5.74,29.38ZM76.87,71a.26.26,0,0,1-.22-.18v0c0-.11,0-.23,0-.34v-.09A3.37,3.37,0,0,0,70.75,68h0a.7.7,0,0,1-1.12-.15q-.27-.48-.54-.9c-1.49-2.27-3.23-3-5.4-2.46-2.53.66-3.71,2.35-3.73,5.46A1.12,1.12,0,0,1,58.9,71h0a3.4,3.4,0,0,0-3.17,2.46,3.32,3.32,0,0,0,1.21,3.57,4.23,4.23,0,0,0,2.72.71H75.34c.81,0,1.63,0,2.43-.05A3.33,3.33,0,0,0,78,71.09C77.63,71,77.24,71,76.87,71Z"/><path class="cls-3" d="M103.65,87.72c-2.11-.63-2.64-2.1-2.63-4.07.06-7.29,0-14.58,0-21.86,0-2.7.62-3.5,3.39-4.17-.85-12.21-6-22.08-16.37-28.72-12.48-8-25.5-8.24-38.38-.86C39.1,34.1,31.25,47.7,32.18,57.67a9.75,9.75,0,0,1,1.21.31,2.76,2.76,0,0,1,2,2.6q.06,11.58.06,23.15c0,2.92-1,4-3.9,4H29a8,8,0,0,1-8.37-7.28,15.21,15.21,0,0,1-.15-1.91c0-3.75,0-7.51,0-11.26a14.52,14.52,0,0,1,.27-2.8c.84-3.91,3.29-6.09,7.55-6.76.72-12,5.55-22,14.94-29.68a38.72,38.72,0,0,1,26-8.86,40.13,40.13,0,0,1,39.1,38.6A7.21,7.21,0,0,1,114,60.67a10.67,10.67,0,0,1,2,7c0,3.67,0,7.34,0,11a9.51,9.51,0,0,1-2.82,7,6.09,6.09,0,0,1-4.45,1.94c-1,0-1.29.34-1.52,1.23a30,30,0,0,1-12.1,17.65c-4.2,3-9,4.17-14,4.93a8.38,8.38,0,0,1-1.4.18,2,2,0,0,0-1.91,1.15,4.1,4.1,0,0,1-3.69,1.93c-2.94,0-5.89,0-8.83,0a4.48,4.48,0,1,1,.07-9c2.86,0,5.72,0,8.58,0a4.74,4.74,0,0,1,3.73,1.64,1.72,1.72,0,0,0,1.16.53c13.08-.87,21.27-8.3,24.56-19.19C103.5,88.45,103.56,88.15,103.65,87.72Z"/></g></g></svg>