<svg xmlns="http://www.w3.org/2000/svg" viewBox="0 0 35.79 35.73"><defs><style>.cls-1{fill:#fff;}</style></defs><title>Asset 6</title><g id="Layer_2" data-name="Layer 2"><g id="Layer_1-2" data-name="Layer 1"><path class="cls-1" d="M3.83,21.16A12.83,12.83,0,0,1,2.51,21,3.3,3.3,0,0,1,.68,15.8,6.48,6.48,0,0,1,1.39,15C6,10.45,10.59,5.91,15.1,1.26a3.74,3.74,0,0,1,5.59,0C25.3,6,30,10.62,34.69,15.31A3.31,3.31,0,0,1,33.31,21a10.26,10.26,0,0,1-1.26.16c0,.32,0,.62,0,.93,0,3.07,0,6.13,0,9.2s-1.51,4.43-4.44,4.43H23.17c-1.62,0-1.81-.19-1.81-1.77V26.67c0-1.54-.65-2.19-2.18-2.2H16.54a1.82,1.82,0,0,0-2.08,2.05c0,2.59,0,5.18,0,7.76,0,1.13-.3,1.43-1.41,1.44-1.76,0-3.52,0-5.28,0a3.79,3.79,0,0,1-3.92-3.95c0-3.2,0-6.4,0-9.6ZM23.44,33.63c1.53,0,2.95,0,4.36,0s2.06-.64,2.06-2.13V21.26c0-2.17.09-2.27,2.23-2.26.66,0,1.25-.07,1.53-.75s-.1-1.16-.56-1.61l-14-14c-.92-.93-1.41-.92-2.34,0L2.82,16.6a4.78,4.78,0,0,0-.44.46A1.17,1.17,0,0,0,3.17,19a10.92,10.92,0,0,0,1.28,0c1.15,0,1.47.32,1.47,1.48V31.19a7.13,7.13,0,0,0,.07,1A1.4,1.4,0,0,0,7.15,33.5c1.71.09,3.43,0,5.22,0v-.9c0-2.13,0-4.27,0-6.4a3.82,3.82,0,0,1,3.87-3.85c.94,0,1.87.06,2.8,0a4,4,0,0,1,4.43,4.37C23.34,29,23.44,31.26,23.44,33.63Z"/></g></g></svg>