<svg xmlns="http://www.w3.org/2000/svg" viewBox="0 0 90.67 62.21"><defs><style>.cls-1{fill:#1a233a;}</style></defs><title>Asset 3</title><g id="Layer_2" data-name="Layer 2"><g id="Layer_1-2" data-name="Layer 1"><path class="cls-1" d="M45.28,62.21h-36C3.15,62.2,0,59.09,0,53.05V9C0,3.27,3.23,0,8.88,0H81.7c5.79,0,9,3.23,9,9.06v44.3c0,5.54-3.26,8.84-8.78,8.84Q63.59,62.23,45.28,62.21Zm40.4-7.07c-.77-.6-1-.83-1.29-1C75,47.85,65.54,41.61,56.17,35.28c-1.29-.88-1.91-.2-2.75.5-5.87,4.94-10.33,5-16.15,0-1.21-1-2-1-3.27-.13-7.3,5-14.66,9.82-22,14.71L5.44,54.68C6,56.79,7.55,56.8,9.14,56.8H81.52a3.24,3.24,0,0,0,1.21,0C83.65,56.33,84.52,55.79,85.68,55.14ZM9.89,5.54,9.73,6l.77.63Q26.19,19.64,41.89,32.71c2.28,1.89,4.65,1.86,7-.06Q64.41,19.74,79.93,6.78a15.45,15.45,0,0,0,1.14-1.24ZM85.32,9.23,59.21,31,85.32,48.33ZM5.38,48.31,31.46,31,5.38,9.27Z"/></g></g></svg>