<svg xmlns="http://www.w3.org/2000/svg" viewBox="0 0 90.89 81.9"><defs><style>.cls-1{fill:#e6912e;}</style></defs><title>Asset-999</title><g id="Layer_2" data-name="Layer 2"><g id="Layer_1-2" data-name="Layer 1"><path class="cls-1" d="M88.82,13.81c-1.76-3.74-3.57-7.62-5.27-11.44A3.54,3.54,0,0,0,79.9,0h0c-11,0-22.45,0-35.17,0H10.52a2.93,2.93,0,0,0-3,1.91Q4.81,8,2,14L.14,18,0,18.19v10l.09.59c.07.35.14.68.22,1a7.93,7.93,0,0,0,3.25,4.67c.16.11.2.14.2.44q0,22.14,0,44.29a5.1,5.1,0,0,0,.08,1.06,2,2,0,0,0,1.88,1.56,2.55,2.55,0,0,0,.4,0H84.3c2,0,2.71-.7,2.71-2.75V35c0-.3,0-.32.19-.42a8.2,8.2,0,0,0,3.6-6l.09-10.19Zm-82-.06c1.44-3.13,2.89-6.26,4.35-9.49a.59.59,0,0,1,.19,0q34.11,0,68.25,0c.09,0,.17,0,.21.12q2.16,4.69,4.33,9.39l1.25,2.73H5.51Zm67.42,7.1v7a4,4,0,0,1-8.07.13c0-1.57,0-3.15,0-4.72l0-2.36Zm-12.35,0v1.71c0,1.8,0,3.63,0,5.44a4,4,0,0,1-2.76,3.67,4,4,0,0,1-4.42-1.31A3.56,3.56,0,0,1,53.78,28v-7.2Zm-12.35,0v6.9a4.14,4.14,0,0,1-1.2,2.94,3.94,3.94,0,0,1-2.88,1.17,4,4,0,0,1-4-4.09V20.83ZM37.05,28.48C37,30.31,35,31.87,33,31.84a3.92,3.92,0,0,1-3.9-3.62C29,26.85,29,25.49,29,24.12V20.87h8.07c0,.59,0,1.16,0,1.75C37.12,24.55,37.14,26.55,37.05,28.48ZM24.76,20.85v1.63c0,1.85,0,3.69,0,5.53A4,4,0,0,1,17,29.4a2.93,2.93,0,0,1-.3-1.13c0-2.05,0-4.1,0-6.15V20.85ZM4.29,27.79c0-1.74,0-3.5,0-5.24v-1.7H12.4v6.9a4,4,0,0,1-4,4.09h0A4,4,0,0,1,4.29,27.79ZM55.22,77.57V46.32H72.54V77.57Zm27.5.05h-5.9V44.71c0-1.93-.73-2.68-2.64-2.68H53.56c-1.83,0-2.58.75-2.58,2.61v33H8.05V36.08a8.31,8.31,0,0,0,6.47-2.76,8.09,8.09,0,0,0,6.17,2.76,7.87,7.87,0,0,0,6.19-2.76,8.32,8.32,0,0,0,12.35,0,8.44,8.44,0,0,0,6.24,2.73,8.53,8.53,0,0,0,6.16-2.71,8.38,8.38,0,0,0,12.36,0,8.36,8.36,0,0,0,12.38,0,8.44,8.44,0,0,0,6.35,2.75ZM86.59,23c0,1.57,0,3.15,0,4.73a4.06,4.06,0,0,1-8.07.63,7.38,7.38,0,0,1,0-1l0-6.17,0-.35h8.12Z"/><path class="cls-1" d="M44.91,41.4H14c-1.74,0-2.52.78-2.52,2.52V68.53c0,1.77.78,2.57,2.57,2.57H45c1.84,0,2.61-.78,2.61-2.61V44C47.56,42.15,46.83,41.4,44.91,41.4Zm-1.63,4.28V66.81H15.77V45.68Z"/></g></g></svg>