<svg xmlns="http://www.w3.org/2000/svg" viewBox="0 0 47.75 47.75"><defs><style>.cls-1{fill:#e8932e;}</style></defs><title>bba-2</title><g id="Layer_2" data-name="Layer 2"><g id="Layer_1-2" data-name="Layer 1"><path class="cls-1" d="M40,47.75H7.76a2,2,0,0,0-.23-.06A8.52,8.52,0,0,1,.27,41.32C.16,40.88.09,40.44,0,40V7.76c0-.09.05-.18.07-.27A8.49,8.49,0,0,1,6.16.35C6.69.2,7.23.11,7.76,0H40a2.1,2.1,0,0,0,.24.06A8.52,8.52,0,0,1,47.42,6.2c.14.51.22,1,.33,1.56V40a2.61,2.61,0,0,0-.06.27,8.54,8.54,0,0,1-6.1,7.15C41.07,47.56,40.53,47.64,40,47.75ZM2.8,23.86c0,5.1,0,10.21,0,15.31A5.74,5.74,0,0,0,8.57,45H39.19A5.73,5.73,0,0,0,45,39.17q0-15.29,0-30.59a5.73,5.73,0,0,0-5.8-5.78H8.6a5.88,5.88,0,0,0-1.11.1A5.74,5.74,0,0,0,2.8,8.62Z"/><path class="cls-1" d="M18,22.47H28.3a.53.53,0,0,0,.56-.37,4.39,4.39,0,0,1,8,0,.48.48,0,0,0,.51.34c1,0,1.91,0,2.86,0a1.41,1.41,0,1,1,0,2.81c-.92,0-1.84,0-2.76,0a.58.58,0,0,0-.64.4,4.39,4.39,0,0,1-8,0,.59.59,0,0,0-.64-.4H7.78a3.82,3.82,0,0,1-.59,0,1.39,1.39,0,0,1,0-2.75,5.07,5.07,0,0,1,.55,0Zm14.91,3a1.59,1.59,0,1,0-1.59-1.6A1.59,1.59,0,0,0,32.86,25.46Z"/><path class="cls-1" d="M25.06,37.27a4.63,4.63,0,0,1-1.33,1.95,4.39,4.39,0,0,1-6.89-1.64.44.44,0,0,0-.48-.32q-4.45,0-8.92,0a1.39,1.39,0,0,1-1.31-2,1.36,1.36,0,0,1,1.35-.8h8.88c.24,0,.37,0,.47-.29a4.35,4.35,0,0,1,4-2.71,4.41,4.41,0,0,1,4.07,2.7l.13.3h15.2a1.4,1.4,0,0,1,.18,2.79H25.06Zm-2.59-1.42a1.59,1.59,0,1,0-1.58,1.61A1.6,1.6,0,0,0,22.47,35.85Z"/><path class="cls-1" d="M29.86,13.29H19.47a.51.51,0,0,0-.56.35,4.21,4.21,0,0,1-4.05,2.64,4.21,4.21,0,0,1-4-2.65.45.45,0,0,0-.5-.34c-1,0-1.91,0-2.87,0A1.4,1.4,0,0,1,6,11.91a1.38,1.38,0,0,1,1.48-1.42h3a.33.33,0,0,0,.36-.24A4.22,4.22,0,0,1,14.89,7.5,4.2,4.2,0,0,1,19,10.27c.1.22.23.22.41.22h20.9a1.4,1.4,0,1,1,0,2.8Zm-15,.2a1.6,1.6,0,1,0-1.6-1.6A1.62,1.62,0,0,0,14.89,13.49Z"/></g></g></svg>