<svg xmlns="http://www.w3.org/2000/svg" viewBox="0 0 60.53 57.35"><defs><style>.cls-1{fill:#e8932e;}</style></defs><title>bba-5</title><g id="Layer_2" data-name="Layer 2"><g id="Layer_1-2" data-name="Layer 1"><path class="cls-1" d="M47.77,0c1.1.36,1.32.78,1,1.93-.36,1.35-.72,2.7-1.09,4.05a1.19,1.19,0,1,1-2.28-.62c.37-1.43.77-2.84,1.13-4.27A1.42,1.42,0,0,1,47.68,0Z"/><path class="cls-1" d="M24,38.09c.41.71.81,1.39,1.2,2.08.77,1.33.67,1.71-.68,2.49L22,44.11l1.48,2.56c.68,1.18,1.38,2.36,2.06,3.56A4.73,4.73,0,1,1,17.31,55Q14.43,50,11.6,45.08c-.18-.33-.34-.37-.68-.25A8.27,8.27,0,0,1,.05,36.13a8.06,8.06,0,0,1,4.22-6.38l9.53-5.52a2.34,2.34,0,0,0,.63-.54q7.5-9.54,15-19.09c.23-.29.44-.6.69-.86a3.55,3.55,0,0,1,5.61.77Q37.75,8,39.77,11.56a.72.72,0,0,0,.82.43c1.28-.11,2.57-.15,3.85-.23a1.3,1.3,0,0,1,1.34.72c.72,1.27,1.45,2.54,2.2,3.79a1.35,1.35,0,0,1-.06,1.57c-.72,1.06-1.4,2.15-2.13,3.21a.69.69,0,0,0,0,.86c1.25,2.12,2.5,4.24,3.7,6.39a3.53,3.53,0,0,1-2.38,5.24c-4.17.82-8.34,1.61-12.5,2.42L24.15,38Zm5.64-30c-.08.13-.1.2-.15.26Q23,16.6,16.58,24.79a.39.39,0,0,0,0,.54q3,5.13,5.93,10.26a.4.4,0,0,0,.52.23l18.74-3.69c.5-.09,1-.2,1.53-.31ZM14.53,26.55C11.36,28.39,8.21,30.16,5.12,32a5.82,5.82,0,0,0-2.57,6.42,5.89,5.89,0,0,0,8.62,3.69c3-1.7,6-3.47,9-5.21l.23-.17Zm17.9-21.5a2.55,2.55,0,0,0-.69.42c-.6.61-.59.63-.16,1.37L40.38,22q2.59,4.47,5.18,9c.07.12.2.32.27.3.49-.07,1,0,1.4-.44a1.24,1.24,0,0,0,.06-1.58l-8.69-15L33.71,5.8A1.4,1.4,0,0,0,32.43,5.05Zm-19,38.51c.4.7.78,1.36,1.17,2q2.34,4.06,4.69,8.11A2.28,2.28,0,0,0,21.61,55a2.34,2.34,0,0,0,1.83-3.55c-1.91-3.35-3.86-6.68-5.79-10a1,1,0,0,0-.14-.17Zm30.72-24.4a2.86,2.86,0,0,0,.21-.29c.38-.57.77-1.15,1.14-1.74a.51.51,0,0,0,0-.38,16.81,16.81,0,0,1-.87-1.54,1.41,1.41,0,0,0-1.86-1,7.57,7.57,0,0,1-1.39.1ZM22.82,40.87l-1.18-2L19.6,40l1.18,2Z"/><path class="cls-1" d="M52.89,11.09a1.2,1.2,0,0,1-1.26-.86,1.12,1.12,0,0,1,.49-1.3c.44-.28.9-.52,1.35-.77l5.2-2.9a1.21,1.21,0,0,1,1.34,0,1.11,1.11,0,0,1,.51,1.1,1.1,1.1,0,0,1-.6.92l-6.56,3.65A2,2,0,0,1,52.89,11.09Z"/><path class="cls-1" d="M57.62,19.77l-1-.26c-1.22-.32-2.45-.64-3.67-1A1.19,1.19,0,0,1,52,17.21a1.18,1.18,0,0,1,1.47-1c1.54.39,3.08.81,4.61,1.23A1.15,1.15,0,0,1,59,18.8,1.21,1.21,0,0,1,57.62,19.77Z"/></g></g></svg>