<svg xmlns="http://www.w3.org/2000/svg" viewBox="0 0 52.36 45.87"><defs><style>.cls-1{fill:#e8932e;}</style></defs><title>bba-4</title><g id="Layer_2" data-name="Layer 2"><g id="Layer_1-2" data-name="Layer 1"><path class="cls-1" d="M52.36,5.85c-.08.26-.15.52-.23.77a5.1,5.1,0,0,1-8.29,2.26l-.31-.28c-1.76,1.25-3.51,2.49-5.25,3.74a.58.58,0,0,0-.09.46A5.1,5.1,0,0,1,34.1,19a5,5,0,0,1-4.33-1.22L28,19.25c-1.15,1-2.31,1.94-3.44,2.93a.8.8,0,0,0-.28.55,5.09,5.09,0,0,1-10,1.38.67.67,0,0,0-.44-.51c-1.16-.45-2.31-.93-3.46-1.4l-.3-.1a16.34,16.34,0,0,1-1.26,1.77,4.87,4.87,0,0,1-5.11,1.35A4.93,4.93,0,0,1,.1,21.36c0-.12-.07-.23-.1-.34V19.65c.08-.28.14-.56.23-.84a5.09,5.09,0,0,1,9.8.29.69.69,0,0,0,.46.54c1.27.5,2.54,1,3.83,1.55a5.13,5.13,0,0,1,9-1.23c1.05-.87,2.07-1.73,3.09-2.59.58-.49,1.17-1,1.74-1.49a.55.55,0,0,0,.15-.47,5.1,5.1,0,0,1,8.41-5.16l.1.08.29-.17C38.75,9,40.38,7.83,42,6.67a.49.49,0,0,0,.24-.59,5.08,5.08,0,0,1,4-6c.1,0,.2-.06.3-.09H48c.1,0,.19.07.29.09a5,5,0,0,1,3.88,3.52c.08.25.14.52.22.78Zm-5.12-3.4a2.66,2.66,0,1,0,0,5.31,2.66,2.66,0,0,0,0-5.31ZM2.45,20.37A2.67,2.67,0,0,0,5.1,23a2.7,2.7,0,0,0,2.65-2.66,2.65,2.65,0,1,0-5.3,0ZM16.5,22.86a2.65,2.65,0,1,0,2.73-2.59A2.63,2.63,0,0,0,16.5,22.86ZM33.21,11.31a2.66,2.66,0,0,0-2.66,2.62,2.69,2.69,0,0,0,2.67,2.68A2.66,2.66,0,0,0,35.85,14,2.62,2.62,0,0,0,33.21,11.31Z"/><path class="cls-1" d="M1.37,45.87a1.49,1.49,0,0,1-.92-1.56c0-4.4,0-8.8,0-13.2,0-1,.46-1.48,1.47-1.48H8.27a1.26,1.26,0,0,1,1.45,1.45c0,4.4,0,8.8,0,13.19a1.54,1.54,0,0,1-.87,1.6ZM7.26,43.4V32.1H2.94V43.4Z"/><path class="cls-1" d="M15.35,45.87a1.56,1.56,0,0,1-.89-1.59c0-3.51,0-7,0-10.54,0-1.12.43-1.55,1.54-1.55h6.26c1,0,1.48.46,1.48,1.48,0,3.54,0,7.09,0,10.63a1.52,1.52,0,0,1-.92,1.57Zm1.59-2.49h4.32V34.66H16.94Z"/><path class="cls-1" d="M42.63,30c0-4.73,0-9.47,0-14.2,0-1.16.41-1.57,1.56-1.57h6.26a1.27,1.27,0,0,1,1.44,1.46V44.3a1.27,1.27,0,0,1-1.45,1.46H44.09c-1,0-1.46-.46-1.46-1.49C42.62,39.52,42.63,34.77,42.63,30ZM49.41,43.4V16.75H45.09V43.4Z"/><path class="cls-1" d="M37.88,34.41c0,3.24,0,6.48,0,9.73,0,1.2-.41,1.62-1.61,1.62H30.1c-1,0-1.49-.46-1.49-1.51V24.52c0-1,.46-1.48,1.47-1.48h6.35a1.27,1.27,0,0,1,1.45,1.46C37.89,27.8,37.88,31.1,37.88,34.41ZM31.09,25.5V43.38H35.4V25.5Z"/></g></g></svg>