<svg xmlns="http://www.w3.org/2000/svg" viewBox="0 0 47.75 43.14"><defs><style>.cls-1{fill:#e8932e;}</style></defs><title>bba-3</title><g id="Layer_2" data-name="Layer 2"><g id="Layer_1-2" data-name="Layer 1"><path class="cls-1" d="M47.75,24.61c-.11.52-.19,1.05-.35,1.56A6.75,6.75,0,0,1,42.46,31a1.76,1.76,0,0,0-1.32,1,4.11,4.11,0,0,1-4.28,2.16,4.16,4.16,0,0,1-3.93-4.31c0-4,0-8.06,0-12.1a4.09,4.09,0,0,1,2.58-4c.2-.09.25-.18.22-.38A12.34,12.34,0,0,0,25.36,2.93a11.82,11.82,0,0,0-12,6.46A13.34,13.34,0,0,0,12,13.31a.38.38,0,0,0,.25.5,4,4,0,0,1,2.53,3.85q0,6.11,0,12.2a4.09,4.09,0,0,1-2.63,4l-.12.06L12,34a4.28,4.28,0,0,0,1,1.8,4.57,4.57,0,0,0,3.49,1.57.33.33,0,0,0,.35-.25A4.3,4.3,0,0,1,21,34.35c1.95,0,3.91,0,5.87,0a4.39,4.39,0,0,1,.56,8.74,2,2,0,0,0-.23.06H20.56l-.13,0a4.31,4.31,0,0,1-3.61-2.76c-.09-.2-.22-.2-.38-.2A7.33,7.33,0,0,1,9.22,34.3a.46.46,0,0,0-.34-.38A3.64,3.64,0,0,1,6.63,32a1.7,1.7,0,0,0-1.35-1A6.74,6.74,0,0,1,.36,26.16,15.87,15.87,0,0,1,0,24.61V23a.31.31,0,0,0,.05-.12,7.55,7.55,0,0,1,2.88-5.17.48.48,0,0,0,.14-.35c0-1,0-2,0-2.94,0-2.33,0-4.65,0-7a1.4,1.4,0,1,1,2.79,0c0,2.86,0,5.73,0,8.59v.41c.26.07.36,0,.45-.26a4.07,4.07,0,0,1,2.52-2.49.49.49,0,0,0,.37-.46A14.37,14.37,0,0,1,10.42,9,14.82,14.82,0,0,1,21,.32C21.77.15,22.57.1,23.35,0h1c.13,0,.25.05.38.06a13.34,13.34,0,0,1,5.7,1.59,15.32,15.32,0,0,1,8.05,11.56.53.53,0,0,0,.4.51,3.59,3.59,0,0,1,2.21,1.91,1.66,1.66,0,0,0,1.33,1,6.75,6.75,0,0,1,4.93,4.81A15.84,15.84,0,0,1,47.75,23ZM8.87,23.79v6a2.24,2.24,0,0,0,.06.58,1.53,1.53,0,0,0,1.88,1A1.37,1.37,0,0,0,12,29.92V17.69a1.65,1.65,0,0,0,0-.38c-.21-.78-.88-1.15-1.88-1a1.37,1.37,0,0,0-1.23,1.41C8.86,19.72,8.87,21.76,8.87,23.79Zm30,0c0-2,0-4,0-5.94a2.18,2.18,0,0,0-.06-.62c-.23-.75-.92-1.09-1.89-1a1.37,1.37,0,0,0-1.2,1.4c0,4.09,0,8.18,0,12.27a1.32,1.32,0,0,0,0,.34,1.51,1.51,0,0,0,1.83,1.06A1.36,1.36,0,0,0,38.88,30Q38.89,26.88,38.89,23.8Zm-15,13.34c-1,0-2,0-2.94,0a1.58,1.58,0,0,0-1.61,1.93,1.6,1.6,0,0,0,1.71,1.24h5.63a2.3,2.3,0,0,0,.69-.1,1.58,1.58,0,0,0-.55-3.07C25.85,37.13,24.87,37.14,23.9,37.14ZM6,28.27V19.35c-1.71.18-3.24,2.29-3.24,4.44S4.31,28.07,6,28.27Zm35.67-8.92v8.92C43.42,28.08,45,26,45,23.83S43.44,19.54,41.71,19.35Z"/></g></g></svg>