<svg xmlns="http://www.w3.org/2000/svg" viewBox="0 0 49.24 49.24"><defs><style>.cls-1{fill:#e8932e;}</style></defs><title>bba-1</title><g id="Layer_2" data-name="Layer 2"><g id="Layer_1-2" data-name="Layer 1"><path class="cls-1" d="M49.24,23.14v3c0,.13-.06.26-.07.4a24,24,0,0,1-2.3,8.64,24.59,24.59,0,0,1-10.34,11A23.71,23.71,0,0,1,28.22,49c-.7.1-1.41.18-2.11.27h-3c-.16,0-.32-.06-.48-.07a23.79,23.79,0,0,1-5.95-1.24A24.47,24.47,0,0,1,3.88,37.86,23.81,23.81,0,0,1,.18,27.54L0,26.18V23.07c0-.18.07-.36.09-.54a23.12,23.12,0,0,1,1.22-5.82A24.54,24.54,0,0,1,13.63,2.6a23.4,23.4,0,0,1,8-2.42c.47,0,.93-.12,1.4-.18h3.11l.4.08a23,23,0,0,1,5,.92A24.55,24.55,0,0,1,45.36,11.38,23.64,23.64,0,0,1,49,21C49.08,21.73,49.15,22.43,49.24,23.14ZM38.92,8.3a21.7,21.7,0,0,0-36,15A21.39,21.39,0,0,0,8.21,38.86l4.16-4.14H9.17A1.46,1.46,0,0,1,7.6,33.15v-17a1.68,1.68,0,0,1,0-.45A1.46,1.46,0,0,1,9.2,14.52h23A1,1,0,0,0,33,14.2q1.64-1.66,3.29-3.3ZM10.33,40.94a21.69,21.69,0,0,0,36-15A21.46,21.46,0,0,0,41,10.37l-4.15,4.15h3.19a1.46,1.46,0,0,1,1.58,1.57q0,8.54,0,17.06a2.17,2.17,0,0,1,0,.44A1.47,1.47,0,0,1,40,34.72H17a.93.93,0,0,0-.72.3c-1.1,1.12-2.21,2.22-3.32,3.33Zm22.79-22.8c-.55.56-1.06,1.07-1.54,1.58a.37.37,0,0,0,0,.31,10.3,10.3,0,0,1,1,3.61A10.13,10.13,0,0,1,30,31.54l-.25.3c1.05,0,2,0,3,0,.09,0,.21-.14.24-.25a7.37,7.37,0,0,1,5.49-5.49c.24-.06.28-.16.28-.37,0-.73,0-1.45,0-2.18,0-.25-.08-.32-.31-.38a7.22,7.22,0,0,1-3.35-1.83A7.61,7.61,0,0,1,33.12,18.14Zm-13.59-.73c-1.08,0-2.06,0-3,0-.09,0-.22.15-.25.25a7.35,7.35,0,0,1-5.49,5.49c-.21.06-.28.13-.28.34,0,.75,0,1.5,0,2.24,0,.22.07.29.28.34a7.31,7.31,0,0,1,5.12,4.39c.08.18.15.37.23.55l.09,0,1.35-1.34a.36.36,0,0,0,.09-.5,10.63,10.63,0,0,1,0-9A9,9,0,0,1,19.53,17.41Zm.41,9.73,7.71-7.72c-.09-.07-.21-.19-.34-.29a4.19,4.19,0,0,0-5.87.45,7.07,7.07,0,0,0-1.9,4.54A7.5,7.5,0,0,0,19.94,27.14Zm9.4-5L29.21,22l-7.7,7.68a4.19,4.19,0,0,0,6.31-.07C29.83,27.44,30.07,24.86,29.34,22.11Zm-16-4.68H10.51v2.81A4.63,4.63,0,0,0,13.32,17.43Zm25.42,0H36a4.11,4.11,0,0,0,2.76,2.75ZM10.5,29.05v2.76h2.76A4.19,4.19,0,0,0,10.5,29.05Zm28.24,0c-1.2.28-2.71,1.82-2.74,2.77h2.74Z"/></g></g></svg>