<svg xmlns="http://www.w3.org/2000/svg" viewBox="0 0 83.26 72.44"><defs><style>.cls-1{fill:#e8932e;}</style></defs><title>bbi-3</title><g id="Layer_2" data-name="Layer 2"><g id="Layer_1-2" data-name="Layer 1"><path class="cls-1" d="M63.4,16.35a8.55,8.55,0,0,1-.77,1,2.65,2.65,0,0,1-2.47.62l-6.51-1.33-7-1.42a2.72,2.72,0,0,1-2.3-3.49Q45.23,7,46.19,2.39A2.72,2.72,0,0,1,49.68.08c.57.11,1.14.22,1.7.35a.93.93,0,0,1,.81,1.08,1,1,0,0,1-1.2.71c-.6-.11-1.19-.24-1.79-.36a.89.89,0,0,0-1.19.8q-1,4.77-1.93,9.56a.86.86,0,0,0,.76,1.17l13.73,2.78a.87.87,0,0,0,1.14-.75q1-4.81,2-9.65c.12-.63-.16-1-.86-1.15L54.87,3c-.65-.13-1-.53-.9-1.06a.86.86,0,0,1,1-.78c.36,0,.72.13,1.08.2l6.73,1.36c1.9.39,2.46,1,2.81,2.84Z"/><path class="cls-1" d="M51.82,8.38c.15-.74.28-1.47.45-2.2a1.44,1.44,0,0,1,2.41-.83q1.74,1.47,3.42,3a1.45,1.45,0,0,1-.49,2.49c-1.45.51-2.91,1-4.38,1.46a1.43,1.43,0,0,1-1.86-1.7C51.5,9.87,51.67,9.13,51.82,8.38ZM54,7.16l-.65,3.21,3.1-1Z"/><path class="cls-1" d="M66.88,63.14c.67,0,1.24-.06,1.82-.11a1.23,1.23,0,0,1,1,.36,6.86,6.86,0,0,0,7.8,1.27.93.93,0,0,1,1.36.38.94.94,0,0,1-.6,1.29,8.62,8.62,0,0,1-9.32-1.16,1.11,1.11,0,0,0-.83-.27c-.86.08-1.73.12-2.6.17a.92.92,0,0,1-.93-1.42c.43-.89.88-1.77,1.3-2.67a1,1,0,0,0,.08-.6,8.76,8.76,0,1,1,17.1-.09,8.54,8.54,0,0,1-1.36,3.12.94.94,0,0,1-1.4.37c-.45-.32-.49-.85-.11-1.42a6.92,6.92,0,1,0-12.37-2.22,1.75,1.75,0,0,1-.16,1.43C67.38,62,67.16,62.55,66.88,63.14Z"/><path class="cls-1" d="M78.08,57.93a1.93,1.93,0,0,1-.85,1.25c-1,.69-2,1.38-3.09,2a2,2,0,0,1-2.79-.55,6.52,6.52,0,0,1-.42-.65.91.91,0,0,1,1.52-1l.08.12c.46.65.46.65,1.15.2s1.55-1,2.33-1.54c.3-.19.33-.35.12-.62a2.3,2.3,0,0,1-.33-.54.86.86,0,0,1,.28-1.07.84.84,0,0,1,1.1,0A2.55,2.55,0,0,1,78.08,57.93Z"/><path class="cls-1" d="M65.57,42.87c-2-.41-4-.81-6.06-1.23a2.4,2.4,0,0,1-2-3.06Q58.71,32.51,60,26.42a2.42,2.42,0,0,1,3.07-2l12.12,2.45a2.46,2.46,0,0,1,2,3.1Q76,36,74.74,42.07a2.44,2.44,0,0,1-3.07,2Zm.37-1.8,6,1.21c.73.15.92,0,1.07-.72l2.4-11.85c.14-.73,0-.94-.71-1.08L62.77,26.22c-.71-.14-.91,0-1.05.69q-1.2,6-2.41,11.93c-.14.7,0,.89.66,1Z"/><path class="cls-1" d="M66.25,39.66a4.12,4.12,0,0,1,1.61-8.08,4.12,4.12,0,1,1-1.61,8.08Zm.36-1.8a2.27,2.27,0,1,0-1.79-2.66A2.28,2.28,0,0,0,66.61,37.86Z"/><path class="cls-1" d="M73.32,31.18l-.06.31a.91.91,0,0,1-1.07.76.92.92,0,0,1-.73-1.13c0-.24.08-.48.14-.71a.93.93,0,0,1,1.09-.74.91.91,0,0,1,.71,1.1C73.38,30.91,73.35,31,73.32,31.18Z"/><path class="cls-1" d="M23.59,53.85c.27.78.52,1.53.77,2.29.5,1.47.32,1.83-1.17,2.32l-2.76.93.95,2.82c.44,1.31.89,2.61,1.32,3.93a4.76,4.76,0,1,1-9,3c-1.24-3.62-2.45-7.25-3.66-10.89-.12-.36-.26-.43-.63-.39a8.31,8.31,0,0,1-9-10.74,8.15,8.15,0,0,1,5.44-5.47c3.5-1.18,7-2.35,10.51-3.54a2.14,2.14,0,0,0,.72-.41q9.3-7.9,18.59-15.84c.29-.24.55-.5.86-.71a3.57,3.57,0,0,1,5.37,1.88q1.34,3.87,2.61,7.77a.73.73,0,0,0,.73.59c1.28.15,2.56.37,3.84.54a1.31,1.31,0,0,1,1.18,1c.46,1.4.93,2.79,1.41,4.18a1.36,1.36,0,0,1-.37,1.54c-.92.9-1.81,1.84-2.74,2.73a.7.7,0,0,0-.21.85c.81,2.34,1.61,4.68,2.37,7A3.55,3.55,0,0,1,47.31,54c-4.27,0-8.54-.07-12.82-.1l-10.68-.06A1.51,1.51,0,0,0,23.59,53.85ZM35.14,25.41a1.9,1.9,0,0,1-.2.23q-8,6.81-16,13.61a.41.41,0,0,0-.12.53q1.92,5.65,3.81,11.31c.08.26.19.33.47.34q9.61,0,19.22.1h1.58ZM16.6,40.58c-3.49,1.18-7,2.3-10.38,3.52a5.85,5.85,0,0,0-3.81,5.82,5.93,5.93,0,0,0,7.76,5.37c3.34-1.08,6.65-2.23,10-3.35a2.41,2.41,0,0,0,.25-.11ZM38.56,23a2.37,2.37,0,0,0-.77.27c-.71.48-.7.5-.43,1.31Q40.2,32.92,43,41.29q1.66,4.93,3.32,9.88c.05.13.13.35.21.36.49,0,1,.18,1.47-.16a1.26,1.26,0,0,0,.37-1.56q-2.79-8.27-5.57-16.54-1.58-4.67-3.14-9.33A1.38,1.38,0,0,0,38.56,23ZM12.14,57.16c.26.76.51,1.49.75,2.22q1.52,4.47,3,8.94a2.31,2.31,0,0,0,2,1.71,2.36,2.36,0,0,0,2.51-3.14c-1.22-3.69-2.47-7.36-3.71-11l-.11-.19ZM47.33,39.21,47.6,39c.49-.49,1-1,1.47-1.49a.47.47,0,0,0,0-.39,16.6,16.6,0,0,1-.54-1.69,1.4,1.4,0,0,0-1.64-1.34,8,8,0,0,1-1.39-.18ZM21.92,56.37l-.76-2.25-2.25.76.76,2.24Z"/></g></g></svg>