<svg xmlns="http://www.w3.org/2000/svg" viewBox="0 0 42.54 42.54"><defs><style>.cls-1{fill:#e8932e;}</style></defs><title>bbi-5</title><g id="Layer_2" data-name="Layer 2"><g id="Layer_1-2" data-name="Layer 1"><path class="cls-1" d="M42.54,17.71V32.06a1.57,1.57,0,0,0-.11.35,11.78,11.78,0,0,1-9,9.85l-1.32.28H10.48a1.57,1.57,0,0,0-.35-.11,11.78,11.78,0,0,1-9.85-9c-.1-.44-.19-.88-.28-1.32V10.48a2.35,2.35,0,0,0,.11-.35,11.78,11.78,0,0,1,9-9.85L10.48,0H25.07L26,.19A11.7,11.7,0,0,1,35.6,11.8c0,.66,0,1.32,0,2,.91.07,1.77.08,2.6.21,1.79.27,3.32,1,4,2.79C42.35,17.09,42.44,17.4,42.54,17.71ZM2.66,21.27c0,3.09,0,6.19,0,9.29a10.54,10.54,0,0,0,.16,1.86A9.07,9.07,0,0,0,12,39.89q9.27,0,18.52,0A10.76,10.76,0,0,0,33,39.59a9.07,9.07,0,0,0,6.89-9c0-3.86,0-7.73,0-11.6a5.4,5.4,0,0,0,0-.56,1.68,1.68,0,0,0-1.42-1.66,22.43,22.43,0,0,0-2.59-.22c-.52,0-1.05,0-1.56,0-1-.11-1.35-.5-1.36-1.5s0-2.17,0-3.24a9.05,9.05,0,0,0-9.38-9.1c-3.86,0-7.73,0-11.6,0A9.08,9.08,0,0,0,2.66,12C2.65,15.07,2.66,18.17,2.66,21.27Z"/><path class="cls-1" d="M21.27,24.28h7c3.5,0,4.59,3.59,3.37,5.91a3.51,3.51,0,0,1-3.31,1.94c-4.7,0-9.39,0-14.09,0a3.63,3.63,0,0,1-3.75-3.36A3.79,3.79,0,0,1,13.3,24.4a6.19,6.19,0,0,1,1.43-.12c2.18,0,4.36,0,6.54,0Zm-.07,5.18h6.86a1.21,1.21,0,0,0,1.27-.7A1.23,1.23,0,0,0,28.16,27c-2.18,0-4.36,0-6.55,0H14.45a1.26,1.26,0,1,0,0,2.52Z"/><path class="cls-1" d="M17.79,18.24c-1.26,0-2.53.05-3.8,0a3.65,3.65,0,0,1-3.55-3.75,3.59,3.59,0,0,1,3.32-4c2.7-.13,5.4,0,8.1,0l.18,0a3.77,3.77,0,0,1,3.14,4,3.68,3.68,0,0,1-3.34,3.77c-1.34.08-2.7,0-4.05,0Zm0-2.64h3.36a1.25,1.25,0,0,0,1.38-1.26,1.23,1.23,0,0,0-1.38-1.26H14.44a1.19,1.19,0,0,0-1.36,1.26,1.2,1.2,0,0,0,1.36,1.26Z"/></g></g></svg>