<svg xmlns="http://www.w3.org/2000/svg" viewBox="0 0 70.1 55.77"><defs><style>.cls-1{fill:#e8932e;}</style></defs><title>bbi-6</title><g id="Layer_2" data-name="Layer 2"><g id="Layer_1-2" data-name="Layer 1"><path class="cls-1" d="M57.79.14c1.09.6,1.24,1.09.7,2.24-.65,1.36-1.29,2.72-1.94,4.07a1.27,1.27,0,0,1-1.7.75,1.29,1.29,0,0,1-.59-1.85c.67-1.43,1.36-2.85,2-4.29A1.52,1.52,0,0,1,57.69.13Z"/><path class="cls-1" d="M25.26,35.81c.3.83.59,1.63.87,2.43.56,1.56.37,1.94-1.2,2.51l-2.92,1c.36,1,.71,2,1.07,3,.49,1.39,1,2.77,1.49,4.17A5.09,5.09,0,1,1,15,52.37q-2.09-5.76-4.13-11.55c-.13-.38-.29-.46-.67-.4A8.88,8.88,0,0,1,.38,29.14,8.67,8.67,0,0,1,6.07,23.2l11.14-4a2.48,2.48,0,0,0,.77-.45L37.49,1.46a9.27,9.27,0,0,1,.89-.77,3.81,3.81,0,0,1,5.78,1.89q1.5,4.11,2.94,8.24a.8.8,0,0,0,.79.62c1.37.13,2.74.34,4.11.49a1.39,1.39,0,0,1,1.28,1c.52,1.48,1,2.95,1.59,4.43A1.43,1.43,0,0,1,54.51,19c-1,1-1.9,2-2.87,3a.73.73,0,0,0-.21.9c.91,2.49,1.82,5,2.68,7.47a3.8,3.8,0,0,1-3.53,5.08c-4.56.06-9.12.1-13.68.15l-11.41.16A1.85,1.85,0,0,0,25.26,35.81ZM37,5.23a3,3,0,0,1-.2.25Q28.42,12.91,20,20.33a.44.44,0,0,0-.11.57q2.16,6,4.29,12a.45.45,0,0,0,.51.35c6.84-.11,13.68-.19,20.52-.29.54,0,1.09,0,1.68,0ZM17.53,21.8c-3.71,1.33-7.37,2.6-11,4a6.23,6.23,0,0,0-3.94,6.29A6.33,6.33,0,0,0,11,37.62c3.54-1.22,7-2.51,10.57-3.77l.26-.13ZM40.6,2.53a2.63,2.63,0,0,0-.81.3c-.76.53-.74.55-.43,1.42L45.72,22c1.25,3.49,2.5,7,3.76,10.47.05.15.14.38.22.38.53,0,1.08.17,1.57-.19A1.34,1.34,0,0,0,51.63,31q-3.14-8.78-6.28-17.54c-1.18-3.3-2.37-6.59-3.54-9.89A1.48,1.48,0,0,0,40.6,2.53ZM13.12,39.58,14,41.94l3.39,9.47a2.44,2.44,0,0,0,2.19,1.78,2.51,2.51,0,0,0,2.62-3.39C20.78,45.89,19.37,42,18,38.08c0-.06-.08-.12-.12-.2ZM50.3,19.71l.28-.27c.51-.53,1-1.06,1.53-1.62a.48.48,0,0,0,0-.41,17.17,17.17,0,0,1-.61-1.79,1.52,1.52,0,0,0-1.78-1.41,7.35,7.35,0,0,1-1.49-.16ZM23.53,38.54l-.86-2.38L20.29,37l.86,2.38Z"/><path class="cls-1" d="M61.07,12.85a1.29,1.29,0,0,1-1.18-1.15,1.22,1.22,0,0,1,.78-1.28c.51-.2,1-.37,1.57-.55L68.3,7.81a1.29,1.29,0,0,1,1.41.25,1.23,1.23,0,0,1,.34,1.27,1.19,1.19,0,0,1-.82.85l-7.64,2.6A2,2,0,0,1,61.07,12.85Z"/><path class="cls-1" d="M64.39,22.94l-1-.46c-1.23-.58-2.46-1.15-3.69-1.75a1.27,1.27,0,1,1,1-2.32c1.55.71,3.1,1.45,4.63,2.19A1.24,1.24,0,0,1,66,22.18,1.29,1.29,0,0,1,64.39,22.94Z"/></g></g></svg>