<svg xmlns="http://www.w3.org/2000/svg" viewBox="0 0 45.84 45.88"><defs><style>.cls-1{fill:#e8932e;}</style></defs><title>bbi-2</title><g id="Layer_2" data-name="Layer 2"><g id="Layer_1-2" data-name="Layer 1"><path class="cls-1" d="M36.24,4.31c.07-.35.12-.64.17-.93a1.54,1.54,0,1,1,3,.57l-.69,3.51a3.45,3.45,0,0,0,0,.38,3.08,3.08,0,0,0,.52,0c1.14,0,2.29-.08,3.43-.1a1.52,1.52,0,0,1,1.59,1.85,1.48,1.48,0,0,1-1.41,1.2c-1.48.07-3,.14-4.44.18a2,2,0,0,0-1.4.58Q30.35,18,23.66,24.46a1.55,1.55,0,0,1-1.74.43,1.44,1.44,0,0,1-1-1.27,1.57,1.57,0,0,1,.53-1.32l4.28-4.16.29-.31a6,6,0,0,0-7.09.5,6.11,6.11,0,1,0,9.8,6.3c.06-.21.1-.43.18-.64a1.57,1.57,0,0,1,1.79-.94,1.45,1.45,0,0,1,1.18,1.52,6.07,6.07,0,0,1-.31,1.34,9.16,9.16,0,0,1-17.74-1.53,8.75,8.75,0,0,1,4.18-9.12,8.82,8.82,0,0,1,10,.15l.26.17.31-.27C30.79,13.24,32.9,11.16,35,9.1a1.85,1.85,0,0,0,.56-1.22.51.51,0,0,0-.21-.37,18.62,18.62,0,0,0-9.82-4.22c-8.51-.91-15.2,2.26-19.76,9.49A19.81,19.81,0,0,0,9.15,37.49,19.56,19.56,0,0,0,24.9,42.87,19.9,19.9,0,0,0,42.43,26.93a20.11,20.11,0,0,0-.28-9,2.8,2.8,0,0,1-.06-1.22,1.5,1.5,0,0,1,2.89.07,31.28,31.28,0,0,1,.75,3.93A22.25,22.25,0,0,1,40,38.21a22.15,22.15,0,0,1-18.58,7.62A22.9,22.9,0,0,1,15.3,1.37,22.34,22.34,0,0,1,35.8,4Z"/></g></g></svg>