<svg xmlns="http://www.w3.org/2000/svg" viewBox="0 0 52.27 47.1"><defs><style>.cls-1{fill:#e8932e;}</style></defs><title>bbi-1</title><g id="Layer_2" data-name="Layer 2"><g id="Layer_1-2" data-name="Layer 1"><path class="cls-1" d="M51.08,7.94c-1-2.15-2-4.38-3-6.58A2,2,0,0,0,46,0h0C39.6,0,33,0,25.71,0H6.05a1.69,1.69,0,0,0-1.71,1.1Q2.77,4.57,1.16,8L.08,10.33,0,10.46v5.78l.05.34c0,.2.08.39.13.59a4.56,4.56,0,0,0,1.87,2.69c.09.06.11.08.11.25q0,12.74,0,25.47a2.68,2.68,0,0,0,0,.61,1.14,1.14,0,0,0,1.08.9H48.48c1.17,0,1.56-.4,1.56-1.58V20.15c0-.17,0-.18.11-.24a4.71,4.71,0,0,0,2.07-3.44l.05-5.86ZM3.9,7.91c.83-1.8,1.66-3.6,2.5-5.46h.11q19.62,0,39.25,0c.05,0,.1,0,.12.07l2.49,5.4.72,1.57H3.17ZM42.67,12v4a2.32,2.32,0,0,1-4.64.07c0-.9,0-1.81,0-2.71V12Zm-7.1,0v1c0,1,0,2.09,0,3.13A2.27,2.27,0,0,1,34,18.2a2.31,2.31,0,0,1-2.54-.75,2,2,0,0,1-.5-1.33V12Zm-7.1,0v4a2.42,2.42,0,0,1-.69,1.69,2.29,2.29,0,0,1-1.66.67A2.32,2.32,0,0,1,23.8,16V12Zm-7.16,4.4A2.28,2.28,0,0,1,19,18.31a2.25,2.25,0,0,1-2.24-2.08c0-.79,0-1.57,0-2.36V12h4.64c0,.34,0,.67,0,1C21.35,14.12,21.36,15.27,21.31,16.38ZM14.24,12v.94c0,1.06,0,2.12,0,3.18a2.29,2.29,0,0,1-1.91,2.17,2.32,2.32,0,0,1-2.54-1.37,1.79,1.79,0,0,1-.17-.65c0-1.18,0-2.36,0-3.54V12ZM2.47,16c0-1,0-2,0-3V12H7.13v4a2.32,2.32,0,0,1-2.32,2.35h0A2.32,2.32,0,0,1,2.47,16ZM31.76,44.61v-18h10v18Zm15.81,0H44.18V25.71c0-1.11-.42-1.54-1.52-1.54H30.8c-1.05,0-1.48.43-1.48,1.5v19H4.63V20.75a4.77,4.77,0,0,0,3.72-1.59,4.64,4.64,0,0,0,3.55,1.59,4.52,4.52,0,0,0,3.56-1.59,4.78,4.78,0,0,0,7.1,0,4.84,4.84,0,0,0,7.13,0,4.92,4.92,0,0,0,3.56,1.56,4.87,4.87,0,0,0,3.55-1.57,4.81,4.81,0,0,0,7.12,0,4.85,4.85,0,0,0,3.65,1.58ZM49.8,13.25c0,.9,0,1.81,0,2.72a2.33,2.33,0,0,1-4.64.36,4,4,0,0,1,0-.6V12H49.8Z"/><path class="cls-1" d="M25.83,23.81H8.07c-1,0-1.45.45-1.45,1.45V39.41c0,1,.45,1.48,1.48,1.48H25.85c1.06,0,1.5-.45,1.5-1.5V25.32C27.35,24.24,26.93,23.81,25.83,23.81Zm-.94,2.46V38.42H9.07V26.27Z"/></g></g></svg>