<svg xmlns="http://www.w3.org/2000/svg" viewBox="0 0 51.79 51.03"><defs><style>.cls-1{fill:#e8932e;}</style></defs><title>bbi-4</title><g id="Layer_2" data-name="Layer 2"><g id="Layer_1-2" data-name="Layer 1"><path class="cls-1" d="M26.39,0a4.24,4.24,0,0,1,2.93,2.64c1.46,3.08,3,6.12,4.51,9.19a1.34,1.34,0,0,0,1.14.81c3.57.49,7.14,1,10.7,1.53a3.44,3.44,0,0,1,1.92,6c-2.59,2.52-5.16,5.05-7.75,7.55A1.29,1.29,0,0,0,39.41,29c.61,3.51,1.2,7,1.82,10.53.44,2.44-1.12,4.47-3.42,4.35a4.64,4.64,0,0,1-1.76-.55q-4.75-2.43-9.46-5a1.34,1.34,0,0,0-1.39,0q-4.83,2.57-9.68,5.09a3.35,3.35,0,0,1-4.92-2.08,7,7,0,0,1,.08-2.53c.53-3.27,1.11-6.53,1.69-9.78a1.41,1.41,0,0,0-.47-1.39c-2.57-2.47-5.1-5-7.66-7.45a3.39,3.39,0,0,1-1-3.74,3.43,3.43,0,0,1,3-2.34c3.56-.5,7.13-1,10.7-1.53a1.17,1.17,0,0,0,1-.73C19.43,8.8,21,5.74,22.46,2.64A4.26,4.26,0,0,1,25.39,0Zm-.48,35.24a13.73,13.73,0,0,1,1.78.64c3.22,1.66,6.42,3.36,9.63,5a1.13,1.13,0,0,0,1,.09,1.12,1.12,0,0,0,.25-.92c-.58-3.53-1.17-7.06-1.8-10.59a3.78,3.78,0,0,1,1.16-3.67c2.61-2.5,5.18-5,7.74-7.56.21-.2.43-.63.34-.83a1.16,1.16,0,0,0-.8-.53q-5.4-.83-10.81-1.59a3.6,3.6,0,0,1-2.92-2.15c-1.57-3.22-3.17-6.43-4.75-9.64-.17-.35-.33-.83-.8-.71a1.33,1.33,0,0,0-.75.71C23.5,6.74,21.9,10,20.3,13.24a3.48,3.48,0,0,1-2.78,2q-5.41.77-10.81,1.6c-.33.05-.8.27-.87.51s.17.69.4.92c2.57,2.54,5.14,5.06,7.74,7.56a3.7,3.7,0,0,1,1.1,3.53q-.93,5.28-1.8,10.58a1.2,1.2,0,0,0,.22,1,1.24,1.24,0,0,0,1-.09c3.2-1.66,6.38-3.35,9.58-5A13.57,13.57,0,0,1,25.91,35.24Z"/><path class="cls-1" d="M25.52,51a1.75,1.75,0,0,1-1-1.88c0-.64,0-1.29,0-1.94a1.37,1.37,0,1,1,2.73,0c0,.79,0,1.58,0,2.37a1.63,1.63,0,0,1-1,1.44Z"/><path class="cls-1" d="M0,31.52a2,2,0,0,1,1.44-1.14c.58-.15,1.14-.38,1.72-.56A1.38,1.38,0,0,1,5,30.65a1.36,1.36,0,0,1-1,1.77L2.24,33c-1.18.38-1.65.2-2.24-.86Z"/><path class="cls-1" d="M51.79,32.15c-.59,1.06-1.06,1.24-2.25.86-.63-.2-1.26-.4-1.88-.62a1.34,1.34,0,0,1-.92-1.67,1.32,1.32,0,0,1,1.71-.94,16.6,16.6,0,0,1,2.41.8c.37.17.62.62.93.94Z"/><path class="cls-1" d="M12.21,6.57a5.4,5.4,0,0,1-1.09-.74,23.89,23.89,0,0,1-1.47-2,1.34,1.34,0,0,1,.27-1.89,1.34,1.34,0,0,1,1.93.28c.51.66,1,1.34,1.46,2a1.2,1.2,0,0,1,0,1.46A6.07,6.07,0,0,1,12.21,6.57Z"/><path class="cls-1" d="M38.23,5a7.3,7.3,0,0,1,2.35-3.29,1.28,1.28,0,0,1,1.47.38,1.22,1.22,0,0,1,.17,1.55c-.51.78-1.06,1.54-1.64,2.27a1.22,1.22,0,0,1-1.53.32A1.27,1.27,0,0,1,38.23,5Z"/></g></g></svg>