<svg xmlns="http://www.w3.org/2000/svg" viewBox="0 0 145.42 53.39"><title>code</title><g id="Layer_2" data-name="Layer 2"><g id="Layer_1-2" data-name="Layer 1"><path d="M9.11,33.49V8H0V2.8H24.39V8H15.3v25.5Z"/><path d="M29.52,36.29a6.57,6.57,0,0,1-4.35-6.35,7.4,7.4,0,0,1,2.39-5.67Q30,22,34.38,22a9.64,9.64,0,0,1,6.79,2.24,7.39,7.39,0,0,1,2.42,5.67,6.68,6.68,0,0,1-1.11,3.8,7.06,7.06,0,0,1-3.12,2.55,8.18,8.18,0,0,1,3.88,3,7.9,7.9,0,0,1,1.33,4.54,9.23,9.23,0,0,1-2.71,6.91,9.83,9.83,0,0,1-7.21,2.66,10.88,10.88,0,0,1-7-2.2,8.57,8.57,0,0,1-3.29-7.11,8.75,8.75,0,0,1,1.24-4.58A7.91,7.91,0,0,1,29.52,36.29Zm.67,7.22a5.41,5.41,0,0,0,1.25,3.79,4,4,0,0,0,3.1,1.36,3.91,3.91,0,0,0,3-1.31,5.39,5.39,0,0,0,1.19-3.78,4.88,4.88,0,0,0-1.21-3.46,4,4,0,0,0-3.08-1.31,3.65,3.65,0,0,0-3.21,1.49A5.4,5.4,0,0,0,30.19,43.51Zm.54-13.15a3.69,3.69,0,0,0,1,2.74,3.59,3.59,0,0,0,2.65,1,3.63,3.63,0,0,0,2.68-1,3.69,3.69,0,0,0,1-2.75,3.41,3.41,0,0,0-3.62-3.64,3.65,3.65,0,0,0-2.7,1A3.6,3.6,0,0,0,30.73,30.36Z"/><path d="M59,30.8l3.78-4.3a4.18,4.18,0,0,0,2.54,1.17,3.25,3.25,0,0,0,2.28-1,3.77,3.77,0,0,0,1.16-3.33q-.18-2.1-3.48-6.23a7,7,0,0,1-2.36,5.64A8.26,8.26,0,0,1,56.43,25a10.13,10.13,0,0,1-6.84-3.6,10.35,10.35,0,0,1-3-7.43,9.39,9.39,0,0,1,3.29-6.87,9.5,9.5,0,0,1,8.09-2.5q4.65.65,10.22,6.75t5.89,11.07a10.09,10.09,0,0,1-3.48,8.23A8.59,8.59,0,0,1,65,33.11,9.2,9.2,0,0,1,59,30.8Zm1.17-18.47a6.76,6.76,0,0,0-4-2.38,3.87,3.87,0,0,0-3.29.88,3.41,3.41,0,0,0-1.14,2.78,6.61,6.61,0,0,0,2.05,3.84,6.72,6.72,0,0,0,3.81,2.44A3.76,3.76,0,0,0,62,16,5.88,5.88,0,0,0,60.18,12.33Z"/><path d="M91,15.38l4.56,4.2L84.32,31.8A34.12,34.12,0,0,0,81,35.73a4.94,4.94,0,0,0-.66,3.51,6.61,6.61,0,0,0,2.23,3.61,6.25,6.25,0,0,0,3.66,1.9,4.23,4.23,0,0,0,3-.85A34.24,34.24,0,0,0,93,40.25l11.51-12.48L109,32,98.1,43.82a40.69,40.69,0,0,1-5.66,5.4,8.68,8.68,0,0,1-4,1.58,9.42,9.42,0,0,1-4.35-.61,15.81,15.81,0,0,1-5-3.32,16.94,16.94,0,0,1-4.21-5.26,9.46,9.46,0,0,1-.85-4.38,8.52,8.52,0,0,1,1-3.68,37.7,37.7,0,0,1,4.84-6.13Z"/><path d="M122.9,36.28l-17.74-25L115.8,3.7A22.34,22.34,0,0,1,122.12.24a7,7,0,0,1,4.61.34,8.84,8.84,0,0,1,3.89,3.17,8.19,8.19,0,0,1,1.64,5.83A9.73,9.73,0,0,1,129,15.4a14.6,14.6,0,0,1,4.19.19,34.36,34.36,0,0,1,5.76,2l6.52,2.72-6,4.29-7.51-2.86a43.67,43.67,0,0,0-5.28-1.8,4.88,4.88,0,0,0-2.26,0,10.34,10.34,0,0,0-2.74,1.52l-1,.73L128,32.7Zm-5.18-18,3.74-2.65a23.8,23.8,0,0,0,4.33-3.53,3.34,3.34,0,0,0,.67-2.06,4,4,0,0,0-.82-2.24,3.69,3.69,0,0,0-2.12-1.57,3.75,3.75,0,0,0-2.6.37c-.45.23-1.7,1.08-3.75,2.53l-4,2.79Z"/></g></g></svg>