<svg id="Layer_1" data-name="Layer 1" xmlns="http://www.w3.org/2000/svg" viewBox="0 0 135.89 142.62"><defs><style>.cls-1{fill:#ea952e;}.cls-2{fill:#1a233a;}</style></defs><title>ايقونات الهدير</title><polygon class="cls-1" points="25.26 65.63 18.58 71.02 26.83 82.47 35.46 76.57 42.86 83.19 51.59 71.02 46.17 65.74 35.46 75.61 25.26 65.63"/><polygon class="cls-1" points="81.15 56.96 74.23 61.64 85.55 75.44 94.33 68.8 103.88 75.97 115.16 62.79 108.89 56.01 94.33 67.75 81.15 56.96"/><path class="cls-2" d="M0,88.78V83.51a1.41,1.41,0,0,0,.22-.34c.92-4.76,3.83-8,8.4-9.85,2.51-1,5.05-2,7.53-3.17a10.55,10.55,0,0,0,2.58-1.69c1.54-1.33,2.9-2.85,4.48-4.13a2.53,2.53,0,0,0,.07-4.08,18.79,18.79,0,0,1-7.19-9.47c-.53-1.63-.89-3.16-3.13-3.12a1.82,1.82,0,0,1-.77-.37c-3.41-1.94-4-7.48-1.16-10.38a2.21,2.21,0,0,0,.6-1.62c-1.58-9.42,1.73-16.87,9.69-22.48a2.5,2.5,0,0,0,1.15-1.91,11.84,11.84,0,0,1,4.81-8.07C29.39,1.22,31.9.62,34.41,0h2.31c.36.1.72.23,1.09.3,5.85,1.14,10.27,5.42,10.74,10.55a2.46,2.46,0,0,0,1.23,2c7.85,5.62,11.22,13,9.61,22.39a2,2,0,0,0,.47,1.55,7.49,7.49,0,0,1,.91,8.65,5,5,0,0,1-4,2.5c-1,.06-1.17.47-1.36,1.23A18.38,18.38,0,0,1,48.3,59.78,3.45,3.45,0,0,0,46.78,63c0,1.3,1.28,1.2,1.84,1.89A23.87,23.87,0,0,0,60.14,72.4a28.21,28.21,0,0,1,2.79,1.15c5.32,2.36,8.31,7,8.07,12.51-.35,8.32-.75,44.95-1.07,53.26a4,4,0,0,1-1.41,3.3H67.37a3,3,0,0,1-1.49-3.18c.41-8.21.75-44.73,1.13-52.94a8.69,8.69,0,0,0-1.31-5.66C63.84,83,62,85.05,60.31,87.13A10.86,10.86,0,0,0,58,94.39c0,5.5,0,39.31,0,44.8a3.88,3.88,0,0,1-1.36,3.43H55.51A3.09,3.09,0,0,1,54,139.57c.06-5.35.14-39,0-44.39A16.35,16.35,0,0,1,58.61,83c1.51-1.6,2.88-3.3,4.51-5.19l-10-4.26c-1.94,3-3.77,5.88-5.63,8.74s-4.14,3.07-6.74,1c-1-.79-2-1.59-3.2-2.62v1.8c0,9.52,0,47.35,0,56.87a3.65,3.65,0,0,1-1.4,3.27H35a3.18,3.18,0,0,1-1.49-3.08c0-9.61,0-47.54,0-57.16V80.7c-1.44,1.16-2.54,2.13-3.72,3a3.94,3.94,0,0,1-6-1c-.4-.57-.76-1.17-1.14-1.76L18,73.57l-10,4.29c1.8,2.07,3.37,3.94,5,5.76A15.49,15.49,0,0,1,17,94.56c-.06,5.5-.05,39.31,0,44.81a3.41,3.41,0,0,1-1.44,3.25H14.46A3.31,3.31,0,0,1,13,139.38c.07-4.3-.27-36.93.1-41.2a17.06,17.06,0,0,0-5.75-15,30.08,30.08,0,0,1-2.08-2.31A9.27,9.27,0,0,0,4,86.53c.37,8.13.7,44.58,1.12,52.7a3.4,3.4,0,0,1-1.38,3.39H2.6c-.48-.84-1.33-1.67-1.39-2.54C.88,135.4.77,102.39.54,97.71.4,94.73.18,91.76,0,88.78ZM18.76,36.61c.56-.58,1.07-1.13,1.61-1.64a1.94,1.94,0,0,1,2.73-.18,1.78,1.78,0,0,1,.16,2.72,19.92,19.92,0,0,1-2.33,2.26c-1.79,1.47-2.71,1.39-4.57,0a2.46,2.46,0,0,0-1.92-.46c-1.51.57-1.17,2-1.11,3.13A1.74,1.74,0,0,0,15,44.22c2.9.42,3.67,1.12,4.33,3.83a16.53,16.53,0,0,0,14.75,12.2c8.49.55,15.65-4.54,17.64-12.54a4,4,0,0,1,3.89-3.48c1.8-.22,2.49-1.39,2-3.5-.29-1.4-1.25-1.92-3-1.36a3,3,0,0,1-3.39-.76A4.28,4.28,0,0,0,48,37.41,45.49,45.49,0,0,1,32.9,35.27a26.23,26.23,0,0,1-11.63-7.2c-1.19-1.32-.89-3.05.65-3.28a3.62,3.62,0,0,1,2.28.76c1.85,1.31,3.46,3,5.42,4.08,5.85,3.25,12.32,4.09,19,3.95A6.08,6.08,0,0,1,53,34.94c1.31,1.11,2.27.76,2.58-.84.1-.5.19-1,.24-1.51.88-9.51-6-17.55-15.39-19.72-13.56-3.14-26.29,7-25.08,20,.13,1.38.18,2.8,2.15,3C17.84,35.93,18.2,36.29,18.76,36.61Zm24,26.61a58.23,58.23,0,0,1-7.17.84,63.54,63.54,0,0,1-7.49-.86c.14,1.24-.2,3,.54,3.84a93.65,93.65,0,0,0,6.93,6.85A69.24,69.24,0,0,1,41,68.62C43.09,67,43,65.14,42.73,63.22ZM27.26,80.78l5.12-4.19-8.05-7.68-3,2.56Zm11.32-4.25,5.19,4.25,6-9.3-3-2.84ZM44.24,10A9,9,0,0,0,35,4c-4,.26-7.64,2.9-8.1,6A26.93,26.93,0,0,1,44.24,10Z"/><path class="cls-2" d="M88.76,142.62a2.87,2.87,0,0,1-1.51-3c.54-11.08,1-50.47,1.52-61.55,0-.5,0-1,0-1.63l-1.11.31a5.88,5.88,0,0,1-6.61-2.54c-2.47-3.52-4.91-7.06-7.5-10.79-3.81,1.5-7.62,3-11.44,4.49a3.88,3.88,0,0,1-2,.37A2,2,0,0,1,58.78,67a2.42,2.42,0,0,1,.66-1.93,10.38,10.38,0,0,1,2.75-1.48,29.29,29.29,0,0,1,3.63-1.35,27.47,27.47,0,0,0,12.27-7.35,5.56,5.56,0,0,0,1.66-4.77,2.36,2.36,0,0,0-.61-1.33,18.69,18.69,0,0,1-4.28-8.07,1.26,1.26,0,0,0-1.3-1.15,5.25,5.25,0,0,1-4.45-3.31,7.29,7.29,0,0,1,2.06-8.41,2,2,0,0,0,.39-1.53c-.31-3.72-1-7.44-1-11.15,0-5,3-8.25,8.06-9.46A3.69,3.69,0,0,0,80,5.17,28,28,0,0,1,93.15.29,8.63,8.63,0,0,0,94.26,0h5.2c1.08.2,2.15.43,3.23.6,8.63,1.32,14.47,6.46,16.54,14.59a29.19,29.19,0,0,1,.34,11.29,4.17,4.17,0,0,0,.23,2.59,7.7,7.7,0,0,1,.61,7.31,4.88,4.88,0,0,1-4.21,3.18c-1.07.11-1.33.58-1.54,1.42a16.16,16.16,0,0,1-3.87,7.34c-1.52,1.6-.75,3.4-.92,5.13,0,.1.12.24.22.32,1.79,1.59,3.56,3.21,5.41,4.74a10.22,10.22,0,0,0,2.61,1.63c3,1.18,6,2.25,9,3.36a12.93,12.93,0,0,1,7.42,6.42,35.4,35.4,0,0,1,1.35,3.6v5.55c-.07.54-.2,1.08-.22,1.63-.43,10.1-.87,48.53-1.24,58.64a3.89,3.89,0,0,1-1.43,3.28h-1.16a3,3,0,0,1-1.47-3.05c.21-3.32.32-35,.46-38.28q.53-12.87,1-25.75A18.61,18.61,0,0,0,131.6,73c-1.95,1.89-3.56,3.54-5.27,5.09a10.11,10.11,0,0,0-3.49,8c.08,8.32,0,44.94,0,53.26a3.34,3.34,0,0,1-1.45,3.23h-1.16a3.25,3.25,0,0,1-1.44-2.69c0-8.74,0-45.79,0-54.53a12,12,0,0,1,3.36-8.62c2-2.09,4.18-4.09,6.27-6.14.35-.34.69-.7,1.14-1.16-4.07-3.28-9.15-3.93-13.63-6.08-2.33,3.35-4.56,6.58-6.81,9.8-2.54,3.65-4,4.22-8.42,3.27,0,.33,0,.64,0,1,.51,11.23,1,50.76,1.56,62a3.17,3.17,0,0,1-1.44,3.22H99.75a3.89,3.89,0,0,1-1.46-3.27c-.36-9.13-.79-46.58-1.2-55.72-.07-1.5-.18-3-.28-4.52h-4c-.05.62-.11,1.16-.13,1.71-.44,9.83-.88,48-1.31,57.8-.07,1.47,0,3-1.4,4ZM78.05,28c.5-.45,1-.92,1.54-1.4a2,2,0,0,1,2.83-.26,1.83,1.83,0,0,1,.06,2.83,20.73,20.73,0,0,1-2.34,2.25c-1.71,1.39-2.68,1.3-4.47,0a2.57,2.57,0,0,0-2-.44c-1.42.63-1.09,2-1,3.19a1.73,1.73,0,0,0,1.66,1.64c2.91.42,3.69,1.12,4.34,3.81,2.37,9.73,13.63,15,23,10.81A15.86,15.86,0,0,0,111,39.35a4.1,4.1,0,0,1,3.75-3.48c1.92-.23,2.52-1.08,2.27-3.22-.17-1.46-.92-1.94-2.77-1.78-2.28.19-3.24-.37-4.16-2.4a12.07,12.07,0,0,1-.72-1.66c-.26-.89-.76-1.11-1.7-.94a43.07,43.07,0,0,1-12.52.49c-5.61-.62-10.69-2.35-14.53-6.57-1-1.1-1.1-2.14-.27-2.95s2-.69,3.17.32a26.41,26.41,0,0,0,3.92,3,22.58,22.58,0,0,0,12.12,2.53c3.07-.11,6.13-.53,9.18-.94,2.16-.29,2.67-.11,3.53,1.86a23.22,23.22,0,0,0,1.15,2.54,1.68,1.68,0,0,0,1.21.76,1.43,1.43,0,0,0,1-1,53.63,53.63,0,0,0,0-8.69c-.69-5.18-3.4-9.37-8.57-11.35C98.34,2.56,90,3.21,82.12,8.38a6.73,6.73,0,0,1-2.31,1C76.69,10,74.63,11.9,74.62,15s.41,6.43.67,9.64C75.42,26.29,75.92,27.72,78.05,28Zm5.49,24.61c.25,1.6,0,3.29.72,4,3.33,3.13,6.94,6,10.54,9,3.09-2.61,6-5.31,9.21-7.66,2-1.44,2-3.07,1.7-5.18C98.41,56.77,91.16,56.71,83.54,52.65ZM97.69,68.27c1.56,1.49,2.94,2.84,4.37,4.15,1.18,1.08,2.18,1,3.11-.31,1.42-2,2.79-4,4.18-6l3.26-4.73-3.06-3.08ZM76.93,61.34q3.78,5.44,7.53,10.83c.65.93,1.63,1.42,2.55.63,1.66-1.43,3.13-3.06,4.73-4.66L80,58.28ZM94.78,71A3.43,3.43,0,0,0,93,75.12H96.5A3.28,3.28,0,0,0,94.78,71Z"/><path class="cls-2" d="M80,84.09c1.16,0,2.31,0,3.47,0s2,.64,2.08,1.86a1.82,1.82,0,0,1-2,1.92q-3.6.12-7.22,0c-1.35,0-2.19-.89-2.08-2a1.9,1.9,0,0,1,2.15-1.79c1.2,0,2.41,0,3.61,0Z"/><path class="cls-2" d="M25.23,96.3c-.91,0-1.82,0-2.73,0a1.89,1.89,0,0,1-2-1.82,1.85,1.85,0,0,1,2-1.93c1.82-.07,3.64-.06,5.46,0a1.82,1.82,0,0,1,2,1.88c0,1.21-.82,1.82-2,1.89-.9,0-1.82,0-2.73,0Z"/></svg>