<svg id="Layer_1" data-name="Layer 1" xmlns="http://www.w3.org/2000/svg" viewBox="0 0 169.34 146.26"><defs><style>.cls-1{fill:#ea952e;}.cls-2{fill:#fff;}.cls-3{fill:#1a233a;}</style></defs><title>ايقونات الهدير</title><rect class="cls-1" x="61.54" y="125.1" width="46.26" height="18.55"/><rect class="cls-2" x="79.19" y="125.61" width="9.88" height="6.08"/><path class="cls-3" d="M60.48,125.1c-.66,5.47-1.33,10.73-2,16.17-2.77,0-5.45-.1-8.13.08A3.38,3.38,0,0,0,48,142.7c-.37.54-.12,1.65.15,2.43.15.46.87.77,1.33,1.13h70.26c1.21-.71,2.2-1.56,1.73-3.16s-1.81-1.85-3.27-1.83c-2.43,0-4.86,0-7.46,0-.68-5.36-1.35-10.66-2-16.17h-5c.66,5.47,1.31,10.7,2,16.05H63.52c.66-5.32,1.31-10.6,2-16Zm14.2,0c.31,1.19.6,2.41,1,3.62a9.25,9.25,0,0,0,17.86,0c.39-1.21.37-3,1.18-3.49a1.72,1.72,0,0,1,.44-.19h-6c-.29,3.51-2,5.51-4.57,5.53s-4.28-2-4.59-5.53Z"/><path class="cls-3" d="M105.62,46.22q-21.11-1-42.19-1.89c-1.18,0-2.37,0-2.93-1.41a2.9,2.9,0,0,0-1.12-1c-1.62-1.09-3.24-2.19-4.9-3.25-1.23-.81-2.39-.64-3,.36s-.27,2,.9,2.82c1.41,1,2.87,1.85,4.22,2.87a3.71,3.71,0,0,1,1.29,1.75c1.31,4.44,2.55,8.89,3.84,13.34.29,1,.6,2.08.91,3.12.86,3,1.9,5.9,2.83,8.85a1.82,1.82,0,0,1-.17,1c-.68,1.43-1.43,2.84-2.11,4.24a3.87,3.87,0,0,0,.43,4.44,1.43,1.43,0,0,1,.27,1.69,5.95,5.95,0,1,0,11.24,3.9,19,19,0,0,0,.34-4H92.55c-.08.32-.15.53-.19.75a6,6,0,1,0,11.56-.64,2.39,2.39,0,0,1,.1-1.29c.35-1,.29-1.93-.69-2.45a4.45,4.45,0,0,0-2-.33q-10.6,0-21.22,0H66.49c.44-.92.83-1.58,1.08-2.27.62-1.77,1.54-2.47,3.68-2.64,1.29-.12,2.58-.23,3.86-.37,7.53-.73,15-1.71,22.57-2.64,4.24-.52,6.63-2.79,7.52-7q1.53-7.38,3-14.79C108.61,47.13,107.93,46.32,105.62,46.22ZM98.28,83a2.14,2.14,0,1,1-.08,4.28A2.11,2.11,0,0,1,96.12,85,2.08,2.08,0,0,1,98.28,83ZM69.5,83a2.05,2.05,0,0,1,2.12,2,2.13,2.13,0,1,1-2.12-2ZM70,48.36c.46,2.8.88,5.36,1.35,8.13-2.12,0-4.15,0-6.17,0-.19,0-.5-.31-.56-.52-.75-2.53-1.47-5.07-2.2-7.6ZM67.69,66.61c-.08-.27-.16-.55-.25-.82-.49-1.78-1-3.53-1.53-5.38H72c.54,3.2,1.06,6.38,1.6,9.62-.21.09-.29.15-.36.17-.54.08-1,.15-1.43.19C68.94,70.78,68.71,70.26,67.69,66.61Zm14.16,2.57-4.37.54-1.54-9.25h5.91Zm0-12.69c-2.06,0-4,0-6,0a.89.89,0,0,1-.66-.56c-.42-2.34-.79-4.69-1.15-7h7.84Zm9.81,11c0,.25-.46.6-.75.66-1.64.23-3.29.38-5.13.6,0-2.65,0-5.23,0-7.81,0-.17.43-.52.66-.52,1.91-.06,3.82,0,5.86,0C92.15,62.84,92,65.15,91.7,67.46Zm1.06-11.62a1,1,0,0,1-.71.64c-2,.05-4,0-6.17,0V49.21l7.44.33C93.15,51.71,93,53.78,92.76,55.84ZM95.6,67.37c.21-2.26.4-4.53.61-6.94.5,0,.89-.08,1.26-.08h4.43C101.65,65.57,99.76,67.71,95.6,67.37ZM103,55.69a1.29,1.29,0,0,1-.87.79c-1.77.07-3.54,0-5.51,0,.19-2.31.38-4.47.6-6.8,2.31.1,4.53.19,6.92.31C103.71,52,103.38,53.87,103,55.69Z"/><path class="cls-3" d="M154.56,127.51H14.78A14.8,14.8,0,0,1,0,112.73V14.78A14.8,14.8,0,0,1,14.78,0H154.56a14.8,14.8,0,0,1,14.78,14.78v98A14.8,14.8,0,0,1,154.56,127.51ZM14.78,4.82a10,10,0,0,0-10,10v98a10,10,0,0,0,10,10H154.56a10,10,0,0,0,10-10V14.78a10,10,0,0,0-10-10Z"/></svg>