<svg id="Layer_1" data-name="Layer 1" xmlns="http://www.w3.org/2000/svg" viewBox="0 0 158.7 145.2"><defs><style>.cls-1{fill:#ea952e;}.cls-2{fill:#1a233a;}</style></defs><title>ايقونات الهدير</title><rect class="cls-1" x="73.08" y="2.4" width="12.53" height="24.26"/><rect class="cls-1" x="34.54" y="73.88" width="12.53" height="24.26"/><rect class="cls-1" x="111.63" y="73.85" width="12.53" height="24.26"/><path class="cls-2" d="M0,141.61V74.87c1.17-2.76,3.26-3.7,6.22-3.66,10.06.11,20.12,0,30.19,0H38.5v-2.1c0-22.85,0-39.91,0-62.76,0-3,.84-5.18,3.66-6.39h74.45c2.83,1.21,3.67,3.4,3.67,6.39-.08,22.85,0,39.91,0,62.76v2.1h2.09c10.06,0,20.13.07,30.19,0,3,0,5.05.9,6.22,3.66v66.74a6.83,6.83,0,0,1-3.6,3.59H3.59A6.81,6.81,0,0,1,0,141.61ZM49.35,75.86v2c0,6.59,0,13.17,0,19.76,0,2.27-.76,3-3,3-3.54,0-7.08,0-10.61,0-2.68,0-3.4-.72-3.4-3.38q0-9.8,0-19.6V76H4.78v64.45H76.91V75.88H63.61a12.75,12.75,0,0,1-2-.08,2.1,2.1,0,0,1-1.94-2.24,2.13,2.13,0,0,1,1.95-2.24,8.93,8.93,0,0,1,1.46-.07H95.61a9.51,9.51,0,0,1,1.31,0,2.28,2.28,0,0,1-.08,4.54,14.35,14.35,0,0,1-1.47,0H83.46c-.58,0-1.15.06-1.7.09v64.49h72.17V76H126.4c0,7.27,0,14.4,0,21.52,0,2.37-.78,3.16-3.12,3.17q-5.3,0-10.61,0c-2.61,0-3.31-.69-3.32-3.27q0-9.87,0-19.75V75.88c-.81,0-1.35,0-1.88,0-2,0-3.07-.84-3-2.36s1-2.24,3-2.27c1.2,0,2.4,0,3.6,0h4.46V4.74H87.87V25.88c0,3-.56,3.58-3.65,3.58H74.1c-2.59,0-3.27-.68-3.27-3.3q0-9.8,0-19.59V4.74H43.26V71.25h2.05c2.23,0,4.46,0,6.69,0a2.11,2.11,0,0,1,2.25,2.27A2.14,2.14,0,0,1,52,75.85C51.2,75.91,50.39,75.86,49.35,75.86ZM83.18,4.73H75.59v20h7.59ZM37,96h7.61V76H37Zm84.69-20h-7.61V96h7.61Z"/><path class="cls-2" d="M0,141.61a6.81,6.81,0,0,0,3.59,3.59H0Z"/><path class="cls-2" d="M155.1,145.2a6.83,6.83,0,0,0,3.6-3.59v3.59Z"/><path class="cls-2" d="M101.69,115.74H111c1.88,0,3,.86,3,2.28s-1.09,2.34-2.93,2.35q-9.28,0-18.58,0c-1.88,0-2.93-.87-2.94-2.32s1-2.29,2.9-2.31C95.5,115.72,98.6,115.74,101.69,115.74Z"/><path class="cls-2" d="M63.2,51H53.91C52,51,51,50.15,51,48.72s1.08-2.31,2.94-2.31q9.29,0,18.57,0c1.87,0,2.93.88,2.93,2.31s-1,2.29-2.93,2.3C69.39,51,66.29,51,63.2,51Z"/><path class="cls-2" d="M24.71,115.74c3.1,0,6.2,0,9.3,0,1.88,0,2.92.87,2.89,2.33s-1.06,2.29-2.95,2.3q-9.3,0-18.59,0c-1.85,0-2.93-.93-2.92-2.37s1.1-2.25,3-2.26Z"/><path class="cls-2" d="M98,130.28c-1.9,0-3.81,0-5.71,0s-2.76-.92-2.75-2.33,1-2.28,2.79-2.3q5.71,0,11.42,0c1.73,0,2.77.93,2.76,2.33s-1,2.26-2.8,2.29S99.86,130.28,98,130.28Z"/><path class="cls-2" d="M59.37,61c-1.9,0-3.8,0-5.69,0C52,60.91,50.92,60,51,58.6s1-2.25,2.68-2.27q5.85-.07,11.7,0c1.68,0,2.6.93,2.61,2.31S67,60.92,65.22,61C63.27,61,61.32,61,59.37,61Z"/><path class="cls-2" d="M21.06,125.65c1.9,0,3.8,0,5.7,0,1.71,0,2.71,1,2.68,2.37s-1,2.23-2.66,2.24q-5.85.06-11.7,0a2.32,2.32,0,1,1,0-4.61C17.05,125.62,19.06,125.65,21.06,125.65Z"/></svg>