<svg id="Layer_1" data-name="Layer 1" xmlns="http://www.w3.org/2000/svg" viewBox="0 0 141.99 142"><defs><style>.cls-1{fill:#ea952e;}.cls-2{fill:#1a233a;}</style></defs><title>ايقونات الهدير</title><circle class="cls-1" cx="25.04" cy="116.65" r="22.9"/><path class="cls-2" d="M141.46,22.72A27.52,27.52,0,0,0,119.32.3a4.7,4.7,0,0,1-.84-.3h-87c-.07.07-.12.18-.21.21C24.87,2.88,22.75,6,22.75,12.93V91.39a49.2,49.2,0,0,0-5.47,1.34c-9,3.17-14.7,9.47-16.91,18.82-.11.39-.25.75-.37,1.14v7.93c.3,1.07.56,2.14.91,3.19q4.71,14.26,19.39,17.58c.66.16,1.33.4,2,.61h87a12.22,12.22,0,0,1,1.49-.65A11.43,11.43,0,0,0,118.9,131c0-.77,0-1.52,0-2.3q0-36.3,0-72.6c0-1.25.31-1.69,1.56-2,11.45-3,18.44-10.35,20.94-22,.14-.63.37-1.22.57-1.85V24.44A13.61,13.61,0,0,1,141.46,22.72ZM25.14,137.25a20.61,20.61,0,1,1,20.5-20.67A20.61,20.61,0,0,1,25.14,137.25ZM36.61,94.06a35.47,35.47,0,0,1,.32-6c.07-.49,1.33-1,2.08-1.1a36,36,0,0,1,4.41,0c1.42,0,2.84,0,4.26,0a2.26,2.26,0,0,1,2.53,2.43c0,2.93,0,5.88,0,8.83,0,1.59-.88,2.33-2.5,2.47a5.43,5.43,0,0,1-5.07-1.84c-1.42-1.6-3.4-2.68-5.14-4C37.19,94.53,36.59,94.29,36.61,94.06Zm77.75,35.05c0,5.56-2.56,8.16-8.11,8.16h-65c-.42,0-.86-.06-1.4-.07,10.33-8.79,13-19.34,7.86-31.88l1.28-.21a6.66,6.66,0,0,0,5.77-6.21c.16-3.44.16-6.91,0-10.37a6.53,6.53,0,0,0-6.26-6.17c-3.4-.14-6.83-.14-10.23,0a6.66,6.66,0,0,0-6.3,6.35c-.07,1.14,0,2.32,0,3.61l-4.54-.8c0-.51-.07-1-.07-1.58V12.38c0-5.33,2.63-7.94,8-7.94H97.45c.42,0,.84,0,1.35.07-1.56,1.42-3,2.81-4.49,4a3.37,3.37,0,0,1-2,.45Q66.52,9,40.73,9C39.36,9,38,9,36.61,9a4.51,4.51,0,0,0-4.68,4.75q-.06,13.5,0,27c0,3.12,1.91,4.85,5.19,4.85q23.28,0,46.56,0c1,0,2,.07,3,0,4.31-.4,8,.34,11.4,3.62,3.84,3.7,9.05,5.12,14.42,5.49l1.81.1ZM90.46,41H36.58V13.7H90.46C85.66,22.84,85.71,31.89,90.46,41Zm23.77,9.24a22.89,22.89,0,1,1,23-22.8A22.91,22.91,0,0,1,114.23,50.22Z"/><path class="cls-2" d="M102.64,82.31c-2.7,0-5.4,0-8.09,0-4.93,0-7.66,2.75-7.68,7.67V107.5c0,5.94,0,11.89,0,17.84,0,4.51,2.82,7.3,7.36,7.33,2.79,0,5.6.05,8.39,0,4.26-.07,7.1-2.86,7.12-7.1q.06-18.09,0-36.16C109.74,85.15,106.9,82.38,102.64,82.31Zm2.54,43c0,2-.8,2.73-2.8,2.75q-4.06.06-8.09,0c-2.07,0-2.83-.79-2.83-2.91,0-5.89,0-11.79,0-17.68s0-11.6,0-17.39c0-2.59.65-3.22,3.28-3.22s5.07,0,7.62,0c2,0,2.82.79,2.82,2.75Q105.21,107.48,105.18,125.34Z"/><path class="cls-2" d="M54.8,61.66A6.76,6.76,0,0,0,48,54.84c-3.1-.09-6.21-.07-9.3,0a6.73,6.73,0,0,0-6.8,6.8c-.07,3.09-.07,6.2,0,9.3a6.69,6.69,0,0,0,6.67,6.74c3.16.1,6.32.1,9.46,0A6.72,6.72,0,0,0,54.78,71c.07-1.58,0-3.16,0-4.74S54.85,63.19,54.8,61.66Zm-4.59,9a2.23,2.23,0,0,1-2.39,2.41c-2.93,0-5.88,0-8.82,0a2.24,2.24,0,0,1-2.5-2.46c0-3,0-5.89,0-8.84a2.17,2.17,0,0,1,2.37-2.39c3-.07,5.89-.07,8.84,0a2.25,2.25,0,0,1,2.48,2.46c0,1.47,0,2.95,0,4.42S50.26,69.24,50.21,70.71Z"/><path class="cls-2" d="M82.27,66.31c0-.93,0-1.88,0-2.83,0-.63,0-1.26,0-1.89a6.73,6.73,0,0,0-6.68-6.74c-3.16-.1-6.32-.1-9.46,0a6.74,6.74,0,0,0-6.72,6.73c-.08,3.14-.08,6.3,0,9.44A6.72,6.72,0,0,0,66,77.68c3.19.1,6.4.1,9.59,0a6.73,6.73,0,0,0,6.65-6.63c0-1.06,0-2.11,0-3.16C82.29,67.36,82.27,66.84,82.27,66.31Zm-4.56-.11c0,1.42,0,2.85,0,4.27,0,1.8-.8,2.63-2.59,2.65-2.84,0-5.69,0-8.53,0-1.77,0-2.56-.86-2.58-2.67,0-2.81,0-5.6,0-8.39,0-1.82.81-2.63,2.6-2.65q4.26-.07,8.53,0c1.77,0,2.52.85,2.59,2.67Z"/><path class="cls-2" d="M109.76,61.78a6.76,6.76,0,0,0-7-6.94q-4.48-.11-9,0a6.75,6.75,0,0,0-6.91,6.84c-.08,3-.07,6.08,0,9.14a6.75,6.75,0,0,0,6.87,6.87c3,.07,6.11.09,9.16,0a6.77,6.77,0,0,0,6.84-6.91c0-1.52,0-3,0-4.58S109.81,63.26,109.76,61.78Zm-4.6,8.88a2.23,2.23,0,0,1-2.47,2.46c-2.89,0-5.79,0-8.68,0a2.26,2.26,0,0,1-2.53-2.57q-.08-4.33,0-8.68A2.24,2.24,0,0,1,94,59.41c1.47,0,2.94,0,4.42,0s2.84,0,4.26,0A2.29,2.29,0,0,1,105.18,62C105.22,64.87,105.22,67.76,105.16,70.66Z"/><path class="cls-2" d="M82.27,93.87c0-1.63.07-3.27,0-4.9a6.73,6.73,0,0,0-6.63-6.65c-3.19-.08-6.4-.08-9.59,0A6.7,6.7,0,0,0,59.43,89c-.1,3.14-.1,6.3,0,9.46a6.7,6.7,0,0,0,6.71,6.71c3.15.11,6.29.11,9.45,0a6.72,6.72,0,0,0,6.7-6.73C82.34,96.92,82.29,95.38,82.27,93.87Zm-4.58,4.28a2.23,2.23,0,0,1-2.49,2.45c-2.89,0-5.79,0-8.68,0A2.27,2.27,0,0,1,64,98q-.08-4.26,0-8.52c0-1.79.83-2.54,2.65-2.61H70.9c1.43,0,2.85,0,4.27,0,1.65,0,2.49.84,2.52,2.43C77.75,92.25,77.75,95.2,77.69,98.15Z"/><path class="cls-2" d="M82.27,116.43a6.73,6.73,0,0,0-6.68-6.62c-3.14-.1-6.3-.08-9.44,0a6.73,6.73,0,0,0-6.74,6.7c-.08,3.14-.08,6.3,0,9.46a6.7,6.7,0,0,0,6.6,6.67c3.19.12,6.4.12,9.61,0A6.72,6.72,0,0,0,82.27,126c.07-1.58,0-3.16,0-4.72S82.34,118,82.27,116.43Zm-4.58,9.07c0,1.71-.82,2.56-2.5,2.57-2.9.06-5.79.06-8.69,0-1.68,0-2.49-.86-2.51-2.57q-.08-4.27,0-8.53c0-1.79.85-2.58,2.67-2.6q4.19,0,8.37,0c1.87,0,2.61.83,2.68,2.76v4.26C77.71,122.76,77.75,124.13,77.69,125.5Z"/><path class="cls-2" d="M125.46,14.88c-6.12,9.19-12.17,18.24-18.33,27.47l-3.79-2.55c6.1-9.17,12.16-18.24,18.31-27.47C122.93,13.19,124.13,14,125.46,14.88Z"/><path class="cls-2" d="M105.2,13.61a6.85,6.85,0,1,0,6.86,6.9A6.86,6.86,0,0,0,105.2,13.61Zm-.12,9.11a2.27,2.27,0,1,1,.22-4.53,2.27,2.27,0,1,1-.22,4.53Z"/><path class="cls-2" d="M123.53,27.35a6.86,6.86,0,1,0,6.86,6.91A6.86,6.86,0,0,0,123.53,27.35Zm.07,9.12a2.29,2.29,0,0,1-2.35-2.26,2.26,2.26,0,0,1,2.33-2.27,2.27,2.27,0,0,1,0,4.53Z"/><path class="cls-2" d="M34.21,128.09H27.35v4.49H22.8v-4.26c-4.89-1.4-6.82-3.39-6.84-7h4.39c.4,2,1.95,2.3,3.79,2.21s3.52,0,5.47,0c0-.84,0-1.52,0-2.22A2.25,2.25,0,0,0,27.28,119c-1.48-.07-3,0-4.42,0a6.87,6.87,0,0,1-7-7.13c0-2.14,0-4.26,0-6.59h6.85v-4.49h4.6V105c4.84,1.38,6.75,3.37,6.79,7H29.73c-.42-2-2-2.32-3.79-2.23s-3.54,0-5.47,0c0,.84,0,1.54,0,2.24a2.24,2.24,0,0,0,2.33,2.32c1.46.07,2.95,0,4.43,0a6.83,6.83,0,0,1,7,7.13C34.22,123.62,34.21,125.76,34.21,128.09Z"/></svg>