<svg id="Layer_1" data-name="Layer 1" xmlns="http://www.w3.org/2000/svg" viewBox="0 0 164.54 133.26"><defs><style>.cls-1{fill:#ea952e;}.cls-2{fill:#1a233a;}</style></defs><title>ايقونات الهدير</title><circle class="cls-1" cx="59.57" cy="43.41" r="9.48"/><rect class="cls-1" x="116.96" y="114.92" width="44.45" height="11.24"/><path class="cls-2" d="M156.77,92.83c0-2.53,0-4.58,0-6.63,0-2.34-1.14-3.49-3.55-3.48q-14.37,0-28.75,0c-2.36,0-3.55,1.1-3.52,3.5,0,2.15,0,4.31,0,6.71H82.37V87.61c7.43,0,14.65,0,21.88,0,5.82,0,8.53-2.73,8.65-8.53.07-3.09,0-6.18,0-9.54,2.28,0,3.91,0,5.54,0,5.89,0,7.36-1.43,7.38-7.15q0-18.9,0-37.79c0-4.73-1.64-6.34-6.43-6.48-2-.06-4,0-6.48,0V9.86c0-7.32-2.49-9.85-9.86-9.85H15.19c-7.53,0-10,2.55-10,10.18q0,31.62,0,63.24c0,13.31.88,14.19,14.2,14.19H35.91v5.56H31.3c-7.53,0-15.06,0-22.58,0-5.8,0-8.58,2.84-8.64,8.55,0,5.47-.18,11,.06,16.42.11,2.63.24,5.86,1.73,7.68a15.78,15.78,0,0,0,3.49,3.09H158.19l.34-.11c4.29-1.4,6-4.33,5.93-8.69-.09-4.93-.21-9.87,0-14.78C164.78,99.28,164.18,94,156.77,92.83ZM113.23,23.24h7.45V64.5h-7.45ZM126.1,87.8h25.57v5.11H126.1Zm-110.81-5c-3.88,0-5.34-1.19-5.32-5.17q.19-33.89,0-67.77c0-3.74,1.31-5.1,5-5.09q44.15.12,88.3,0c3.51,0,4.88,1.25,4.87,4.81q-.12,34.08,0,68.18c0,3.69-1.24,5.07-5,5-14.78-.16-29.58-.06-44.36-.06C44.31,82.75,29.8,82.65,15.29,82.81ZM77,87.93v4.92H41.17V87.93Zm36.18,36c-1.78.08-3.38.22-5,.22q-48.87,0-97.77,0c-5.07,0-5.44-.39-5.44-5.29q0-7.6,0-15.2c0-5.37.23-5.6,5.5-5.61q38.63,0,77.23,0h25.46Zm42.56.23H118.38V119h40.89C160,122.17,159.28,124.13,155.69,124.14Zm-37.22-10.53V98h33.19c7.88,0,7.89,0,7.89,7.69v7.88Z"/><rect class="cls-2" x="15.92" y="105.83" width="93.56" height="4.9" rx="1.05" ry="1.05"/><path class="cls-2" d="M7,132.73H17a2.06,2.06,0,0,0,2.06-2.06V128H4.93v2.72A2.06,2.06,0,0,0,7,132.73Z"/><path class="cls-2" d="M146.65,133.26h10a2.06,2.06,0,0,0,2.06-2.06v-2.72H144.59v2.72A2.06,2.06,0,0,0,146.65,133.26Z"/><path class="cls-2" d="M32.13,46.33V55H28V31.86h8.66a10.81,10.81,0,0,1,3.81.6A7.42,7.42,0,0,1,43.12,34a6.09,6.09,0,0,1,1.53,2.25,7.15,7.15,0,0,1,.5,2.63,7.76,7.76,0,0,1-.52,2.79,6.53,6.53,0,0,1-1.56,2.37,7.72,7.72,0,0,1-2.65,1.63,10.34,10.34,0,0,1-3.73.62Zm0-10.65v6.83h3.68a11.48,11.48,0,0,0,2-.17,4.87,4.87,0,0,0,1.6-.57,2.79,2.79,0,0,0,1-1.08A3.6,3.6,0,0,0,40.82,39a2.8,2.8,0,0,0-1.23-2.52,7,7,0,0,0-3.78-.81Z"/><path class="cls-2" d="M71.54,43.36a12.43,12.43,0,0,1-.88,4.72,11.4,11.4,0,0,1-6.26,6.31,13.35,13.35,0,0,1-9.69,0,11.4,11.4,0,0,1-6.26-6.31,13,13,0,0,1,0-9.41,11,11,0,0,1,2.48-3.79,11.49,11.49,0,0,1,3.78-2.52,13.09,13.09,0,0,1,9.69,0,11.49,11.49,0,0,1,3.78,2.52,11,11,0,0,1,2.48,3.79A12.38,12.38,0,0,1,71.54,43.36Zm-4.91,3.31a9.55,9.55,0,0,0,0-6.61A7.41,7.41,0,0,0,65,37.53,6.94,6.94,0,0,0,62.6,35.9a8.34,8.34,0,0,0-6.06,0,6.94,6.94,0,0,0-2.42,1.63,7.41,7.41,0,0,0-1.61,2.53,9.55,9.55,0,0,0,0,6.61,7.5,7.5,0,0,0,1.61,2.53,6.94,6.94,0,0,0,2.42,1.63,8.48,8.48,0,0,0,6.06,0A6.94,6.94,0,0,0,65,49.2,7.5,7.5,0,0,0,66.63,46.67Z"/><path class="cls-2" d="M75.3,49.63a7.33,7.33,0,0,0,1.4.72,12.4,12.4,0,0,0,1.69.56,18.15,18.15,0,0,0,1.84.37,11.7,11.7,0,0,0,1.85.14,10,10,0,0,0,2-.17,4.94,4.94,0,0,0,1.56-.54,2.86,2.86,0,0,0,1-1A2.43,2.43,0,0,0,87,48.38a2.39,2.39,0,0,0-.31-1.23,3,3,0,0,0-.89-.88,5.52,5.52,0,0,0-1.38-.63c-.54-.17-1.14-.34-1.81-.51l-1.9-.48A9.15,9.15,0,0,1,76,42.11a6.29,6.29,0,0,1-1.6-4.36,5.52,5.52,0,0,1,.6-2.56,5.86,5.86,0,0,1,1.71-2,8.08,8.08,0,0,1,2.65-1.29,11.74,11.74,0,0,1,3.42-.46,15.1,15.1,0,0,1,2.2.16,16.82,16.82,0,0,1,2.18.44,19.71,19.71,0,0,1,2,.66,9.85,9.85,0,0,1,1.69.82L89.2,37.13a10.79,10.79,0,0,0-3-1.31,12.65,12.65,0,0,0-3.44-.49,8,8,0,0,0-1.57.16,4.61,4.61,0,0,0-1.31.47,2.65,2.65,0,0,0-.9.78,2,2,0,0,0-.32,1.1,2.19,2.19,0,0,0,.87,1.82,7.45,7.45,0,0,0,2.8,1.17l1.94.48a17.65,17.65,0,0,1,2.74.94,8.68,8.68,0,0,1,2.27,1.43,6.35,6.35,0,0,1,1.54,2,6.09,6.09,0,0,1,.57,2.7,6.2,6.2,0,0,1-.7,3,6.44,6.44,0,0,1-1.91,2.15,8.83,8.83,0,0,1-2.89,1.32,14,14,0,0,1-3.64.46,19.64,19.64,0,0,1-2.41-.16,20.31,20.31,0,0,1-2.32-.43,16.4,16.4,0,0,1-2.08-.64,9.73,9.73,0,0,1-1.71-.82Z"/></svg>