<svg xmlns="http://www.w3.org/2000/svg" viewBox="0 0 399.05 111.51"><defs><style>.cls-1{fill:#dc2b20;}.cls-2{fill:#dd362c;}</style></defs><title>shipping-2</title><g id="Layer_2" data-name="Layer 2"><g id="Layer_1-2" data-name="Layer 1"><path class="cls-1" d="M190.62,9c9.39-10.7,28.4-13.21,37,2.3a32.08,32.08,0,0,1,6.06-6.35c8.85-6.72,21.68-6.22,29.35,1.19,3.82,3.68,5,8.47,5.32,13.45.94,14.11.23,28.24.46,42.37,0,1.43-.61,1.63-1.81,1.61-3.94-.05-7.88-.11-11.81,0-1.65.06-1.89-.6-1.89-2q.08-13.9,0-27.8a49.37,49.37,0,0,0-.87-11c-1.91-8.31-10.94-11.07-17.39-5.37-3.7,3.27-4.89,7.57-5.1,12.24-.47,10.41-.19,20.84-.15,31.26,0,2.28-.62,2.86-2.83,2.74-3.54-.19-7.1-.13-10.65,0-1.62.05-2.08-.44-2.08-2.07,0-10.58,0-21.16-.05-31.73a30.14,30.14,0,0,0-.89-7.33c-2.19-8.53-10.91-11-17.43-5.1-4.19,3.82-5.19,8.83-5.26,14.09-.13,9.88-.11,19.77,0,29.65,0,1.91-.27,2.71-2.45,2.58-3.77-.22-7.57-.12-11.35,0-1.32,0-1.68-.38-1.68-1.68q.06-29.19,0-58.37c0-1.28.31-1.74,1.66-1.71,4.09.08,8.19.07,12.28,0,1.23,0,1.62.36,1.55,1.57C190.55,5.09,190.62,6.77,190.62,9Z"/><path class="cls-1" d="M47.84,8.54c0-.76.07-1.12.07-1.47C48,1.94,48,1.94,53,1.94c2.85,0,5.71.05,8.57,0,1.19,0,1.77.16,1.77,1.59q-.07,29.3,0,58.59c0,1.21-.36,1.59-1.57,1.57-4.09-.07-8.19-.06-12.28,0-1.19,0-1.66-.33-1.58-1.57.09-1.44,0-2.88,0-4.36-.87,0-1.2.56-1.61.95C35.85,68.33,20.11,67.23,10,57.19-4,43.25-3.21,18.75,11.79,6.29a26.17,26.17,0,0,1,34.51.82C46.7,7.47,47.09,7.84,47.84,8.54Zm0,24.24c0-1.16.08-2.32,0-3.47-.66-7.67-5.29-13.14-12.13-14.4-8.26-1.52-15.22,1.72-18.56,8.73A21.09,21.09,0,0,0,16,38.32,16.41,16.41,0,0,0,42.71,47C47.05,43.25,48.1,38.23,47.83,32.78Z"/><path class="cls-1" d="M151.68,56.93c-3.72,3.07-7,5.94-11.3,7.08a26.71,26.71,0,0,1-23.63-4.4C98.89,46.79,100.23,17,116.39,5.44a26.68,26.68,0,0,1,33.29,1.42c.56.49,1.12,1,2,1.75,0-2,.07-3.59,0-5.17-.07-1.18.26-1.63,1.52-1.6,4.09.07,8.18.06,12.27,0,1.17,0,1.6.27,1.6,1.53q-.06,29.28,0,58.57c0,1.19-.33,1.61-1.57,1.59q-6.14-.11-12.27,0c-1.24,0-1.62-.41-1.55-1.6C151.73,60.42,151.68,58.89,151.68,56.93Zm0-24-.36-4.38c-.59-6.61-4.05-11.14-10.3-13.15s-12.4-1.11-17.24,4S118.17,30.49,119.33,37c2,11,13.59,17.21,23.48,12.4C149.63,46.11,151.8,40.11,151.72,33Z"/><path class="cls-1" d="M315.12,37.24c-7.48,0-15,.07-22.46-.05-2.13,0-2.23.68-1.71,2.42,2.34,7.71,9.12,12.35,17.65,12.08a19.23,19.23,0,0,0,12.62-5,2.29,2.29,0,0,1,3.17-.35c3,1.68,6.12,3.26,9.27,4.71,1.64.75,1.5,1.38.54,2.65a29.12,29.12,0,0,1-19.66,11.43c-11,1.63-21.1-.08-29.47-8C269.39,42.4,271.84,10.65,296.64,2.28,317-4.59,337.23,7.75,339.39,29.41c.18,1.84.22,3.69.42,5.53s-.3,2.38-2.22,2.35C330.1,37.16,322.61,37.24,315.12,37.24ZM291.41,24.71q15.9,0,31.71,0c1.62,0,1.08-.89.71-1.64-2.7-5.45-7.08-8.46-13.1-9.43C302.57,12.34,293.89,17.13,291.41,24.71Z"/><path class="cls-1" d="M397.16,1.94C391.55,9.75,386.23,17.11,381,24.51c-1.56,2.18-4.38,4.24-4.22,6.63s2.68,4.33,4.2,6.46l17.41,24.54c.29.42.79.75.66,1.68a113.21,113.21,0,0,0-11.65.09c-4.11.42-6.61-1-8.8-4.49C375.19,54,371.21,49,367.4,43.66c-4.41,6.14-8.78,12.12-13,18.2a4.16,4.16,0,0,1-4,2c-4.84-.12-9.69,0-15,0,1.82-2.58,3.39-4.81,5-7,5.7-8,11.37-15.95,17.15-23.86a2.38,2.38,0,0,0,0-3.38c-6.16-8.49-12.22-17-18.31-25.59-.39-.55-.76-1.11-1.39-2,5.87,0,11.38,0,16.88,0,1.09,0,1.41.79,1.89,1.46,3.29,4.57,6.6,9.12,9.83,13.74.92,1.31,1.41,1.41,2.38,0,3.15-4.57,6.47-9,9.62-13.61a3.36,3.36,0,0,1,3.23-1.61C386.64,2,391.64,1.94,397.16,1.94Z"/><path class="cls-1" d="M85.93,7.26C87.2,6.05,88.07,5.17,89,4.35a17.28,17.28,0,0,1,20-2.1c1.18.67,1.35,1.09.42,2.14a50.23,50.23,0,0,0-7,9.48c-.44.84-.92.87-1.83.69-7.19-1.48-11.8,1.63-13.25,8.84a35.5,35.5,0,0,0-.65,7.13c0,10.41,0,20.82,0,31.24,0,1.65-.3,2.31-2.13,2.24-3.85-.15-7.71-.1-11.57,0-1.42,0-1.83-.41-1.83-1.82q.06-29,0-58.09c0-1.52.45-2,2-2,3.54.1,7.1.14,10.64,0,1.79-.08,2.35.5,2.12,2.2A25.23,25.23,0,0,0,85.93,7.26Z"/><path class="cls-2" d="M187,95.42V88.25c0-.54-.09-1.16.64-1.28s1.38-.16,1.51.64c.23,1.38.88.9,1.55.45,2.86-1.89,5.65-2.56,8.19.49.48.58.8.2,1.15,0s.85-.66,1.31-1c4.61-2.82,9.12-.42,9.23,5,.06,3.24,0,6.48,0,9.72,0,1,0,1.68-1.4,1.71s-1.55-.71-1.53-1.83c.05-3.09.1-6.18,0-9.26-.06-1.64.07-3.67-2-4.21s-3.81.9-5.42,2.07c-.56.4-.2,1.15-.2,1.75,0,3.32,0,6.63.06,10,0,1-.18,1.52-1.37,1.51s-1.09-.77-1.09-1.53c0-3.24,0-6.48,0-9.72,0-2.87-1-4.14-2.91-4.14-2.5,0-5.12,2.28-5.12,4.46,0,2.85,0,5.71,0,8.56,0,.92.6,2.32-1.32,2.28-1.76,0-1.15-1.32-1.18-2.17C186.92,99.59,187,97.51,187,95.42Z"/><path class="cls-2" d="M19.71,87.76c0-2.54,0-4.77,0-7,0-.83,0-1.47,1.17-1.49s1.4.48,1.4,1.52c0,7.23,0,14.47,0,21.71,0,.48.25,1.15-.51,1.34a1,1,0,0,1-1.32-.61c-.42-.92-.91-.31-1.43,0-5.77,3-11.21-.22-11.38-6.76,0-.69,0-1.38,0-2.08C7.81,88,12.43,85,18.38,87.22Zm-.15,7.71c0-1.31,0-2.62,0-3.92,0-.52.09-1-.37-1.49-2.52-2.52-7.95-1.23-9,2.18a12.74,12.74,0,0,0-.12,6.6,4.44,4.44,0,0,0,5.24,3.7c3-.44,4.23-1.86,4.23-4.77Z"/><path class="cls-2" d="M40.36,100.89c-2,3-5.29,4.17-9.25,3.28-3.09-.69-4.91-2.72-5.38-6.14a21,21,0,0,1-.14-3.46c.19-6,3.53-8.8,9.54-7.89,3.89.58,6.71,5.17,5.55,9-.27.9-1,.62-1.51.63-3.08,0-6.17.07-9.25,0-1.4,0-1.75.47-1.52,1.77.3,1.69.89,3.24,2.62,3.76,2.1.63,4.39.9,6.14-.75C38.32,99.93,39.19,99.92,40.36,100.89Zm-7-6.84a31.42,31.42,0,0,1,3.22,0c1.55.17,1.86-.52,1.65-1.87a3.74,3.74,0,0,0-2.92-3.46c-2-.43-4-.26-5.56,1.36a3.62,3.62,0,0,0-1.09,3.39c.44,1.26,1.88.34,2.85.54A9.51,9.51,0,0,0,33.32,94.05Z"/><path class="cls-1" d="M266.61,87.81c0-2.59,0-4.83,0-7.07,0-.83,0-1.46,1.16-1.46s1.26.48,1.26,1.4q0,11,0,22c0,1.06-.73,1.72-1.3,1-1.12-1.34-1.86-.53-2.84-.06a7.18,7.18,0,0,1-10.28-5.26,16.41,16.41,0,0,1,.06-6.21c.85-4.51,5.14-6.75,9.81-5.19C265.1,87.19,265.72,87.46,266.61,87.81Zm0,7.67c0-1.31,0-2.63,0-3.93,0-.52.12-1-.35-1.5-2.56-2.53-7.95-1.24-9,2.15a13.62,13.62,0,0,0-.31,5.5c.3,3.2,2.28,5.1,5,4.94,3-.19,4.73-2.09,4.73-5.32Z"/><path class="cls-2" d="M86.44,96.28c-1.7,0-3.39,0-5.09,0-1.16,0-1.41.5-1.28,1.58.52,4,5.32,5.85,8.69,3.35a3.1,3.1,0,0,0,.68-.62c.75-1,1.58-.49,2.19,0,.85.71-.11,1.25-.49,1.64-2.46,2.47-5.51,2.4-8.62,1.77-3-.59-4.36-2.69-4.94-5.44a16,16,0,0,1,0-6.65c.72-3.5,3.42-5.44,7.5-5.47s6.27,1.74,7,5.53c0,.23.1.46.14.68.54,3.6.54,3.6-3.06,3.6ZM84.9,94.05a24.68,24.68,0,0,1,3,0c1.67.22,2-.58,1.74-2a3.73,3.73,0,0,0-3.41-3.45c-2.56-.39-4.83.63-5.67,2.49-1.08,2.42-.76,2.92,1.83,2.93Z"/><path class="cls-2" d="M250.83,101c-2,3.47-5.27,3.67-8.66,3.31-3.2-.35-4.94-2.14-5.79-5.44a14.9,14.9,0,0,1-.21-6,7.89,7.89,0,0,1,12.14-5.21c1.92,1.25,3.46,5.53,2.91,7.9-.25,1.07-1.06.72-1.66.73-3,0-6,.12-9,0-1.76-.08-1.91.71-1.65,2.07.74,3.75,5.63,5.28,8.85,2.76C249.13,100,249.13,100,250.83,101Zm-7.33-6.9c1.15,0,2.31-.08,3.46,0,1.41.13,1.74-.47,1.49-1.74-.4-2.12-1.48-3.52-3.75-3.72-2.85-.26-4.8.8-5.59,3-.58,1.59-.64,2.73,1.62,2.48A25.56,25.56,0,0,1,243.5,94.05Z"/><path class="cls-2" d="M106.35,87c2-.69,2.83,0,3.4,1.76,1.3,3.94,2.81,7.82,4.28,11.85l4.23-11.5a10.09,10.09,0,0,0,.47-1.3c.34-1.41,1.41-1,2.23-.81,1.23.29.4,1.1.21,1.63q-3.56,9.64-7.18,19.26c-1.08,2.85-3.23,3.93-6.45,3.51-.79-.1-1.08-.38-1.07-1.14s.31-1.1,1.1-1.13c1.35-.06,3,.29,3.7-1.27.94-2,1.76-3.84.67-6.29C109.85,96.89,108.23,92,106.35,87Z"/><path class="cls-2" d="M146.42,95.51c0,2.31,0,4.63,0,6.94,0,.55.25,1.35-.7,1.41-.56,0-1.27.28-1.48-.65-.28-1.31-1-.76-1.68-.35a16,16,0,0,1-1.81,1c-4,1.74-7.92-.41-8.22-4.75-.25-3.61-.07-7.24-.1-10.86,0-.79.15-1.32,1.12-1.35s1.32.43,1.31,1.39c0,3.24,0,6.47,0,9.7,0,1.94.41,3.74,2.65,4.33,1.57.42,5.49-1.15,6.15-2.52a4.31,4.31,0,0,0,.2-1.81c0-3.15,0-6.31,0-9.47,0-.87,0-1.45,1.18-1.46s1.42.48,1.39,1.52C146.38,90.89,146.42,93.2,146.42,95.51Z"/><path class="cls-2" d="M150.83,95.42c0-2.32,0-4.63,0-7,0-.58-.21-1.34.66-1.5.68-.12,1.44-.16,1.59.83.2,1.31.88.66,1.46.36s1.32-.81,2-1.1c4.28-1.76,8.12.68,8.21,5.27.07,3.32,0,6.64,0,10,0,.86.16,1.67-1.22,1.65s-1.15-.92-1.16-1.73c0-3.09,0-6.17,0-9.26s-1.26-4.41-3.58-4.4c-2.89,0-5.42,2.18-5.42,4.67,0,2.7.08,5.41,0,8.1-.05.9.93,2.53-1.18,2.58-2.32,0-1.18-1.75-1.27-2.69C150.7,99.29,150.83,97.35,150.83,95.42Z"/><path class="cls-2" d="M225,95.37c0-1.23,0-2.47,0-3.7,0-1.39.32-3-2-2.53-.75.14-.85-.41-.86-1s.1-1.33,1-1.19c2.13.33,1.8-1.08,1.93-2.4s-1-3.87,1.58-3.68c1.62.12.75,2.32.67,3.47-.14,2.22.72,2.88,2.76,2.6a7.63,7.63,0,0,1,1.85,0c.52,0,1.44-.33,1.28.74-.1.71-.28,1.46-1.38,1.52-1.42.08-3.42-.77-4.12.47s-.27,3.15-.3,4.76,0,3.09,0,4.63c.09,3.09,1.43,4.07,4.31,3.07,1-.34,2-.67,2.24.51s-1,1.1-1.72,1.33c-4.72,1.54-7.21-.24-7.21-5.11Z"/><path class="cls-2" d="M60.67,87.27c1.69-.57,2.6-.09,3.19,1.71,1.26,3.85,2.77,7.61,4.4,12,1.06-2.75,1.93-5,2.77-7.23.69-1.87,1.39-3.74,2-5.64a1.5,1.5,0,0,1,2.2-1c1.08.43.06,1.22-.11,1.7-1.59,4.49-3.3,8.93-4.93,13.4-.36,1-.67,1.7-2,1.68a2,2,0,0,1-2.11-1.55c-1.77-4.91-3.61-9.8-5.41-14.7A1.54,1.54,0,0,1,60.67,87.27Z"/><path class="cls-2" d="M47.69,90.15c0,3.16,0,6.31,0,9.47,0,1.18.11,2.41,1.79,2.39,1,0,.8.71.8,1.29,0,.93-.66.84-1.3.82-2.42-.11-3.74-1.5-3.77-4.29-.06-5.39,0-10.78,0-16.17,0-1.2.17-2.38-1.69-2.1-.85.13-.94-.54-1-1.21,0-.83.37-1.1,1.12-1h.23c3.79-.29,3.79-.29,3.79,3.45C47.68,85.22,47.68,87.69,47.69,90.15Z"/><path class="cls-1" d="M172.06,90.22v9.24c0,1.3.08,2.55,1.86,2.56,1,0,.85.7.81,1.31s-.6.76-1.17.78c-2.41.07-3.84-1.35-3.87-4.13-.05-5.39,0-10.78,0-16.18,0-1.3.16-2.55-1.81-2.25-.93.13-.86-.62-.9-1.25s.17-1,.9-1c.3,0,.61,0,.92,0,3.27,0,3.27,0,3.27,3.27Z"/><path class="cls-2" d="M57,94c0,1.69,0,3.38,0,5.07,0,1.19-.29,2.53,1.66,2.65,1,.07.63,1.08.61,1.71s-.61.75-1.17.76c-2.07.07-3.53-1.23-3.63-3.61-.14-3.23-.1-6.46-.07-9.69,0-1.07.15-2-1.43-1.8-.92.15-1.21-.34-1.18-1.21s.42-1,1.16-1.08c3.76-.47,4-.25,4,3.5Z"/><path class="cls-2" d="M181.47,93.9c0,1.76-.05,3.54,0,5.3,0,1.13,0,2.36,1.72,2.45,1,.06.72,1,.72,1.65,0,.9-.7.85-1.33.85-2.19,0-3.52-1.4-3.56-3.92,0-3.15-.06-6.3,0-9.46,0-1.17-.11-1.94-1.55-1.72-.88.14-1.23-.27-1.21-1.18s.58-1.13,1.36-1.09a.88.88,0,0,0,.23,0c3.59-.18,3.59-.18,3.59,3.42Z"/><path class="cls-1" d="M96.1,95.22c0-2.39,0-4.78,0-7.17,0-.42-.2-1,.41-1.17s1.2-.32,1.45.29c.65,1.64,1.32.56,2,.08a5.46,5.46,0,0,1,3.27-.93c1.1,0,1.21.6,1.22,1.48s-.37,1-1.25,1c-3.48,0-4.79,1.45-4.79,4.88q0,4.16,0,8.33c0,.85.15,1.69-1.21,1.67s-1.1-1-1.11-1.76C96.09,99.69,96.1,97.45,96.1,95.22Z"/><path class="cls-1" d="M218,94c0,1.54,0,3.08,0,4.62,0,1.3-.43,2.86,1.76,3.1.91.09.53,1.14.49,1.77s-.73.63-1.25.62a3.21,3.21,0,0,1-3.38-3.35c-.13-3.31-.12-6.63-.08-9.94,0-1.11.11-2-1.44-1.78-.84.13-1.26-.2-1.24-1.14s.56-1.15,1.35-1.1c.15,0,.3,0,.46,0,4.07,0,3.22-.38,3.31,3.26C218.06,91.37,218,92.68,218,94Z"/><path class="cls-2" d="M215.83,82.53c-1.2.25-1-.69-1.08-1.55-.14-1.5.86-1.28,1.77-1.31s1.55-.06,1.6,1.24C218.17,82.66,217,82.39,215.83,82.53Z"/><path class="cls-2" d="M179.45,79.7c1.15-.1,1.91-.09,1.9,1.34,0,1.63-1.13,1.31-2,1.47-1.1.2-1.22-.4-1.24-1.31C178.06,80.08,178.23,79.33,179.45,79.7Z"/><path class="cls-1" d="M55.24,82.54c-1.06.14-1.74,0-1.74-1.37s.56-1.5,1.66-1.49,1.7.07,1.68,1.43S56.37,82.76,55.24,82.54Z"/></g></g></svg>