<svg xmlns="http://www.w3.org/2000/svg" viewBox="0 0 358.05 222.38"><defs><style>.cls-1{fill:#6393f6;}.cls-2{fill:#e7922e;}</style></defs><title>sign-logo</title><g id="Layer_2" data-name="Layer 2"><g id="Layer_1-2" data-name="Layer 1"><path class="cls-1" d="M179,150.31c-41,0-74.41-33.71-74.41-75.15S138,0,179,0s74.42,33.71,74.42,75.16S220.06,150.31,179,150.31ZM179,7.15c-37.12,0-67.33,30.51-67.33,68s30.21,68,67.33,68,67.34-30.5,67.34-68S216.15,7.15,179,7.15Z"/><path class="cls-2" d="M229.08,53.8c-.49-1.17-1-2.32-1.58-3.44a54.25,54.25,0,0,0-8.34-12.18L207,46.82,183.87,63.36l-.72-1a13.55,13.55,0,0,0-24.48,7.28c-.06.87-.4,1.1-1.17,1.32a10.28,10.28,0,0,0,2.79,20.19q18.74,0,37.49,0A10.28,10.28,0,0,0,200.55,71a2,2,0,0,1-1.09-.61L215.34,59A39.61,39.61,0,1,1,179,35.09a39,39,0,0,1,18.48,4.63c.23.14.46.26.7.38a7.2,7.2,0,0,0,3.14.71A7.43,7.43,0,0,0,205.05,27l-.44-.24q-2.16-1.17-4.44-2.14a54,54,0,0,0-42.29,0A54.78,54.78,0,0,0,129,53.8,55.16,55.16,0,0,0,140.61,114a53.93,53.93,0,0,0,76.83,0A55.35,55.35,0,0,0,229.08,53.8Zm-33,19.69v.06a.5.5,0,0,0,.45.36c.75.06,1.54.1,2.32.22a6.82,6.82,0,0,1-.49,13.55c-1.64.1-3.29.11-4.93.11q-15.91,0-31.82,0a8.51,8.51,0,0,1-5.51-1.45,6.87,6.87,0,0,1,4-12.34h0a2.3,2.3,0,0,0,2.16-2.28c0-6.37,2.43-9.83,7.56-11.17,4.4-1.15,7.92.37,10.94,5,.38.57.74,1.19,1.09,1.85a1.42,1.42,0,0,0,2.27.31l0,0c2.17-2.2,4.73-3,7.66-1.81A6.63,6.63,0,0,1,196,72.61v.2C196,73,196.05,73.26,196.07,73.49Z"/><path class="cls-2" d="M14.32,191.77H8.41a12,12,0,0,1-3.16-.39,7,7,0,0,1-2.5-1.21,5.79,5.79,0,0,1-1.66-2.07,6.54,6.54,0,0,1-.61-2.89A6.35,6.35,0,0,1,1,182.58a6,6,0,0,1,1.56-2.09,7.43,7.43,0,0,1,2.5-1.37,10.41,10.41,0,0,1,3.33-.49h.15v-1.12h3.71v10.56h2.05ZM3.83,176a1.7,1.7,0,0,1-.6-1.4,1.75,1.75,0,0,1,.59-1.37,2.15,2.15,0,0,1,1.44-.51,2.13,2.13,0,0,1,1.44.51,1.75,1.75,0,0,1,.59,1.37,1.7,1.7,0,0,1-.6,1.4,2.18,2.18,0,0,1-1.43.49A2.18,2.18,0,0,1,3.83,176Zm4.73,6.38H7.65a4.21,4.21,0,0,0-1.27.2,4.07,4.07,0,0,0-1.12.57,2.79,2.79,0,0,0-.78.9,2.49,2.49,0,0,0-.29,1.21,2.58,2.58,0,0,0,1,2.12,3.44,3.44,0,0,0,1.06.55,4,4,0,0,0,1.25.19H8.56ZM8.67,176a1.7,1.7,0,0,1-.6-1.4,1.75,1.75,0,0,1,.59-1.37,2.15,2.15,0,0,1,1.44-.51,2.1,2.1,0,0,1,1.45.51,1.74,1.74,0,0,1,.58,1.37,1.7,1.7,0,0,1-.6,1.4,2.33,2.33,0,0,1-2.86,0Z"/><path class="cls-2" d="M18,188.07v-9.44h3.71v9.44h4.1v3.7H13.32v-3.7Zm-2.15,8a1.68,1.68,0,0,1-.62-1.4,1.74,1.74,0,0,1,.6-1.37,2.21,2.21,0,0,1,2.87,0,1.74,1.74,0,0,1,.6,1.37,1.68,1.68,0,0,1-.62,1.4,2.37,2.37,0,0,1-2.83,0Zm4.84,0a1.67,1.67,0,0,1-.61-1.4,1.73,1.73,0,0,1,.59-1.37,2.23,2.23,0,0,1,2.89,0,1.79,1.79,0,0,1,.58,1.37,1.68,1.68,0,0,1-.62,1.4,2.2,2.2,0,0,1-1.41.47A2.23,2.23,0,0,1,20.67,196.05Z"/><path class="cls-2" d="M29.74,188.07v3.7h-5v-3.7Z"/><path class="cls-2" d="M33.69,188.07v3.7h-5v-3.7Z"/><path class="cls-2" d="M37.64,188.07v3.7h-5v-3.7Z"/><path class="cls-2" d="M41.59,188.07v3.7h-5v-3.7Z"/><path class="cls-2" d="M45.54,188.07v3.7h-5v-3.7Z"/><path class="cls-2" d="M49.49,188.07v3.7h-5v-3.7Z"/><path class="cls-2" d="M53.44,188.07v3.7h-5v-3.7Z"/><path class="cls-2" d="M57.39,188.07v3.7h-5v-3.7Z"/><path class="cls-2" d="M59.13,188.07v-9.44h3.71v13.14H56.36v-3.7Zm.42,8a1.73,1.73,0,0,1-.64-1.46,1.75,1.75,0,0,1,.61-1.4,2.37,2.37,0,0,1,3,0,1.76,1.76,0,0,1,.62,1.4A1.73,1.73,0,0,1,62.5,196a2.3,2.3,0,0,1-1.47.5A2.34,2.34,0,0,1,59.55,196Z"/><path class="cls-2" d="M70.2,173.1v15h2.86v3.7H66.5V173.1Z"/><path class="cls-2" d="M77,188.07v3.7H72v-3.7Z"/><path class="cls-2" d="M81,188.07v3.7H76v-3.7Z"/><path class="cls-2" d="M84.91,188.07v3.7h-5v-3.7Z"/><path class="cls-2" d="M88.86,188.07v3.7h-5v-3.7Z"/><path class="cls-2" d="M97.16,188.07q.11-.49.21-1.35a12.78,12.78,0,0,0,.1-1.55,4.08,4.08,0,0,0-.24-1.34,2.5,2.5,0,0,0-.76-1.14,3.56,3.56,0,0,0-2.44-.78,5.82,5.82,0,0,0-1.55.2,7,7,0,0,0-1.79.91l-1.57-3.25a13.54,13.54,0,0,1,2.6-1.17,8.66,8.66,0,0,1,2.69-.39,7.09,7.09,0,0,1,2.61.46,5.8,5.8,0,0,1,2,1.34,7.27,7.27,0,0,1,1.52,2.29,7.77,7.77,0,0,1,.58,3.11,12.85,12.85,0,0,1-.08,1.53c0,.5-.1.87-.14,1.13h2.34v3.7H87.83v-3.7Z"/><path class="cls-2" d="M107.24,188.07v3.7h-5v-3.7Z"/><path class="cls-2" d="M111.19,188.07v3.7h-5v-3.7Z"/><path class="cls-2" d="M115.14,188.07v3.7h-5v-3.7Z"/><path class="cls-2" d="M119.09,188.07v3.7h-5v-3.7Z"/><path class="cls-2" d="M123,188.07v3.7h-5v-3.7Z"/><path class="cls-2" d="M139.63,187.61a2.52,2.52,0,0,0,1.85.68,2.25,2.25,0,0,0,1.79-.67,2.65,2.65,0,0,0,.59-1.85v-8.7h3.68v8.3c0,.37,0,.72,0,1s-.06.59-.09.8a4.3,4.3,0,0,0,3.1.85v3.7a9.06,9.06,0,0,1-1.94-.16,4.85,4.85,0,0,1-1.21-.46,3.59,3.59,0,0,1-.84-.65l-.31-.33Q145,192,141.48,192a9.8,9.8,0,0,1-1.33-.1,5.14,5.14,0,0,1-1.27-.37,4.89,4.89,0,0,1-1.15-.71A2.9,2.9,0,0,1,137,190a5.59,5.59,0,0,1-1.84,1.21,6.38,6.38,0,0,1-2.56.53H122v-3.7h4.86v-8.33h3.71v8.33h2a4.36,4.36,0,0,0,.93-.11,2.32,2.32,0,0,0,.87-.41,2.11,2.11,0,0,0,.63-.75,2.9,2.9,0,0,0,.23-1.23v-5.83H139v5.7A3,3,0,0,0,139.63,187.61Z"/><path class="cls-2" d="M151.65,188.07v-15h5.16v3.7h-1.45v15h-5.89v-3.7Z"/><path class="cls-2" d="M163.73,173.1v18.67H160V173.1Z"/><path class="cls-2" d="M177.51,191.38a6.93,6.93,0,0,1-2.5-1.21,5.79,5.79,0,0,1-1.66-2.07,6.92,6.92,0,0,1-.07-5.52,6,6,0,0,1,1.56-2.09,7.43,7.43,0,0,1,2.5-1.37,10.41,10.41,0,0,1,3.33-.49h.15v-1.12h3.71v14.26h-3.86A12,12,0,0,1,177.51,191.38ZM176.09,176a1.7,1.7,0,0,1-.6-1.4,1.75,1.75,0,0,1,.59-1.37,2.11,2.11,0,0,1,1.44-.51,2.15,2.15,0,0,1,1.44.51,1.75,1.75,0,0,1,.59,1.37,1.7,1.7,0,0,1-.6,1.4,2.33,2.33,0,0,1-2.86,0Zm4.73,6.38h-.91a4.33,4.33,0,0,0-1.28.2,4.16,4.16,0,0,0-1.11.57,2.79,2.79,0,0,0-.78.9,2.38,2.38,0,0,0-.29,1.21,2.67,2.67,0,0,0,.27,1.24,2.56,2.56,0,0,0,.72.88,3.44,3.44,0,0,0,1.06.55,4,4,0,0,0,1.25.19h1.07Zm.11-6.38a1.7,1.7,0,0,1-.6-1.4,1.75,1.75,0,0,1,.59-1.37,2.15,2.15,0,0,1,1.44-.51,2.12,2.12,0,0,1,1.45.51,1.74,1.74,0,0,1,.58,1.37,1.7,1.7,0,0,1-.6,1.4,2.33,2.33,0,0,1-2.86,0Z"/><path class="cls-2" d="M187.05,196.63a5.07,5.07,0,0,1-.94-.22l-.27-3.72c.54.13.92.21,1.13.24a4.89,4.89,0,0,0,.66,0,1.24,1.24,0,0,0,1.08-.42,2.64,2.64,0,0,0,.3-1.48V178.63h3.71v12a12.35,12.35,0,0,1-.26,2.68,4.8,4.8,0,0,1-.84,1.9,3.32,3.32,0,0,1-1.49,1.11,5.91,5.91,0,0,1-2.17.36A9.08,9.08,0,0,1,187.05,196.63Z"/><path class="cls-2" d="M200.08,173.1v18.67h-3.7V173.1Z"/><path class="cls-2" d="M209.74,188.07v-3.13a3.9,3.9,0,0,0-.13-1.08,2.27,2.27,0,0,0-.4-.79,1.81,1.81,0,0,0-.69-.54,2.45,2.45,0,0,0-1-.2h-1.63v-3.7h1.31A8.62,8.62,0,0,1,210,179a5.27,5.27,0,0,1,2.08,1.35,4.39,4.39,0,0,1,1.09,2,11.08,11.08,0,0,1,.3,2.65v6.69H202v-3.7Z"/><path class="cls-2" d="M221.88,188.07a4.58,4.58,0,0,0,1.32-.18,3.2,3.2,0,0,0,1-.51,2.57,2.57,0,0,0,.6-.84,3.09,3.09,0,0,0,.22-1.26V171.44h5.16v3.71h-1.45v10a8,8,0,0,1-.23,2c.55.63,1.62.94,3.19.94v3.7a8,8,0,0,1-2.09-.21,4.56,4.56,0,0,1-1.26-.55,3.23,3.23,0,0,1-.84-.74,2.6,2.6,0,0,0-.31-.39l-.23.22a5.81,5.81,0,0,1-2.46,1.29,12.66,12.66,0,0,1-3.29.38h-5.6l-.45-3.7Zm-3.94,8.73a2.93,2.93,0,0,1-.83-2.35v-1.32h5.22v2.26h-2.86a.57.57,0,0,0,.19.33,1,1,0,0,0,.73.2h1.23v1.59h-1.41A3.43,3.43,0,0,1,217.94,196.8Zm4.17-21.61v12.34H218.4V175.19Z"/><path class="cls-2" d="M232.89,188.07v-15H238v3.7h-1.45v15H230.7v-3.7Z"/><path class="cls-2" d="M246.23,193.9a10.07,10.07,0,0,1-.49-3.29,12.87,12.87,0,0,1,.25-2.54h1.45a10.52,10.52,0,0,1-.47-1.35,7.38,7.38,0,0,1-.29-2.09,6.24,6.24,0,0,1,.66-2.93,6.76,6.76,0,0,1,1.68-2.11,5.62,5.62,0,0,1,1.91-1,7.63,7.63,0,0,1,2.33-.34,9,9,0,0,1,2.46.33,13.74,13.74,0,0,1,2.54,1.05L257,183a9.33,9.33,0,0,0-1.81-.82,5,5,0,0,0-1.56-.27,3.4,3.4,0,0,0-2.25.69,2.66,2.66,0,0,0-.76,1,3.4,3.4,0,0,0-.22,1.26,5.3,5.3,0,0,0,.29,1.84,4.33,4.33,0,0,0,.73,1.35h7.23v3.7h-9.17v0a5.74,5.74,0,0,0,.23,1.57,10.39,10.39,0,0,0,.93,2l-2.92,1.36A11.19,11.19,0,0,1,246.23,193.9Z"/><path class="cls-2" d="M265.27,173.1v18.67h-3.71V173.1Z"/><path class="cls-2" d="M274.93,188.07v-3.13a3.9,3.9,0,0,0-.13-1.08,2.28,2.28,0,0,0-.41-.79,1.74,1.74,0,0,0-.69-.54,2.38,2.38,0,0,0-1-.2h-1.63v-3.7h1.32a8.51,8.51,0,0,1,2.75.41,5.24,5.24,0,0,1,2.09,1.35,4.46,4.46,0,0,1,1.08,2,11.08,11.08,0,0,1,.3,2.65v3H281v3.7h-13.9v-3.7Z"/><path class="cls-2" d="M285,188.07v3.7h-5v-3.7Z"/><path class="cls-2" d="M289,188.07v3.7h-5v-3.7Z"/><path class="cls-2" d="M292.92,188.07v3.7h-5v-3.7Z"/><path class="cls-2" d="M296.87,188.07v3.7h-5v-3.7Z"/><path class="cls-2" d="M300.82,188.07v3.7h-5v-3.7Z"/><path class="cls-2" d="M304.77,188.07v3.7h-5v-3.7Z"/><path class="cls-2" d="M308.72,188.07v3.7h-5v-3.7Z"/><path class="cls-2" d="M312.67,188.07v3.7h-5v-3.7Z"/><path class="cls-2" d="M316.62,188.07v3.7h-5v-3.7Z"/><path class="cls-2" d="M320.57,188.07v3.7h-5v-3.7Z"/><path class="cls-2" d="M324.52,188.07v3.7h-5v-3.7Z"/><path class="cls-2" d="M328.47,188.07v3.7h-5v-3.7Z"/><path class="cls-2" d="M330.21,188.07v-9.44h3.7v13.14h-6.47v-3.7Zm.42,8a1.73,1.73,0,0,1-.65-1.46,1.76,1.76,0,0,1,.62-1.4,2.37,2.37,0,0,1,3,0,1.75,1.75,0,0,1,.61,1.4,1.73,1.73,0,0,1-.64,1.46,2.34,2.34,0,0,1-1.48.5A2.3,2.3,0,0,1,330.63,196Z"/><path class="cls-2" d="M342.55,188.07a4.56,4.56,0,0,0,1.31-.18,3,3,0,0,0,1-.51,2.57,2.57,0,0,0,.6-.84,3.08,3.08,0,0,0,.23-1.26V171.44h5.15v3.71h-1.45v10a8.74,8.74,0,0,1-.43,2.75,5.22,5.22,0,0,1-1.33,2.18,5.91,5.91,0,0,1-2.47,1.29,12.6,12.6,0,0,1-3.29.38h-5.6l-.45-3.7Zm-3.94,8.51a2.91,2.91,0,0,1-.84-2.35v-1.32H343v2.25h-2.85a.56.56,0,0,0,.19.34,1,1,0,0,0,.72.2h1.23v1.58h-1.41A3.4,3.4,0,0,1,338.61,196.58Zm4.16-21.39v12.34h-3.7V175.19Z"/><path class="cls-2" d="M357.92,173.1v18.67h-3.7V173.1Z"/><path class="cls-1" d="M7.56,202.34a5.08,5.08,0,0,0-1.84,1.1,5.64,5.64,0,0,0-1.26,1.88,7.79,7.79,0,0,0,0,5.33,5.79,5.79,0,0,0,1.26,1.89,5.1,5.1,0,0,0,1.84,1.11A6.87,6.87,0,0,0,9.8,214a7.63,7.63,0,0,0,2.39-.36,10.75,10.75,0,0,0,2.36-1.14l1.47,3.4a11.39,11.39,0,0,1-3,1.29,13.11,13.11,0,0,1-3.36.42,10.58,10.58,0,0,1-4-.72,8.72,8.72,0,0,1-3-2A9.06,9.06,0,0,1,.68,211.8a11,11,0,0,1,0-7.63,9,9,0,0,1,1.94-3.07,8.72,8.72,0,0,1,3.05-2,10.58,10.58,0,0,1,4-.73,12.68,12.68,0,0,1,3.36.44,11.41,11.41,0,0,1,3,1.3l-1.47,3.37a11.15,11.15,0,0,0-2.34-1.11A7.85,7.85,0,0,0,9.8,202,6.87,6.87,0,0,0,7.56,202.34Z"/><path class="cls-1" d="M17.63,198.68h3.7v18.68h-3.7Z"/><path class="cls-1" d="M27.59,217.09a7.39,7.39,0,0,1-2.24-1.45,6.47,6.47,0,0,1-1.5-2.19,6.78,6.78,0,0,1-.55-2.74,6.66,6.66,0,0,1,.55-2.73,6.89,6.89,0,0,1,1.5-2.19,7,7,0,0,1,2.24-1.49,7.69,7.69,0,0,1,5.61,0,7,7,0,0,1,2.24,1.49,6.89,6.89,0,0,1,1.5,2.19,6.66,6.66,0,0,1,.55,2.73,6.78,6.78,0,0,1-.55,2.74,6.47,6.47,0,0,1-1.5,2.19,7.39,7.39,0,0,1-2.24,1.45,7.69,7.69,0,0,1-5.61,0Zm4.16-3.36a3.12,3.12,0,0,0,1-.69,3,3,0,0,0,.65-1,3.64,3.64,0,0,0,.22-1.29,3.7,3.7,0,0,0-.22-1.3,3,3,0,0,0-.65-1,3.32,3.32,0,0,0-1-.7,3.54,3.54,0,0,0-2.71,0,3.32,3.32,0,0,0-1,.7,3,3,0,0,0-.65,1,3.7,3.7,0,0,0-.22,1.3,3.64,3.64,0,0,0,.22,1.29,3,3,0,0,0,.65,1,3.12,3.12,0,0,0,1,.69,3.66,3.66,0,0,0,2.71,0Z"/><path class="cls-1" d="M50.75,204.21v12.41c-.58.19-1.09.35-1.51.47s-.85.22-1.28.3-.88.14-1.35.18-1,.05-1.53.05a10.14,10.14,0,0,1-2.33-.26,5.07,5.07,0,0,1-1.91-.92,4.24,4.24,0,0,1-1.28-1.68,6.37,6.37,0,0,1-.46-2.58v-8h3.7v7.08a3.25,3.25,0,0,0,.51,2.15A2.2,2.2,0,0,0,45,214a9.91,9.91,0,0,0,1-.07,7.86,7.86,0,0,0,1-.18v-9.53Z"/><path class="cls-1" d="M65.68,198.68v18.23a19.87,19.87,0,0,1-5.34.71,9.18,9.18,0,0,1-3.2-.52,7.08,7.08,0,0,1-2.41-1.45,6.12,6.12,0,0,1-1.5-2.19,7.36,7.36,0,0,1,0-5.46,6.47,6.47,0,0,1,1.5-2.21,7,7,0,0,1,2.35-1.49,8.06,8.06,0,0,1,3-.53c.3,0,.63,0,1,0l.88.09v-5.22ZM57.57,213.2a4.29,4.29,0,0,0,2.75.79,7.72,7.72,0,0,0,1.65-.18V207.6a6,6,0,0,0-.79-.14,6.55,6.55,0,0,0-.86-.06,4.24,4.24,0,0,0-2.74.82,3,3,0,0,0-1,2.51A3,3,0,0,0,57.57,213.2Z"/><path class="cls-1" d="M79.63,203.79v13.57h-3.8V198.68h6l3.73,14.37,3.77-14.37H95.2v18.68H91.41V203.81l-3.66,13.55H83.31Z"/><path class="cls-1" d="M101.89,217.39a6.54,6.54,0,0,1-2-.75,4,4,0,0,1-1.39-1.37,3.89,3.89,0,0,1-.54-2.11,4.18,4.18,0,0,1,.47-2,3.94,3.94,0,0,1,1.29-1.43,5.81,5.81,0,0,1,1.94-.85,9.9,9.9,0,0,1,2.44-.28l1.14,0a10,10,0,0,1,1.16.13,1.42,1.42,0,0,0-.83-1.09,4.72,4.72,0,0,0-1.92-.32,6.41,6.41,0,0,0-1,.09c-.38.06-.76.14-1.14.23a9.91,9.91,0,0,0-1.13.35c-.36.13-.86.35-1.48.65l.49-3.89a11.22,11.22,0,0,1,4.71-1,9.05,9.05,0,0,1,2.32.28,4.93,4.93,0,0,1,1.87.9,4.13,4.13,0,0,1,1.25,1.64A6,6,0,0,1,110,209v7.52a14.85,14.85,0,0,1-2.87.82,16.85,16.85,0,0,1-2.89.25A11.16,11.16,0,0,1,101.89,217.39Zm3.61-5.67a8.17,8.17,0,0,0-1.06-.08,7.16,7.16,0,0,0-1.07.08,3.17,3.17,0,0,0-.85.24,1.22,1.22,0,0,0-.53.4,1,1,0,0,0-.18.6,1,1,0,0,0,.68,1,4.4,4.4,0,0,0,1.77.3,7.4,7.4,0,0,0,1.14-.09,6.32,6.32,0,0,0,.87-.18v-2.12Z"/><path class="cls-1" d="M114.53,204.16c.52-.08,1-.15,1.54-.2s1-.1,1.43-.14.85,0,1.2,0A10.9,10.9,0,0,1,121,204a4.93,4.93,0,0,1,2,.86,4.36,4.36,0,0,1,1.32,1.68,6.34,6.34,0,0,1,.49,2.67v8.15h-3.7V210.1a2.82,2.82,0,0,0-.63-2.14,2.75,2.75,0,0,0-1.89-.56,10.82,10.82,0,0,0-1.08.07c-.4,0-.74.09-1,.13v9.76h-3.7v-12.9Z"/><path class="cls-1" d="M130.81,217.39a6.64,6.64,0,0,1-2-.75,4.14,4.14,0,0,1-1.39-1.37,3.89,3.89,0,0,1-.54-2.11,4.18,4.18,0,0,1,.47-2,4,4,0,0,1,1.3-1.43,5.72,5.72,0,0,1,1.94-.85,9.77,9.77,0,0,1,2.43-.28l1.14,0a10,10,0,0,1,1.16.13,1.42,1.42,0,0,0-.83-1.09,4.72,4.72,0,0,0-1.92-.32,6.41,6.41,0,0,0-1,.09c-.38.06-.75.14-1.14.23a10.58,10.58,0,0,0-1.13.35c-.36.13-.86.35-1.48.65l.49-3.89a11.22,11.22,0,0,1,4.71-1,9.05,9.05,0,0,1,2.32.28,4.93,4.93,0,0,1,1.87.9,4.13,4.13,0,0,1,1.25,1.64,6,6,0,0,1,.45,2.44v7.52a14.65,14.65,0,0,1-2.87.82,16.76,16.76,0,0,1-2.89.25A11.16,11.16,0,0,1,130.81,217.39Zm3.61-5.67a8,8,0,0,0-1.06-.08,7.16,7.16,0,0,0-1.07.08,3.09,3.09,0,0,0-.84.24,1.2,1.2,0,0,0-.54.4,1,1,0,0,0-.18.6,1,1,0,0,0,.68,1,4.49,4.49,0,0,0,1.78.3,7.27,7.27,0,0,0,1.13-.09,6.32,6.32,0,0,0,.87-.18v-2.12Z"/><path class="cls-1" d="M141.13,207.84a5.88,5.88,0,0,1,1.51-2.14,6.93,6.93,0,0,1,2.41-1.42,9.38,9.38,0,0,1,3.2-.51,19.22,19.22,0,0,1,5.33.73v11.61a11.11,11.11,0,0,1-.33,2.91,4.1,4.1,0,0,1-1.16,1.95,4.69,4.69,0,0,1-2.12,1.08,13.25,13.25,0,0,1-3.21.33c-.27,0-.57,0-.89,0l-1-.12c-.32-.05-.65-.11-1-.18s-.66-.16-1-.28l-.83-4a11.47,11.47,0,0,0,1.52.58c.37.1.75.2,1.15.29a9.76,9.76,0,0,0,1.14.2,7.68,7.68,0,0,0,1,.07,6.76,6.76,0,0,0,1.25-.11,3,3,0,0,0,1-.35,1.77,1.77,0,0,0,.59-.56,1.49,1.49,0,0,0,.2-.79v.07a8.8,8.8,0,0,1-.88.1l-1,0a8.32,8.32,0,0,1-3-.52,7.25,7.25,0,0,1-2.34-1.43,6.09,6.09,0,0,1-1.51-2.14,6.86,6.86,0,0,1-.52-2.69A7,7,0,0,1,141.13,207.84Zm8-.36a5.88,5.88,0,0,0-.9-.08,4.48,4.48,0,0,0-2.76.75,3.34,3.34,0,0,0,0,4.75,4.36,4.36,0,0,0,2.76.77c.27,0,.55,0,.86,0l.79-.12v-5.9Z"/><path class="cls-1" d="M164.15,213.9a9.76,9.76,0,0,0,1-.23,5.35,5.35,0,0,0,.88-.32,4,4,0,0,0,.9-.68l1.67,3.39A13.42,13.42,0,0,1,166,217.2a11,11,0,0,1-3.25.42,7.6,7.6,0,0,1-2.85-.52,7,7,0,0,1-2.29-1.45,6.5,6.5,0,0,1-1.51-2.2,7.41,7.41,0,0,1,0-5.53,6.93,6.93,0,0,1,1.5-2.2,6.71,6.71,0,0,1,2.21-1.44,7.53,7.53,0,0,1,5.5,0,5.92,5.92,0,0,1,2.19,1.58,7,7,0,0,1,1.39,2.52,10.61,10.61,0,0,1,.41,3.62h-9.86a2.22,2.22,0,0,0,1.09,1.4,4.29,4.29,0,0,0,2.3.57h.34A5.87,5.87,0,0,0,164.15,213.9Zm-3.66-6.18a2.51,2.51,0,0,0-1,1.13h5.83a2.06,2.06,0,0,0-.94-1.21,3.45,3.45,0,0,0-2-.53A3.14,3.14,0,0,0,160.49,207.72Z"/><path class="cls-1" d="M186,207.94a2.24,2.24,0,0,0-1.68-.54,5,5,0,0,0-1.09.13,4.06,4.06,0,0,0-1,.32l.21.42s0,.16,0,.39.06.47.07.71,0,.44,0,.62v7.37h-3.7v-7.28a5.53,5.53,0,0,0-.14-1.35,1.62,1.62,0,0,0-.39-.8,1.36,1.36,0,0,0-.68-.4,3.49,3.49,0,0,0-1-.13,4.39,4.39,0,0,0-.91.09l-.85.14v9.73h-3.7V204.5c1.16-.21,2.2-.38,3.13-.52a16.45,16.45,0,0,1,2.38-.21,10.09,10.09,0,0,1,2,.21,3.44,3.44,0,0,1,1.55.66,13.42,13.42,0,0,1,2-.61,9.66,9.66,0,0,1,2.15-.26,10.19,10.19,0,0,1,2.24.23,4.57,4.57,0,0,1,1.85.86,4.2,4.2,0,0,1,1.24,1.68,6.9,6.9,0,0,1,.44,2.67v8.15h-3.7v-7.28A3.22,3.22,0,0,0,186,207.94Z"/><path class="cls-1" d="M200.53,213.9a9.76,9.76,0,0,0,1-.23,4.92,4.92,0,0,0,.87-.32,4,4,0,0,0,.91-.68l1.67,3.39a13.42,13.42,0,0,1-2.62,1.14,11,11,0,0,1-3.25.42,7.65,7.65,0,0,1-2.86-.52,7,7,0,0,1-2.28-1.45,6.5,6.5,0,0,1-1.51-2.2,6.94,6.94,0,0,1-.54-2.74,7,7,0,0,1,.55-2.79,6.76,6.76,0,0,1,3.71-3.64,7.53,7.53,0,0,1,5.5,0,6,6,0,0,1,2.18,1.58,7,7,0,0,1,1.4,2.52,10.61,10.61,0,0,1,.41,3.62h-9.86a2.22,2.22,0,0,0,1.09,1.4,4.29,4.29,0,0,0,2.3.57h.33A5.89,5.89,0,0,0,200.53,213.9Zm-3.66-6.18a2.44,2.44,0,0,0-1,1.13h5.82a2,2,0,0,0-.93-1.21,3.46,3.46,0,0,0-2-.53A3.11,3.11,0,0,0,196.87,207.72Z"/><path class="cls-1" d="M209.29,204.16c.52-.08,1-.15,1.54-.2s1-.1,1.42-.14.85,0,1.21,0a11,11,0,0,1,2.33.23,4.89,4.89,0,0,1,1.94.86,4.39,4.39,0,0,1,1.33,1.68,6.34,6.34,0,0,1,.49,2.67v8.15h-3.7V210.1a2.82,2.82,0,0,0-.63-2.14,2.77,2.77,0,0,0-1.89-.56c-.33,0-.69,0-1.09.07s-.73.09-1,.13v9.76h-3.71v-12.9Z"/><path class="cls-1" d="M223.35,204.21v-4.59h3.7v4.59h4.78v3.48h-4.78V212a3.7,3.7,0,0,0,.1,1,1.2,1.2,0,0,0,.3.55,1.27,1.27,0,0,0,.58.29,3.77,3.77,0,0,0,1,.1h2.93v3.49h-3.26a11.42,11.42,0,0,1-2.34-.22,4.17,4.17,0,0,1-1.67-.72,3,3,0,0,1-1-1.34,5.66,5.66,0,0,1-.31-2v-5.38H221v-3.48Z"/><path class="cls-1" d="M247.6,202.34a5.08,5.08,0,0,0-1.84,1.1,5.36,5.36,0,0,0-1.26,1.88,7.79,7.79,0,0,0,0,5.33,5.5,5.5,0,0,0,1.26,1.89,5.1,5.1,0,0,0,1.84,1.11,6.87,6.87,0,0,0,2.24.36,7.63,7.63,0,0,0,2.39-.36,10.75,10.75,0,0,0,2.36-1.14l1.47,3.4a11.39,11.39,0,0,1-3,1.29,13.11,13.11,0,0,1-3.36.42,10.58,10.58,0,0,1-4-.72,8.72,8.72,0,0,1-3.05-2,9.06,9.06,0,0,1-1.94-3.07,11,11,0,0,1,0-7.63,9,9,0,0,1,1.94-3.07,8.72,8.72,0,0,1,3.05-2,10.58,10.58,0,0,1,4-.73,12.68,12.68,0,0,1,3.36.44,11.41,11.41,0,0,1,3,1.3l-1.47,3.37a11.15,11.15,0,0,0-2.34-1.11,7.85,7.85,0,0,0-2.41-.36A6.87,6.87,0,0,0,247.6,202.34Z"/><path class="cls-1" d="M263.47,207.58H263l-.71,0-1,.12c-.44.06-.39,0,.14-.18v9.78h-3.7V204.59c.55-.1,1.05-.19,1.49-.25s.89-.13,1.33-.17.87-.08,1.28-.11.79-.05,1.12-.05h2.66v3.57Z"/><path class="cls-1" d="M275,213.9a9.76,9.76,0,0,0,1-.23,4.92,4.92,0,0,0,.87-.32,3.77,3.77,0,0,0,.9-.68l1.68,3.39a13.42,13.42,0,0,1-2.62,1.14,11.06,11.06,0,0,1-3.25.42,7.65,7.65,0,0,1-2.86-.52,7,7,0,0,1-2.28-1.45,6.5,6.5,0,0,1-1.51-2.2,6.94,6.94,0,0,1-.54-2.74,7,7,0,0,1,.55-2.79,6.78,6.78,0,0,1,3.7-3.64,7.19,7.19,0,0,1,2.72-.51,7,7,0,0,1,2.78.53,5.92,5.92,0,0,1,2.19,1.58,7,7,0,0,1,1.4,2.52,10.87,10.87,0,0,1,.41,3.62h-9.86a2.19,2.19,0,0,0,1.09,1.4,4.29,4.29,0,0,0,2.3.57H274A5.89,5.89,0,0,0,275,213.9Zm-3.66-6.18a2.44,2.44,0,0,0-.95,1.13h5.82a2,2,0,0,0-.94-1.21,3.43,3.43,0,0,0-2-.53A3.09,3.09,0,0,0,271.32,207.72Z"/><path class="cls-1" d="M285.42,217.39a6.64,6.64,0,0,1-2-.75,4.14,4.14,0,0,1-1.39-1.37,3.89,3.89,0,0,1-.54-2.11,4.18,4.18,0,0,1,.47-2,4,4,0,0,1,1.3-1.43,5.72,5.72,0,0,1,1.94-.85,9.77,9.77,0,0,1,2.43-.28l1.14,0a10,10,0,0,1,1.16.13,1.42,1.42,0,0,0-.83-1.09,4.72,4.72,0,0,0-1.92-.32,6.41,6.41,0,0,0-1,.09c-.37.06-.75.14-1.14.23a10.58,10.58,0,0,0-1.13.35c-.36.13-.86.35-1.48.65l.49-3.89a11.22,11.22,0,0,1,4.71-1,9.05,9.05,0,0,1,2.32.28,4.93,4.93,0,0,1,1.87.9,4.13,4.13,0,0,1,1.25,1.64,6,6,0,0,1,.45,2.44v7.52a14.65,14.65,0,0,1-2.87.82,16.76,16.76,0,0,1-2.89.25A11.16,11.16,0,0,1,285.42,217.39Zm3.61-5.67a8,8,0,0,0-1-.08,7.2,7.2,0,0,0-1.08.08,3.09,3.09,0,0,0-.84.24,1.2,1.2,0,0,0-.54.4,1,1,0,0,0-.18.6,1,1,0,0,0,.68,1,4.49,4.49,0,0,0,1.78.3,7.27,7.27,0,0,0,1.13-.09,6.32,6.32,0,0,0,.87-.18v-2.12Z"/><path class="cls-1" d="M297.3,204.21v-4.59H301v4.59h4.77v3.48H301V212a3.7,3.7,0,0,0,.1,1,1.2,1.2,0,0,0,.3.55,1.22,1.22,0,0,0,.58.29,3.67,3.67,0,0,0,1,.1h2.92v3.49h-3.25a11.35,11.35,0,0,1-2.34-.22,4.17,4.17,0,0,1-1.67-.72,2.9,2.9,0,0,1-1-1.34,5.65,5.65,0,0,1-.32-2v-5.38h-2.36v-3.48Z"/><path class="cls-1" d="M308.48,202.33a1.75,1.75,0,0,1-.64-1.47,1.78,1.78,0,0,1,.61-1.4,2.2,2.2,0,0,1,1.51-.54,2.15,2.15,0,0,1,1.49.54,2,2,0,0,1,0,2.83,2.12,2.12,0,0,1-1.5.54A2.4,2.4,0,0,1,308.48,202.33Zm3.33,1.88v13.15h-3.7V204.21Z"/><path class="cls-1" d="M313.13,204.21H317l3,9,3-9h3.88l-4.53,13.15h-4.68Z"/><path class="cls-1" d="M328.59,202.33a1.75,1.75,0,0,1-.65-1.47,1.79,1.79,0,0,1,.62-1.4,2.19,2.19,0,0,1,1.5-.54,2.16,2.16,0,0,1,1.5.54,1.8,1.8,0,0,1,.6,1.4,1.83,1.83,0,0,1-.59,1.43,2.13,2.13,0,0,1-1.51.54A2.35,2.35,0,0,1,328.59,202.33Zm3.33,1.88v13.15h-3.71V204.21Z"/><path class="cls-1" d="M335.93,204.21v-4.59h3.71v4.59h4.77v3.48h-4.77V212a3.7,3.7,0,0,0,.1,1,1.2,1.2,0,0,0,.3.55,1.22,1.22,0,0,0,.58.29,3.67,3.67,0,0,0,1,.1h2.92v3.49h-3.25a11.35,11.35,0,0,1-2.34-.22,4.17,4.17,0,0,1-1.67-.72,2.9,2.9,0,0,1-1-1.34,5.65,5.65,0,0,1-.32-2v-5.38h-2.36v-3.48Z"/><path class="cls-1" d="M348.05,218.36l1.15.29a10.3,10.3,0,0,0,1.15.2,7.54,7.54,0,0,0,1,.07,6.68,6.68,0,0,0,1.25-.11,2.94,2.94,0,0,0,.95-.35,1.68,1.68,0,0,0,.59-.56l.2-.32.14-.4a11.62,11.62,0,0,1-2.34.22,11,11,0,0,1-2.29-.23,4.53,4.53,0,0,1-1.84-.86,4.11,4.11,0,0,1-1.21-1.69,7.24,7.24,0,0,1-.42-2.66v-7.77h3.73v6.87a5.6,5.6,0,0,0,.13,1.35,2.16,2.16,0,0,0,.38.82,1.31,1.31,0,0,0,.66.41,3.63,3.63,0,0,0,1,.12,9.47,9.47,0,0,0,1-.06,9,9,0,0,0,1-.2v-9.31h3.71v11.92a11.11,11.11,0,0,1-.33,2.91,4.2,4.2,0,0,1-1.17,1.95,4.64,4.64,0,0,1-2.12,1.08,13.2,13.2,0,0,1-3.21.33c-.27,0-.56,0-.88,0l-1-.12c-.33-.05-.65-.11-1-.18s-.67-.16-1-.28l-.82-4A12,12,0,0,0,348.05,218.36Z"/></g></g></svg>