<svg xmlns="http://www.w3.org/2000/svg" xmlns:xlink="http://www.w3.org/1999/xlink" viewBox="0 0 775.4 413.98"><defs><style>.cls-1,.cls-13,.cls-22,.cls-24,.cls-28,.cls-29{fill:none;}.cls-2{mix-blend-mode:screen;}.cls-3{fill:#003d46;}.cls-4{fill:#9eb7c7;}.cls-5{opacity:0.67;}.cls-6{fill:#d1d3d4;}.cls-7{fill:#bdd3dd;}.cls-8{fill:url(#New_Pattern);}.cls-16,.cls-9{fill:#d7e8ef;}.cls-9{opacity:0.11;}.cls-10{fill:#112129;}.cls-11{fill:#223c48;}.cls-12{fill:#6a8d9f;}.cls-13{stroke:#9eb7c7;stroke-width:1.7px;}.cls-13,.cls-22,.cls-24,.cls-28,.cls-29{stroke-miterlimit:10;}.cls-14{fill:#94b0bd;}.cls-15{fill:#84a1ab;}.cls-17{fill:#92b0bd;}.cls-18{fill:#ff1b01;}.cls-19{fill:#f46800;}.cls-20{fill:#ea952e;}.cls-21{fill:#c47b2c;}.cls-22,.cls-29{stroke:#6a8d9f;}.cls-22,.cls-24,.cls-28,.cls-29{stroke-linecap:round;}.cls-22{stroke-width:6.78px;}.cls-23{fill:#d37f22;}.cls-24{stroke:#ff8300;}.cls-24,.cls-28{stroke-width:5.09px;}.cls-25{fill:#ff8300;}.cls-26{fill:#ddaf86;}.cls-27{fill:#d0936a;}.cls-28{stroke:#ffac5a;}.cls-29{stroke-width:3.39px;}.cls-30{fill:#f8a492;}.cls-31{fill:#001653;}.cls-32{fill:#fff;}.cls-33{fill:#957447;}.cls-34{fill:#c47622;}.cls-35{fill:#231f20;}.cls-36{fill:#5d70a2;}.cls-37{fill:#b5450e;opacity:0.6;}.cls-38{fill:#00424c;}.cls-39{fill:#fcc332;}.cls-40{fill:#f29913;}.cls-41{fill:#50bfa5;}.cls-42{fill:#0c004a;}.cls-43{fill:#ff7446;}.cls-44{fill:#fc9700;}.cls-45{fill:#f7a491;}.cls-46{fill:#184655;}.cls-47{fill:#355389;}.cls-48{fill:#3c8f7c;}.cls-49{fill:#fe875e;}.cls-50{fill:#96d9c9;}</style><pattern id="New_Pattern" data-name="New Pattern" width="18.96" height="18.96" patternTransform="translate(-38.44 -15.85)" patternUnits="userSpaceOnUse" viewBox="0 0 18.96 18.96"><rect class="cls-1" width="18.96" height="18.96"/><g class="cls-2"><path class="cls-3" d="M15.8,0,0,15.8V14.22L14.22,0ZM9.48,0,0,9.48V4.74L4.74,0ZM19,9.48,9.48,19H4.74L19,4.74Zm0,4.74V15.8L15.8,19H14.22Z"/></g></pattern></defs><title>slide-2</title><g id="Layer_2" data-name="Layer 2"><g id="Layer_1-2" data-name="Layer 1"><rect class="cls-4" x="53.67" y="372.83" width="721.73" height="15.27"/><g class="cls-5"><rect class="cls-6" x="147.29" y="86.91" width="34.81" height="9.36"/><rect class="cls-6" x="182.09" y="109.94" width="34.81" height="9.36"/><rect class="cls-6" x="264.24" y="300.13" width="34.81" height="9.36"/><rect class="cls-6" x="299.04" y="323.16" width="34.81" height="9.36"/><rect class="cls-6" x="705.78" y="20.72" width="34.81" height="9.36"/><rect class="cls-6" x="740.59" y="43.76" width="34.81" height="9.36"/><rect class="cls-6" x="403.35" width="34.81" height="9.36" transform="translate(841.5 9.36) rotate(180)"/><rect class="cls-6" x="368.54" y="23.03" width="34.81" height="9.36" transform="translate(771.89 55.43) rotate(180)"/><rect class="cls-6" x="81.19" y="9.3" width="34.81" height="9.36"/><rect class="cls-6" x="467.31" y="251.27" width="34.81" height="9.36"/><rect class="cls-6" x="736.33" y="297.22" width="34.81" height="9.36"/></g><rect class="cls-7" x="238.92" y="50.64" width="114.21" height="170.19"/><rect class="cls-8" x="238.92" y="50.64" width="114.21" height="170.19"/><path class="cls-4" d="M359,226.72H233v-182H359ZM242.6,218.35H349.45V53.11H242.6Z"/><rect class="cls-4" x="292.98" y="50.64" width="6.07" height="170.19"/><rect class="cls-4" x="238.91" y="132.41" width="114.22" height="6.64"/><path class="cls-9" d="M53.67,388.1H775.4a0,0,0,0,1,0,0v13.12A12.77,12.77,0,0,1,762.63,414H66.44a12.77,12.77,0,0,1-12.77-12.77V388.1a0,0,0,0,1,0,0Z"/><rect class="cls-4" x="539.39" y="44.74" width="188.46" height="343.35"/><rect class="cls-10" x="549.54" y="54.56" width="168.15" height="333.53"/><polygon class="cls-11" points="600.53 54.56 627.32 339.32 549.54 339.32 549.54 54.56 600.53 54.56"/><path class="cls-12" d="M717.69,55.35v334l-69.63,10.24V45.11Z"/><polygon class="cls-13" points="708.4 243.52 708.4 378.59 658.35 385.42 658.35 244.45 708.4 243.52"/><polygon class="cls-13" points="708.4 66.06 708.4 201.18 658.35 200.26 658.35 59.22 708.4 66.06"/><polygon class="cls-14" points="639.24 397.27 648.06 399.59 648.06 45.11 639.24 47.43 639.24 397.27"/><rect class="cls-4" x="641.07" y="207.43" width="5.16" height="42.35"/><rect class="cls-15" x="642.51" y="212.52" width="2.28" height="9.6"/><rect class="cls-15" x="642.51" y="228.2" width="2.28" height="9.6"/><path class="cls-15" d="M656.74,211.39c-1.26,0-2.29,2.19-2.29,4.89s1,4.88,2.29,4.88h3.52v-9.77Z"/><path class="cls-4" d="M660.74,209.53c-1.74,0-3.15,3-3.15,6.75S659,223,660.74,223h4.86V209.53Z"/><path class="cls-7" d="M668.76,216.28c0,3.72-1.41,6.74-3.16,6.74s-3.15-3-3.15-6.74,1.41-6.75,3.15-6.75S668.76,212.55,668.76,216.28Z"/><path class="cls-7" d="M659.36,231.67c0,3.18-1.2,5.75-2.68,5.75s-2.69-2.57-2.69-5.75,1.2-5.74,2.69-5.74S659.36,228.5,659.36,231.67Z"/><path class="cls-15" d="M657.13,230.87c0,.54-.2,1-.45,1s-.46-.44-.46-1,.2-1,.46-1S657.13,230.34,657.13,230.87Z"/><rect class="cls-15" x="656.49" y="231.21" width="0.37" height="2.23"/><path class="cls-7" d="M469.87,342.24c-.94,4.39-6.57,6.48-10.54,6.12a17.81,17.81,0,0,1-14.18-10c-2.13-4.56-1.25-9.95-2-14.84-.53-3.42-2.5-9.28-5.85-10.34,2.22,0,4.66,1.46,6.95,1.73,4.31.51,8.56.33,12.88.47,6.93.24,14.26.72,17.92,7.47a16.74,16.74,0,0,1,.74,13.47c-.8,2-4.1,6.68-6.17,5.92"/><path class="cls-16" d="M478.81,358.27c-.56-1.77-1.49-3.48-2.12-5.25-.72-2-5.33-11.3-6.33-13.23l-.09-.17c2.68-3.95,5.08-8.35,4.55-13.28,0-.14-.24-.13-.24,0,.08,5-1.95,8.86-4.51,12.89-.43-.81-.87-1.62-1.33-2.42a18.87,18.87,0,0,0,3.07-6.38c.6-2.23,1.65-4.8,1.4-7.13a.08.08,0,0,0-.15,0c.25,2.42-.93,5.34-1.68,7.64a16.07,16.07,0,0,1-1.52,3.51c-.41.67-.91,1.28-1.37,1.91q-.56-.93-1.14-1.83c.18-.33.33-.69.49-1a39.5,39.5,0,0,0,1.79-4.36,27.77,27.77,0,0,0,1.54-8.61c0-.09-.14-.11-.14,0a25.75,25.75,0,0,1-1.54,7.86c-.38,1.05-.79,2.11-1.25,3.13a19.32,19.32,0,0,1-1.22,2.55c-.55-.8-1.13-1.58-1.75-2.33a34.34,34.34,0,0,0,2.56-6.4c.63-1.95,1.2-4.08.63-6.11,0-.05-.09,0-.08,0,.55,2.19-.23,4.43-1,6.48a39.4,39.4,0,0,1-2.41,5.63c-.32-.37-.65-.73-1-1.08l-.72-.71c.67-1.87,1.51-3.67,2-5.61a19.9,19.9,0,0,0,.21-6.49c0-.13-.21-.09-.21,0a22.27,22.27,0,0,1-.58,6.95c-.47,1.63-1.18,3.17-1.78,4.76-.59-.56-1.2-1.09-1.82-1.6a25.9,25.9,0,0,0,2-10.3c0-.19-.29-.22-.29,0a26.62,26.62,0,0,1-.57,5.91,35.89,35.89,0,0,1-1.5,4.14l0,0a.39.39,0,0,0-.1-.08c-.74-.6-1.51-1.17-2.29-1.72,1.34-2.6,1-5.89.81-8.69,0-.09-.14-.06-.13,0,.1,2.83.27,5.84-.94,8.48-.59-.42-1.19-.82-1.8-1.21.46-2.54,1-5.1.34-7.65a0,0,0,1,0-.06,0c.6,2.53,0,5-.46,7.53-.84-.54-1.7-1.07-2.57-1.58a7.8,7.8,0,0,0,.63-5.78c0-.09-.15-.07-.13,0a7.39,7.39,0,0,1-.13,3.93,13.06,13.06,0,0,0-.52,1.74c-.69-.4-1.39-.81-2.1-1.2l0,0-.05,0a9.81,9.81,0,0,0,.2-4.44c0-.09-.16-.06-.13,0a8.44,8.44,0,0,1-.21,4.34l-1.69-.93a.43.43,0,0,1,0-.05.08.08,0,0,0,0,0,11.87,11.87,0,0,0-.07-3.15,0,0,0,0,0,0,0,16.9,16.9,0,0,1-.11,3.1l-.05,0-1.93-1a7.25,7.25,0,0,0-.15-2.54.06.06,0,0,0-.12,0,7.28,7.28,0,0,1,.08,2.42l-.13-.07a.1.1,0,0,0-.07,0c-1.21-.65-2.42-1.3-3.6-2,0,0,0,0,0,0,1.13.68,2.29,1.35,3.47,2a4.75,4.75,0,0,1-2.9,1.11c-.12,0-.14.19,0,.19a5,5,0,0,0,3.09-1.21l.15.09a.28.28,0,0,1,0,.09c0,.13.19.15.21,0l1.73,1c-1.43.7-2.51,1.85-4.23,1.88-.1,0-.11.15,0,.15,1.75,0,3-1.1,4.44-1.9v0c0,.13.15.21.2.08v0l1.68,1s0,.06,0,.09h0c-1.57,1.45-3,2.63-5.36,2.56a.06.06,0,0,0,0,.11c2,.13,4.58-.79,5.61-2.63.67.39,1.33.78,2,1.19-1.58,1.55-3.32,4-5.74,4-.12,0-.13.19,0,.19,2.51.07,4.29-2.44,5.94-4a.09.09,0,0,0,.13,0c.79.49,1.57,1,2.33,1.52-1.58,3.63-6,4.53-9.45,5.63a.14.14,0,0,0,.08.27c3.48-1.17,8-2,9.56-5.77h0a.1.1,0,0,0,.11.07c.53.37,1,.74,1.56,1.13a19.29,19.29,0,0,1-4.85,4.47,12.92,12.92,0,0,1-6.8,2.38.07.07,0,0,0,0,.13,11.58,11.58,0,0,0,6.71-2.11,19.49,19.49,0,0,0,5.19-4.69q1.11.87,2.16,1.8a27.9,27.9,0,0,1-5.49,5.14,21.11,21.11,0,0,1-7.76,2.65.1.1,0,0,0,0,.2c2.92-.5,5.33-1,7.87-2.56a31.47,31.47,0,0,0,5.68-5.13l.1.1a.18.18,0,0,0,.09.08c.63.59,1.22,1.2,1.79,1.84a30.47,30.47,0,0,1-6,5.92c-2.62,2-5.67,2.28-8.79,2.82a.07.07,0,1,0,0,.13c3-.32,6-.61,8.5-2.37a32.88,32.88,0,0,0,6.53-6,.25.25,0,0,0,.22,0c.26.31.52.62.77.94s.42.59.63.88a24.09,24.09,0,0,1-5.72,6.47c-2.36,1.91-5,2.12-7.75,3.05-.11,0,0,.21.08.17,3-.94,5.61-1.12,8.12-3.15a37.68,37.68,0,0,0,3.18-3.14,22.14,22.14,0,0,0,2.48-2.83,31.83,31.83,0,0,1,1.64,2.76c-3.14,3.74-6.93,10.06-12.58,8.8-.07,0-.11.1,0,.12,5.14,1.26,10-4.42,12.94-8.3.38.76.75,1.54,1.1,2.32a17.72,17.72,0,0,1-9.6,7.42c-.08,0-.07.16,0,.14a14.71,14.71,0,0,0,6.46-3.51,20.48,20.48,0,0,0,3.35-3.53c.34.8.67,1.61,1,2.42a14.36,14.36,0,0,1-2.48,2.86,21.52,21.52,0,0,1-3.94,2.43c-.11.06,0,.25.08.19a21.6,21.6,0,0,0,4-2.41,15.36,15.36,0,0,0,2.46-2.7l.18.48c.71,1.85,5,11,5.57,12.84.49,1.59,1,3.28,2.37,4.31C478,360,479.07,359.1,478.81,358.27Z"/><path class="cls-7" d="M497.05,341.62c.94,4.38,6.57,6.48,10.54,6.11a17.83,17.83,0,0,0,14.18-10c2.13-4.56,1.25-10,2-14.83.52-3.43,2.5-9.28,5.84-10.35-2.21,0-4.66,1.46-6.94,1.73-4.31.51-8.56.33-12.89.48-6.93.23-14.26.71-17.91,7.47a16.7,16.7,0,0,0-.74,13.47c.79,2,4.1,6.67,6.17,5.92"/><path class="cls-16" d="M488.11,357.64c.56-1.77,1.49-3.48,2.12-5.25.72-2.05,5.33-11.3,6.32-13.23l.09-.17c-2.67-3.94-5.07-8.35-4.54-13.28a.12.12,0,0,1,.24,0c-.08,4.95,2,8.86,4.51,12.88.43-.81.87-1.61,1.33-2.41a18.91,18.91,0,0,1-3.07-6.39c-.6-2.22-1.65-4.79-1.4-7.13a.08.08,0,0,1,.15,0c-.25,2.42.93,5.34,1.68,7.64a15.86,15.86,0,0,0,1.52,3.51c.41.67.91,1.28,1.37,1.91q.56-.93,1.14-1.83c-.18-.33-.33-.69-.49-1a37.64,37.64,0,0,1-1.79-4.36,27.77,27.77,0,0,1-1.54-8.61c0-.09.13-.11.14,0a25.46,25.46,0,0,0,1.54,7.86c.37,1.06.79,2.11,1.25,3.13a19.86,19.86,0,0,0,1.21,2.56c.55-.81,1.14-1.59,1.76-2.34a34,34,0,0,1-2.56-6.39c-.63-2-1.2-4.09-.63-6.12,0-.05.09,0,.08,0-.56,2.2.23,4.44,1,6.48a40.11,40.11,0,0,0,2.42,5.63c.32-.37.65-.73,1-1.08l.72-.71a58.44,58.44,0,0,1-2-5.61,19.32,19.32,0,0,1-.21-6.48c0-.14.21-.1.21,0a22.22,22.22,0,0,0,.58,6.95c.47,1.63,1.18,3.17,1.78,4.76.59-.56,1.19-1.08,1.81-1.6a26.06,26.06,0,0,1-2-10.3c0-.19.29-.21.29,0a27.19,27.19,0,0,0,.56,5.9,37.92,37.92,0,0,0,1.51,4.14l0,0a.39.39,0,0,1,.1-.08c.74-.59,1.5-1.17,2.29-1.72-1.34-2.6-1-5.89-.81-8.68,0-.09.14-.07.13,0-.1,2.82-.28,5.83.94,8.47.59-.42,1.19-.81,1.8-1.21-.46-2.54-1-5.1-.34-7.65,0,0,.07,0,.06,0-.6,2.53,0,5,.46,7.53.84-.54,1.7-1.07,2.57-1.58a7.8,7.8,0,0,1-.64-5.78c0-.09.16-.06.14,0A7.39,7.39,0,0,0,513,320a12.78,12.78,0,0,1,.52,1.75c.69-.41,1.39-.81,2.1-1.21l0,0,.06,0a9.68,9.68,0,0,1-.2-4.44c0-.09.16-.06.13,0a8.43,8.43,0,0,0,.21,4.34l1.69-.93a.43.43,0,0,1,0-.05s0,0,0,0a11.87,11.87,0,0,1,.07-3.15,0,0,0,1,1,0,0,16.86,16.86,0,0,0,.11,3.1l0,0,1.94-1a7.53,7.53,0,0,1,.14-2.55c0-.07.14-.05.12,0a7.57,7.57,0,0,0-.07,2.42l.13-.07.07,0c1.21-.65,2.42-1.3,3.6-1.95,0,0,0,0,0,0-1.13.68-2.29,1.35-3.47,2a4.72,4.72,0,0,0,2.9,1.11c.12,0,.14.2,0,.19a5,5,0,0,1-3.08-1.21l-.15.09a.28.28,0,0,0,0,.09c0,.13-.19.15-.21,0l-1.73,1c1.42.7,2.51,1.85,4.23,1.88.09,0,.11.16,0,.16-1.75,0-3-1.11-4.44-1.91v0c0,.13-.14.21-.19.08v0l-1.68,1a.29.29,0,0,0,0,.09h0c1.57,1.45,3,2.62,5.35,2.56a.05.05,0,0,1,0,.1c-2,.13-4.58-.79-5.61-2.63-.67.39-1.33.79-2,1.19,1.57,1.55,3.32,4,5.74,4,.12,0,.13.19,0,.19-2.51.07-4.29-2.44-5.94-4,0,.06-.09.08-.14.06-.78.49-1.56,1-2.32,1.51,1.58,3.63,6,4.53,9.45,5.63.16,0,.09.32-.08.27-3.48-1.17-8-2-9.56-5.77h0a.11.11,0,0,1-.1.08c-.53.36-1.05.74-1.56,1.12a19.51,19.51,0,0,0,4.85,4.48,13,13,0,0,0,6.79,2.37.07.07,0,0,1,0,.14,11.65,11.65,0,0,1-6.71-2.11,19.53,19.53,0,0,1-5.19-4.69c-.74.57-1.46,1.17-2.16,1.79a27.62,27.62,0,0,0,5.49,5.14,20.93,20.93,0,0,0,7.76,2.65.11.11,0,0,1,0,.21c-2.92-.51-5.33-1-7.87-2.57a31.47,31.47,0,0,1-5.68-5.13l-.1.1a.14.14,0,0,1-.09.08c-.63.59-1.22,1.2-1.79,1.84a30.47,30.47,0,0,0,6,5.92c2.62,2,5.67,2.28,8.79,2.82.09,0,.06.14,0,.13-3-.32-6-.61-8.51-2.37a32.8,32.8,0,0,1-6.52-6,.25.25,0,0,1-.22,0c-.26.31-.52.62-.77.94s-.43.59-.63.89a24.22,24.22,0,0,0,5.72,6.47c2.36,1.9,5,2.11,7.75,3,.11,0,0,.21-.09.17-3-.94-5.61-1.11-8.11-3.15a34.9,34.9,0,0,1-3.18-3.14,21.65,21.65,0,0,1-2.49-2.83,31.73,31.73,0,0,0-1.63,2.76c3.14,3.74,6.93,10.06,12.57,8.8.08,0,.12.1,0,.12-5.15,1.26-10-4.42-12.94-8.29-.39.76-.75,1.53-1.1,2.31a17.72,17.72,0,0,0,9.6,7.42c.08,0,.07.16,0,.14a14.6,14.6,0,0,1-6.47-3.51,20.45,20.45,0,0,1-3.34-3.53c-.35.8-.68,1.61-1,2.42a14.36,14.36,0,0,0,2.48,2.86,21.19,21.19,0,0,0,3.94,2.43c.11.06,0,.25-.09.19a22.37,22.37,0,0,1-4-2.4,15.42,15.42,0,0,1-2.46-2.71c-.06.16-.12.32-.19.49-.7,1.84-5,11-5.56,12.83-.49,1.59-1,3.29-2.38,4.31C488.91,359.41,487.85,358.47,488.11,357.64Z"/><path class="cls-7" d="M478.5,344.65c4.14,4.08,11.74,2.33,15.78-.89a23.11,23.11,0,0,0,8.23-21c-.95-6.45-5.75-11.66-8.42-17.5-1.87-4.08-3.91-11.83-1-15.38-2.38,1.61-4,4.91-6.29,6.84-4.3,3.62-9,6.46-13.62,9.71-7.34,5.2-14.94,10.95-14.08,20.87a21.76,21.76,0,0,0,8.81,15.13c2.27,1.57,9.2,4.3,10.91,2"/><path class="cls-16" d="M480.25,368.4c-.66-2.33-.87-4.84-1.46-7.21-.67-2.74-2.28-16-2.58-18.84,0-.08,0-.17,0-.25-5.72-2.37-11.46-5.42-14.41-11.15-.08-.15.17-.31.27-.16,3.45,5.42,8.44,8.2,14.08,10.74-.11-1.18-.21-2.37-.28-3.57a24.4,24.4,0,0,1-7.88-4.73c-2.24-2-5.22-4-6.61-6.72-.06-.11.12-.2.18-.09,1.46,2.81,4.82,5.13,7.27,7.08a21.1,21.1,0,0,0,4.15,2.73c.92.43,1.9.73,2.85,1.08,0-.93-.07-1.86-.07-2.79-.44-.23-.85-.51-1.27-.76a52.43,52.43,0,0,1-5.05-3.46,35.71,35.71,0,0,1-7.81-8.23c-.07-.09.07-.21.13-.11a33.45,33.45,0,0,0,7.28,7.41c1.16.88,2.36,1.72,3.6,2.5a25.55,25.55,0,0,0,3.13,1.9c0-1.26.09-2.53.23-3.78a44.07,44.07,0,0,1-7.33-5.1c-2.07-1.67-4.21-3.57-5-6.18,0-.06.09-.09.11,0,1,2.77,3.4,4.64,5.7,6.31a52.09,52.09,0,0,0,6.64,4.37c.08-.62.17-1.25.29-1.87.08-.43.17-.85.27-1.28a73.2,73.2,0,0,1-6.17-4.65c-2.23-2-3.4-4.29-4.86-6.88-.08-.15.16-.25.25-.11a28.85,28.85,0,0,0,5.59,7.12c1.67,1.43,3.54,2.59,5.32,3.88.24-1,.52-2,.83-3a33.73,33.73,0,0,1-9.55-9.71c-.13-.2.17-.44.31-.23a34.3,34.3,0,0,0,4.82,6,47.29,47.29,0,0,0,4.58,3.41v0a.33.33,0,0,1,.05-.15c.38-1.18.8-2.35,1.25-3.51-3.3-1.86-5.26-5.68-7.07-8.83-.06-.1.1-.17.16-.07,1.9,3.13,3.86,6.52,7.06,8.51.35-.87.71-1.73,1.09-2.59-2.31-2.42-4.74-4.8-5.84-8.05,0,0,.07-.08.09,0,1.15,3.17,3.6,5.44,5.86,7.83.53-1.19,1.09-2.37,1.66-3.55a10.11,10.11,0,0,1-4.81-5.81c0-.11.13-.18.16-.07a9.53,9.53,0,0,0,3,4.16,16.8,16.8,0,0,1,1.8,1.53c.46-.94.93-1.88,1.42-2.81,0,0,0,0,0,0l0-.06c-1.34-1.42-2.78-2.76-3.39-4.68,0-.11.13-.18.16-.07a11.08,11.08,0,0,0,3.33,4.56q.57-1.11,1.17-2.22l-.06-.05,0,0a15.53,15.53,0,0,1-2.18-3.46s0-.05,0,0a21.29,21.29,0,0,0,2.32,3.28h.07l1.35-2.51a9.86,9.86,0,0,1-1.66-2.86.08.08,0,0,1,.15-.06,9.65,9.65,0,0,0,1.64,2.67l.09-.17a.16.16,0,0,1,.05-.09c.85-1.57,1.69-3.13,2.5-4.69,0,0,0,0,0,0-.73,1.54-1.52,3.1-2.31,4.67a6.23,6.23,0,0,0,3.93-.87c.14-.08.29.11.15.19a6.49,6.49,0,0,1-4.2.9l-.1.2.07.09c.12.13-.09.3-.2.17l-1.18,2.3c2.05-.25,4,.22,5.92-1,.11-.07.24.08.13.16-1.9,1.24-4,.93-6.17,1.1l0,0c.13.12,0,.33-.15.23l0,0c-.38.74-.76,1.49-1.13,2.25l.09.08h0c2.74.45,5.16.68,7.63-1,.07-.05.15,0,.08.1-2.07,1.57-5.51,2.41-7.95,1.15-.44.9-.87,1.8-1.3,2.71,2.81.56,6.47,2,9.05.21.13-.09.28.1.15.19-2.68,1.87-6.4.42-9.3-.1a.12.12,0,0,1-.11.16q-.75,1.64-1.44,3.3c4.31,2.8,9.77.6,14.26-.65.22-.06.33.29.11.35-4.61,1.21-10.09,3.49-14.48.58v0a.11.11,0,0,1-.06.15c-.31.77-.6,1.55-.88,2.33a25.28,25.28,0,0,0,8.44,1.39,16.81,16.81,0,0,0,9.06-2.28c.09-.06.2.08.1.14a15.1,15.1,0,0,1-8.78,2.51,25.11,25.11,0,0,1-9-1.38c-.4,1.15-.75,2.32-1.06,3.49,3.21.82,6.24,1.7,9.61,1.65,3.78-.05,6.86-1.27,10.3-2.67a.13.13,0,0,1,.1.25c-3.52,1.54-6.45,2.77-10.35,2.84-3.43.06-6.52-.77-9.82-1.51a1.29,1.29,0,0,1,0,.19.21.21,0,0,1,0,.15c-.26,1.08-.47,2.17-.63,3.26a39.5,39.5,0,0,0,10.76,2.12c4.23.25,7.77-1.57,11.53-3.23a.09.09,0,0,1,.07.17c-3.48,1.79-6.89,3.59-10.9,3.49a41.94,41.94,0,0,1-11.35-1.84.35.35,0,0,1-.23.18c-.06.52-.12,1-.16,1.57s0,.94-.06,1.41a31.47,31.47,0,0,0,10.82,2.92c3.92.38,6.92-1.26,10.57-2.23.15,0,.18.21,0,.25-3.87,1.09-6.87,2.79-11,2.37a46.33,46.33,0,0,1-5.7-1.13,27.25,27.25,0,0,1-4.7-1.29,41.16,41.16,0,0,0,.19,4.15c6.08,1.82,14.69,6,19.91.57.07-.07.19,0,.12.1-4.67,5-14,2.35-19.94.25.13,1.1.28,2.19.46,3.29a23,23,0,0,0,15.7,1.19c.11,0,.18.13.07.17a19,19,0,0,1-9.51.8,26.4,26.4,0,0,1-6.13-1.43c.19,1.12.41,2.23.65,3.33a18.73,18.73,0,0,0,4.72,1.33,28,28,0,0,0,6-.18c.17,0,.22.24.05.26a28.14,28.14,0,0,1-6.08.27,19.25,19.25,0,0,1-4.59-1.18c.05.22.1.45.14.66.56,2.5,2.43,15.43,3.14,17.88.6,2.07,1.26,4.27.5,6.36A1.4,1.4,0,0,1,480.25,368.4Z"/><path class="cls-17" d="M503.52,390.79H463.83a4.45,4.45,0,0,1-4.43-4.06L457,360.1h53.31L508,386.73A4.45,4.45,0,0,1,503.52,390.79Z"/><polygon class="cls-12" points="457.6 366.53 509.75 366.53 510.33 360.1 457.02 360.1 457.6 366.53"/><polygon class="cls-17" points="455.4 364.2 511.95 364.2 513.32 354.09 454.03 354.09 455.4 364.2"/><path class="cls-12" d="M180.87,243.1h-26a3.62,3.62,0,0,1-3.62-3.63h0a3.62,3.62,0,0,1,3.62-3.62h26Z"/><rect class="cls-10" y="312.27" width="9.99" height="25.52"/><polygon class="cls-12" points="231.32 217.92 225.95 201.26 236.48 199.05 238.04 204.65 231.32 217.92"/><rect class="cls-10" x="5.63" y="342.22" width="28.79" height="14.99" rx="3.7"/><path class="cls-10" d="M115.61,343.78H257.13A20.22,20.22,0,0,1,236.91,364H135.82a20.21,20.21,0,0,1-20.21-20.22Z"/><rect class="cls-18" x="24.34" y="258.75" width="39.67" height="22.95" rx="2.35"/><rect class="cls-19" x="27.94" y="256.95" width="39.67" height="30.23" rx="1.38"/><path class="cls-20" d="M280.33,284.2c-4.37-7.11-13.28-4-13.28-4l-28.61-79.56-7.47,13a6.35,6.35,0,0,0-.57,5c3.66,12,18.57,61.75,21.76,87.9,2.77,22.63-18,29.21-28.25,31.08a45.68,45.68,0,0,1-8.16.73H163.32c-1.49,0-2.95-.08-4.39-.22a13.18,13.18,0,0,1-11.3-16l6.55-29.57a24.94,24.94,0,0,1,10-15l7-4.89a13,13,0,0,0,5.08-7.38l5.84-23H97.54c-56.31,4.6-77.43,51.94-77.43,51.94A17.74,17.74,0,0,0,2.37,312v40H252.66l1.22,0v-.09A44.15,44.15,0,0,1,293.41,308C289.59,300.77,283.27,289,280.33,284.2Z"/><circle class="cls-10" cx="73.75" cy="351.87" r="38.6"/><circle class="cls-16" cx="73.75" cy="351.87" r="25.97"/><circle class="cls-12" cx="73.75" cy="351.87" r="22.78"/><circle class="cls-10" cx="73.75" cy="351.87" r="12.13" transform="translate(-285.65 342.81) rotate(-76.72)"/><circle class="cls-10" cx="298.91" cy="351.87" r="38.6"/><circle class="cls-16" cx="298.91" cy="351.87" r="25.97"/><circle class="cls-12" cx="298.91" cy="351.87" r="22.78"/><circle class="cls-10" cx="298.91" cy="351.87" r="12.13" transform="translate(-110.57 565.14) rotate(-77.16)"/><path class="cls-21" d="M251.81,351.87a46.24,46.24,0,0,1,92.48,0H251.81"/><path class="cls-20" d="M257.13,351.87a40.93,40.93,0,1,1,81.85,0H257.13"/><rect class="cls-10" x="3.11" y="233.04" width="113.43" height="9.22" rx="2.27"/><polyline class="cls-22" points="11.72 238.37 24.98 251.63 79.67 251.63"/><path class="cls-23" d="M132.88,351.86V352H11.72v-.12a60.58,60.58,0,0,1,121.16,0Z"/><line class="cls-24" x1="57.74" y1="315.52" x2="86.86" y2="315.52"/><line class="cls-24" x1="51.18" y1="326.05" x2="93.42" y2="326.05"/><line class="cls-24" x1="41.9" y1="336.58" x2="102.7" y2="336.58"/><path class="cls-25" d="M220.74,183.21H247.4a0,0,0,0,1,0,0v22.92a0,0,0,0,1,0,0H220.74a5.65,5.65,0,0,1-5.65-5.65V188.87A5.65,5.65,0,0,1,220.74,183.21Z"/><polygon class="cls-25" points="247.4 203.59 252.65 206.14 252.65 183.21 247.4 185.76 247.4 203.59"/><rect class="cls-19" x="252.65" y="183.21" width="4.78" height="22.92"/><path class="cls-12" d="M204.67,204.32h0a4.42,4.42,0,0,1,2.48-6l18.79-7a2.87,2.87,0,0,1,3.6,1.49h0a2.86,2.86,0,0,1-1.21,3.7l-17.49,9.77A4.43,4.43,0,0,1,204.67,204.32Z"/><path class="cls-10" d="M221.81,196.54a4.15,4.15,0,0,0-3.37-2.38l-11.29,4.17a4.42,4.42,0,1,0,3.69,8l10.82-6A4.15,4.15,0,0,0,221.81,196.54Z"/><rect class="cls-26" x="14.91" y="171.09" width="87.85" height="62.17"/><rect class="cls-27" x="12.85" y="162.62" width="91.99" height="8.47"/><path class="cls-23" d="M147.35,324.37a14.19,14.19,0,0,1,.28-2.22l6.55-29.57a24.94,24.94,0,0,1,10-15l7-4.89a12.72,12.72,0,0,0,2.61-2.46h-56a6.28,6.28,0,0,0-4.94,10.16Z"/><path class="cls-23" d="M232.43,211.12,231,213.66a6.35,6.35,0,0,0-.57,5c3.66,12,18.57,61.75,21.76,87.9,2.77,22.63-18,29.21-28.25,31.08a45.68,45.68,0,0,1-8.16.73H163.32c-1.49,0-2.95-.08-4.39-.22a13.06,13.06,0,0,1-11.52-11.65l.2,8a11.33,11.33,0,0,0,11.33,11.05h60.22a34.37,34.37,0,0,0,31.26-20.1l3.27-7.16a34.45,34.45,0,0,0,1.87-23.42Z"/><path class="cls-28" d="M158.94,345.57h60.22a34.37,34.37,0,0,0,31.26-20.1l3.27-7.16a34.45,34.45,0,0,0,1.87-23.42l-23.13-83.77"/><path class="cls-10" d="M130.2,226.09h53.38a5.59,5.59,0,0,1,5.59,5.59v5.75a0,0,0,0,1,0,0H124.61a0,0,0,0,1,0,0v-5.75A5.59,5.59,0,0,1,130.2,226.09Z"/><path class="cls-23" d="M180.25,249.35l1.8-7.08H97.54a96,96,0,0,0-29.44,7.07Z"/><line class="cls-29" x1="50.49" y1="238.37" x2="50.49" y2="251.62"/><line class="cls-29" x1="64.01" y1="238.37" x2="64.01" y2="251.62"/><rect class="cls-19" x="182.09" y="351.98" width="3.77" height="38.49"/><rect class="cls-10" x="181.2" y="384.92" width="5.55" height="5.55"/><path class="cls-30" d="M343.24,350.54a8.63,8.63,0,0,0,0,.91,12.1,12.1,0,0,0,3,8.28c3.58,3.72,3.6,8.35-.18,9.14s-12.78-.25-12.78-.25-2-3.54-.64-13,2.19-19.81,2.19-19.81l10.26-1.6Z"/><path class="cls-31" d="M345.25,354.55s3.8,5.17,4.69,7.32.7,7.52,0,8.07c-6.15,4.86-17.82.49-17.82.49a70.82,70.82,0,0,1-1.21-7.94c-.4-4.37-.17-8.45,1.21-8.45s1.63,2.3,4.78,1.65S342,353.91,345.25,354.55Z"/><path class="cls-32" d="M331.15,364.67a40.76,40.76,0,0,0,8.59,2.44c3.2.45,7.5-1,10.75-2.4.17,2.29-.08,4.86-.55,5.23-6.15,4.86-17.82.49-17.82.49S331.57,368,331.15,364.67Z"/><path class="cls-33" d="M331.15,364.67c8.83,2.65,10.46,3.12,19.34,0a27.57,27.57,0,0,1-4.65,2,13.16,13.16,0,0,1-7.55.49A32.55,32.55,0,0,1,331.15,364.67Z"/><path class="cls-30" d="M445.88,189.8c-2.52.95-5.87,2.36-5.87,2.36-.43-1,7.9-2.82,9.07-5.36.63-1.36-9.56,3.64-10.27,3-.3-.25,11.53-4.1,11-5-.46-.78-12.43,3.44-12.5,2.86-.09-.81,10.37-2.91,9.43-4.08-.47-.6-13.17,2.83-14.54,3-1.67,0,4.39-4.11,2.32-4.67-2.8-.74-9.84,7.33-10.4,7.45-1.59.33-15.17,2-21.81-2.36-5.37-3.51-10.58-8.91-11.86-13.56s-3-11.07-1.5-16.1a65.71,65.71,0,0,0-18.05-.39c-.38,7.54,8.66,37.43,12.43,39.89,8.31,5.41,23.13,4.09,33.58,3.23,8.42-.7,16.67-2.36,24.26-6.2,1.69-.87,4-1.83,5.28-3.33A.5.5,0,0,0,445.88,189.8Z"/><path class="cls-34" d="M385.15,132.07c4.5,4.65,9.05,32.51,7.38,39.15-2.89,5.39-16,6.32-20.2,8.88-9.76-4-3.07-22-3.07-22l-3.56-35A30.18,30.18,0,0,1,385.15,132.07Z"/><path class="cls-30" d="M372.85,344.31a10.69,10.69,0,0,0,3.4,11.56,17.88,17.88,0,0,0,4.09,2.53c6,2.61,13.72,2,14.8,7.39s-37.9-1.51-37.9-1.51,2.7-13,2.88-15.24-.24-10.21-.24-10.21l15.05-1.08Z"/><path class="cls-31" d="M358.82,355.05s-.47,2.07-1.57,5.58a15.28,15.28,0,0,0-.41,6.83s36.51,1.73,38,.57.72-5.36.35-5.74-5-1.62-7.39-3.09-10.49-7-13.23-6.79-4,2.25-9.21,2.48S360.12,354,358.82,355.05Z"/><path class="cls-32" d="M394.83,368c-1.48,1.16-38-.57-38-.57a15.45,15.45,0,0,1,0-4.87c19.06,3.53,38.37-.3,38.37-.3C395.55,362.67,396.31,366.88,394.83,368Z"/><path class="cls-33" d="M356.81,362.59a99.6,99.6,0,0,0,38.37-.3,133.55,133.55,0,0,1-34.79.79Z"/><path d="M328.61,217.81c-6.26,22.9,1.52,125.65,1.52,125.65l18.75-1.29s4.26-102.21,7.36-105.3a1.88,1.88,0,0,1,2.62-.11,4.05,4.05,0,0,1,1.56,2.18c1.93,6.31,13,43,10.73,51.06-2.43,8.8-13.3,56-13.3,56l15.74.62s21.57-36,21.57-61.17-3.51-58.49-13.7-72.06C376.82,207.18,354,202.4,354,202.4S330.57,210.65,328.61,217.81Z"/><path class="cls-35" d="M362.5,345.91s10.87-50.28,13.3-59.66c1.77-6.82-4.84-33-8.59-46.77a6,6,0,0,0-9.51-3.19h0s15.89,44.9,13.45,53.71-13.3,56-13.3,56l15.74.62.11-.19Z"/><path class="cls-35" d="M332.5,213.05c-2,1.57-3.46,3.19-3.89,4.76-6.26,22.9,1.52,125.65,1.52,125.65l4.64-.32C334.51,339.42,327.77,242.71,332.5,213.05Z"/><path class="cls-35" d="M385.06,219.5a35.34,35.34,0,0,0-3.6-6.15,10.24,10.24,0,0,0-2.29-2.08,70.51,70.51,0,0,1-11.2,4.31c-15,4.63-31.24,2.16-38-.18a6.39,6.39,0,0,0-1.39,2.41,53.11,53.11,0,0,0-1.33,7.64c3.37,2.5,22.91,8.54,40.69,2.88C379.26,224.74,383.46,222.57,385.06,219.5Z"/><path class="cls-36" d="M330.13,351.23c4.81,1.56,16.37,1.18,19.13,0,2.55-1.08,2.72-10.55,0-11.06-3.82-.73-14.64-.65-19.13,0C327.39,340.56,327.5,350.38,330.13,351.23Z"/><path class="cls-36" d="M358.65,347c4.8,1.56,16.37,1.18,19.13,0,2.55-1.08,2.72-10.55,0-11.07-3.82-.72-14.65-.64-19.13,0C355.91,336.33,356,346.15,358.65,347Z"/><path class="cls-20" d="M351.48,122.26s-15.63-.8-22,6.77-5.86,87.15-3.28,89.37,24.82,8.93,42.47,3.7,18.77-12.39,18.77-12.39-4.69-53.51-4.69-68.14S368.44,118.33,351.48,122.26Z"/><path class="cls-34" d="M337.69,202.86c-1.38-3.84.1-16.06,1.67-24.9a35.1,35.1,0,0,1,3.53.84c1.89-5.85,3.56-21,3.61-30.57.11-17.9-8.95-23.1-8.95-23.1-1.8-.41-4.67,1.28-9.16,6-5.19,14.19-4.11,80.23-1.67,82.31,1,.89,3.06,6.47,8.29,7.58C336.37,215.63,339,206.41,337.69,202.86Z"/><path class="cls-34" d="M350.14,122.43c-3.4,3.12-3.66,3.18-.13,7.27s15.18,8.73,16.85,8c4.13-2,.28-8.46-2.46-13.14C363.54,123.05,353.53,119.31,350.14,122.43Z"/><path class="cls-30" d="M365.29,110.64s.92,21.54,0,22.48-14-3.61-15.14-6.29,4.77-41.6,4.77-41.6Z"/><path class="cls-37" d="M365.69,124.84c-2.32-.41-4.31-1-4.89-1.66-5.34-6-1.34-15.82-1.76-18.36-.83-5.07-2.54-9.25-1.68-13.62l7.93,19.44S365.62,118.43,365.69,124.84Z"/><path class="cls-38" d="M435.47,135.11c.89,2.24-1,4.42-2.9,3.45a2.08,2.08,0,0,1-1-1.11c-.89-2.24,1-4.42,2.9-3.45A2.11,2.11,0,0,1,435.47,135.11Z"/><path class="cls-38" d="M436.89,119.6a2.57,2.57,0,0,0-3.74-.76c-4.91,2.91-.47,15.72.06,17.16l.4,1.12.66-.93C438.37,130.43,439,122.68,436.89,119.6ZM434,134.26c-1.35-4.2-3.23-12.36-.25-14.13a2.66,2.66,0,0,1,.49-.23,1.36,1.36,0,0,1,1.71.61C437.38,122.61,437.24,128.94,434,134.26Z"/><path class="cls-38" d="M433,134.53c-.75-1.09-7.43-10.56-11.52-7.38a3.2,3.2,0,0,0-1.12,3.77c1,2.72,4.94,5.07,9.5,5.07a13.24,13.24,0,0,0,2.77-.29l1-.22Zm-11.48-4.16a1.67,1.67,0,0,1,.66-2,2,2,0,0,1,1.2-.4c2.48,0,6,4,7.93,6.5C426.46,135,422.29,132.52,421.52,130.37Z"/><rect class="cls-39" x="398.64" y="136.48" width="73.72" height="55.63" rx="13.8"/><path class="cls-40" d="M467.53,136.48h-23V192.1h23c2.67,0,4.83-3.45,4.83-7.71V144.18C472.36,139.93,470.2,136.48,467.53,136.48Z"/><path class="cls-38" d="M423.77,136.48H422c-9.83,17.75-3.81,48.84-2.32,55.62h1.42c-1-4.57-8.05-38.39,2.64-55.46A1.19,1.19,0,0,0,423.77,136.48Z"/><path class="cls-38" d="M457.77,191.89a1.48,1.48,0,0,0,0,.21h1.34c4-31.69-.41-48.46-3.36-55.62h-1.67C456.76,142.47,461.92,159,457.77,191.89Z"/><rect class="cls-41" x="300.87" y="219.28" width="49.07" height="32.96" rx="6.87"/><rect class="cls-32" x="306.5" y="223.08" width="41.56" height="25.37"/><rect class="cls-40" x="346.61" y="228.51" width="4.38" height="14.51" rx="1.09"/><path class="cls-30" d="M333.92,202.86c3.09,9.42-7.8,29.78-3.38,36.29s2.2,13.36-3.16,16.76-12-1.37-11.49-3.95,2-9.53,2.65-12.71-11.81-28.65-3-44.09c5.21-9.16-2.5-24.93,1.57-35.12,3.64,6.78,20.88,2.54,19.89,10C335.4,176.39,332.18,197.57,333.92,202.86Z"/><path class="cls-30" d="M373,88.32a60.72,60.72,0,0,1,2.24,14.06c0,6.34-.15,17.32-4.64,17.32s-10.92-1.24-12.42-10.21,0-18.85,4.49-21.17S373,88.32,373,88.32Z"/><path d="M371.22,94a1.66,1.66,0,0,0-2.22,1.9c.37,2.12.28,4.44-1.71,4.92-3.81.93-5.61,0-6.24.65s1.8,4.08,0,4.73-2.77-5.52-4.37-5.52-1.94,8.88,0,10.89-.28,4.73-2.84,4.73.32,3.22-3.14,4.3-6.23,1.07-7.34-3.3,0-6.81,0-6.81-3.53-4.13-2.63-8.21A33.17,33.17,0,0,1,343.52,96a60.45,60.45,0,0,0,2.27-7.65c.49-2.79,7.37-5.59,12.08-6.09s2.35-3.36,6.3-3.36,4.5,5.22,4.5,5.22,5.65-3.38,5.91-3.22c3.28,2,.55,5.52.55,5.52s2.71.28,3.26,3.8-1.73,5.66-5.34,4.51Q372,94.36,371.22,94Z"/><path class="cls-42" d="M375.13,81.26a20.88,20.88,0,0,0-2.71.64c-1.69.94-3.75,2.18-3.75,2.18a92.93,92.93,0,0,0-11.59,4.07,128.44,128.44,0,0,0-13.34,7.21c-.14.37-.22.6-.22.6s-.84,1.5-1.62,3.19c3.35-.74,9.9-3.26,17.2-6.74C367.35,88.48,375.59,81.65,375.13,81.26Z"/><path class="cls-43" d="M359.19,100.23s-1.91-3.52-3.61-1.56-.81,10.25,1.8,10.25S360.11,102.45,359.19,100.23Z"/><path class="cls-20" d="M338,125.29s5.32,4,5.22,22c-.05,9.54-2.85,25.71-4.58,31.56-7.16-2.27-17.26-2.41-24.58,0-1-7.81,1-24.48,2.25-29.86C319.39,135.7,330.43,122.27,338,125.29Z"/><path class="cls-20" d="M370.22,82.19a15,15,0,0,0-27.13,12.93c.13.29.28.56.43.84l27.07-12.91C370.48,82.76,370.35,82.48,370.22,82.19Z"/><path class="cls-34" d="M364.59,85.58c-.12-.29-.24-.58-.38-.87A14.9,14.9,0,0,0,348,76.51a14.3,14.3,0,0,1,2.22-1.29,15,15,0,0,1,20,7c.13.29.26.57.37.86L343.52,96C343.47,95.87,364.59,85.58,364.59,85.58Z"/><path class="cls-44" d="M382.68,77.66c-.29-.6-14.38,5.14-23.39,9.44S343.2,95.36,343.49,96s15.24-2.91,24.25-7.2S383,78.27,382.68,77.66Z"/><path class="cls-45" d="M611.2,348.46s3.18,3.15,3.26,4.3.28,13.54-1,14.7-5.12,2-3.89,3.28c.92,1,8.06.77,12.79.51,1.39-.08,3.12-11.25,3.67-12.89.79-2.39,3.3-8.39,2.58-10.05-.35-.81-2.62-1.85-5-3.4a21.89,21.89,0,0,1-4.88-5.27Z"/><path class="cls-45" d="M568.59,356.19s2.85,8.17,2.85,8.19a56.3,56.3,0,0,1,1,5.66c0,4.42-19.65-3.75-15.24-5.71a4.69,4.69,0,0,0,1.78-3.09c.2-2.32-1.66-5.22-1.66-5.22Z"/><path class="cls-46" d="M570.23,210.68l10.17,11.87,10,62.08,31.39,57.91s-4.72,7.25-9.79,8.39l-44.55-58.54-24.14-73.27.84-16.28Z"/><path class="cls-47" d="M544.76,199.22l-7,21.69s-6.18,64.58-5.3,69c2.14,10.86,23.84,70,23.84,70l13.91-1.77-15.26-69.88,25.42-65.65Z"/><path class="cls-30" d="M477.27,125.42c3.29,3.62,2.57,4.06,3,4.51s10.05,2.57,10.05,2.57,28.07,6.18,29.6,6.46l29.13-6.62,7.09,14.11s-31.86,6.33-33.58,6.36-38.68-13-42-14c0,0-4.38.28-7.14.37s-5.38-1.12-6.16-1.22a23.44,23.44,0,0,1-5.68-2c-2.59-1.29.44-1.31.44-1.31s5.21,1.47,5.25,1-2.85-1-5.73-2.36l-2.13-1c-1.75-.87-1.72-2.25.25-1.64a18.66,18.66,0,0,1,2.62,1,15,15,0,0,0,2.52.78,21.85,21.85,0,0,0,2.59.79c0-.1.35-.23-.42-.63a48.23,48.23,0,0,1-4.44-1.89c-.74-.47-2.35-1.35-2.35-1.35s-2.69-1.75-2.43-2.12c.57-.79,2.45,0,3.38.79a12.38,12.38,0,0,1,2.51,1.15s3.81,1.17,4,.61c.07-.23-1.89-1.37-3.85-2.73s-3.51-2.58-3.31-3c.32-.74,2.07.29,2.07.29s1.54.9,2.07,1.16,2.58,1.06,2.58,1.06,6.89,2.31,7,1.76a3.72,3.72,0,0,0-.48-2.37c-.38-.3-1.35-.46-1.73-.76s-1.13-1-.81-1.53,3.19.17,3.19.17A7.6,7.6,0,0,1,477.27,125.42Z"/><path class="cls-48" d="M539.07,133.84s1,6.18,1.65,8.47c.53,1.9,4.3,9.73,4.3,9.73s13.51-4.43,19.89-7c7.74-3.08,16.69-9.69,16.11-10.53-1.63-2.35-4.26-5.1-8-6C560.19,125.31,539.07,133.84,539.07,133.84Z"/><path class="cls-41" d="M537.51,220.45c12.88,5.09,43.17,2.15,43.17,2.15s-1.92-13.22-2.6-22.15,5-23.06,7.41-47.58c.51-5.2-1.53-19.24-8.82-23.65a12,12,0,0,0-4.13-1.75c-.07,0-10-2-15.11-.47-1.45,1.29-5.95,5-8.54,9.35A87,87,0,0,0,542,150.93c-2.93,9.73-4.18,37.88-4.18,43.19S537.51,220.45,537.51,220.45Z"/><path class="cls-45" d="M548.89,136.35l0,0c5,1.54,23.63-8.85,23.63-8.85v0l-2.26-14.81s-11.66-2.75-11,1.47-1.58,12.61-1.58,12.61l-.29.26C556,128.29,551.48,132,548.89,136.35Z"/><path class="cls-49" d="M559.3,114.12c-.68-4.2,11-1.46,11-1.46l.19,1.24A6.79,6.79,0,0,1,569.2,116,15.41,15.41,0,0,1,559,120.55,22.84,22.84,0,0,0,559.3,114.12Z"/><path class="cls-45" d="M572.53,89.89c.36-.13,2.86,18.33-1.89,23.41s-14,6.75-17.33,2.74c-3.67-4.42-3.49-24.26,3.9-29.49S572.53,89.89,572.53,89.89Z"/><path d="M560,76.68a20.5,20.5,0,0,1,10.77,6.1c2.59.3,6.12,1.73,9.76,7.71,4.47,7.36,1.17,15.52-4,19.52s-5.15,8.64-5.15,8.64-8.83-4.53-8-11.51c.36-2.92,1.63-3.59.68-5.88s-.25-6.08-.44-9.3l-.53-2s-3.69-2.86-7.31-2S552.69,75.19,560,76.68Z"/><path class="cls-45" d="M562.62,103.18c0,2.25.42,4.06,1.73,4.08s1.68-.86,2.76-4c1-3-.22-4.09-1.53-4.12S562.66,100.93,562.62,103.18Z"/><path d="M623.45,344.83s-6.66,20.44-9.53,21.45c-.76.27-5.11,1.46-5.8,3.1a1.31,1.31,0,0,0,0,.15,1.72,1.72,0,0,0,1.72,2h13.63s1.93-9.23,2.7-13.29c0,0,4-9.91,3.6-10.81S623.45,344.83,623.45,344.83Z"/><path d="M573.61,371.5l-2.25-7.21s-4.73,2-7.09,1.69a71.34,71.34,0,0,1-7-1.69c-9.43,3.15-17.16,4.68-15.75,7.21h32.06Z"/><path class="cls-30" d="M476.46,156.62a24.93,24.93,0,0,1,4.65,3.27c.67.38,11-.07,11-.07s30.4-1.14,32-1.26l28-13.6,11.05,11.67s-30.92,14-32.67,14.46-43.08-2.66-46.73-2.82c0,0-4.4,1.37-7.2,2.14s-5.81.28-6.64.38a26.2,26.2,0,0,1-6.35-.48c-3-.57.1-1.35.1-1.35s5.73.1,5.65-.34-3.18-.22-6.49-.82c-.86-.15-1.7-.31-2.47-.46-2-.39-2.36-1.7-.18-1.62a21.44,21.44,0,0,1,2.95.29,17.87,17.87,0,0,0,2.78.11,23,23,0,0,0,2.78.1c-.05-.09.39-.3-.51-.49-1.08-.23-3.48-.23-5.05-.69-.89-.26-2.77-.69-2.77-.69a15.75,15.75,0,0,1-2.23-1.52c.09-1,1.69-.5,2.85,0a14.5,14.5,0,0,1,2.87.47s4.22.17,4.25-.41c0-.22-2.43-.39-4.94-1.19-2.87-.91-3.58-2.2-3.5-2.71.12-.78,1.74-.05,1.74-.05a24.28,24.28,0,0,0,2.84,1.12c.72.14,10.2.31,10.17-.24s-.93-1.28-1.4-1.47-1.36-.44-1.82-.63a1.63,1.63,0,0,1-.6-1.73c.19-.57,2.25-.26,2.25-.26A9.59,9.59,0,0,1,476.46,156.62Z"/><path class="cls-50" d="M554.91,169.14s-5.51-6.95-7.44-9.77a120.1,120.1,0,0,1-6.85-11.63s15.37-8.86,21.09-11.87c21-11.08,20.54,5.44,19.56,9.11C579.08,153.18,554.91,169.14,554.91,169.14Z"/><path class="cls-49" d="M476.92,133.09c-1.82-1-3.23-2.66-2.77-4.71C472.6,130,474.56,133,476.92,133.09Z"/></g></g></svg>