<svg xmlns="http://www.w3.org/2000/svg" xmlns:xlink="http://www.w3.org/1999/xlink" viewBox="0 0 614.84 460.12"><defs><style>.cls-1{fill:#ea952e;}.cls-2{fill:#c67824;}.cls-3{fill:url(#linear-gradient);}.cls-36,.cls-4{fill:#6d6e70;}.cls-4{opacity:0.66;}.cls-5{fill:#9b8579;}.cls-6{fill:#fff;}.cls-7{fill:#cf5b4d;}.cls-13,.cls-23,.cls-25,.cls-8{fill:#42262d;}.cls-8{opacity:0.1;}.cls-9{fill:#fbbe76;}.cls-10{fill:#debc8f;}.cls-11{fill:#a6493e;}.cls-12{fill:#b09485;}.cls-13{opacity:0.28;}.cls-14{fill:#dbe8fd;}.cls-15{fill:#ffa066;}.cls-16{fill:#ffbf97;}.cls-17{fill:#e8ae89;}.cls-18{fill:#945561;}.cls-19{fill:#d46e6e;}.cls-20{fill:#9e2626;}.cls-21{fill:#e35f5f;}.cls-22{fill:url(#linear-gradient-2);}.cls-24{fill:#e88346;}.cls-25{opacity:0.12;}.cls-26{fill:#e0c5a3;}.cls-27{fill:#898b8e;}.cls-28{fill:url(#linear-gradient-3);}.cls-29{fill:url(#linear-gradient-4);}.cls-30{fill:url(#linear-gradient-5);}.cls-31{fill:url(#linear-gradient-6);}.cls-32{fill:#d1cbcf;}.cls-33{fill:#f7e2c5;}.cls-34{fill:#b2b4b6;}.cls-35{fill:#58595b;}.cls-36{opacity:0.43;}.cls-37{opacity:0.03;}.cls-38{fill:#f1f2f2;}</style><linearGradient id="linear-gradient" x1="183.41" y1="207.45" x2="183.41" y2="142.08" gradientUnits="userSpaceOnUse"><stop offset="0" stop-color="#a7a9ac"/><stop offset="0.45" stop-color="#afb0b2"/><stop offset="1" stop-color="#bfbfbf"/></linearGradient><linearGradient id="linear-gradient-2" x1="475.16" y1="103.24" x2="425.57" y2="486.37" gradientUnits="userSpaceOnUse"><stop offset="0" stop-color="#fff"/><stop offset="0.41" stop-color="#f1f6fe"/><stop offset="1" stop-color="#d5e5fd"/></linearGradient><linearGradient id="linear-gradient-3" x1="287.77" y1="361.65" x2="385.05" y2="361.65" xlink:href="#linear-gradient-2"/><linearGradient id="linear-gradient-4" x1="517.78" y1="117.31" x2="469.48" y2="226.63" xlink:href="#linear-gradient-2"/><linearGradient id="linear-gradient-5" x1="512.33" y1="119.1" x2="466.56" y2="222.67" xlink:href="#linear-gradient-2"/><linearGradient id="linear-gradient-6" x1="451.31" y1="102.38" x2="402.17" y2="482" xlink:href="#linear-gradient-2"/></defs><title>slide-3</title><g id="Layer_2" data-name="Layer 2"><g id="Layer_1-2" data-name="Layer 1"><rect class="cls-1" x="140.56" y="121.43" width="63.96" height="84.28"/><rect class="cls-2" x="130.76" y="121.43" width="9.8" height="83.97"/><rect class="cls-3" x="151.15" y="130.94" width="64.53" height="74.76"/><rect class="cls-4" x="151.15" y="130.94" width="9.18" height="74.45"/><path class="cls-5" d="M183.51,197.65l-1.33,7.74h1.33v.31h-74.6a2.1,2.1,0,0,1-2.32-1.77v-5a2.11,2.11,0,0,1,2.32-1.78h74.6Z"/><path class="cls-6" d="M183.51,197.66l-.13,1.81-.4,5.92h-27.1a2.1,2.1,0,0,1-2.32-1.77v-4.19a2.1,2.1,0,0,1,2.32-1.77Z"/><path class="cls-7" d="M175.9,189.11l-1.33,7.74h1.33v.31H119.07a2.11,2.11,0,0,1-2.32-1.78v-5a2.1,2.1,0,0,1,2.32-1.77H175.9Z"/><path class="cls-6" d="M175.9,189.11l-.11,1.75-.41,6H140.81a2.09,2.09,0,0,1-2.32-1.78v-4.21a2.11,2.11,0,0,1,2.32-1.75Z"/><path class="cls-8" d="M175.9,189.11l-.11,1.75h-37.3a2.11,2.11,0,0,1,2.32-1.75Z"/><path class="cls-9" d="M112,180.57l1.33,7.74H112v.31h56.83a2.11,2.11,0,0,0,2.32-1.78v-5a2.11,2.11,0,0,0-2.32-1.78H112Z"/><path class="cls-10" d="M163.48,181.85v5a2.11,2.11,0,0,1-2.32,1.78H155a2.11,2.11,0,0,0,2.32-1.78v-5a2.11,2.11,0,0,0-2.32-1.78h6.17A2.11,2.11,0,0,1,163.48,181.85Z"/><path class="cls-11" d="M122.27,190.39v5a2.1,2.1,0,0,0,2.32,1.78h6.17a2.1,2.1,0,0,1-2.32-1.78v-5a2.1,2.1,0,0,1,2.32-1.77h-6.17A2.1,2.1,0,0,0,122.27,190.39Z"/><path class="cls-12" d="M117.81,198.94v5a2.1,2.1,0,0,0,2.32,1.77h6.17a2.1,2.1,0,0,1-2.32-1.77v-5a2.11,2.11,0,0,1,2.32-1.78h-6.17A2.11,2.11,0,0,0,117.81,198.94Z"/><path class="cls-6" d="M112,180.57l.12,1.74.4,6h16.55a2.1,2.1,0,0,0,2.32-1.78v-4.22a2.12,2.12,0,0,0-2.32-1.74Z"/><path class="cls-8" d="M112,180.57l.12,1.74h19.27a2.12,2.12,0,0,0-2.32-1.74Z"/><path class="cls-8" d="M183.51,197.66l-.13,1.81H153.56v0a2.1,2.1,0,0,1,2.32-1.77Z"/><polygon class="cls-13" points="119.07 197.16 138.49 200.25 175.9 197.16 119.07 197.16"/><polygon class="cls-13" points="119.42 188.62 131.17 190.58 169.16 188.62 119.42 188.62"/><path class="cls-14" d="M439.23,193.47c0,6.09-7,10.56-15.22,10l-52.47-.63V184h67.69Z"/><polygon class="cls-15" points="371.54 200 347.34 198.09 347.34 183.96 371.54 183.96 371.54 200"/><path class="cls-15" d="M324,176h8.27a11.57,11.57,0,0,1,11.57,11.57v24.25a0,0,0,0,1,0,0h-8.27A11.57,11.57,0,0,1,324,200.22V176A0,0,0,0,1,324,176Z" transform="translate(527.78 -140.01) rotate(90)"/><path class="cls-1" d="M513,318.87H427.82a11.71,11.71,0,0,1-11.71-11.71h0a11.71,11.71,0,0,1,11.71-11.71H513a11.71,11.71,0,0,1,11.71,11.71h0A11.71,11.71,0,0,1,513,318.87Z"/><rect class="cls-1" x="471.87" y="132.35" width="68.92" height="163.1" rx="20.09"/><rect class="cls-16" x="466.02" y="318.87" width="20.96" height="52.11"/><rect class="cls-17" x="470.41" y="370.97" width="12.98" height="64.99"/><rect class="cls-17" x="419.95" y="429.81" width="115.42" height="10.11"/><circle class="cls-18" cx="535.37" cy="441.94" r="12.14"/><circle class="cls-18" cx="422.13" cy="441.94" r="12.14"/><rect class="cls-18" x="489.7" y="429.8" width="17.33" height="24.31"/><path class="cls-19" d="M455.79,48.55v64.87H422.68V68a6.44,6.44,0,0,1,0-.76,20.21,20.21,0,0,1,.33-3,.58.58,0,0,0,0-.19,19.8,19.8,0,0,1,.82-2.81,18.88,18.88,0,0,1,1.43-3c.24-.42.5-.82.78-1.23a18.49,18.49,0,0,1,1.4-1.8,16.42,16.42,0,0,1,1.61-1.62,18.56,18.56,0,0,1,1.71-1.39c.42-.3.85-.58,1.3-.85a18,18,0,0,1,3-1.47,21.86,21.86,0,0,1,2.12-.69c.3-.07.59-.15.89-.19a18.49,18.49,0,0,1,3-.39c.31,0,.64,0,1,0Z"/><path class="cls-20" d="M429.12,55.18v3h-3V57a18.49,18.49,0,0,1,1.4-1.8Z"/><path class="cls-20" d="M432.13,52.17v3h-3V53.56a18.56,18.56,0,0,1,1.71-1.39Z"/><path class="cls-20" d="M423.08,64v.19h0A.58.58,0,0,0,423.08,64Z"/><path class="cls-20" d="M426.11,58.21v3H423.9a18.88,18.88,0,0,1,1.43-3Z"/><rect class="cls-20" x="426.11" y="61.22" width="3.01" height="3.01"/><rect class="cls-20" x="429.12" y="58.2" width="3.01" height="3.01"/><rect class="cls-20" x="432.13" y="61.22" width="3.01" height="3.01"/><path class="cls-20" d="M423.08,67.25v3h-.4V68a6.44,6.44,0,0,1,0-.76Z"/><rect class="cls-20" x="423.09" y="64.23" width="3.01" height="3.01"/><rect class="cls-20" x="426.11" y="67.24" width="3.01" height="3.01"/><rect class="cls-20" x="429.12" y="64.23" width="3.01" height="3.01"/><rect class="cls-20" x="432.13" y="67.24" width="3.01" height="3.01"/><rect class="cls-20" x="422.68" y="73.27" width="0.4" height="3.02"/><rect class="cls-20" x="423.09" y="70.26" width="3.01" height="3.01"/><rect class="cls-20" x="426.11" y="73.27" width="3.01" height="3.01"/><rect class="cls-20" x="429.12" y="70.26" width="3.01" height="3.01"/><rect class="cls-20" x="432.13" y="73.27" width="3.01" height="3.01"/><rect class="cls-20" x="438.16" y="73.27" width="3.01" height="3.01"/><rect class="cls-20" x="422.68" y="79.3" width="0.4" height="3.01"/><rect class="cls-20" x="423.09" y="76.29" width="3.01" height="3.01"/><rect class="cls-20" x="426.11" y="79.3" width="3.01" height="3.01"/><rect class="cls-20" x="429.12" y="76.29" width="3.01" height="3.01"/><rect class="cls-20" x="432.13" y="79.3" width="3.01" height="3.01"/><rect class="cls-20" x="435.15" y="76.29" width="3.01" height="3.01"/><rect class="cls-20" x="438.16" y="79.3" width="3.01" height="3.01"/><rect class="cls-20" x="422.68" y="85.33" width="0.4" height="3.01"/><rect class="cls-20" x="423.09" y="82.32" width="3.01" height="3.01"/><rect class="cls-20" x="426.11" y="85.33" width="3.01" height="3.01"/><rect class="cls-20" x="429.12" y="82.32" width="3.01" height="3.01"/><rect class="cls-20" x="432.13" y="85.33" width="3.01" height="3.01"/><rect class="cls-20" x="435.15" y="82.32" width="3.01" height="3.01"/><rect class="cls-20" x="438.16" y="85.33" width="3.01" height="3.01"/><rect class="cls-20" x="441.18" y="82.32" width="3.01" height="3.01"/><rect class="cls-20" x="444.19" y="85.33" width="3.01" height="3.01"/><rect class="cls-20" x="422.68" y="91.35" width="0.4" height="3.02"/><rect class="cls-20" x="423.09" y="88.34" width="3.01" height="3.01"/><rect class="cls-20" x="426.11" y="91.36" width="3.01" height="3.01"/><rect class="cls-20" x="429.12" y="88.34" width="3.01" height="3.01"/><rect class="cls-20" x="432.13" y="91.36" width="3.01" height="3.01"/><rect class="cls-20" x="435.15" y="88.34" width="3.01" height="3.01"/><rect class="cls-20" x="438.16" y="91.36" width="3.01" height="3.01"/><rect class="cls-20" x="441.18" y="88.34" width="3.01" height="3.01"/><rect class="cls-20" x="444.19" y="91.36" width="3.01" height="3.01"/><rect class="cls-20" x="422.68" y="97.39" width="0.4" height="3.01"/><rect class="cls-20" x="423.09" y="94.37" width="3.01" height="3.01"/><rect class="cls-20" x="426.11" y="97.39" width="3.01" height="3.01"/><rect class="cls-20" x="429.12" y="94.37" width="3.01" height="3.01"/><rect class="cls-20" x="432.13" y="97.39" width="3.01" height="3.01"/><rect class="cls-20" x="435.15" y="94.37" width="3.01" height="3.01"/><rect class="cls-20" x="438.16" y="97.39" width="3.01" height="3.01"/><rect class="cls-20" x="441.18" y="94.37" width="3.01" height="3.01"/><rect class="cls-20" x="444.19" y="97.39" width="3.01" height="3.01"/><rect class="cls-20" x="422.68" y="103.42" width="0.4" height="3.01"/><rect class="cls-20" x="423.09" y="100.4" width="3.01" height="3.01"/><rect class="cls-20" x="426.11" y="103.42" width="3.01" height="3.01"/><rect class="cls-20" x="429.12" y="100.4" width="3.01" height="3.01"/><rect class="cls-20" x="432.13" y="103.42" width="3.01" height="3.01"/><rect class="cls-20" x="435.15" y="100.4" width="3.01" height="3.01"/><rect class="cls-20" x="438.16" y="103.42" width="3.01" height="3.01"/><rect class="cls-20" x="441.18" y="100.4" width="3.01" height="3.01"/><rect class="cls-20" x="444.19" y="103.42" width="3.01" height="3.01"/><rect class="cls-20" x="423.09" y="106.43" width="3.01" height="3.01"/><path class="cls-19" d="M434.21,27.68v1.19H434a9.87,9.87,0,0,0-1.9.18v2h2.08V45.29H432.1a8.14,8.14,0,0,1-5.51-2.16,5.44,5.44,0,0,1-.48-.48,7.88,7.88,0,0,1-2.13-5v0a3,3,0,0,1,0-.51V29.47l2.16-.37,3-.53,2.95-.52h.06Z"/><path class="cls-20" d="M429.12,31.08v3h-3v-1.7a9.48,9.48,0,0,1,1.38-1.31Z"/><path class="cls-20" d="M432.13,29.05v2h-3v-1A10.07,10.07,0,0,1,432.13,29.05Z"/><path class="cls-20" d="M426.11,34.09v3H424a8,8,0,0,1,.95-3Z"/><rect class="cls-20" x="426.11" y="37.1" width="3.01" height="3.01"/><rect class="cls-20" x="429.12" y="34.09" width="3.01" height="3.01"/><path class="cls-20" d="M426.11,40.12v2.53a7.94,7.94,0,0,1-1.6-2.53Z"/><path class="cls-20" d="M429.12,43.13v1.59a7.81,7.81,0,0,1-2.53-1.59Z"/><rect class="cls-20" x="429.12" y="40.12" width="3.01" height="3.01"/><path class="cls-6" d="M508,94.38c0,1,0,2,0,3s0,2-.08,3-.1,2-.18,3-.16,2-.25,3v0c-.1,1-.22,2.06-.36,3s-.27,2.09-.43,3c-.16,1.11-.34,2.1-.51,3-.22,1.2-.43,2.21-.61,3-.31,1.42-.52,2.21-.52,2.21l-.58-.14h0l-3-.67-3-.67-3-.68-.24,0-2.77-.62-3-.67-3-.67-3-.67-1.67-.38-1.34-.29-3-.68-1.56-.35-1.45-.32-1.84-.41,0-1,.16-3,.17-3,.15-3,.16-3,.16-3,.15-3,.17-3,.15-3,.16-3,.16-3,.15-3,.06-1v28.17h1.45V61.22h-.55l.16-3h.39v-.67a1.43,1.43,0,0,1-.34-.14l0-1,1.09-1.25.77-.88,1.86-2.13,1.17-1.32,1.46-1.69,1.55-1.77,1.1-1.25L486.39,44l.71-.82,2.31-2.64.33-.37.68-.79s0,.27,0,.79a24.09,24.09,0,0,0,.36,3c.16.86.37,1.88.68,3,.13.49.28,1,.46,1.53v0c.15.46.3.94.48,1.43,0,0,0,0,0,0,.33.94.72,1.94,1.18,3s.85,2,1.37,3c.14.3.28.6.45.91.34.69.71,1.39,1.12,2.12.53,1,1.11,2,1.75,3,.05.07.09.16.15.23.4.67.84,1.36,1.3,2.06l.45.71c.46.73.89,1.46,1.29,2.22a7.94,7.94,0,0,1,.43.81,30.27,30.27,0,0,1,1.4,3c.45,1,.82,2,1.18,3,0,0,0,0,0,0,.35,1,.67,2,1,3s.55,2,.77,3,.45,2,.61,3,.35,2,.48,3q.12.72.18,1.44c.06.52.12,1,.16,1.57.11,1,.18,2,.23,3S508,93.38,508,94.38Z"/><path class="cls-21" d="M506.21,115.47c-.22,1.2-.43,2.21-.61,3h-1.1v-3Z"/><path class="cls-19" d="M505.07,112.46c0,1.81-.09,2.83-.09,2.83v.18a25.08,25.08,0,0,1-.2,3c-.06.66-.16,1.31-.28,2,0,0,0,.08,0,.12-.06.32-.14.64-.21,1a28.08,28.08,0,0,1-27.4,21.88h-1.1V57.54s0,0,.06,0h0l0,0h0c.45.19.87.39,1.3.6l.1,0c1.05.51,2.06,1,3,1.61.74.43,1.46.88,2.16,1.36.28.17.56.37.85.56,1.05.73,2.05,1.51,3,2.31a1.66,1.66,0,0,0,.14.13c1,.87,2,1.76,2.88,2.69.1.12.21.22.31.34.94,1,1.82,2,2.64,3a.11.11,0,0,0,.06.07c.76,1,1.47,1.94,2.13,2.94.31.44.6.91.88,1.35s.68,1.11,1,1.67c.58,1,1.11,2,1.61,3,.14.28.28.58.41.87.35.71.66,1.43,1,2.14.43,1,.83,2,1.19,3,.31.85.59,1.69.86,2.54.05.15.09.31.15.47.31,1,.6,2,.85,3s.51,2,.73,3,.42,2,.58,3,.34,2,.48,3c.1.67.18,1.32.25,2,.05.36.09.72.12,1.06.1,1.06.19,2.07.25,3s.12,2.1.15,3C505.07,110.6,505.08,111.61,505.07,112.46Z"/><path class="cls-21" d="M507.15,109.44c-.13,1.07-.27,2.09-.43,3h-1.65c0-.85,0-1.86-.05-3Z"/><path class="cls-20" d="M505.07,112.46h-.57v-3H505C505.07,110.6,505.08,111.61,505.07,112.46Z"/><path class="cls-20" d="M477.24,58.21h-1.46v-.67s0,0,.06,0h0l0,0h0C476.39,57.8,476.81,58,477.24,58.21Z"/><rect class="cls-20" x="475.78" y="61.22" width="1.56" height="3.01"/><path class="cls-20" d="M480.37,59.86v1.36h-3v-3C478.39,58.76,479.4,59.29,480.37,59.86Z"/><path class="cls-20" d="M483.38,61.78v2.44h-3v-3h2.16C482.81,61.39,483.09,61.59,483.38,61.78Z"/><rect class="cls-20" x="475.78" y="67.25" width="1.56" height="3.01"/><rect class="cls-20" x="477.35" y="64.23" width="3.01" height="3.01"/><rect class="cls-20" x="480.36" y="67.24" width="3.01" height="3.01"/><rect class="cls-20" x="483.38" y="64.23" width="3.01" height="3.01"/><rect class="cls-20" x="486.39" y="67.24" width="3.01" height="3.01"/><rect class="cls-20" x="475.78" y="73.27" width="1.56" height="3.02"/><rect class="cls-20" x="477.35" y="70.26" width="3.01" height="3.01"/><rect class="cls-20" x="480.36" y="73.27" width="3.01" height="3.01"/><rect class="cls-20" x="483.38" y="70.26" width="3.01" height="3.01"/><rect class="cls-20" x="486.39" y="73.27" width="3.01" height="3.01"/><rect class="cls-20" x="489.41" y="70.26" width="3.01" height="3.01"/><path class="cls-20" d="M495.43,74.62v1.67h-3v-3h2.13C494.86,73.71,495.15,74.18,495.43,74.62Z"/><rect class="cls-20" x="475.78" y="79.3" width="1.56" height="3.01"/><rect class="cls-20" x="477.35" y="76.29" width="3.01" height="3.01"/><rect class="cls-20" x="480.36" y="79.3" width="3.01" height="3.01"/><rect class="cls-20" x="483.38" y="76.29" width="3.01" height="3.01"/><rect class="cls-20" x="486.39" y="79.3" width="3.01" height="3.01"/><rect class="cls-20" x="489.41" y="76.29" width="3.01" height="3.01"/><rect class="cls-20" x="492.42" y="79.3" width="3.01" height="3.01"/><path class="cls-20" d="M498,79.3h-2.61v-3h1C497,77.28,497.54,78.29,498,79.3Z"/><path class="cls-20" d="M499.41,82.31h-1V80.17C498.8,80.88,499.11,81.6,499.41,82.31Z"/><rect class="cls-20" x="475.78" y="85.33" width="1.56" height="3.01"/><rect class="cls-20" x="477.35" y="82.32" width="3.01" height="3.01"/><rect class="cls-20" x="480.36" y="85.33" width="3.01" height="3.01"/><rect class="cls-20" x="483.38" y="82.32" width="3.01" height="3.01"/><rect class="cls-20" x="486.39" y="85.33" width="3.01" height="3.01"/><rect class="cls-20" x="489.41" y="82.32" width="3.01" height="3.01"/><rect class="cls-20" x="492.42" y="85.33" width="3.01" height="3.01"/><rect class="cls-20" x="495.43" y="82.32" width="3.01" height="3.01"/><path class="cls-20" d="M501.46,87.87v.47h-3v-3h2.15C500.91,86.18,501.19,87,501.46,87.87Z"/><rect class="cls-20" x="475.78" y="91.35" width="1.56" height="3.02"/><rect class="cls-20" x="477.35" y="88.34" width="3.01" height="3.01"/><rect class="cls-20" x="480.36" y="91.36" width="3.01" height="3.01"/><rect class="cls-20" x="483.38" y="88.34" width="3.01" height="3.01"/><rect class="cls-20" x="486.39" y="91.36" width="3.01" height="3.01"/><rect class="cls-20" x="489.41" y="88.34" width="3.01" height="3.01"/><rect class="cls-20" x="492.42" y="91.36" width="3.01" height="3.01"/><rect class="cls-20" x="495.43" y="88.34" width="3.01" height="3.01"/><rect class="cls-20" x="498.45" y="91.36" width="3.01" height="3.01"/><path class="cls-20" d="M502.46,91.35h-1v-3h.12C501.92,89.36,502.21,90.36,502.46,91.35Z"/><rect class="cls-20" x="483.38" y="94.37" width="3.01" height="3.01"/><rect class="cls-20" x="486.39" y="97.39" width="3.01" height="3.01"/><rect class="cls-20" x="489.41" y="94.37" width="3.01" height="3.01"/><rect class="cls-20" x="492.42" y="97.39" width="3.01" height="3.01"/><rect class="cls-20" x="495.43" y="94.37" width="3.01" height="3.01"/><rect class="cls-20" x="498.45" y="97.39" width="3.01" height="3.01"/><path class="cls-20" d="M503.77,97.39h-2.28v-3h1.7C503.41,95.41,503.61,96.4,503.77,97.39Z"/><rect class="cls-20" x="489.41" y="100.4" width="3.01" height="3.01"/><rect class="cls-20" x="492.42" y="103.42" width="3.01" height="3.01"/><rect class="cls-20" x="495.43" y="100.4" width="3.01" height="3.01"/><rect class="cls-20" x="498.45" y="103.42" width="3.01" height="3.01"/><path class="cls-20" d="M504.5,102.36v1.06h-3v-3h2.76C504.35,101.07,504.43,101.72,504.5,102.36Z"/><rect class="cls-20" x="495.43" y="106.43" width="3.01" height="3.01"/><rect class="cls-20" x="498.45" y="109.44" width="3.01" height="3.01"/><rect class="cls-20" x="501.49" y="106.43" width="3.01" height="3.01"/><rect class="cls-20" x="501.49" y="112.46" width="3.01" height="3.01"/><path class="cls-14" d="M428,108.6h0a10.86,10.86,0,0,1,11.1,10.6v65H416.88v-65A10.86,10.86,0,0,1,428,108.6Z"/><path class="cls-22" d="M445.79,90.68h37a25.83,25.83,0,0,1,25.83,25.83V260.08a0,0,0,0,1,0,0H420a0,0,0,0,1,0,0V116.51A25.83,25.83,0,0,1,445.79,90.68Z"/><path class="cls-15" d="M447.12,60.86h28.66a0,0,0,0,1,0,0V96.94a8.35,8.35,0,0,1-8.35,8.35h-12a8.35,8.35,0,0,1-8.35-8.35V60.86a0,0,0,0,1,0,0Z"/><path class="cls-15" d="M430.58,22.68h45.19a0,0,0,0,1,0,0V72.51A13.17,13.17,0,0,1,462.6,85.69H443.76a13.17,13.17,0,0,1-13.17-13.17V22.68a0,0,0,0,1,0,0Z"/><path class="cls-23" d="M454.41,63.83a14.67,14.67,0,0,0-14.58,0c-3.35,2.55-4.2,7.66-4.2,7.66s6.68,1,10-1.59a11.33,11.33,0,0,0,1.46-1.37,10.15,10.15,0,0,0,1.46,1.37c3.35,2.55,10,1.59,10,1.59S457.75,66.38,454.41,63.83Z"/><path class="cls-23" d="M447.12,79.42l-3.23-6.25a8.23,8.23,0,0,0,6.46,0Z"/><polygon class="cls-24" points="448.29 60.12 440.44 60.12 442.33 41.28 444.11 41.46 442.42 58.33 448.29 58.33 448.29 60.12"/><path class="cls-23" d="M442.07,42.69a1.7,1.7,0,0,1-.54-.09,12.51,12.51,0,0,0-3.39-.42,12.82,12.82,0,0,0-3.4.42,1.73,1.73,0,0,1-1.06-3.29,17.44,17.44,0,0,1,8.92,0,1.73,1.73,0,0,1-.53,3.38Z"/><path class="cls-23" d="M461.88,42.94a1.7,1.7,0,0,1-.54-.09,12.51,12.51,0,0,0-3.39-.42,12.82,12.82,0,0,0-3.4.42,1.72,1.72,0,0,1-1.06-3.28,17.15,17.15,0,0,1,8.92,0,1.73,1.73,0,0,1-.53,3.37Z"/><path class="cls-25" d="M430.63,32.84h22.23a11.47,11.47,0,0,1,11.46,11.47v6a11.46,11.46,0,0,0,11.47,11.46h0V28.87H430.63Z"/><path class="cls-6" d="M492,55.18c0,1.39,0,2.43,0,3v.53h-9.59a18.79,18.79,0,0,1-2-.1,19.43,19.43,0,0,1-2.46-.43c-.2-.05-.39-.09-.57-.15l-1.4-.45h0l0,0h0s0,0-.06,0a1.43,1.43,0,0,1-.34-.14q-.57-.23-1.11-.48a17.41,17.41,0,0,1-2.84-1.74l-.17-.13a16.08,16.08,0,0,1-2.89-2.88c0-.06-.09-.1-.13-.16a15.27,15.27,0,0,1-1.71-2.85,14.08,14.08,0,0,1-1-3,12.58,12.58,0,0,1-.3-2c0-.27,0-.53,0-.8v-.18l0-3,0-.61a9.54,9.54,0,0,0-.34-2.41,10.12,10.12,0,0,0-1.36-3,9.91,9.91,0,0,0-1.22-1.52,9.65,9.65,0,0,0-1.76-1.49,9.1,9.1,0,0,0-1.26-.78,11.4,11.4,0,0,0-3-1.1,12.23,12.23,0,0,0-2.86-.33H434a9.87,9.87,0,0,0-1.9.18,10.07,10.07,0,0,0-3,1,8.44,8.44,0,0,0-1.63,1,9.48,9.48,0,0,0-1.38,1.31,8.07,8.07,0,0,0-1.15,1.7,8,8,0,0,0-.95,3,2,2,0,0,0,0,.55v0a1.71,1.71,0,0,0,0,.4V29.47a10.89,10.89,0,0,1,.07-1.42,10.63,10.63,0,0,1,.67-3,6.8,6.8,0,0,1,1.42-2.29,3.89,3.89,0,0,1,.74-.72,7.55,7.55,0,0,1,2.27-1.31,11.89,11.89,0,0,1,3-.68l6,0v0l3,.07,3,.06,6,.15,3,.06,3,.07,3,.08,3,.06,3,.07,3,.08,3,.06,3,.07,3,.08,3,.06,3,.07,2.66.06c.12,0,.23,0,.35,0a2.43,2.43,0,0,1,1.38.89,9.34,9.34,0,0,1,1.55,3l.09.27a23.63,23.63,0,0,1,.71,2.74c.21.94.39,2,.57,3s.27,2,.39,3,.22,2,.31,3,.15,2,.21,3,.13,2,.18,3,.09,2,.12,3c0,.52,0,1,0,1.53v0c0,.5,0,1,0,1.47,0,1.06,0,2.07,0,3C492,53.29,492,54.3,492,55.18Z"/><path class="cls-21" d="M429.12,20.72V22h-2.27A7.55,7.55,0,0,1,429.12,20.72Z"/><polygon class="cls-21" points="441.17 20.08 441.17 22.03 438.16 22.03 438.16 20.01 441.17 20.08"/><polygon class="cls-21" points="435.15 20.08 435.15 22.03 432.14 22.03 432.14 20.01 435.15 20.08"/><polygon class="cls-21" points="447.2 20.22 447.2 22.03 444.19 22.03 444.19 20.14 447.2 20.22"/><polygon class="cls-21" points="453.24 20.35 453.24 22.03 450.21 22.03 450.21 20.29 453.24 20.35"/><polygon class="cls-21" points="459.26 20.5 459.26 22.03 456.25 22.03 456.25 20.43 459.26 20.5"/><polygon class="cls-21" points="465.29 20.63 465.29 22.03 462.28 22.03 462.28 20.56 465.29 20.63"/><polygon class="cls-21" points="471.32 20.77 471.32 22.03 468.3 22.03 468.3 20.71 471.32 20.77"/><polygon class="cls-21" points="477.34 20.92 477.34 22.03 474.33 22.03 474.33 20.84 477.34 20.92"/><polygon class="cls-21" points="483.38 21.05 483.38 22.03 480.37 22.03 480.37 20.98 483.38 21.05"/><path class="cls-21" d="M487.77,22h-1.38v-.89A2.43,2.43,0,0,1,487.77,22Z"/><path class="cls-21" d="M426.11,22.75V25h-1.42A6.8,6.8,0,0,1,426.11,22.75Z"/><rect class="cls-21" x="426.11" y="25.04" width="3.01" height="3.01"/><rect class="cls-21" x="429.12" y="22.03" width="3.01" height="3.01"/><rect class="cls-21" x="432.13" y="25.04" width="3.01" height="3.01"/><rect class="cls-21" x="435.15" y="22.03" width="3.01" height="3.01"/><rect class="cls-21" x="438.16" y="25.04" width="3.01" height="3.01"/><rect class="cls-21" x="441.18" y="22.03" width="3.01" height="3.01"/><rect class="cls-21" x="444.19" y="25.04" width="3.01" height="3.01"/><rect class="cls-21" x="447.21" y="22.03" width="3.01" height="3.01"/><rect class="cls-21" x="450.22" y="25.04" width="3.01" height="3.01"/><rect class="cls-21" x="453.23" y="22.03" width="3.01" height="3.01"/><rect class="cls-21" x="456.25" y="25.04" width="3.01" height="3.01"/><rect class="cls-21" x="459.26" y="22.03" width="3.01" height="3.01"/><rect class="cls-21" x="462.28" y="25.04" width="3.01" height="3.01"/><rect class="cls-21" x="465.29" y="22.03" width="3.01" height="3.01"/><rect class="cls-21" x="468.31" y="25.04" width="3.01" height="3.01"/><rect class="cls-21" x="471.32" y="22.03" width="3.01" height="3.01"/><rect class="cls-21" x="474.33" y="25.04" width="3.01" height="3.01"/><rect class="cls-21" x="477.35" y="22.03" width="3.01" height="3.01"/><rect class="cls-21" x="480.36" y="25.04" width="3.01" height="3.01"/><rect class="cls-21" x="483.38" y="22.03" width="3.01" height="3.01"/><rect class="cls-21" x="486.39" y="25.04" width="3.01" height="3.01"/><path class="cls-21" d="M426.11,28.05v3H424V29.47a10.89,10.89,0,0,1,.07-1.42Z"/><path class="cls-21" d="M427.49,31.08a9.48,9.48,0,0,0-1.38,1.31V31.08Z"/><path class="cls-21" d="M432.13,28.05v1a10.07,10.07,0,0,0-3,1v-2Z"/><rect class="cls-21" x="435.15" y="28.05" width="3.01" height="0.82"/><rect class="cls-21" x="441.17" y="28.05" width="3.02" height="0.82"/><rect class="cls-21" x="447.2" y="28.05" width="3.01" height="0.82"/><path class="cls-21" d="M456.25,28.05V29.2a12.23,12.23,0,0,0-2.86-.33h-.15v-.82Z"/><path class="cls-21" d="M462.28,28.05v3h-1.76a9.1,9.1,0,0,0-1.26-.78V28.05Z"/><path class="cls-21" d="M465.29,31.08v3H463.5a9.91,9.91,0,0,0-1.22-1.52V31.08Z"/><rect class="cls-21" x="465.29" y="28.06" width="3.01" height="3.01"/><rect class="cls-21" x="468.31" y="31.07" width="3.01" height="3.01"/><rect class="cls-21" x="471.32" y="28.06" width="3.01" height="3.01"/><rect class="cls-21" x="474.33" y="31.07" width="3.01" height="3.01"/><rect class="cls-21" x="477.35" y="28.06" width="3.01" height="3.01"/><rect class="cls-21" x="480.36" y="31.07" width="3.01" height="3.01"/><rect class="cls-21" x="483.38" y="28.06" width="3.01" height="3.01"/><rect class="cls-21" x="486.39" y="31.07" width="3.01" height="3.01"/><path class="cls-21" d="M490.69,31.08h-1.28v-3h.71C490.33,29,490.51,30,490.69,31.08Z"/><path class="cls-21" d="M425,34.09a8,8,0,0,0-.95,3H424v-3Z"/><path class="cls-21" d="M465.29,37.1v3h-.07l0-.61a9.54,9.54,0,0,0-.34-2.41Z"/><rect class="cls-21" x="465.29" y="34.09" width="3.01" height="3.01"/><rect class="cls-21" x="468.31" y="37.1" width="3.01" height="3.01"/><rect class="cls-21" x="471.32" y="34.09" width="3.01" height="3.01"/><rect class="cls-21" x="474.33" y="37.1" width="3.01" height="3.01"/><rect class="cls-21" x="477.35" y="34.09" width="3.01" height="3.01"/><rect class="cls-21" x="480.36" y="37.1" width="3.01" height="3.01"/><rect class="cls-21" x="483.38" y="34.09" width="3.01" height="3.01"/><rect class="cls-21" x="486.39" y="37.1" width="3.01" height="3.01"/><path class="cls-21" d="M491.39,37.1h-2v-3h1.67C491.2,35.07,491.3,36.08,491.39,37.1Z"/><path class="cls-21" d="M465.29,43.13v1c0-.27,0-.53,0-.8v-.18Z"/><rect class="cls-21" x="465.29" y="40.12" width="3.01" height="3.01"/><rect class="cls-21" x="468.31" y="43.13" width="3.01" height="3.01"/><rect class="cls-21" x="471.32" y="40.12" width="3.01" height="3.01"/><rect class="cls-21" x="474.33" y="43.13" width="3.01" height="3.01"/><rect class="cls-21" x="477.35" y="40.12" width="3.01" height="3.01"/><rect class="cls-21" x="480.36" y="43.13" width="3.01" height="3.01"/><rect class="cls-21" x="483.38" y="40.12" width="3.01" height="3.01"/><rect class="cls-21" x="486.39" y="43.13" width="3.01" height="3.01"/><path class="cls-21" d="M491.78,43.13h-2.37v-3h2.19C491.67,41.13,491.73,42.13,491.78,43.13Z"/><path class="cls-21" d="M468.3,46.14v3h-1.71a14.08,14.08,0,0,1-1-3Z"/><path class="cls-21" d="M471.32,49.16v3h-2.89c0-.06-.09-.1-.13-.16V49.16Z"/><rect class="cls-21" x="471.32" y="46.14" width="3.01" height="3.01"/><rect class="cls-21" x="474.33" y="49.16" width="3.01" height="3.01"/><rect class="cls-21" x="477.35" y="46.14" width="3.01" height="3.01"/><rect class="cls-21" x="480.36" y="49.16" width="3.01" height="3.01"/><rect class="cls-21" x="483.38" y="46.14" width="3.01" height="3.01"/><rect class="cls-21" x="486.39" y="49.16" width="3.01" height="3.01"/><path class="cls-21" d="M492.42,49.12v0h-3v-3h2.49c0,.52,0,1,0,1.53v0C492.09,48.15,492.24,48.63,492.42,49.12Z"/><path class="cls-21" d="M493.61,52.17h-1.19v-3h0C492.76,50.1,493.15,51.1,493.61,52.17Z"/><path class="cls-21" d="M474.33,52.17v3h-2.84l-.17-.13V52.17Z"/><path class="cls-21" d="M477.34,55.18v3h-.1c-.43-.21-.85-.41-1.3-.6h0l0,0h0s0,0-.06,0a1.43,1.43,0,0,1-.34-.14q-.57-.23-1.11-.48V55.18Z"/><rect class="cls-21" x="477.35" y="52.17" width="3.01" height="3.01"/><rect class="cls-21" x="480.36" y="55.19" width="3.01" height="3.01"/><rect class="cls-21" x="483.38" y="52.17" width="3.01" height="3.01"/><rect class="cls-21" x="486.39" y="55.19" width="3.01" height="3.01"/><rect class="cls-21" x="489.41" y="52.17" width="3.01" height="3.01"/><path class="cls-21" d="M495.43,56.09v2.12h-3v-3H495C495.12,55.48,495.26,55.78,495.43,56.09Z"/><path class="cls-21" d="M480.37,58.21v1.65c-1-.57-2-1.1-3-1.61v0Z"/><path class="cls-21" d="M483.38,61.22v.56c-.29-.19-.57-.39-.85-.56Z"/><rect class="cls-21" x="483.38" y="58.2" width="3.01" height="3.01"/><path class="cls-21" d="M489.41,61.22v3h-2.88a1.66,1.66,0,0,1-.14-.13V61.22Z"/><path class="cls-21" d="M486.53,64.22h-.14v-.13A1.66,1.66,0,0,0,486.53,64.22Z"/><rect class="cls-21" x="489.41" y="58.2" width="3.01" height="3.01"/><rect class="cls-21" x="492.42" y="61.22" width="3.01" height="3.01"/><path class="cls-21" d="M498.3,61.22h-2.87v-3h1.12C497.08,59.17,497.66,60.17,498.3,61.22Z"/><path class="cls-21" d="M500.2,64.22h-1.75V61.45c.4.67.84,1.36,1.3,2.06Z"/><path class="cls-21" d="M492.42,64.22v3h-2.7c-.1-.12-.21-.22-.31-.34V64.22Z"/><path class="cls-21" d="M489.72,67.25h-.31v-.34C489.51,67,489.62,67.13,489.72,67.25Z"/><rect class="cls-21" x="492.42" y="67.24" width="3.01" height="3.01"/><rect class="cls-21" x="495.43" y="64.23" width="3.01" height="3.01"/><rect class="cls-21" x="498.45" y="67.24" width="3.01" height="3.01"/><path class="cls-21" d="M501.92,67.25h-.43v-.81A7.94,7.94,0,0,1,501.92,67.25Z"/><path class="cls-21" d="M495.43,73.27v1.35c-.28-.44-.57-.91-.88-1.35Z"/><rect class="cls-21" x="495.43" y="70.26" width="3.01" height="3.01"/><rect class="cls-21" x="498.45" y="73.27" width="3.01" height="3.01"/><path class="cls-21" d="M504.5,73.22v0h-3v-3h1.83C503.77,71.23,504.14,72.22,504.5,73.22Z"/><path class="cls-21" d="M505.47,76.29h-1v-3h0C504.87,74.27,505.19,75.28,505.47,76.29Z"/><path class="cls-21" d="M498.45,76.29v3H498c-.5-1-1-2-1.61-3Z"/><path class="cls-21" d="M501.46,79.3v3h-2c-.3-.71-.61-1.43-1-2.14V79.3Z"/><rect class="cls-21" x="501.49" y="76.29" width="3.01" height="3.01"/><path class="cls-21" d="M506.85,82.31H504.5v-3h1.74C506.48,80.3,506.69,81.31,506.85,82.31Z"/><path class="cls-21" d="M501.46,85.33v2.54c-.27-.85-.55-1.69-.86-2.54Z"/><rect class="cls-21" x="501.49" y="82.32" width="3.01" height="3.01"/><rect class="cls-21" x="504.5" y="85.33" width="3.01" height="3.01"/><path class="cls-21" d="M504.5,88.34v3h-2c-.25-1-.54-2-.85-3Z"/><rect class="cls-21" x="504.5" y="91.36" width="3.01" height="3.01"/><path class="cls-21" d="M507.9,91.35h-.39v-3h.16C507.78,89.36,507.85,90.36,507.9,91.35Z"/><path class="cls-21" d="M504.5,94.38v3h-.73c-.16-1-.36-2-.58-3Z"/><rect class="cls-21" x="504.5" y="97.39" width="3.01" height="3.01"/><path class="cls-21" d="M508,94.38c0,1,0,2,0,3h-.51v-3Z"/><path class="cls-26" d="M504.5,100.4v2c-.07-.64-.15-1.29-.25-2Z"/><rect class="cls-21" x="504.5" y="103.42" width="3.01" height="3.01"/><path class="cls-21" d="M507.94,100.4c0,1-.1,2-.18,3h-.25v-3Z"/><path class="cls-6" d="M484.25,15.58H434.39a10.23,10.23,0,0,1,.34-2.59c.12-.42.26-.83.42-1.24a11.08,11.08,0,0,1,.91-1.78,13.94,13.94,0,0,1,2.1-2.63l.4-.38a18.5,18.5,0,0,1,2.61-2.06c.49-.33,1-.64,1.55-1s1-.51,1.47-.75a26,26,0,0,1,3-1.23,31,31,0,0,1,3-.9l.61-.15c.79-.18,1.6-.32,2.42-.44a29.13,29.13,0,0,1,3-.36c1-.08,2-.12,3-.12h.06c1,0,2,0,3,.1s2,.2,3,.35,1.71.29,2.53.47l.48.12c1,.26,2.06.54,3,.88a26.26,26.26,0,0,1,3,1.22c.55.26,1.09.52,1.6.81s.95.56,1.41.86A18.59,18.59,0,0,1,480.08,7a1.79,1.79,0,0,1,.29.27A13.9,13.9,0,0,1,482.59,10a9.15,9.15,0,0,1,.79,1.52,9.23,9.23,0,0,1,.53,1.5A9.8,9.8,0,0,1,484.25,15.58Z"/><path class="cls-21" d="M447.2,2V4h-3V3.2A26,26,0,0,1,447.2,2Z"/><rect class="cls-21" x="450.22" y="0.93" width="3.01" height="3.01"/><path class="cls-21" d="M456.25.12v.8h-3V.48A29.13,29.13,0,0,1,456.25.12Z"/><rect class="cls-21" x="456.25" y="0.93" width="3.01" height="3.01"/><path class="cls-21" d="M462.28.1V.92h-3V0h.06C460.33,0,461.31,0,462.28.1Z"/><rect class="cls-21" x="462.28" y="0.93" width="3.01" height="3.01"/><path class="cls-21" d="M467.82.92h-2.53V.45C466.15.58,467,.74,467.82.92Z"/><path class="cls-21" d="M471.32,1.92V4h-3V1C469.34,1.3,470.36,1.58,471.32,1.92Z"/><path class="cls-21" d="M475.93,4h-1.6V3.14C474.88,3.4,475.42,3.66,475.93,4Z"/><path class="cls-21" d="M441.17,7v3h-3V7.34l.4-.38Z"/><path class="cls-21" d="M444.19,4V7h-3V4.9c.49-.33,1-.64,1.55-1Z"/><rect class="cls-21" x="444.19" y="6.96" width="3.01" height="3.01"/><rect class="cls-21" x="447.21" y="3.94" width="3.01" height="3.01"/><rect class="cls-21" x="450.22" y="6.96" width="3.01" height="3.01"/><rect class="cls-21" x="453.23" y="3.94" width="3.01" height="3.01"/><rect class="cls-21" x="456.25" y="6.96" width="3.01" height="3.01"/><rect class="cls-21" x="459.26" y="3.94" width="3.01" height="3.01"/><rect class="cls-21" x="462.28" y="6.96" width="3.01" height="3.01"/><rect class="cls-21" x="465.29" y="3.94" width="3.01" height="3.01"/><rect class="cls-21" x="468.31" y="6.96" width="3.01" height="3.01"/><rect class="cls-21" x="471.32" y="3.94" width="3.01" height="3.01"/><rect class="cls-21" x="474.33" y="6.96" width="3.01" height="3.01"/><path class="cls-21" d="M480.08,7h-2.74V4.81A18.59,18.59,0,0,1,480.08,7Z"/><path class="cls-21" d="M482.59,10h-2.22V7.23A13.9,13.9,0,0,1,482.59,10Z"/><path class="cls-21" d="M435.15,13v2.59h-.76a10.23,10.23,0,0,1,.34-2.59Z"/><path class="cls-21" d="M438.16,10v3h-3V11.75a11.08,11.08,0,0,1,.91-1.78Z"/><rect class="cls-21" x="438.16" y="12.99" width="3.01" height="2.59"/><rect class="cls-21" x="441.18" y="9.97" width="3.01" height="3.01"/><rect class="cls-21" x="444.19" y="12.99" width="3.01" height="3.01"/><rect class="cls-21" x="447.21" y="9.97" width="3.01" height="3.01"/><rect class="cls-21" x="450.22" y="12.99" width="3.01" height="3.01"/><rect class="cls-21" x="453.23" y="9.97" width="3.01" height="3.01"/><rect class="cls-21" x="456.25" y="12.99" width="3.01" height="2.59"/><rect class="cls-21" x="459.26" y="9.97" width="3.01" height="3.01"/><rect class="cls-21" x="462.28" y="12.99" width="3.01" height="2.59"/><rect class="cls-21" x="465.29" y="9.97" width="3.01" height="3.01"/><rect class="cls-21" x="468.3" y="12.99" width="3.02" height="2.59"/><rect class="cls-21" x="471.32" y="9.97" width="3.01" height="3.01"/><rect class="cls-21" x="474.33" y="12.99" width="3.01" height="2.59"/><rect class="cls-21" x="477.35" y="9.97" width="3.01" height="3.01"/><rect class="cls-21" x="480.37" y="12.99" width="3.01" height="2.59"/><path class="cls-21" d="M483.91,13h-.53v-1.5A9.23,9.23,0,0,1,483.91,13Z"/><path class="cls-23" d="M433.28,16.86a2.15,2.15,0,0,1,0-4.3H486.9a2.15,2.15,0,0,1,0,4.3,2.16,2.16,0,0,1,0,4.31H433.28a2.16,2.16,0,0,1,0-4.31Z"/><path class="cls-27" d="M390.62,431,358,437a37.46,37.46,0,0,0-22.46,13.43l-2.36,3,75.85.05L405.37,432Z"/><path class="cls-27" d="M291.89,431l-32.6,6a37.41,37.41,0,0,0-22.45,13.43l-2.31,3h75.6L306.64,432Z"/><polygon class="cls-28" points="358.1 291.26 287.77 432.04 385.05 432.04 382.2 314.34 358.1 291.26"/><path class="cls-29" d="M503.1,106.43h0a11.12,11.12,0,0,1,11.11,11.13v68.3H492v-68.3A11.11,11.11,0,0,1,503.1,106.43Z"/><path class="cls-30" d="M514.21,195.37c0,6.09-7,10.56-15.22,10l-52.47-.63V185.86h67.69Z"/><polygon class="cls-15" points="446.51 201.91 417.7 199.99 417.7 185.86 446.51 185.86 446.51 201.91"/><path class="cls-15" d="M391.77,174.45H400A11.57,11.57,0,0,1,411.61,186v31.09a0,0,0,0,1,0,0h-8.27a11.57,11.57,0,0,1-11.57-11.57V174.45A0,0,0,0,1,391.77,174.45Z" transform="translate(597.47 -205.91) rotate(90)"/><path class="cls-31" d="M371.19,260.08a22.41,22.41,0,0,0-22.41,22.41v15.32L385.05,432h20.32l77.12-134.22a26.09,26.09,0,0,0,26.08-26.09V260.08Z"/><path class="cls-6" d="M297.26,199.61H269a7.44,7.44,0,0,1-6.66-5.23L231.1,85.21c-.82-2.88.82-5.23,3.68-5.23h28.29a7.46,7.46,0,0,1,6.67,5.23l31.2,109.17C301.77,197.27,300.12,199.61,297.26,199.61Z"/><path class="cls-1" d="M293.49,199.61H265.2a7.45,7.45,0,0,1-6.67-5.23L227.33,85.21c-.83-2.88.82-5.23,3.67-5.23h28.29A7.45,7.45,0,0,1,266,85.21l31.21,109.17C298,197.27,296.35,199.61,293.49,199.61Z"/><path class="cls-32" d="M404.35,205.83h-136a3.11,3.11,0,0,1-3.11-3.11h0a3.11,3.11,0,0,1,3.11-3.11h136a3.11,3.11,0,0,1,3.11,3.11h0A3.11,3.11,0,0,1,404.35,205.83Z"/><rect class="cls-6" x="295.17" y="199.61" width="113.66" height="6.22" rx="1.81"/><path class="cls-6" d="M262.42,143.49c1.46,4.85,1.13,9.24-.73,9.8s-4.55-2.92-6-7.78-1.13-9.24.73-9.8S261,138.63,262.42,143.49Z"/><rect class="cls-33" x="207.42" y="138.15" width="16.52" height="16.52" transform="translate(114.53 -93.84) rotate(33)"/><rect class="cls-7" x="205.01" y="160.06" width="16.52" height="16.52" transform="matrix(0.99, 0.14, -0.14, 0.99, 25.08, -27.64)"/><rect class="cls-34" x="49.63" y="205.7" width="495.15" height="15.58"/><path class="cls-35" d="M90.75,230.54A6.49,6.49,0,0,0,97.24,237h59.34a6.48,6.48,0,0,0,6.48-6.48v-9.26H90.75Z"/><polygon class="cls-35" points="126.91 221.28 204.12 453.92 215.15 453.92 137.94 221.28 126.91 221.28"/><polygon class="cls-35" points="40.91 453.92 51.94 453.92 129.16 221.28 118.12 221.28 40.91 453.92"/><rect class="cls-35" x="69.83" y="371.89" width="117.43" height="10.95"/><path class="cls-35" d="M431.19,230.54a6.48,6.48,0,0,0,6.48,6.48H497a6.49,6.49,0,0,0,6.49-6.48v-9.26H431.19Z"/><polygon class="cls-35" points="467.34 221.28 544.55 453.92 555.59 453.92 478.37 221.28 467.34 221.28"/><polygon class="cls-35" points="381.35 453.92 392.38 453.92 469.59 221.28 458.56 221.28 381.35 453.92"/><rect class="cls-35" x="410.26" y="371.89" width="117.43" height="10.95"/><rect class="cls-36" x="357.15" y="205.78" width="187.63" height="15.5"/><g class="cls-37"><rect class="cls-38" y="453.45" width="614.84" height="6.67"/></g></g></g></svg>