<svg xmlns="http://www.w3.org/2000/svg" xmlns:xlink="http://www.w3.org/1999/xlink" viewBox="0 0 509.25 496.9"><defs><style>.cls-1{fill:none;}.cls-2{isolation:isolate;}.cls-3{fill:#3c547f;}.cls-4{fill:#344c70;}.cls-16,.cls-40,.cls-43,.cls-5{opacity:0.1;}.cls-6{fill:#eaeae9;}.cls-7{fill:#ececec;}.cls-8{fill:#f3f4f5;}.cls-9{fill:#d6d6d5;}.cls-10{fill:#733822;}.cls-11{opacity:0.3;}.cls-12{fill:#b9d659;}.cls-13{fill:#99ca4a;}.cls-14{fill:#87ba40;}.cls-15{fill:#7ead41;}.cls-17{fill:#3a3a3a;}.cls-18{fill:#616161;}.cls-19{fill:#4e4e4f;}.cls-20{fill:#808081;}.cls-21{fill:#fff;}.cls-22{fill:#8c8b8b;}.cls-23{fill:#666667;}.cls-24{fill:#e95f5d;}.cls-25{fill:#fcb84c;}.cls-26{fill:#fdc46b;}.cls-27{fill:#e3a643;}.cls-28{fill:#40a1c4;}.cls-29{fill:#33809b;}.cls-30{fill:#49b3da;}.cls-31{fill:#98cf94;}.cls-32{fill:#a2d39b;}.cls-33{fill:#8abc86;}.cls-34{clip-path:url(#clip-path);}.cls-35{fill:#dfe0e1;}.cls-36{fill:#d7d8da;}.cls-37{fill:#cdcfd0;}.cls-38{clip-path:url(#clip-path-2);}.cls-39{fill:#575757;}.cls-40,.cls-42{fill:#ea952e;}.cls-41,.cls-43{fill:#bf7525;}.cls-44{fill:#93d7ea;}.cls-45{fill:#ef577d;}.cls-46{fill:#e84039;}.cls-47{fill:#efefef;}.cls-48{fill:#da453d;}.cls-49{fill:#b63a33;}.cls-50{fill:#5c5c5c;}.cls-51{fill:#efeeee;}.cls-52{fill:#65cbea;}.cls-53{fill:#60c0dd;}.cls-54{fill:#58b7d5;}.cls-55{fill:#f0656c;}.cls-56{fill:#f1686e;}.cls-57{fill:#f27b80;}.cls-58{fill:#f0595d;}.cls-59{fill:#66bd63;}.cls-60{fill:#57ba66;}.cls-61{fill:#74bf56;}.cls-62{fill:#46b765;}.cls-63{fill:#f9a236;}.cls-64{fill:#f9a237;}.cls-65{fill:#f9a239;}.cls-66{fill:#f68f3b;}.cls-67{fill:#57b6e6;}.cls-68{fill:#66c2ed;}.cls-69{fill:#55b4e5;}.cls-70{fill:#56b2e4;}.cls-71{fill:#a38fc3;}.cls-72{fill:#9f8ac0;}.cls-73{fill:#bda8d0;}.cls-74{fill:#8e78b5;}.cls-75{fill:#537abc;}.cls-76{fill:#6386c4;}.cls-77{fill:#4871b6;}.cls-78{fill:#456bb2;}.cls-79{fill:#494848;}.cls-80{fill:#65413a;}.cls-81{fill:#6f4841;}.cls-82{fill:#025f61;}.cls-83{fill:#fac2b0;}.cls-84{fill:#4d312c;}.cls-85{fill:#01767a;}</style><clipPath id="clip-path"><polygon class="cls-1" points="316.29 69.89 316.33 57.63 368.74 87.89 368.7 100.15 316.29 69.89"/></clipPath><clipPath id="clip-path-2"><polygon class="cls-1" points="246.74 82.08 246.87 37.5 368.74 107.87 368.61 152.44 246.74 82.08"/></clipPath></defs><title>slide-5</title><g id="Layer_2" data-name="Layer 2"><g id="Layer_1-2" data-name="Layer 1"><g class="cls-2"><path class="cls-3" d="M509.25,316.89l-.1,33.28c-.11,37.5-24.75,74.94-74,103.54-99.09,57.59-260.28,57.59-360,0C25,424.74-.11,386.7,0,348.72l.09-33.28c-.1,38,25,76,75.16,105,99.74,57.58,260.93,57.58,360,0C484.5,391.83,509.14,354.39,509.25,316.89Z"/><ellipse class="cls-4" cx="254.67" cy="316.17" rx="147.46" ry="254.58" transform="translate(-62.22 569.94) rotate(-89.84)"/></g><path class="cls-5" d="M486.1,309.15c0,8.79-13,15.92-29,15.92s-28.94-6.89-28.94-15.67,13-16.14,28.94-16.14S486.1,300.37,486.1,309.15Z"/><polygon class="cls-6" points="422.18 254.05 427.75 307.62 478.51 307.62 484.12 254.05 422.18 254.05"/><path class="cls-6" d="M471.05,296.5c-9.95-5.75-26-5.75-35.92,0s-9.83,15.06.12,20.8,26,5.75,35.91,0,9.83-15.06-.11-20.8Z"/><path class="cls-7" d="M471.05,243.65c-9.95-5.75-26-5.74-35.92,0-6.09,3.54-8.41,8.44-7,13,.9-2.82,3.21-5.51,7-7.68,9.89-5.75,26-5.75,35.92,0,3.81,2.2,6.17,4.93,7.08,7.78C479.58,252.15,477.22,247.21,471.05,243.65Z"/><path class="cls-8" d="M475,241.36c-12.14-7-31.75-7-43.8,0s-12,18.16-.18,25.18l.32.19c12.14,7,31.74,7,43.8,0l.17-.1C487.18,259.62,487.05,248.33,475,241.36Zm3.15,15.4c-.89,2.82-3.21,5.51-7,7.69-9.88,5.74-26,5.74-35.91,0-3.82-2.2-6.18-4.94-7.08-7.78-1.45-4.58.87-9.48,7-13,9.89-5.74,26-5.75,35.92,0C477.22,247.21,479.58,252.15,478.13,256.76Z"/><path class="cls-9" d="M478.13,256.76c-.91-2.85-3.27-5.58-7.08-7.78-9.95-5.74-26-5.74-35.92,0-3.75,2.17-6.06,4.86-7,7.68-1.45-4.58.87-9.48,7-13,9.89-5.74,26-5.75,35.92,0C477.22,247.21,479.58,252.15,478.13,256.76Z"/><path class="cls-10" d="M478.13,256.76c-.89,2.82-3.21,5.51-7,7.69-9.88,5.74-26,5.74-35.91,0-3.82-2.2-6.18-4.94-7.08-7.78.9-2.82,3.21-5.51,7-7.68,9.89-5.75,26-5.75,35.92,0C474.86,251.18,477.22,253.91,478.13,256.76Z"/><ellipse class="cls-11" cx="453.5" cy="259.58" rx="11.86" ry="5.89"/><path class="cls-12" d="M459.54,175.19s5.16,20-11,46.26,4.35,39,4.45,38.57,17.82-52.54,13.65-68.87C463.25,178,459.54,175.19,459.54,175.19Z"/><path class="cls-13" d="M450.26,154.05s-14.12,20.76-.54,59.39,1.58,47.08,1.58,47.08,25.28-13.7,16.4-42.37S449.19,165.4,450.26,154.05Z"/><path class="cls-14" d="M454.77,262.66s-16.29,1.86-17.37-23.53-4.77-44-14-49.18c0,0,24.87,3.39,29.35,21.83S460.71,249.81,454.77,262.66Z"/><path class="cls-15" d="M452.54,262.57s-4.41-15.29,3.42-33.38,27.53-30.86,38.69-35.45c0,0-15.75,15.66-22.23,35.45S463.34,264.19,452.54,262.57Z"/><g class="cls-16"><path d="M399,294.13,258.24,212.89c-4.22-2.43-11.09-2.43-15.28,0l-1.33.78c-4.19,2.43-4.17,6.42.05,8.85l140.71,81.24c4.21,2.43,11.09,2.43,15.28,0L399,303c4.19-2.43,4.17-6.41-.05-8.85Z"/></g><g class="cls-2"><path class="cls-17" d="M387.8,290.84l-12,7c1.23-.72,2-2.24,2-4.41l12-7C389.8,288.6,389,290.12,387.8,290.84Z"/><path class="cls-18" d="M239.7,7.45l12-7c1.26-.73,3-.63,4.9.47l-12,7C242.69,6.82,241,6.72,239.7,7.45Z"/><polygon class="cls-17" points="378.36 93.07 390.38 86.08 389.81 286.44 377.79 293.42 378.36 93.07"/><polygon class="cls-18" points="244.59 7.92 256.62 0.94 383.52 74.2 371.5 81.19 244.59 7.92"/><path class="cls-18" d="M371.5,81.19l12-7a15.22,15.22,0,0,1,6.86,11.89l-12,7A15.2,15.2,0,0,0,371.5,81.19Z"/><path class="cls-19" d="M371.5,81.19a15.2,15.2,0,0,1,6.86,11.88l-.57,200.35c0,4.35-3.12,6.12-6.91,3.94L244,224.09a15.18,15.18,0,0,1-6.86-11.88l.57-200.35c0-4.35,3.12-6.12,6.91-3.94Z"/></g><g class="cls-2"><path class="cls-20" d="M256.63,216.68a6.26,6.26,0,0,0,2.57,3.06l-2,1.17a6.23,6.23,0,0,1-2.57-3.07Z"/><path class="cls-21" d="M259.88,218l-2,1.16a.59.59,0,0,1-.62-.06l2-1.16A.59.59,0,0,0,259.88,218Z"/><path class="cls-20" d="M259.2,219.74a2.2,2.2,0,0,0,2.23.29l-2,1.16a2.17,2.17,0,0,1-2.23-.28Z"/><path class="cls-20" d="M255.82,212.41a11.27,11.27,0,0,0,.81,4.27l-2,1.16a11,11,0,0,1-.81-4.27c0-1.82.42-3.18,1.26-3.67l2-1.16C256.24,209.23,255.83,210.59,255.82,212.41Z"/><path class="cls-21" d="M256.63,212l2-1.17c-.43.25-.69,1.17-.68,2.86,0,2.38.48,3.81,1.3,4.29l-2,1.16c-.82-.47-1.33-1.9-1.3-4.28C256,213.11,256.21,212.19,256.63,212Z"/><path class="cls-20" d="M259.27,210.83l-2,1.17a.6.6,0,0,0-.64-.05l2-1.17A.6.6,0,0,1,259.27,210.83Z"/><path class="cls-20" d="M260.54,215.1c0,1.68-.23,2.64-.66,2.89l-2,1.16c.42-.25.65-1.2.66-2.88,0-2.31-.43-3.78-1.27-4.27.58-.35,1.17-.69,1.76-1l.24-.14C260.12,211.32,260.55,212.79,260.54,215.1Z"/><path class="cls-20" d="M257.27,212c.84.49,1.27,2,1.27,4.27s-.46,3.3-1.28,2.82-1.33-1.9-1.3-4.28S256.48,211.54,257.27,212Z"/><path class="cls-21" d="M255.08,209.9l2-1.16a2.17,2.17,0,0,1,2.21.26l-2,1.17A2.17,2.17,0,0,0,255.08,209.9Z"/><path class="cls-21" d="M261.43,220l-2,1.16c.82-.47,1.22-1.8,1.23-3.73,0-2.86-.93-5.89-3.36-7.29l2-1.17c2.43,1.41,3.37,4.44,3.36,7.3C262.66,218.22,262.25,219.55,261.43,220Z"/><path class="cls-20" d="M244.65,198.37l25.18,14.54-.06,20L244.6,218.34Zm12.55,22.54c2.32,1.34,3.45-.23,3.46-3.45,0-2.86-.93-5.89-3.36-7.29s-3.47.39-3.48,3.4,1,6,3.38,7.34Z"/><path class="cls-21" d="M257.3,210.17c2.43,1.4,3.37,4.43,3.36,7.29,0,3.22-1.14,4.79-3.46,3.45s-3.38-4.38-3.38-7.34S255,208.81,257.3,210.17Zm0,8.92c.82.48,1.27-.45,1.28-2.82s-.43-3.78-1.27-4.27-1.32.38-1.31,2.81.48,3.81,1.3,4.28Z"/><polygon class="cls-22" points="244.65 198.37 246.66 197.21 271.83 211.74 269.83 212.91 244.65 198.37"/><polygon class="cls-23" points="269.83 212.91 271.83 211.74 271.77 231.71 269.77 232.87 269.83 212.91"/></g><g class="cls-2"><polygon class="cls-20" points="256.73 194.29 258.73 193.13 260.78 194.31 258.78 195.48 256.73 194.29"/><polygon class="cls-20" points="254.64 183.93 256.65 182.77 256.99 184.8 254.99 185.96 254.64 183.93"/><polygon class="cls-20" points="254.99 185.96 256.99 184.8 258.72 184.85 256.72 186.01 254.99 185.96"/><polygon class="cls-20" points="256.72 186.01 258.72 184.85 258.75 184.87 256.75 186.03 256.72 186.01"/><polygon class="cls-20" points="256.75 186.03 258.75 184.87 258.73 193.13 256.73 194.29 256.75 186.03"/><polygon class="cls-21" points="254.64 183.93 256.65 182.77 259.05 182.87 257.05 184.03 254.64 183.93"/><polygon class="cls-21" points="257.05 184.03 259.05 182.87 260.81 183.88 258.81 185.05 257.05 184.03"/><polygon class="cls-21" points="258.81 185.05 260.81 183.88 260.78 194.31 258.78 195.48 258.81 185.05"/><polygon class="cls-21" points="258.81 185.05 258.78 195.48 256.73 194.29 256.75 186.03 256.72 186.01 254.99 185.96 254.64 183.93 257.05 184.03 258.81 185.05"/><polygon class="cls-22" points="244.73 172.13 246.73 170.96 271.9 185.5 269.9 186.66 244.73 172.13"/><path class="cls-20" d="M244.73,172.13l25.17,14.53,0,20-25.18-14.54Zm14,23.35,0-10.43-1.76-1-2.41-.11.35,2,1.73,0,0,0,0,8.26,2,1.19Z"/><polygon class="cls-23" points="269.9 186.66 271.9 185.5 271.85 205.47 269.85 206.63 269.9 186.66"/></g><g class="cls-2"><polygon class="cls-20" points="253.84 162.38 255.84 161.22 255.84 162.8 253.84 163.96 253.84 162.38"/><polygon class="cls-20" points="253.84 163.96 255.84 162.8 259.86 165.12 257.86 166.29 253.84 163.96"/><polygon class="cls-21" points="255.82 163.25 257.82 162.08 257.82 162.12 255.82 163.28 255.82 163.25"/><polygon class="cls-20" points="257.85 168.78 259.85 167.61 261.86 168.77 259.86 169.94 257.85 168.78"/><polygon class="cls-20" points="257.86 166.29 259.86 165.12 259.85 167.61 257.85 168.78 257.86 166.29"/><polygon class="cls-21" points="255.82 163.28 257.82 162.12 259.87 163.29 257.86 164.46 255.82 163.28"/><polygon class="cls-21" points="259.86 167.44 261.87 166.28 261.86 168.77 259.86 169.94 259.86 167.44"/><polygon class="cls-21" points="257.04 161.67 259.05 160.51 257.82 162.08 255.82 163.25 257.04 161.67"/><polygon class="cls-20" points="259.86 167.44 261.87 166.28 262.96 166.91 260.95 168.07 259.86 167.44"/><polygon class="cls-20" points="257.87 162.15 259.87 160.99 259.87 163.29 257.86 164.46 257.87 162.15"/><polygon class="cls-21" points="259.87 165.62 261.87 164.45 262.96 165.08 260.96 166.25 259.87 165.62"/><polygon class="cls-21" points="260.96 166.25 262.96 165.08 262.96 166.91 260.95 168.07 260.96 166.25"/><polygon class="cls-20" points="257.88 160.22 259.89 159.05 259.95 159.09 257.94 160.25 257.88 160.22"/><path class="cls-21" d="M257.88,160.22l2-1.17c-.29.51-.54,1-.84,1.46l-2,1.16C257.35,161.19,257.59,160.72,257.88,160.22Z"/><path class="cls-20" d="M257.94,160.25l2-1.16c-.05.64-.08,1.27-.08,1.89l-2,1.17C257.87,161.52,257.9,160.9,257.94,160.25Z"/><path class="cls-20" d="M257,161.67c.31-.48.55-.95.84-1.45l.06,0c0,.65-.07,1.27-.07,1.9v2.31l-2-1.18v0Z"/><polygon class="cls-20" points="257.29 158.01 259.29 156.84 255.84 161.22 253.84 162.38 257.29 158.01"/><polygon class="cls-21" points="259.89 159.51 261.89 158.34 261.87 164.45 259.87 165.62 259.89 159.51"/><polygon class="cls-21" points="257.29 158.01 259.3 156.85 261.89 158.34 259.89 159.51 257.29 158.01"/><path class="cls-21" d="M259.87,165.62l1.09.63v1.82l-1.09-.62v2.49l-2-1.16v-2.49l-4-2.33v-1.58l3.45-4.37,2.6,1.5Zm-2-3.47c0-.63,0-1.25.07-1.9l-.06,0c-.29.5-.53,1-.84,1.45l-1.22,1.58v0l2,1.18v-2.31Z"/><polygon class="cls-22" points="244.8 145.89 246.8 144.72 271.98 159.26 269.98 160.42 244.8 145.89"/><path class="cls-20" d="M244.8,145.89,270,160.42l-.06,20-25.18-14.54ZM261,168.07v-1.82l-1.09-.63,0-6.11-2.6-1.5-3.45,4.37V164l4,2.33v2.49l2,1.16v-2.49l1.09.62Z"/><polygon class="cls-23" points="269.98 160.42 271.98 159.26 271.92 179.22 269.92 180.39 269.98 160.42"/></g><g class="cls-2"><polygon class="cls-20" points="254.68 140.78 256.69 139.62 258.94 140.91 256.93 142.08 254.68 140.78"/><polygon class="cls-20" points="254.29 130.11 256.3 128.95 256.29 130.95 254.29 132.12 254.29 130.11"/><polygon class="cls-20" points="258.45 134.55 260.45 133.39 256.69 139.62 254.68 140.78 258.45 134.55"/><polygon class="cls-20" points="254.29 132.12 256.29 130.95 260.45 133.35 258.45 134.52 254.29 132.12"/><polygon class="cls-20" points="258.45 134.52 260.45 133.35 260.45 133.39 258.45 134.55 258.45 134.52"/><polygon class="cls-21" points="260.7 135.35 262.7 134.19 258.94 140.91 256.93 142.08 260.7 135.35"/><polygon class="cls-21" points="254.29 130.11 256.3 128.95 262.7 132.65 260.7 133.81 254.29 130.11"/><polygon class="cls-21" points="260.7 133.81 262.7 132.65 262.7 134.19 260.7 135.35 260.7 133.81"/><polygon class="cls-21" points="260.7 133.81 260.7 135.35 256.93 142.08 254.68 140.78 258.45 134.55 258.45 134.52 254.29 132.12 254.29 130.11 260.7 133.81"/><polygon class="cls-22" points="244.88 119.64 246.88 118.47 272.05 133.01 270.05 134.17 244.88 119.64"/><path class="cls-20" d="M244.88,119.64l25.17,14.53-.06,20L244.82,139.6Zm15.82,15.71v-1.54l-6.41-3.7v2l4.16,2.4v0l-3.77,6.23,2.25,1.3,3.77-6.73Z"/><polygon class="cls-23" points="270.05 134.17 272.05 133.01 272 152.97 269.99 154.14 270.05 134.17"/></g><g class="cls-2"><path class="cls-20" d="M289.94,236a2.68,2.68,0,0,0,1.24,2.19l-2,1.16a2.65,2.65,0,0,1-1.24-2.19Z"/><path class="cls-20" d="M289.94,236h0l-2,1.16h0l2-1.17Z"/><path class="cls-20" d="M291.18,238.21a.9.9,0,0,0,.9.11l-2,1.17a.91.91,0,0,1-.9-.12Z"/><path class="cls-20" d="M290.31,235.14a1,1,0,0,0-.37.87l-2,1.17a1,1,0,0,1,.37-.88Z"/><path class="cls-21" d="M288.31,236.3l2-1.16a.88.88,0,0,1,.89.11l-2,1.16A.88.88,0,0,0,288.31,236.3Z"/><path class="cls-21" d="M292.08,238.32l-2,1.17a1,1,0,0,0,.36-.87,2.64,2.64,0,0,0-1.24-2.21l2-1.16a2.6,2.6,0,0,1,1.24,2.21A.93.93,0,0,1,292.08,238.32Z"/><path class="cls-20" d="M276.88,217l25.18,14.54-.06,20L276.83,237Zm12.3,22.39c.75.44,1.26.1,1.26-.75a2.64,2.64,0,0,0-1.24-2.21c-.74-.43-1.26-.1-1.26.77a2.65,2.65,0,0,0,1.24,2.19Z"/><path class="cls-21" d="M289.2,236.41a2.64,2.64,0,0,1,1.24,2.21c0,.85-.51,1.19-1.26.75a2.65,2.65,0,0,1-1.24-2.19C287.94,236.31,288.46,236,289.2,236.41Z"/><polygon class="cls-22" points="276.88 216.98 278.89 215.82 304.06 230.35 302.06 231.52 276.88 216.98"/><polygon class="cls-23" points="302.06 231.52 304.06 230.35 304.01 250.32 302 251.48 302.06 231.52"/></g><g class="cls-2"><polygon class="cls-20" points="285.64 209.51 287.64 208.34 287.64 209.82 285.64 210.98 285.64 209.51"/><polygon class="cls-21" points="285.64 209.51 287.64 208.34 288.82 207.8 286.82 208.97 285.64 209.51"/><polygon class="cls-20" points="285.64 210.98 287.64 209.82 294.08 213.53 292.07 214.7 285.64 210.98"/><polygon class="cls-21" points="288.66 210.68 290.66 209.52 290.66 209.55 288.66 210.72 288.66 210.68"/><polygon class="cls-21" points="288.66 210.72 290.66 209.55 294.08 211.53 292.08 212.69 288.66 210.72"/><polygon class="cls-20" points="288.65 210.68 290.66 209.52 291.5 209.2 289.5 210.37 288.65 210.68"/><path class="cls-21" d="M290.33,207.05l-2,1.17c-.42.24-.92.48-1.51.75l2-1.17C289.41,207.53,289.92,207.29,290.33,207.05Z"/><path class="cls-20" d="M291.5,209.2q.4-.18.78-.39l-2,1.17a7.91,7.91,0,0,1-.77.39C290.1,210,290.88,209.52,291.5,209.2Z"/><polygon class="cls-21" points="292.08 212.69 294.08 211.53 294.08 213.54 292.07 214.7 292.08 212.69"/><polygon class="cls-20" points="285.78 201.52 287.78 200.35 288.37 202.45 286.37 203.62 285.78 201.52"/><path class="cls-20" d="M290.31,202.7h0l-2,1.17h0l2-1.17-2,1.17a2.35,2.35,0,0,0-1.94-.25l2-1.17A2.39,2.39,0,0,1,290.31,202.7Z"/><path class="cls-20" d="M290.33,207.05l-2,1.17c1-.57,1.45-1.12,1.47-2l2-1.16C291.78,205.93,291.3,206.49,290.33,207.05Z"/><path class="cls-20" d="M290.32,202.7a2.79,2.79,0,0,1,1.49,2.39l-2,1.16a2.75,2.75,0,0,0-1.49-2.38Z"/><path class="cls-21" d="M285.78,201.52l2-1.17a4.09,4.09,0,0,1,3,.65l-2,1.16A4,4,0,0,0,285.78,201.52Z"/><path class="cls-21" d="M288.75,202.16a6.07,6.07,0,0,1,3.17,5.11c0,1.75-1.11,2.51-2.42,3.1l-.84.31v0l3.42,2v2L285.64,211v-1.47l1.18-.54c2-.9,2.95-1.51,3-2.72a2.75,2.75,0,0,0-1.49-2.38,2.35,2.35,0,0,0-1.94-.25l-.59-2.1A4,4,0,0,1,288.75,202.16Z"/><path class="cls-21" d="M292.28,208.81l-2,1.17a2.92,2.92,0,0,0,1.65-2.71,6.07,6.07,0,0,0-3.17-5.11l2-1.16a6.07,6.07,0,0,1,3.17,5.1A2.94,2.94,0,0,1,292.28,208.81Z"/><polygon class="cls-22" points="276.96 190.74 278.96 189.57 304.14 204.11 302.13 205.27 276.96 190.74"/><path class="cls-20" d="M277,190.74l25.17,14.53-.05,20L276.9,210.7Zm15.11,24v-2l-3.42-2v0l.84-.31c1.31-.59,2.42-1.35,2.42-3.1a6.07,6.07,0,0,0-3.17-5.11,4,4,0,0,0-3-.64l.59,2.1a2.35,2.35,0,0,1,1.94.25,2.75,2.75,0,0,1,1.49,2.38c0,1.21-1,1.82-3,2.72l-1.18.54V211l6.43,3.72Z"/><polygon class="cls-23" points="302.13 205.27 304.14 204.11 304.08 224.07 302.08 225.24 302.13 205.27"/></g><g class="cls-2"><polygon class="cls-20" points="286.1 182.83 288.1 181.67 287.72 183.28 285.71 184.44 286.1 182.83"/><path class="cls-20" d="M285.71,184.44l2-1.16a10.28,10.28,0,0,0,2.52,2.05l-2,1.17A10.17,10.17,0,0,1,285.71,184.44Z"/><path class="cls-21" d="M291.62,183.62l-2,1.16a1.58,1.58,0,0,1-1.47-.25,9.24,9.24,0,0,1-2-1.7l2-1.16a9.09,9.09,0,0,0,2,1.7A1.63,1.63,0,0,0,291.62,183.62Z"/><path class="cls-20" d="M288.19,179a9.17,9.17,0,0,1,1.22.61l-2,1.16a9.17,9.17,0,0,0-1.22-.61Z"/><path class="cls-20" d="M289.42,179.62h0l-2,1.16h0l2-1.16Z"/><path class="cls-20" d="M290.24,185.33c1.33.77,2.37.86,3,.47l-2,1.16c-.67.39-1.7.3-3-.46Z"/><path class="cls-20" d="M292,182.82a.86.86,0,0,1-.35.8l-2,1.16A.81.81,0,0,0,290,184c0-1.07-.73-2.16-2.55-3.21l2-1.16C291.23,180.67,292,181.75,292,182.82Z"/><polygon class="cls-20" points="286.8 175.05 288.8 173.88 288.19 179 286.19 180.17 286.8 175.05"/><polygon class="cls-21" points="288.28 177.9 290.28 176.74 290.08 178.23 288.07 179.4 288.28 177.9"/><path class="cls-21" d="M288.08,179.4l2-1.17a4.8,4.8,0,0,1,.58.31,7.65,7.65,0,0,1,2.39,2.13l-2,1.16a7.65,7.65,0,0,0-2.39-2.13A4.63,4.63,0,0,0,288.08,179.4Z"/><path class="cls-21" d="M293.28,185.8l-2,1.16a2,2,0,0,0,.87-1.87,5.42,5.42,0,0,0-1.09-3.26l2-1.16a5.44,5.44,0,0,1,1.1,3.25A2.07,2.07,0,0,1,293.28,185.8Z"/><polygon class="cls-20" points="288.28 177.9 290.28 176.74 293.8 178.77 291.79 179.94 288.28 177.9"/><path class="cls-21" d="M291.8,177.93v2l-3.51-2-.2,1.5a4.63,4.63,0,0,1,.58.3,7.65,7.65,0,0,1,2.39,2.13,5.42,5.42,0,0,1,1.09,3.26c0,1.94-1.46,2.82-3.9,1.41a10.17,10.17,0,0,1-2.53-2.06l.39-1.61a9.24,9.24,0,0,0,2,1.7c.88.51,1.82.57,1.82-.54s-.73-2.16-2.55-3.21a9.17,9.17,0,0,0-1.22-.61l.61-5.12Z"/><polygon class="cls-21" points="286.8 175.05 288.8 173.88 293.8 176.77 291.8 177.93 286.8 175.05"/><polygon class="cls-21" points="291.8 177.93 293.8 176.77 293.8 178.77 291.79 179.94 291.8 177.93"/><polygon class="cls-22" points="277.03 164.5 279.04 163.33 304.21 177.87 302.21 179.03 277.03 164.5"/><path class="cls-20" d="M277,164.49,302.21,179l-.06,20L277,184.46Zm11.21,22c2.44,1.41,3.9.53,3.9-1.41a5.42,5.42,0,0,0-1.09-3.26,7.76,7.76,0,0,0-2.39-2.13,4.63,4.63,0,0,0-.58-.3l.2-1.5,3.51,2v-2l-5-2.88-.61,5.12a9.17,9.17,0,0,1,1.22.61c1.82,1.05,2.56,2.14,2.55,3.21s-.94,1-1.82.54a9.24,9.24,0,0,1-2-1.7l-.39,1.61a10.17,10.17,0,0,0,2.53,2.06Z"/><polygon class="cls-23" points="302.21 179.03 304.21 177.87 304.15 197.83 302.15 199 302.21 179.03"/></g><g class="cls-2"><path class="cls-20" d="M287.85,155.93a6.93,6.93,0,0,0,3.16,3.68l-2,1.16a6.81,6.81,0,0,1-3.16-3.68Z"/><path class="cls-20" d="M287.65,154.76a4,4,0,0,0,.2,1.17l-2,1.16a3.93,3.93,0,0,1-.2-1.16,1.57,1.57,0,0,1,.66-1.5l2-1.17A1.61,1.61,0,0,0,287.65,154.76Z"/><path class="cls-21" d="M292,158.11l-2,1.16a.92.92,0,0,1-.93-.13l2-1.16A1,1,0,0,0,292,158.11Z"/><path class="cls-21" d="M288.19,156.07l2-1.17a.93.93,0,0,0-.38.87A2.72,2.72,0,0,0,291.1,158l-2,1.16a2.7,2.7,0,0,1-1.28-2.2A.94.94,0,0,1,288.19,156.07Z"/><polygon class="cls-20" points="287.28 154.2 289.28 153.04 289.28 153.08 287.28 154.25 287.28 154.2"/><path class="cls-21" d="M286.31,154.43l2-1.17a1.61,1.61,0,0,1,1-.18l-2,1.17A1.66,1.66,0,0,0,286.31,154.43Z"/><path class="cls-20" d="M288.71,152.26a6.43,6.43,0,0,0,.57.78l-2,1.16a6.06,6.06,0,0,1-.58-.78Z"/><path class="cls-20" d="M291,159.61c1.21.69,2.17.84,2.78.48l-2,1.17c-.61.35-1.58.21-2.78-.49Z"/><path class="cls-20" d="M290.93,154.86l-2,1.16a.93.93,0,0,0-.73,0l2-1.17A1,1,0,0,1,290.93,154.86Z"/><path class="cls-20" d="M292.34,157.39a.79.79,0,0,1-.31.72l-2,1.16a.76.76,0,0,0,.31-.71,3.58,3.58,0,0,0-1.42-2.54l1.77-1,.24-.13A3.55,3.55,0,0,1,292.34,157.39Z"/><path class="cls-20" d="M288.92,156a3.58,3.58,0,0,1,1.42,2.54c0,.73-.49,1-1.24.58a2.7,2.7,0,0,1-1.28-2.2C287.82,156.18,288.23,155.84,288.92,156Z"/><path class="cls-20" d="M288,150a4.35,4.35,0,0,0,.73,2.26l-2,1.16a4.34,4.34,0,0,1-.73-2.25,1.59,1.59,0,0,1,.68-1.49l2-1.17A1.61,1.61,0,0,0,288,150Z"/><path class="cls-21" d="M291.83,153.17l-2,1.16a.78.78,0,0,1-.57.06l2-1.16A.8.8,0,0,0,291.83,153.17Z"/><polygon class="cls-21" points="290.85 156.02 292.86 154.86 292.86 154.91 290.85 156.07 290.85 156.02"/><path class="cls-21" d="M288.26,151.55l2-1.17a.76.76,0,0,0-.29.7,3.4,3.4,0,0,0,1.28,2.15l-2,1.16a3.35,3.35,0,0,1-1.28-2.15A.76.76,0,0,1,288.26,151.55Z"/><path class="cls-21" d="M293.79,160.1l-2,1.16a1.75,1.75,0,0,0,.72-1.63,5.37,5.37,0,0,0-1.66-3.56l2-1.16a5.36,5.36,0,0,1,1.65,3.56A1.75,1.75,0,0,1,293.79,160.1Z"/><path class="cls-20" d="M290.26,150.38a.85.85,0,0,1,.82.13l-2,1.16a.81.81,0,0,0-.82-.12Z"/><path class="cls-20" d="M291.08,150.51h0l-2,1.16h0l2-1.16Z"/><path class="cls-20" d="M292.86,154.86a1.36,1.36,0,0,0,.69-.17l-2,1.17a1.41,1.41,0,0,1-.69.16A9.89,9.89,0,0,1,292.86,154.86Z"/><path class="cls-20" d="M292.18,152.43a.8.8,0,0,1-.35.74l-2,1.16a.8.8,0,0,0,.35-.74h0l2-1.16-1,.58-1,.58a2.22,2.22,0,0,0-1.09-1.92l1.13-.66.39-.22.12-.07.25-.15s.07-.06.11-.06A2.24,2.24,0,0,1,292.18,152.43Z"/><path class="cls-20" d="M289.25,154.39a3.38,3.38,0,0,1-1.28-2.15c0-.66.38-1,1.11-.57a2.22,2.22,0,0,1,1.09,1.92C290.17,154.25,289.74,154.51,289.25,154.39Z"/><path class="cls-21" d="M286.65,149.68l2-1.17a2.67,2.67,0,0,1,2.53.4,5.51,5.51,0,0,1,3,4.41,1.48,1.48,0,0,1-.62,1.37l-2,1.17a1.49,1.49,0,0,0,.63-1.37,5.52,5.52,0,0,0-3-4.41A2.62,2.62,0,0,0,286.65,149.68Z"/><path class="cls-20" d="M277.11,138.25l25.17,14.53,0,20-25.18-14.54ZM289,160.77c2.11,1.22,3.49.75,3.5-1.14a5.37,5.37,0,0,0-1.66-3.56v0c.9,0,1.32-.63,1.32-1.53a5.52,5.52,0,0,0-3-4.41c-1.81-1.05-3.2-.68-3.21,1.09a4.85,4.85,0,0,0,1.31,3v.05c-1-.08-1.62.43-1.63,1.68a6.21,6.21,0,0,0,3.36,4.84Z"/><path class="cls-21" d="M290.85,156.07a5.37,5.37,0,0,1,1.66,3.56c0,1.89-1.39,2.36-3.5,1.14a6.21,6.21,0,0,1-3.36-4.84c0-1.25.64-1.76,1.63-1.68v-.05a4.85,4.85,0,0,1-1.31-3c0-1.77,1.4-2.14,3.21-1.09a5.52,5.52,0,0,1,3,4.41c0,.9-.42,1.54-1.32,1.53Zm-1.75,3.07c.75.44,1.24.15,1.24-.58a3.58,3.58,0,0,0-1.42-2.54c-.69-.18-1.1.16-1.1.92a2.7,2.7,0,0,0,1.28,2.2Zm0-7.47c-.73-.42-1.11-.09-1.11.57a3.35,3.35,0,0,0,1.28,2.15c.49.12.92-.14.92-.8a2.22,2.22,0,0,0-1.09-1.92Z"/><polygon class="cls-22" points="277.11 138.25 279.11 137.08 304.29 151.62 302.28 152.78 277.11 138.25"/><polygon class="cls-23" points="302.28 152.78 304.29 151.62 304.23 171.58 302.23 172.75 302.28 152.78"/></g><g class="cls-2"><polygon class="cls-24" points="317.16 251.96 319.17 250.8 319.16 252.29 317.16 253.45 317.16 251.96"/><polygon class="cls-24" points="317.17 248.64 319.18 247.48 319.17 248.97 317.17 250.13 317.17 248.64"/><polygon class="cls-24" points="317.16 253.45 319.16 252.29 326.36 256.44 324.36 257.61 317.16 253.45"/><polygon class="cls-21" points="324.36 256.12 326.37 254.96 326.36 256.44 324.36 257.61 324.36 256.12"/><polygon class="cls-21" points="317.16 253.45 317.16 251.96 324.36 256.12 324.36 257.61 317.16 253.45"/><polygon class="cls-21" points="317.16 251.96 319.17 250.8 326.37 254.96 324.36 256.12 317.16 251.96"/><polygon class="cls-24" points="317.17 250.13 319.17 248.97 326.37 253.12 324.37 254.29 317.17 250.13"/><polygon class="cls-21" points="317.17 248.64 319.18 247.48 326.38 251.63 324.37 252.8 317.17 248.64"/><polygon class="cls-21" points="324.37 252.8 326.38 251.63 326.37 253.12 324.37 254.29 324.37 252.8"/><path class="cls-24" d="M309.12,235.59l25.17,14.53-.06,20-25.17-14.53Zm15.25,18.7V252.8l-7.2-4.16v1.49l7.2,4.16Zm0,3.32v-1.49l-7.2-4.16v1.49l7.2,4.16Z"/><polygon class="cls-21" points="317.17 248.64 324.37 252.8 324.37 254.29 317.17 250.13 317.17 248.64"/><polygon class="cls-24" points="309.12 235.59 311.12 234.43 336.29 248.96 334.29 250.13 309.12 235.59"/><polygon class="cls-24" points="334.29 250.13 336.29 248.96 336.24 268.93 334.23 270.09 334.29 250.13"/></g><g class="cls-2"><polygon class="cls-20" points="317.64 227.06 319.64 225.9 319.2 227.48 317.2 228.64 317.64 227.06"/><path class="cls-20" d="M317.2,228.64l2-1.16a9.83,9.83,0,0,0,2.69,2.29l-2,1.17A9.67,9.67,0,0,1,317.2,228.64Z"/><path class="cls-21" d="M323.1,228l-2,1.16c-.27.16-.73.1-1.36-.26a9.56,9.56,0,0,1-2.1-1.86l2-1.17a9.39,9.39,0,0,0,2.11,1.86C322.38,228.12,322.83,228.19,323.1,228Z"/><polygon class="cls-20" points="318.72 225.44 320.72 224.27 321.59 224.77 319.58 225.94 318.72 225.44"/><path class="cls-20" d="M321.89,229.77c1.34.77,2.37.92,3,.55l-2,1.16c-.63.37-1.67.22-3-.54Z"/><polygon class="cls-20" points="318.72 223.69 320.73 222.53 320.72 224.27 318.72 225.44 318.72 223.69"/><path class="cls-20" d="M323.41,227.32h0a.76.76,0,0,1-.31.71l-2,1.16a.76.76,0,0,0,.31-.7,3.32,3.32,0,0,0-1.83-2.55l.49-.28.52-.3,1-.59A3.33,3.33,0,0,1,323.41,227.32Z"/><polygon class="cls-21" points="318.72 223.69 320.73 222.53 321.55 223 319.55 224.17 318.72 223.69"/><polygon class="cls-20" points="317.5 219.55 319.51 218.38 319.94 220.4 317.93 221.56 317.5 219.55"/><polygon class="cls-21" points="321.65 226.19 323.66 225.02 323.66 225.05 321.65 226.22 321.65 226.19"/><path class="cls-21" d="M324.9,230.32l-2,1.16a1.69,1.69,0,0,0,.72-1.59,5,5,0,0,0-2-3.67l2-1.17a5.08,5.08,0,0,1,2,3.67A1.75,1.75,0,0,1,324.9,230.32Z"/><path class="cls-20" d="M323.72,225.06l-2,1.17h-.07l2-1.17Z"/><path class="cls-21" d="M322.93,223.27l-2,1.17c-.31.18-.89,0-1.37-.27l2-1.17C322,223.27,322.61,223.46,322.93,223.27Z"/><path class="cls-20" d="M321.84,220.87h0l-2,1.16h0l2-1.16-2,1.16a3.6,3.6,0,0,0-1.9-.47l2-1.16A3.45,3.45,0,0,1,321.84,220.87Z"/><path class="cls-20" d="M323.72,225.06a1.59,1.59,0,0,0,1-.15l-2,1.17a1.6,1.6,0,0,1-1,.15l2-1.15S323.7,225.06,323.72,225.06Z"/><path class="cls-20" d="M323.17,222.73a.56.56,0,0,1-.24.54l-2,1.17a.58.58,0,0,0,.25-.54,2.33,2.33,0,0,0-1.34-1.87l1-.58,1-.58A2.32,2.32,0,0,1,323.17,222.73Z"/><path class="cls-21" d="M317.5,219.55l2-1.17a5.14,5.14,0,0,1,2.81.84l-2,1.16A5.06,5.06,0,0,0,317.5,219.55Z"/><path class="cls-21" d="M324.74,224.9l-2,1.17a1.44,1.44,0,0,0,.58-1.35,5.51,5.51,0,0,0-3-4.34l2-1.16a5.54,5.54,0,0,1,3,4.34A1.44,1.44,0,0,1,324.74,224.9Z"/><path class="cls-20" d="M309.19,209.35l25.18,14.53-.06,20-25.18-14.54Zm10.7,21.59c2.3,1.33,3.72.79,3.72-1.05a5,5,0,0,0-2-3.67c1.12.16,1.67-.39,1.67-1.5a5.51,5.51,0,0,0-3-4.34,5.06,5.06,0,0,0-2.81-.83l.43,2a3.6,3.6,0,0,1,1.9.47,2.35,2.35,0,0,1,1.34,1.87c0,.88-.91.66-1.62.27l-.83-.48v1.75l.86.5a3.32,3.32,0,0,1,1.83,2.55c0,.79-.56,1.07-1.67.43a9.08,9.08,0,0,1-2.1-1.86l-.44,1.58a9.67,9.67,0,0,0,2.69,2.3Z"/><path class="cls-21" d="M320.31,220.38a5.51,5.51,0,0,1,3,4.34c0,1.11-.55,1.66-1.67,1.47v0a5,5,0,0,1,2,3.67c0,1.84-1.41,2.38-3.72,1.05a9.67,9.67,0,0,1-2.69-2.3l.44-1.57a9.56,9.56,0,0,0,2.1,1.86c1.11.63,1.67.35,1.67-.44a3.32,3.32,0,0,0-1.83-2.55l-.86-.5v-1.75l.83.48c.71.39,1.62.61,1.62-.27a2.35,2.35,0,0,0-1.34-1.87,3.6,3.6,0,0,0-1.9-.47l-.43-2A5.06,5.06,0,0,1,320.31,220.38Z"/><polygon class="cls-22" points="309.19 209.35 311.19 208.18 336.37 222.72 334.37 223.88 309.19 209.35"/><polygon class="cls-23" points="334.37 223.88 336.37 222.72 336.31 242.68 334.31 243.85 334.37 223.88"/></g><g class="cls-2"><path class="cls-20" d="M320.14,201.36a7,7,0,0,0,2.62,2.75l-2,1.16a6.92,6.92,0,0,1-2.62-2.75Z"/><path class="cls-20" d="M320.14,201.36l-2,1.16a8.29,8.29,0,0,1-1-3.88c0-1.87.58-3.12,1.49-3.64l2-1.17c-.9.53-1.48,1.77-1.49,3.64A8.33,8.33,0,0,0,320.14,201.36Z"/><path class="cls-21" d="M319.28,200.51l2-1.16a3.55,3.55,0,0,0,1.46,3l-2,1.16A3.53,3.53,0,0,1,319.28,200.51Z"/><path class="cls-21" d="M319.36,200l2-1.16a1.13,1.13,0,0,0-.09.56l-2,1.16A1.33,1.33,0,0,1,319.36,200Z"/><path class="cls-21" d="M323.52,202.38l-2,1.16a.76.76,0,0,1-.78-.08l2-1.16A.78.78,0,0,0,323.52,202.38Z"/><path class="cls-21" d="M319.64,199.65l2-1.16a.63.63,0,0,0-.28.3l-2,1.16A.81.81,0,0,1,319.64,199.65Z"/><path class="cls-20" d="M322.76,204.11a2.39,2.39,0,0,0,2.42.28l-2,1.17a2.43,2.43,0,0,1-2.42-.29Z"/><polygon class="cls-21" points="319.35 198.12 321.36 196.95 321.4 196.98 319.4 198.14 319.35 198.12"/><path class="cls-20" d="M321.42,197h0l-2,1.16h0Z"/><path class="cls-20" d="M322.63,198.58l-2,1.17a1,1,0,0,0-1-.1l2-1.16A1,1,0,0,1,322.63,198.58Z"/><path class="cls-20" d="M324,201.16c0,.62-.16,1.05-.45,1.22l-2,1.16a1.35,1.35,0,0,0,.45-1.21,3,3,0,0,0-1.35-2.58l2-1.17A3,3,0,0,1,324,201.16Z"/><path class="cls-21" d="M320,197.06l2-1.17a1.56,1.56,0,0,0-.68,1.06l-2,1.17A1.55,1.55,0,0,1,320,197.06Z"/><path class="cls-21" d="M319.42,198.13l2-1.16c.45-.26,1.07-.2,1.91.28l-2,1.17C320.49,197.93,319.86,197.87,319.42,198.13Z"/><path class="cls-21" d="M325.18,204.39l-2,1.17a2.32,2.32,0,0,0,.94-2.12,5.94,5.94,0,0,0-2.8-5l2-1.17a6,6,0,0,1,2.79,5A2.3,2.3,0,0,1,325.18,204.39Z"/><path class="cls-20" d="M322,195.89a2.48,2.48,0,0,1,2.28.27l-2,1.16a2.44,2.44,0,0,0-2.28-.26Z"/><path class="cls-20" d="M324.33,196.16l-2,1.16h0l2-1.16h0Z"/><path class="cls-20" d="M325,196.48l-2,1.16-.62-.32,2-1.16C324.57,196.28,324.77,196.37,325,196.48Z"/><polygon class="cls-21" points="323.15 195.89 325.15 194.72 325.15 196.6 323.14 197.76 323.15 195.89"/><path class="cls-20" d="M325,196.49l-2,1.16h0l2-1.16h0Z"/><path class="cls-20" d="M325.13,196.59l-2,1.17-.17-.11,2-1.16A1,1,0,0,1,325.13,196.59Z"/><path class="cls-20" d="M325.13,196.59h0l-2,1.16h0Z"/><path class="cls-21" d="M318.66,195l2-1.17.13-.07a4,4,0,0,1,3.51.49l-2,1.16a4,4,0,0,0-3.51-.48Z"/><path class="cls-21" d="M322.3,195.41l2-1.16c.23.11.41.21.56.3l.29.17-2,1.17-.29-.18Z"/><path class="cls-20" d="M309.26,183.1l25.18,14.54-.06,20-25.17-14.53Zm11.5,22.17c2,1.14,3.35.24,3.36-1.83a5.94,5.94,0,0,0-2.8-5c-.85-.49-1.47-.55-1.92-.28l0,0c.25-1.09,1.09-1.71,3-.8l.63.32.19.12v-1.87l-.29-.18c-.15-.09-.33-.19-.56-.3-1.43-.74-2.6-.91-3.51-.48s-1.61,1.75-1.62,3.71a7.64,7.64,0,0,0,3.59,6.63Z"/><path class="cls-20" d="M320.62,199.75a3,3,0,0,1,1.35,2.58c0,1-.48,1.56-1.23,1.13a3.53,3.53,0,0,1-1.46-3,1.33,1.33,0,0,1,.08-.56C319.58,199.54,320.05,199.41,320.62,199.75Z"/><path class="cls-21" d="M321.32,198.42a5.94,5.94,0,0,1,2.8,5c0,2.07-1.39,3-3.36,1.83a7.64,7.64,0,0,1-3.59-6.63c0-2,.64-3.23,1.62-3.71a4,4,0,0,1,3.51.48l.56.3.29.18v1.87a1.18,1.18,0,0,0-.19-.11,7.11,7.11,0,0,0-.63-.33c-1.88-.91-2.72-.29-3,.8l0,0C319.85,197.87,320.47,197.93,321.32,198.42Zm-.58,5c.75.43,1.23-.08,1.23-1.13a3,3,0,0,0-1.35-2.58c-.57-.33-1-.21-1.26.2a1.33,1.33,0,0,0-.08.56,3.53,3.53,0,0,0,1.46,3Z"/><polygon class="cls-22" points="309.26 183.1 311.27 181.94 336.44 196.47 334.44 197.64 309.26 183.1"/><polygon class="cls-23" points="334.44 197.64 336.44 196.47 336.39 216.44 334.38 217.6 334.44 197.64"/></g><g class="cls-2"><path class="cls-20" d="M318.07,177.52l2-1.16.53.32.44.23-2,1.17-.43-.24C318.39,177.73,318.21,177.61,318.07,177.52Z"/><polygon class="cls-20" points="318.08 175.61 320.08 174.45 320.07 176.36 318.07 177.52 318.08 175.61"/><path class="cls-21" d="M323.2,175.21l-2,1.17a1.28,1.28,0,0,1-.4.15,2.91,2.91,0,0,1-1.79-.38l-.52-.28a2.75,2.75,0,0,1-.4-.26l2-1.16.4.26.52.27a3,3,0,0,0,1.79.39A1.21,1.21,0,0,0,323.2,175.21Z"/><path class="cls-20" d="M319,178.08l2-1.17c1.41.75,2.6.94,3.46.54l-2,1.17C321.63,179,320.45,178.83,319,178.08Z"/><path class="cls-20" d="M324.5,177.45a.8.8,0,0,0,.16-.08l-2,1.17-.15.08C323.1,178.27,323.89,177.78,324.5,177.45Z"/><path class="cls-20" d="M322.08,173.77c.83.48,1.41.54,1.82.3l-2,1.16c-.41.25-1,.18-1.82-.29a5.75,5.75,0,0,1-2-2l1.13-.66.39-.23.12-.07.25-.14s.07-.07.11-.07A5.75,5.75,0,0,0,322.08,173.77Z"/><path class="cls-20" d="M323.2,175.21l-2,1.17a1.65,1.65,0,0,0,.74-1.11l2-1.16A1.7,1.7,0,0,1,323.2,175.21Z"/><polygon class="cls-20" points="321.89 175.23 323.9 174.07 323.94 174.11 321.94 175.27 321.89 175.23"/><path class="cls-20" d="M319.26,168.88h0a5.6,5.6,0,0,0,.83,2.87l-2,1.17a5.64,5.64,0,0,1-.84-2.88,2.26,2.26,0,0,1,.94-2.06l2-1.17A2.27,2.27,0,0,0,319.26,168.88Z"/><path class="cls-20" d="M323.83,172.36a.56.56,0,0,1-.16.14l-2,1.16a.43.43,0,0,0,.16-.14Z"/><path class="cls-21" d="M319.82,169.93l2-1.16c-.28.16-.45.57-.44,1.19a2.78,2.78,0,0,0,1.28,2.41,1,1,0,0,0,1,.13l-2,1.16a1,1,0,0,1-1-.13,2.74,2.74,0,0,1-1.28-2.41A1.29,1.29,0,0,1,319.82,169.93Z"/><path class="cls-20" d="M321.82,168.77a.81.81,0,0,1,.81.08l-2,1.16a.81.81,0,0,0-.81-.08C320.42,169.59,321.22,169.12,321.82,168.77Z"/><path class="cls-20" d="M323.94,171.81a.94.94,0,0,1-.11.55l-2,1.16a.9.9,0,0,0,.11-.54,3.4,3.4,0,0,0-1.32-3l2-1.16A3.34,3.34,0,0,1,323.94,171.81Z"/><path class="cls-20" d="M320.62,170a3.4,3.4,0,0,1,1.32,3,.9.9,0,0,1-.11.54c-.2.26-.6.34-1.17,0a2.75,2.75,0,0,1-1.28-2.41C319.36,170,319.9,169.59,320.62,170Z"/><path class="cls-21" d="M318.19,168l2-1.17a2.5,2.5,0,0,1,2.5.29l-2,1.16A2.47,2.47,0,0,0,318.19,168Z"/><path class="cls-21" d="M324.66,177.37l-2,1.17c.9-.53,1.44-1.75,1.44-3.8a7.4,7.4,0,0,0-3.42-6.48l2-1.16a7.44,7.44,0,0,1,3.42,6.47C326.1,175.62,325.56,176.85,324.66,177.37Z"/><path class="cls-20" d="M309.34,156.86l25.17,14.53-.05,20-25.18-14.54Zm13.16,21.76c1-.47,1.6-1.72,1.6-3.88a7.4,7.4,0,0,0-3.42-6.48c-2-1.15-3.42-.25-3.43,1.78a6,6,0,0,0,2.83,4.9c.82.47,1.41.54,1.82.29l0,0a1.5,1.5,0,0,1-1.14,1.26,2.85,2.85,0,0,1-1.79-.39l-.52-.27a2.75,2.75,0,0,1-.4-.26v1.91c.14.09.32.21.53.32l.43.24c1.42.75,2.6.94,3.47.54Z"/><path class="cls-21" d="M320.68,168.26a7.4,7.4,0,0,1,3.42,6.48c0,2.16-.61,3.41-1.6,3.88s-2.05.21-3.47-.54l-.43-.24c-.21-.11-.39-.23-.53-.32v-1.91a2.75,2.75,0,0,0,.4.26l.52.28a2.91,2.91,0,0,0,1.79.38,1.52,1.52,0,0,0,1.15-1.26l0,0c-.41.25-1,.18-1.82-.29a6,6,0,0,1-2.83-4.9C317.26,168,318.69,167.11,320.68,168.26Zm1.15,5.26a.9.9,0,0,0,.11-.54,3.4,3.4,0,0,0-1.32-3c-.72-.41-1.26,0-1.24,1.11a2.74,2.74,0,0,0,1.28,2.41c.57.33,1,.25,1.17,0Z"/><polygon class="cls-23" points="334.51 171.39 336.52 170.23 336.46 190.19 334.46 191.36 334.51 171.39"/><polygon class="cls-22" points="309.34 156.86 311.34 155.69 336.52 170.23 334.51 171.39 309.34 156.86"/></g><g class="cls-2"><polygon class="cls-25" points="353.78 261.37 355.78 260.21 357.15 261 355.14 262.16 353.78 261.37"/><polygon class="cls-25" points="350.87 254.65 352.88 253.49 352.87 255 350.87 256.16 350.87 254.65"/><polygon class="cls-25" points="350.87 256.16 352.87 255 355.79 256.68 353.79 257.85 350.87 256.16"/><polygon class="cls-25" points="353.79 257.85 355.79 256.68 355.78 260.21 353.78 261.37 353.79 257.85"/><polygon class="cls-25" points="353.8 252.84 355.8 251.68 355.79 255.17 353.79 256.34 353.8 252.84"/><polygon class="cls-21" points="350.87 254.65 352.88 253.49 355.79 255.17 353.79 256.34 350.87 254.65"/><polygon class="cls-21" points="355.15 258.64 357.16 257.47 357.15 261 355.14 262.16 355.15 258.64"/><polygon class="cls-25" points="355.15 258.64 357.16 257.47 360.08 259.16 358.07 260.32 355.15 258.64"/><polygon class="cls-21" points="355.16 257.13 357.16 255.96 360.08 257.65 358.08 258.81 355.16 257.13"/><polygon class="cls-21" points="358.08 258.81 360.08 257.65 360.08 259.16 358.07 260.32 358.08 258.81"/><polygon class="cls-21" points="355.17 253.63 357.17 252.47 357.16 255.96 355.16 257.13 355.17 253.63"/><polygon class="cls-21" points="355.17 253.63 355.16 257.13 358.08 258.81 358.07 260.32 355.15 258.64 355.14 262.16 353.78 261.37 353.79 257.85 350.87 256.16 350.87 254.65 353.79 256.34 353.8 252.84 355.17 253.63"/><polygon class="cls-21" points="353.8 252.84 355.8 251.68 357.17 252.47 355.17 253.63 353.8 252.84"/><polygon class="cls-26" points="341.42 227.96 343.43 226.79 368.6 241.33 366.6 242.49 341.42 227.96"/><path class="cls-25" d="M341.42,228l25.18,14.53-.13,46.21-25.18-14.54Zm16.65,32.36v-1.51l-2.92-1.68v-3.5l-1.37-.79v3.5l-2.92-1.69v1.51l2.92,1.69v3.52l1.36.79v-3.52l2.92,1.68Z"/><polygon class="cls-27" points="366.6 242.49 368.6 241.33 368.47 287.54 366.47 288.7 366.6 242.49"/></g><g class="cls-2"><polygon class="cls-28" points="349.82 215.65 351.83 214.49 351.82 216.22 349.82 217.38 349.82 215.65"/><polygon class="cls-28" points="349.82 217.38 351.82 216.22 360 220.94 358 222.1 349.82 217.38"/><polygon class="cls-21" points="358 220.37 358 222.1 349.82 217.38 349.82 215.65 358 220.37"/><polygon class="cls-21" points="358 220.37 360 219.21 360 220.94 358 222.1 358 220.37"/><polygon class="cls-21" points="349.82 215.65 351.83 214.49 360 219.21 358 220.37 349.82 215.65"/><polygon class="cls-29" points="366.67 216.25 368.68 215.08 368.62 235.05 366.62 236.21 366.67 216.25"/><polygon class="cls-30" points="341.5 201.71 343.5 200.55 368.68 215.08 366.67 216.25 341.5 201.71"/><path class="cls-28" d="M341.5,201.71l25.17,14.54-.06,20-25.17-14.53ZM358,222.1v-1.73l-8.18-4.72v1.73L358,222.1Z"/></g><g class="cls-2"><polygon class="cls-28" points="350.52 196.11 352.52 194.95 354.86 196.29 352.85 197.46 350.52 196.11"/><polygon class="cls-21" points="353.5 196.42 355.5 195.25 354.86 196.29 352.85 197.46 353.5 196.42"/><polygon class="cls-28" points="354.59 197.05 356.59 195.88 357.27 197.69 355.26 198.85 354.59 197.05"/><polygon class="cls-28" points="354.02 195.53 356.02 194.36 356.06 194.39 354.06 195.55 354.02 195.53"/><path class="cls-21" d="M354,195.53l2-1.17c-.17.32-.35.6-.52.89l-2,1.17C353.67,196.13,353.85,195.85,354,195.53Z"/><path class="cls-28" d="M356.18,194.74c.13.38.26.76.41,1.14l-2,1.17c-.15-.39-.28-.77-.41-1.15Z"/><path class="cls-28" d="M356.18,194.74l-2,1.16-.12-.35,2-1.16Z"/><polygon class="cls-28" points="352.85 193.45 354.85 192.29 352.52 194.95 350.52 196.11 352.85 193.45"/><polygon class="cls-28" points="350.6 188.3 352.6 187.14 354.85 192.29 352.85 193.45 350.6 188.3"/><polygon class="cls-28" points="355.26 198.85 357.27 197.69 359.67 199.07 357.67 200.24 355.26 198.85"/><polygon class="cls-21" points="354.19 192.85 356.2 191.69 356.22 191.7 354.22 192.87 354.19 192.85"/><polygon class="cls-21" points="355.4 194.82 357.41 193.66 359.67 199.07 357.67 200.24 355.4 194.82"/><path class="cls-21" d="M353.64,191.36l2-1.17c.2.52.37,1,.56,1.5l-2,1.16C354,192.37,353.83,191.87,353.64,191.36Z"/><polygon class="cls-21" points="352.97 189.67 354.98 188.51 355.64 190.19 353.64 191.36 352.97 189.67"/><polygon class="cls-21" points="350.6 188.3 352.6 187.14 354.98 188.51 352.97 189.67 350.6 188.3"/><path class="cls-28" d="M354.75,192l2-1.17c-.19.29-.35.59-.54.9l-2,1.17C354.4,192.55,354.57,192.25,354.75,192Z"/><polygon class="cls-28" points="355.36 191.05 357.36 189.89 356.76 190.8 354.75 191.97 355.36 191.05"/><polygon class="cls-21" points="355.36 191.05 357.36 189.89 359.67 191.22 357.66 192.38 355.36 191.05"/><path class="cls-21" d="M357.66,192.38l-2.26,2.44,2.27,5.42-2.4-1.39-.68-1.8c-.2-.5-.36-1-.53-1.5l0,0c-.17.32-.35.6-.52.89l-.65,1-2.33-1.35,2.33-2.66-2.25-5.15,2.37,1.37.67,1.69c.19.51.37,1,.56,1.49l0,0c.18-.32.35-.62.53-.9l.61-.92Z"/><polygon class="cls-21" points="357.66 192.38 359.67 191.22 357.41 193.66 355.4 194.82 357.66 192.38"/><polygon class="cls-30" points="341.57 175.47 343.57 174.3 368.75 188.84 366.75 190 341.57 175.47"/><path class="cls-28" d="M341.57,175.47,366.75,190l-.06,20-25.18-14.54Zm13.7,23.38,2.4,1.39-2.27-5.42,2.26-2.44-2.3-1.33-.61.92c-.18.28-.35.58-.53.9l0,0c-.19-.48-.37-1-.56-1.49l-.67-1.69-2.37-1.37,2.25,5.15-2.33,2.66,2.33,1.35.65-1c.17-.29.35-.57.52-.89l0,0c.17.5.33,1,.53,1.5l.68,1.8Z"/><polygon class="cls-29" points="366.75 190 368.75 188.84 368.69 208.8 366.69 209.97 366.75 190"/></g><g class="cls-2"><polygon class="cls-31" points="250.76 110.97 252.76 109.8 254.39 110.74 252.38 111.9 250.76 110.97"/><polygon class="cls-21" points="252.88 110.14 254.89 108.98 254.39 110.74 252.38 111.9 252.88 110.14"/><polygon class="cls-31" points="254.86 111.29 256.87 110.13 257.4 112.48 255.4 113.64 254.86 111.29"/><polygon class="cls-31" points="252.88 110.14 254.89 108.98 256.87 110.13 254.86 111.29 252.88 110.14"/><polygon class="cls-31" points="255.4 113.64 257.4 112.48 259.08 113.45 257.08 114.62 255.4 113.64"/><polygon class="cls-21" points="253.11 108.93 255.12 107.76 256.65 108.65 254.64 109.81 253.11 108.93"/><polygon class="cls-21" points="253.53 107.48 255.53 106.32 255.12 107.76 253.11 108.93 253.53 107.48"/><polygon class="cls-31" points="254.22 107.88 256.22 106.71 256.65 108.65 254.64 109.81 254.22 107.88"/><polygon class="cls-31" points="252.9 104.23 254.9 103.07 252.76 109.8 250.76 110.97 252.9 104.23"/><polygon class="cls-31" points="253.85 106.13 255.85 104.96 255.88 104.97 253.87 106.14 253.85 106.13"/><path class="cls-21" d="M253.85,106.13l2-1.17c-.1.42-.2,1-.32,1.36l-2,1.16C253.64,107.08,253.75,106.54,253.85,106.13Z"/><path class="cls-31" d="M253.87,106.14l2-1.17c.11.54.23,1.2.35,1.74l-2,1.17C254.09,107.33,254,106.67,253.87,106.14Z"/><path class="cls-21" d="M255,105.42l2.13,9.2-1.68-1-.54-2.35-2-1.14-.5,1.75-1.62-.93,2.14-6.74Zm-1.84,3.51,1.53.88-.42-1.93c-.13-.55-.25-1.21-.35-1.74h0c-.1.41-.21,1-.32,1.35l-.42,1.45Z"/><polygon class="cls-21" points="254.95 105.42 256.96 104.25 259.08 113.45 257.08 114.62 254.95 105.42"/><polygon class="cls-21" points="252.9 104.23 254.9 103.07 256.96 104.25 254.95 105.42 252.9 104.23"/><path class="cls-31" d="M263.06,115.86a4.42,4.42,0,0,0,1.78.69l-2,1.16a4.2,4.2,0,0,1-1.78-.68,7.19,7.19,0,0,1-2.71-2.71l2-1.16A7.31,7.31,0,0,0,263.06,115.86Z"/><polygon class="cls-21" points="262.61 116.17 264.61 115.01 264.84 116.55 262.84 117.71 262.61 116.17"/><path class="cls-31" d="M259.44,109.79a6.8,6.8,0,0,0,.91,3.37l-2,1.16a6.77,6.77,0,0,1-.91-3.37,2.61,2.61,0,0,1,1-2.43l2-1.16A2.62,2.62,0,0,0,259.44,109.79Z"/><path class="cls-21" d="M259.69,110.21l2-1.17c-.38.22-.61.74-.61,1.6a4.43,4.43,0,0,0,2.21,3.88,4.06,4.06,0,0,0,1.31.49l-2,1.16a3.84,3.84,0,0,1-1.31-.49,4.46,4.46,0,0,1-2.22-3.88C259.09,110.94,259.32,110.43,259.69,110.21Z"/><path class="cls-31" d="M261.7,109a1.64,1.64,0,0,1,1.6.24l-2,1.16a1.62,1.62,0,0,0-1.61-.23Z"/><path class="cls-31" d="M263.3,109.28a5.74,5.74,0,0,1,1.32,1c-1,.57-2,1.16-2,1.17a5.76,5.76,0,0,0-1.32-1.06l1-.58,1-.58-2,1.16h0l2-1.16Z"/><path class="cls-21" d="M258.44,108.52l2-1.16a2.87,2.87,0,0,1,2.8.39l-2,1.16A2.85,2.85,0,0,0,258.44,108.52Z"/><path class="cls-21" d="M261.23,108.91l2-1.16a6.84,6.84,0,0,1,1.71,1.34l-2,1.16A7.13,7.13,0,0,0,261.23,108.91Z"/><polygon class="cls-21" points="262.94 110.25 264.94 109.09 264.62 110.33 262.62 111.5 262.94 110.25"/><path class="cls-21" d="M261.23,108.91a7.13,7.13,0,0,1,1.71,1.34l-.32,1.25a5.76,5.76,0,0,0-1.32-1.06c-1.24-.72-2.21-.41-2.22,1.36a4.46,4.46,0,0,0,2.22,3.88,3.84,3.84,0,0,0,1.31.49l.23,1.54a4.2,4.2,0,0,1-1.78-.68,7.07,7.07,0,0,1-3.62-6.08C257.45,108.24,259.14,107.7,261.23,108.91Z"/><path class="cls-31" d="M245,93.4l25.18,14.53-.06,20-25.18-14.54Zm10.45,20.24,1.68,1-2.13-9.2-2-1.19L250.76,111l1.62.93.5-1.75,2,1.14.54,2.35Zm5.9,2a4.46,4.46,0,0,1-2.22-3.88c0-1.77,1-2.08,2.22-1.36a5.76,5.76,0,0,1,1.32,1.06l.32-1.25a7.13,7.13,0,0,0-1.71-1.34c-2.09-1.21-3.78-.67-3.79,2a7.07,7.07,0,0,0,3.62,6.08,4.2,4.2,0,0,0,1.78.68l-.24-1.54a3.87,3.87,0,0,1-1.3-.49Z"/><path class="cls-31" d="M253.87,106.14c.1.53.22,1.19.35,1.74l.42,1.93-1.53-.88.42-1.45c.11-.4.22-.94.32-1.35Z"/><polygon class="cls-32" points="244.95 93.4 246.95 92.23 272.13 106.77 270.13 107.93 244.95 93.4"/><polygon class="cls-33" points="270.13 107.93 272.13 106.77 272.07 126.73 270.07 127.9 270.13 107.93"/></g><g class="cls-2"><polygon class="cls-28" points="282.85 129.49 284.85 128.33 286.3 129.17 284.3 130.33 282.85 129.49"/><polygon class="cls-28" points="283.31 121.79 285.32 120.63 284.85 128.33 282.85 129.49 283.31 121.79"/><polygon class="cls-21" points="284.43 127.38 286.43 126.21 286.3 129.17 284.3 130.33 284.43 127.38"/><polygon class="cls-28" points="285.93 131.14 287.94 129.98 289.16 130.69 287.16 131.85 285.93 131.14"/><polygon class="cls-28" points="285.2 127.64 287.2 126.47 287.94 129.98 285.93 131.14 285.2 127.64"/><polygon class="cls-21" points="286.65 129.23 288.65 128.06 288.68 128.08 286.68 129.25 286.65 129.23"/><path class="cls-28" d="M286.58,123.07h0l-2,1.16h0l1-.58.52-.3Z"/><path class="cls-28" d="M286.57,123v.08l-2,1.16,0-.08Z"/><path class="cls-21" d="M284.58,124.17l2-1.17c-.07,1-.1,2.25-.16,3.21l-2,1.17C284.48,126.41,284.52,125.21,284.58,124.17Z"/><path class="cls-28" d="M286.58,123.07c.18,1.12.41,2.36.62,3.4l-2,1.16c-.22-1-.44-2.27-.62-3.4Z"/><polygon class="cls-28" points="288.96 133.02 290.97 131.86 292.5 132.74 290.5 133.91 288.96 133.02"/><path class="cls-21" d="M286.07,126l2-1.16c.22,1.05.43,2.16.58,3.18l-2,1.17C286.5,128.2,286.29,127.09,286.07,126Z"/><polygon class="cls-21" points="288.01 129.23 290.01 128.06 289.16 130.69 287.16 131.85 288.01 129.23"/><polygon class="cls-28" points="288.87 129.92 290.87 128.76 290.97 131.86 288.96 133.02 288.87 129.92"/><path class="cls-28" d="M287.34,126.77l2-1.17c-.23.76-.47,1.67-.67,2.48l-2,1.16C286.88,128.44,287.12,127.52,287.34,126.77Z"/><polygon class="cls-21" points="285.4 123 287.4 121.83 288.07 124.88 286.07 126.04 285.4 123"/><polygon class="cls-21" points="283.31 121.79 285.32 120.63 287.4 121.83 285.4 123 283.31 121.79"/><polygon class="cls-28" points="288.79 126.59 290.79 125.43 290.82 125.45 288.82 126.61 288.79 126.59"/><path class="cls-21" d="M288.79,126.59l2-1.16c-.22.89-.51,1.86-.78,2.64l-2,1.16C288.28,128.45,288.57,127.49,288.79,126.59Z"/><path class="cls-28" d="M288.82,126.61l2-1.16c0,1.16,0,2.33.05,3.31l-2,1.16C288.84,128.94,288.81,127.77,288.82,126.61Z"/><polygon class="cls-28" points="288.09 124.55 290.1 123.39 289.35 125.6 287.34 126.77 288.09 124.55"/><polygon class="cls-21" points="290.14 125.73 292.14 124.57 292.5 132.74 290.5 133.91 290.14 125.73"/><path class="cls-28" d="M297,135.47a4.56,4.56,0,0,0,1.78.68l-2,1.17a4.42,4.42,0,0,1-1.78-.69,7.07,7.07,0,0,1-3.62-6.07l2-1.17A7.12,7.12,0,0,0,297,135.47Z"/><path class="cls-21" d="M290.14,125.73l.35,8.18L289,133l-.09-3.1c0-1-.06-2.15-.05-3.31l0,0c-.22.9-.51,1.86-.78,2.64l-.85,2.62-1.23-.71-.73-3.51c-.22-1.06-.45-2.33-.62-3.46-.06,1-.1,2.24-.15,3.21l-.13,3-1.45-.84.46-7.7L285.4,123l.67,3c.22,1,.43,2.16.58,3.19h0c.2-.8.44-1.72.66-2.47l.75-2.22Z"/><polygon class="cls-21" points="288.09 124.55 290.1 123.39 292.14 124.57 290.14 125.73 288.09 124.55"/><polygon class="cls-21" points="296.55 135.77 298.56 134.61 298.79 136.15 296.79 137.32 296.55 135.77"/><path class="cls-28" d="M294.39,127a2.64,2.64,0,0,0-1,2.43l-1.13.66-.87.51h0a2.64,2.64,0,0,1,1-2.44Z"/><path class="cls-21" d="M293.65,129.81l2-1.17c-.38.22-.61.74-.61,1.6a4.45,4.45,0,0,0,2.21,3.88,4.14,4.14,0,0,0,1.31.49l-2,1.16a3.6,3.6,0,0,1-1.3-.49A4.4,4.4,0,0,1,293,131.4C293,130.54,293.27,130,293.65,129.81Z"/><path class="cls-28" d="M295.65,128.64a1.66,1.66,0,0,1,1.61.24l-2,1.16a1.61,1.61,0,0,0-1.6-.23Z"/><path class="cls-28" d="M297.26,128.88a5.94,5.94,0,0,1,1.31,1.05l-2,1.17a5.91,5.91,0,0,0-1.31-1.06l2-1.16-2,1.16h0l2-1.16Z"/><path class="cls-21" d="M292.39,128.12l2-1.16a2.87,2.87,0,0,1,2.8.39l-2,1.16A2.87,2.87,0,0,0,292.39,128.12Z"/><path class="cls-21" d="M295.19,128.51l2-1.16a7,7,0,0,1,1.7,1.34l-2,1.16A7,7,0,0,0,295.19,128.51Z"/><polygon class="cls-21" points="296.89 129.85 298.89 128.69 298.57 129.93 296.57 131.1 296.89 129.85"/><path class="cls-28" d="M277.18,112l25.18,14.54-.06,20L277.12,132ZM289,133l1.53.89-.35-8.18-2.05-1.18-.75,2.22c-.22.75-.46,1.67-.66,2.47h0c-.15-1-.36-2.14-.58-3.19l-.67-3-2.09-1.21-.46,7.7,1.45.84.13-3c.05-1,.09-2.17.13-3.23.19,1.15.42,2.42.64,3.48l.73,3.51,1.23.71.85-2.62c.27-.78.56-1.74.78-2.64l0,0c0,1.16,0,2.33.05,3.31L289,133Zm6.29,2.26A4.4,4.4,0,0,1,293,131.4c0-1.77,1-2.08,2.21-1.36a5.76,5.76,0,0,1,1.32,1.06l.32-1.25a7.24,7.24,0,0,0-1.7-1.34c-2.1-1.21-3.79-.67-3.8,2.05a7.07,7.07,0,0,0,3.62,6.07,4.42,4.42,0,0,0,1.78.69l-.24-1.55a3.6,3.6,0,0,1-1.3-.49Z"/><path class="cls-21" d="M295.19,128.51a7,7,0,0,1,1.7,1.34l-.32,1.25a5.76,5.76,0,0,0-1.32-1.06c-1.24-.72-2.21-.41-2.21,1.36a4.4,4.4,0,0,0,2.21,3.88,3.6,3.6,0,0,0,1.3.49l.24,1.55a4.42,4.42,0,0,1-1.78-.69,7.07,7.07,0,0,1-3.62-6.07C291.4,127.84,293.09,127.3,295.19,128.51Z"/><polygon class="cls-30" points="277.18 112 279.19 110.84 304.36 125.38 302.36 126.54 277.18 112"/><polygon class="cls-29" points="302.36 126.54 304.36 125.38 304.3 145.34 302.3 146.51 302.36 126.54"/></g><g class="cls-2"><polygon class="cls-28" points="312.68 146.71 314.68 145.55 316.13 146.39 314.12 147.55 312.68 146.71"/><polygon class="cls-28" points="313.14 139.01 315.14 137.85 314.68 145.55 312.68 146.71 313.14 139.01"/><polygon class="cls-21" points="314.26 144.6 316.26 143.43 316.13 146.39 314.12 147.55 314.26 144.6"/><polygon class="cls-28" points="315.76 148.36 317.76 147.2 318.99 147.91 316.98 149.07 315.76 148.36"/><polygon class="cls-28" points="315.03 144.85 317.03 143.69 317.76 147.2 315.76 148.36 315.03 144.85"/><polygon class="cls-21" points="316.48 146.45 318.48 145.28 318.51 145.3 316.5 146.46 316.48 146.45"/><path class="cls-28" d="M316.41,140.3h0l-2,1.16h0Z"/><path class="cls-28" d="M316.39,140.21l0,.09-2,1.17v-.1Z"/><path class="cls-21" d="M314.41,141.39l2-1.17c-.06,1-.1,2.25-.15,3.21l-2,1.17C314.31,143.63,314.35,142.43,314.41,141.39Z"/><path class="cls-28" d="M316.41,140.31c.18,1.12.4,2.35.62,3.38l-2,1.16c-.22-1-.45-2.26-.63-3.38Z"/><polygon class="cls-28" points="318.79 150.25 320.8 149.08 322.33 149.97 320.32 151.13 318.79 150.25"/><path class="cls-21" d="M315.9,143.26l2-1.16c.21,1.05.43,2.16.58,3.18l-2,1.17C316.32,145.42,316.11,144.31,315.9,143.26Z"/><polygon class="cls-21" points="317.84 146.45 319.84 145.29 318.99 147.91 316.98 149.07 317.84 146.45"/><polygon class="cls-28" points="318.69 147.14 320.7 145.97 320.8 149.08 318.79 150.25 318.69 147.14"/><path class="cls-28" d="M317.17,144l2-1.17c-.22.76-.46,1.67-.66,2.48l-2,1.16C316.7,145.66,316.94,144.74,317.17,144Z"/><polygon class="cls-21" points="315.23 140.22 317.23 139.05 317.9 142.1 315.9 143.26 315.23 140.22"/><polygon class="cls-21" points="313.14 139.01 315.14 137.85 317.23 139.05 315.23 140.22 313.14 139.01"/><polygon class="cls-28" points="318.61 143.81 320.62 142.65 320.65 142.67 318.64 143.83 318.61 143.81"/><path class="cls-21" d="M318.61,143.81l2-1.16c-.22.89-.51,1.86-.78,2.64l-2,1.16C318.1,145.67,318.39,144.71,318.61,143.81Z"/><path class="cls-28" d="M318.64,143.83l2-1.16c0,1.16,0,2.33.05,3.31l-2,1.16C318.67,146.16,318.64,145,318.64,143.83Z"/><polygon class="cls-28" points="317.92 141.77 319.92 140.6 319.17 142.82 317.17 143.99 317.92 141.77"/><polygon class="cls-21" points="319.96 142.95 321.97 141.79 322.33 149.97 320.32 151.13 319.96 142.95"/><path class="cls-28" d="M326.84,152.69a4.51,4.51,0,0,0,1.78.68l-2,1.17a4.39,4.39,0,0,1-1.77-.69,7.23,7.23,0,0,1-3.4-4.36l2-1.17A7.17,7.17,0,0,0,326.84,152.69Z"/><polygon class="cls-21" points="317.92 141.77 319.92 140.61 321.97 141.79 319.96 142.95 317.92 141.77"/><path class="cls-21" d="M320,143l.35,8.18-1.53-.88-.09-3.11c0-1-.06-2.15-.06-3.31l0,0c-.22.9-.51,1.86-.77,2.64l-.86,2.62-1.22-.71-.73-3.51c-.23-1.06-.46-2.33-.62-3.46-.06,1-.1,2.24-.15,3.21l-.14,3-1.44-.84.46-7.7,2.08,1.21.68,3c.21,1.05.42,2.16.58,3.19h0c.19-.8.43-1.72.66-2.47l.75-2.22Z"/><polygon class="cls-21" points="326.38 153 328.39 151.83 328.62 153.37 326.62 154.54 326.38 153"/><path class="cls-28" d="M323.22,146.61a6.24,6.24,0,0,0,.23,1.71l-2,1.17a6.74,6.74,0,0,1-.22-1.71,2.64,2.64,0,0,1,1-2.44l2-1.16A2.6,2.6,0,0,0,323.22,146.61Z"/><path class="cls-21" d="M323.47,147l2-1.17c-.38.22-.61.74-.62,1.6a4.46,4.46,0,0,0,2.22,3.88,4.06,4.06,0,0,0,1.31.49l-2,1.16a3.6,3.6,0,0,1-1.3-.49,4.43,4.43,0,0,1-2.22-3.88C322.86,147.76,323.09,147.25,323.47,147Z"/><polygon class="cls-28" points="329.52 156.44 331.52 155.28 332.53 155.86 330.53 157.02 329.52 156.44"/><polygon class="cls-28" points="327.38 151.49 329.39 150.33 329.38 151.44 327.38 152.6 327.38 151.49"/><path class="cls-28" d="M325.48,145.86a1.64,1.64,0,0,1,1.6.24l-2,1.16a1.62,1.62,0,0,0-1.61-.23Z"/><polygon class="cls-28" points="329.53 153.84 331.53 152.68 331.52 155.28 329.52 156.44 329.53 153.84"/><polygon class="cls-28" points="327.38 152.6 329.38 151.44 331.53 152.68 329.53 153.84 327.38 152.6"/><path class="cls-28" d="M327.08,146.1a6,6,0,0,1,1.32,1.05l-2,1.17a5.76,5.76,0,0,0-1.32-1.06l2-1.16-2,1.16h0l2-1.16Z"/><path class="cls-21" d="M322.21,145.34l2-1.16a2.85,2.85,0,0,1,2.79.39l-2,1.16A2.87,2.87,0,0,0,322.21,145.34Z"/><polygon class="cls-28" points="329.54 150.16 331.54 149 331.54 151.57 329.53 152.73 329.54 150.16"/><polygon class="cls-21" points="327.38 151.49 329.39 150.33 331.54 151.57 329.53 152.73 327.38 151.49"/><polygon class="cls-21" points="330.54 154.42 332.54 153.26 332.53 155.86 330.53 157.02 330.54 154.42"/><path class="cls-21" d="M325,145.73l2-1.16a6.88,6.88,0,0,1,1.71,1.34l-2,1.16A7.34,7.34,0,0,0,325,145.73Z"/><polygon class="cls-21" points="326.72 147.07 328.72 145.91 328.4 147.16 326.4 148.32 326.72 147.07"/><path class="cls-21" d="M325,145.73a7.34,7.34,0,0,1,1.71,1.34l-.32,1.25a6,6,0,0,0-1.32-1.06c-1.24-.71-2.21-.41-2.22,1.36a4.43,4.43,0,0,0,2.22,3.88,3.6,3.6,0,0,0,1.3.49l.23,1.55a4.39,4.39,0,0,1-1.77-.69,7.05,7.05,0,0,1-3.62-6.07C321.22,145.06,322.92,144.52,325,145.73Z"/><polygon class="cls-28" points="330.54 154.42 332.54 153.26 334.69 154.5 332.68 155.66 330.54 154.42"/><polygon class="cls-21" points="330.54 153.31 332.55 152.15 334.69 153.39 332.69 154.55 330.54 153.31"/><polygon class="cls-21" points="332.69 154.55 334.69 153.39 334.69 154.5 332.68 155.66 332.69 154.55"/><polygon class="cls-21" points="330.55 150.74 332.55 149.58 332.55 152.15 330.54 153.31 330.55 150.74"/><polygon class="cls-21" points="330.55 150.74 330.54 153.31 332.69 154.55 332.68 155.66 330.54 154.42 330.53 157.02 329.52 156.44 329.53 153.84 327.38 152.6 327.38 151.49 329.53 152.73 329.54 150.16 330.55 150.74"/><polygon class="cls-21" points="329.54 150.16 331.54 149 332.55 149.58 330.55 150.74 329.54 150.16"/><polygon class="cls-30" points="309.41 130.61 311.42 129.45 336.59 143.99 334.59 145.15 309.41 130.61"/><path class="cls-28" d="M309.41,130.61l25.18,14.54-.06,20-25.17-14.53Zm9.38,19.64,1.53.88L320,143l-2.05-1.18-.75,2.22c-.23.75-.47,1.67-.66,2.47h0c-.16-1-.37-2.14-.58-3.19l-.68-3-2.08-1.2-.46,7.7,1.44.84.14-3c.05-1,.09-2.17.13-3.23.18,1.15.41,2.42.64,3.48l.73,3.51,1.22.71.86-2.62c.26-.78.55-1.74.77-2.64l0,0c0,1.16,0,2.33.06,3.31l.09,3.11Zm6.29,2.25a4.45,4.45,0,0,1-2.22-3.88c0-1.77,1-2.07,2.22-1.36a6,6,0,0,1,1.32,1.06l.32-1.25a7.34,7.34,0,0,0-1.71-1.34c-2.09-1.21-3.79-.67-3.79,2.05a7.05,7.05,0,0,0,3.62,6.07,4.39,4.39,0,0,0,1.77.69l-.23-1.55a3.6,3.6,0,0,1-1.3-.49Zm7.6,3.16v-1.11l-2.15-1.24v-2.57l-1-.58v2.57l-2.15-1.24v1.11l2.15,1.24v2.6l1,.58v-2.6l2.14,1.24Z"/><polygon class="cls-29" points="334.59 145.15 336.59 143.99 336.54 163.95 334.53 165.12 334.59 145.15"/></g><g class="cls-2"><path class="cls-28" d="M355,168.8a2.31,2.31,0,0,0,1.06,1.82l-2,1.16A2.32,2.32,0,0,1,353,170Z"/><path class="cls-28" d="M356.05,170.62a.74.74,0,0,0,.75.07l-2,1.17a.75.75,0,0,1-.75-.08Z"/><path class="cls-28" d="M355,168.8h0L353,170h0l2-1.16L353,170a.75.75,0,0,1,.31-.68l2-1.16A.76.76,0,0,0,355,168.8Z"/><polygon class="cls-28" points="349.97 162.83 351.98 161.67 351.97 163.39 349.97 164.56 349.97 162.83"/><path class="cls-21" d="M353.3,169.28l2-1.16a.74.74,0,0,1,.75.07l-2,1.17A.75.75,0,0,0,353.3,169.28Z"/><path class="cls-21" d="M356.8,170.69l-2,1.17a.75.75,0,0,0,.31-.68,2.32,2.32,0,0,0-1.05-1.82l2-1.17A2.28,2.28,0,0,1,357.1,170,.75.75,0,0,1,356.8,170.69Z"/><path class="cls-21" d="M354.05,169.36a2.32,2.32,0,0,1,1.05,1.82c0,.67-.48.94-1.06.6A2.32,2.32,0,0,1,353,170C353,169.29,353.47,169,354.05,169.36Z"/><polygon class="cls-28" points="349.97 164.56 351.97 163.39 360.15 168.11 358.14 169.28 349.97 164.56"/><path class="cls-28" d="M355,159.76h0l-2,1.17h0l2-1.17-1.13.66-.13.08-.13.07-.5.29s-.07.07-.11.07a.74.74,0,0,1,.3-.68l2-1.16A.73.73,0,0,0,355,159.76Z"/><path class="cls-28" d="M356.07,161.59a.77.77,0,0,0,.75.07l-2,1.16a.74.74,0,0,1-.75-.07,2.33,2.33,0,0,1-1.05-1.82l2-1.17A2.35,2.35,0,0,0,356.07,161.59Z"/><polygon class="cls-21" points="358.15 167.56 360.15 166.39 360.15 168.11 358.14 169.28 358.15 167.56"/><polygon class="cls-21" points="349.97 162.83 351.98 161.67 360.15 166.39 358.15 167.56 349.97 162.83"/><polygon class="cls-21" points="358.15 167.56 358.14 169.28 349.97 164.56 349.97 162.83 358.15 167.56"/><path class="cls-21" d="M353.32,160.25l2-1.16a.74.74,0,0,1,.75.07l-2,1.17A.77.77,0,0,0,353.32,160.25Z"/><path class="cls-21" d="M356.82,161.66l-2,1.16a.76.76,0,0,0,.31-.68,2.31,2.31,0,0,0-1.05-1.81l2-1.17a2.33,2.33,0,0,1,1.05,1.82A.75.75,0,0,1,356.82,161.66Z"/><path class="cls-21" d="M354.08,160.33a2.31,2.31,0,0,1,1.05,1.81c0,.68-.48,1-1.06.61a2.33,2.33,0,0,1-1.05-1.82C353,160.26,353.49,160,354.08,160.33Z"/><polygon class="cls-30" points="341.64 149.22 343.65 148.06 368.82 162.59 366.82 163.76 341.64 149.22"/><path class="cls-28" d="M341.65,149.22l25.17,14.54-.06,20-25.17-14.53Zm16.49,20.06v-1.73L350,162.83v1.73l8.17,4.72Zm-4.1,2.5c.58.34,1.06.07,1.06-.6a2.32,2.32,0,0,0-1.05-1.82c-.58-.34-1.06-.07-1.06.6a2.32,2.32,0,0,0,1.05,1.82Zm0-11.45c-.59-.34-1.06-.07-1.06.6a2.3,2.3,0,0,0,1.05,1.82c.58.34,1.05.07,1.06-.61a2.31,2.31,0,0,0-1.05-1.81Z"/><polygon class="cls-29" points="366.82 163.76 368.82 162.59 368.77 182.56 366.76 183.72 366.82 163.76"/></g><g class="cls-2"><g class="cls-34"><path class="cls-7" d="M329.43,65.19l-11.36-6.55c-1-.56-1.75-.11-1.75,1l0,8.26a3.81,3.81,0,0,0,1.74,3l11.35,6.56,0-12.27Z"/><polygon class="cls-35" points="342.53 72.76 329.43 65.19 329.39 77.46 342.5 85.02 342.53 72.76 342.53 72.76"/><polygon class="cls-36" points="355.63 80.33 342.53 72.76 342.5 85.02 355.6 92.59 355.63 80.33 355.63 80.33"/><path class="cls-37" d="M367,86.88l-11.36-6.56,0,12.27L367,99.15c1,.55,1.75.1,1.75-1l0-8.26a3.85,3.85,0,0,0-1.73-3Z"/></g></g><g class="cls-2"><g class="cls-38"><path class="cls-36" d="M276.33,87.91a3.7,3.7,0,0,1-1.25-2.18l2,.3,6,3.48.75,2.75-7.55-4.35Zm12.58,7.26A3.7,3.7,0,0,1,287.66,93l2,.29,6,3.49.74,2.75-7.55-4.36Zm25.17,14.53a3.77,3.77,0,0,1-1.26-2.17l2,.29,6,3.49.75,2.75-7.55-4.36Zm15.6,9v-2.32l2,1.17v2.31l-2-1.16Zm9.56,5.52a3.7,3.7,0,0,1-1.25-2.18l2,.3,6,3.49.75,2.75-7.55-4.36ZM284.38,92.56l-.74-2.75V83.73l1.52-.86.5.87,0,8.09a.89.89,0,0,1-1.26.73ZM297,99.82l-.74-2.75V91l1.52-.87.5.87,0,8.1a.89.89,0,0,1-1.27.72Zm12.59,7.26-.75-2.75,0-6.07,1.51-.86.51.87,0,8.09a.88.88,0,0,1-1.26.72Zm3.27-.13,0-7.52.5-.29,1.51,2.61,0,5.5-2-.3Zm9.31,7.4-.75-2.75,0-6.08,1.51-.86.51.87,0,8.1a.89.89,0,0,1-1.26.72ZM338,121.48l0-7.52.51-.29,1.5,2.61v5.49l-2-.29Zm9.31,7.4-.75-2.75,0-6.07,1.51-.87.5.87,0,8.1a.89.89,0,0,1-1.26.72Zm12.58,7.26-.75-2.75,0-6.07,1.51-.86.51.87,0,8.09a.88.88,0,0,1-1.26.72Zm-82.77-57-1-1.74,1-.57,6.54,3.77,1,1.74-1,.57-6.55-3.77Zm12.59,7.26-1-1.74,1-.57,6.54,3.78,1,1.74-1,.57-6.54-3.78Zm12.58,7.27-1-1.74,1-.58,6.55,3.78,1,1.74-1,.57-6.54-3.77Zm12.58,7.26-1-1.74,1-.57,6.54,3.78,1,1.73-1,.58-6.54-3.78ZM340,115.41l-1-1.74,1-.57,6.55,3.78,1,1.73-1,.58L340,115.41ZM288.19,84l-.5-.87,0-7.52,2,2,0,5.49-1.51.87Zm25.16,14.53-.5-.87,0-7.52,2,2V97.7l-1.52.87Zm25.17,14.53-.5-.88,0-7.52,2,2,0,5.5-1.51.87Zm12.58,7.26-.5-.87,0-7.52,2,2,0,5.5-1.51.86ZM300.77,91.3l-.5-.87,0-8.38,2,2,0,6.37-1.51.86ZM277.16,69.85l-2-2a.89.89,0,0,1,1.26-.72l7.53,4.34-.76,1.88-6-3.47Zm8,12.44-1.51-2.6,0-6.08.76-1.87a3.64,3.64,0,0,1,1.25,2.17l0,8.09-.5.29Zm4.58-5.17-2-2a.89.89,0,0,1,1.27-.72l8.28,4.78L296.52,81l-6.77-3.9Zm20.58,19.7-1.5-2.6,0-6.08.76-1.88a3.75,3.75,0,0,1,1.25,2.18l0,8.09-.51.29Zm4.58-5.18-2-2a.89.89,0,0,1,1.26-.72l7.53,4.35-.76,1.88-6-3.48Zm8,12.45-1.5-2.61,0-6.07.76-1.88a3.67,3.67,0,0,1,1.25,2.17l0,8.1-.51.29Zm17.17,2.08-2-2a.9.9,0,0,1,1.27-.72l7.52,4.35-.76,1.88-6-3.48Zm8,12.44-1.5-2.6,0-6.07.76-1.88a3.78,3.78,0,0,1,1.25,2.17l0,8.1-.51.28Zm4.58-5.17-2-2a.88.88,0,0,1,1.26-.72l7.52,4.34-.76,1.88-6-3.47Zm8,12.44-1.5-2.61,0-6.07.76-1.88a3.75,3.75,0,0,1,1.25,2.18l0,8.09-.51.29ZM365.45,106,250.16,39.41c-1.81-1-3.3-.2-3.3,1.88l-.11,37A7.27,7.27,0,0,0,250,84l115.28,66.56c1.81,1.05,3.3.2,3.3-1.88l.11-37a7.26,7.26,0,0,0-3.28-5.68Z"/><path class="cls-39" d="M283.13,89.51l-6-3.48-2-.3a3.7,3.7,0,0,0,1.25,2.18l7.55,4.35-.75-2.75Zm2-6.64-1.52.86v6.08l.74,2.75a.89.89,0,0,0,1.26-.73l0-8.09-.5-.87Zm-1.51-2.32-6.54-3.77-1,.57,1,1.74,6.55,3.77,1-.57-1-1.74Zm.28-9.11-7.53-4.34a.89.89,0,0,0-1.26.72l2,2,6,3.47.76-1.88Zm.5.3-.76,1.87,0,6.08,1.51,2.6.5-.29,0-8.09a3.64,3.64,0,0,0-1.25-2.17Z"/><path class="cls-39" d="M295.72,96.78l-6-3.49-2-.29a3.7,3.7,0,0,0,1.25,2.17l7.55,4.36-.74-2.75Zm2-6.65-1.52.87v6.07l.74,2.75a.89.89,0,0,0,1.27-.72l0-8.1-.5-.87Zm-1.51-2.31L289.7,84l-1,.57,1,1.74,6.54,3.78,1-.57-1-1.74Zm-8.53-12.17,0,7.52.5.87,1.51-.87,0-5.49-2-2Zm9.57,3.5L289,74.37a.89.89,0,0,0-1.27.72l2,2,6.77,3.9.76-1.87Z"/><path class="cls-39" d="M310.33,97.4l-1.51.86,0,6.07.75,2.75a.88.88,0,0,0,1.26-.72l0-8.09-.51-.87Zm-1.5-2.32-6.55-3.78-1,.58,1,1.74,6.54,3.77,1-.57-1-1.74Zm-8.54-13,0,8.38.5.87,1.51-.86,0-6.37-2-2Zm9.32,4.21-.76,1.88,0,6.08,1.5,2.6.51-.29,0-8.09a3.75,3.75,0,0,0-1.25-2.18Z"/><path class="cls-39" d="M320.88,111.31l-6-3.49-2-.29a3.77,3.77,0,0,0,1.26,2.17l7.55,4.36-.75-2.75Zm-7.53-12.17-.5.29,0,7.52,2,.3,0-5.5-1.51-2.61Zm9.56,5.52-1.51.86,0,6.08.75,2.75a.89.89,0,0,0,1.26-.72l0-8.1-.51-.87Zm-1.5-2.31-6.54-3.78-1,.57,1,1.74,6.54,3.78,1-.58-1-1.73Zm-8.54-12.17,0,7.52.5.87,1.52-.87V92.21l-2-2Zm8.82,3.06-7.53-4.35a.89.89,0,0,0-1.26.72l2,2,6,3.48.76-1.88Zm.5.29-.76,1.88,0,6.07,1.5,2.61.51-.29,0-8.1a3.67,3.67,0,0,0-1.25-2.17Z"/><polygon class="cls-39" points="331.7 117.56 329.69 116.39 329.68 118.71 331.69 119.87 331.7 117.56 331.7 117.56"/><path class="cls-39" d="M346,125.84l-6-3.49-2-.3a3.7,3.7,0,0,0,1.25,2.18l7.55,4.36-.75-2.75Zm-7.52-12.17L338,114l0,7.52,2,.29v-5.49l-1.5-2.61Zm9.56,5.52-1.51.87,0,6.07.75,2.75a.89.89,0,0,0,1.26-.72l0-8.1-.5-.87Zm-1.5-2.31L340,113.1l-1,.57,1,1.74,6.55,3.78,1-.58-1-1.73ZM338,104.7l0,7.52.5.88,1.51-.87,0-5.5-2-2Zm8.81,3.07-7.52-4.35a.9.9,0,0,0-1.27.72l2,2,6,3.48.76-1.88Zm.51.29-.76,1.88,0,6.07,1.5,2.6.51-.28,0-8.1a3.78,3.78,0,0,0-1.25-2.17Z"/><path class="cls-39" d="M360.66,126.46l-1.51.86,0,6.07.75,2.75a.88.88,0,0,0,1.26-.72l0-8.09-.51-.87Zm-10-14.49,0,7.52.5.87,1.51-.86,0-5.5-2-2Zm8.81,3.06-7.52-4.34a.88.88,0,0,0-1.26.72l2,2,6,3.47.76-1.88Zm.51.29-.76,1.88,0,6.07,1.5,2.61.51-.29,0-8.09a3.75,3.75,0,0,0-1.25-2.18Z"/></g></g><path class="cls-40" d="M213.22,249.54c0-4.43-2.89-8.87-8.74-12.25-11.6-6.7-30.35-6.7-41.88,0-5.72,3.33-8.59,7.68-8.6,12v0a11,11,0,0,0,1.84,6c0,.08.1.16.16.24s.3.44.47.66.19.26.29.38l.48.57.52.57.19.18.09.09c.21.22.44.43.67.64a23.79,23.79,0,0,0,4,2.88c11.6,6.7,30.35,6.7,41.87,0a22.93,22.93,0,0,0,3.35-2.32l.41-.35h0l.39-.36c.38-.35.74-.72,1.08-1.09l.33-.37.15-.19c.06-.06.11-.13.16-.19h0c.15-.19.29-.37.42-.56l.14-.19c0-.07.09-.13.13-.19v0q.2-.28.36-.57l.12-.19c.15-.26.29-.52.42-.79l.09-.2c.13-.26.24-.53.34-.79s.15-.41.21-.61.12-.4.17-.6,0-.14.05-.21a11.24,11.24,0,0,0,.24-1.63c0-.07,0-.13,0-.2a1.77,1.77,0,0,1,0-.23v-.14Z"/><g class="cls-2"><path class="cls-41" d="M185,238.88a11,11,0,0,0-4.43-1.31q0-3.18,0-6.36a10.89,10.89,0,0,1,4.43,1.3,4.06,4.06,0,0,1,2.36,3.27l0,6.36A4,4,0,0,0,185,238.88Z"/><polygon class="cls-41" points="187.39 238.43 187.37 244.79 187.35 242.14 187.37 235.78 187.39 238.43"/><polygon class="cls-41" points="187.39 238.43 187.37 244.79 171.4 244.79 171.42 238.43 187.39 238.43"/><polygon class="cls-41" points="171.47 247.68 171.45 254.04 171.4 244.79 171.42 238.43 171.47 247.68"/><polygon class="cls-41" points="171.47 247.68 171.45 254.04 171.39 242.14 171.4 235.78 171.47 247.68"/><path class="cls-41" d="M171.42,238.43h3.19a12.12,12.12,0,0,1,4.73-.91c.42,0,.83,0,1.22,0q0-3.18,0-6.36c-.4,0-.8-.05-1.22-.05-4.39,0-8,2.08-8,4.62v6.36a2.36,2.36,0,0,1,0-.37Z"/><polygon class="cls-41" points="191.96 238.43 191.94 244.79 187.37 244.79 187.39 238.43 191.96 238.43"/><path class="cls-41" d="M193.29,244.86a12,12,0,0,0-1.35-.07l0-6.36q.69,0,1.35.06Q193.31,241.69,193.29,244.86Z"/><path class="cls-41" d="M193.29,244.86q0-3.18,0-6.37a10.73,10.73,0,0,1,4.29,1.3,4,4,0,0,1,2.37,3.26l0,6.37a4,4,0,0,0-2.37-3.27A10.72,10.72,0,0,0,193.29,244.86Z"/><path class="cls-41" d="M200,243.05l0,6.37a4,4,0,0,1-2.33,3.26A11.37,11.37,0,0,1,192,254l0-6.36a11.4,11.4,0,0,0,5.63-1.36A4,4,0,0,0,200,243.05Z"/><polygon class="cls-41" points="192.01 247.68 191.99 254.04 187.42 254.04 187.44 247.68 192.01 247.68"/><polygon class="cls-41" points="187.44 247.68 187.42 254.04 171.45 254.04 171.47 247.68 187.44 247.68"/><polygon class="cls-41" points="187.44 247.68 187.42 254.04 171.45 254.04 171.47 247.68 187.44 247.68"/><path class="cls-41" d="M211.49,241.2v6.36c0,4.24-2.8,8.46-8.36,11.69-11.18,6.5-29.38,6.5-40.64,0C156.82,256,154,251.69,154,247.4l0-6.36c0,4.28,2.81,8.58,8.48,11.85,11.26,6.5,29.46,6.5,40.64,0C208.7,249.66,211.48,245.43,211.49,241.2Z"/></g><path class="cls-42" d="M203,229.35c-11.26-6.5-29.46-6.5-40.64,0s-11.13,17,.13,23.54,29.46,6.5,40.64,0S214.27,235.85,203,229.35Z"/><path class="cls-42" d="M178.38,231.22a6.35,6.35,0,0,0-6.1-.4c-1.3.75-1.15,1.79-.17,3,.7.85.81,1.28.25,1.6a2.44,2.44,0,0,1-2.4-.26,4.6,4.6,0,0,1-1.7-1.63l-2.09.74a5.62,5.62,0,0,0,2,1.79c2.47,1.42,4.91,1.35,6.41.48,1.26-.73,1.33-1.64.33-2.9-.73-.92-1-1.36-.41-1.7a2.27,2.27,0,0,1,2.17.26,4,4,0,0,1,1.46,1.33l2.09-.68a5.22,5.22,0,0,0-1.85-1.59Z"/><polygon class="cls-42" points="187.83 236.84 182.27 233.63 173.32 238.83 179.07 242.15 180.73 241.18 177.03 239.05 179.15 237.81 182.46 239.73 184.11 238.77 180.79 236.86 182.65 235.78 186.17 237.81 187.83 236.84 187.83 236.84"/><polygon class="cls-42" points="191.44 238.93 189.4 237.75 180.46 242.95 186.08 246.19 187.78 245.21 184.2 243.14 191.44 238.93 191.44 238.93"/><polygon class="cls-42" points="198.27 242.87 196.23 241.69 187.28 246.89 192.91 250.14 194.6 249.15 191.02 247.08 198.27 242.87 198.27 242.87"/><polygon class="cls-42" points="177.96 251.63 160.06 237.13 161.78 232.44 167.63 230.22 175.98 228.1 194.6 230.22 203.78 238.5 203.78 244.79 200.34 248.55 190.35 254.04 177.96 251.63"/><path class="cls-21" d="M182.76,241.63l-5.42-3.14-7.27,4.23,5.43,3.13,7.26-4.22Zm12.66-7.36L190,231.14l-7.26,4.22,5.43,3.13,7.26-4.22Z"/><polygon class="cls-21" points="195.47 242.72 188.16 238.5 182.73 235.36 175.42 231.14 170.03 234.28 177.34 238.5 182.76 241.63 190.07 245.85 195.47 242.72 195.47 242.72"/><path class="cls-43" d="M378.66,342.43c0-4.43-2.89-8.87-8.74-12.25-11.6-6.7-30.35-6.7-41.88,0-5.72,3.33-8.59,7.68-8.6,12v0a11,11,0,0,0,1.84,6l.16.23c.15.22.3.44.47.66s.19.26.3.39.31.38.48.57.34.37.51.56l.19.18.09.1c.21.21.44.42.67.63a23.82,23.82,0,0,0,4,2.89c11.6,6.69,30.35,6.69,41.88,0a25.1,25.1,0,0,0,3.34-2.32l.41-.36h0l.39-.35c.38-.36.74-.73,1.08-1.1l.33-.37.15-.19a1.46,1.46,0,0,0,.16-.19h0c.15-.18.29-.37.42-.56a1.33,1.33,0,0,0,.14-.19l.13-.19h0q.19-.28.36-.57l.12-.2c.15-.26.29-.52.42-.79l.09-.19c.13-.27.24-.53.34-.8a6.26,6.26,0,0,0,.21-.61c.06-.2.12-.4.17-.6s0-.14,0-.2a10.35,10.35,0,0,0,.24-1.63c0-.07,0-.14,0-.21a1.62,1.62,0,0,1,0-.22v-.15Z"/><g class="cls-2"><path class="cls-41" d="M350.43,331.77a10.89,10.89,0,0,0-4.43-1.3c0-2.12,0-4.25,0-6.37a11,11,0,0,1,4.43,1.31,4,4,0,0,1,2.36,3.26l0,6.37A4,4,0,0,0,350.43,331.77Z"/><polygon class="cls-41" points="352.83 331.32 352.81 337.68 352.79 335.04 352.81 328.67 352.83 331.32"/><polygon class="cls-41" points="352.83 331.32 352.81 337.68 336.84 337.68 336.86 331.32 352.83 331.32"/><polygon class="cls-41" points="336.91 340.57 336.89 346.93 336.84 337.68 336.86 331.32 336.91 340.57"/><polygon class="cls-41" points="336.91 340.57 336.89 346.93 336.83 335.04 336.85 328.67 336.91 340.57"/><path class="cls-41" d="M336.86,331.32h3.19a12.16,12.16,0,0,1,4.73-.91,12,12,0,0,1,1.22.06c0-2.12,0-4.25,0-6.37-.4,0-.8-.05-1.22-.05-4.39,0-8,2.08-8,4.62V335a2.23,2.23,0,0,1,0-.37Z"/><polygon class="cls-41" points="357.4 331.32 357.38 337.68 352.81 337.68 352.83 331.32 357.4 331.32"/><path class="cls-41" d="M358.73,337.75c-.44,0-.89-.07-1.35-.07l0-6.36a12,12,0,0,1,1.35.07Q358.75,334.57,358.73,337.75Z"/><path class="cls-41" d="M358.73,337.75q0-3.18,0-6.36a10.72,10.72,0,0,1,4.29,1.29,4.06,4.06,0,0,1,2.37,3.27l0,6.36A4.05,4.05,0,0,0,363,339,10.89,10.89,0,0,0,358.73,337.75Z"/><path class="cls-41" d="M365.41,336l0,6.36a4,4,0,0,1-2.33,3.26,11.37,11.37,0,0,1-5.63,1.36l0-6.36a11.4,11.4,0,0,0,5.63-1.36A4,4,0,0,0,365.41,336Z"/><polygon class="cls-41" points="357.45 340.57 357.43 346.93 352.86 346.93 352.88 340.57 357.45 340.57"/><polygon class="cls-41" points="352.88 340.57 352.86 346.93 336.89 346.93 336.91 340.57 352.88 340.57"/><polygon class="cls-41" points="352.88 340.57 352.86 346.93 336.89 346.93 336.91 340.57 352.88 340.57"/><path class="cls-41" d="M376.94,334.09l0,6.37c0,4.23-2.8,8.46-8.35,11.69-11.19,6.5-29.39,6.5-40.65,0-5.66-3.27-8.49-7.57-8.48-11.86l0-6.36c0,4.29,2.81,8.58,8.48,11.85,11.26,6.5,29.46,6.5,40.64,0C374.14,342.55,376.92,338.33,376.94,334.09Z"/></g><path class="cls-42" d="M368.45,322.24c-11.26-6.5-29.46-6.5-40.64,0s-11.13,17,.13,23.54,29.46,6.5,40.64,0S379.71,328.74,368.45,322.24Z"/><path class="cls-21" d="M343.82,324.11a6.35,6.35,0,0,0-6.1-.4c-1.3.76-1.15,1.8-.17,3,.7.85.81,1.28.25,1.61a2.47,2.47,0,0,1-2.4-.27,4.59,4.59,0,0,1-1.7-1.62l-2.08.73a5.48,5.48,0,0,0,2,1.79c2.47,1.43,4.91,1.36,6.41.48,1.26-.73,1.33-1.64.33-2.9-.72-.92-1-1.36-.41-1.69a2.27,2.27,0,0,1,2.17.25,3.84,3.84,0,0,1,1.46,1.34l2.09-.69a5.33,5.33,0,0,0-1.85-1.59Z"/><polygon class="cls-21" points="353.27 329.73 347.71 326.52 338.76 331.72 344.51 335.04 346.17 334.08 342.47 331.94 344.59 330.71 347.9 332.62 349.55 331.66 346.24 329.75 348.09 328.67 351.61 330.7 353.27 329.73 353.27 329.73"/><polygon class="cls-21" points="356.89 331.82 354.84 330.64 345.9 335.84 351.52 339.09 353.22 338.1 349.64 336.04 356.89 331.82 356.89 331.82"/><polygon class="cls-21" points="363.71 335.76 361.67 334.58 352.72 339.78 358.35 343.03 360.05 342.04 356.46 339.98 363.71 335.76 363.71 335.76"/><polygon class="cls-42" points="343.4 344.52 325.5 330.02 327.22 325.34 333.07 323.11 341.42 321 360.04 323.11 369.22 331.39 369.22 337.68 365.78 341.44 355.8 346.93 343.4 344.52"/><polygon class="cls-21" points="360.91 337.04 340.86 325.47 335.47 328.6 355.51 340.18 360.91 337.04 360.91 337.04"/><path class="cls-5" d="M321.45,312.09c0-4.43-2.89-8.88-8.74-12.25-11.6-6.7-30.35-6.7-41.88,0-5.72,3.32-8.59,7.68-8.6,12v0a11.1,11.1,0,0,0,1.84,6l.16.24c.15.22.3.44.47.66s.19.25.3.38.31.38.48.57.34.38.52.56l.18.19.09.09.67.64a23.79,23.79,0,0,0,4,2.88c11.6,6.7,30.35,6.7,41.88,0a24.2,24.2,0,0,0,3.34-2.32l.41-.35h0l.39-.35c.38-.36.75-.72,1.08-1.09l.33-.38.16-.18.15-.19h0c.15-.19.29-.37.42-.56l.14-.19.13-.2h0q.19-.28.36-.57l.12-.19c.15-.26.29-.53.42-.79a1.86,1.86,0,0,1,.1-.2c.12-.26.23-.53.33-.8s.15-.4.21-.6.12-.41.17-.61a1.17,1.17,0,0,0,.05-.2,9,9,0,0,0,.24-1.63c0-.07,0-.14,0-.2s0-.15,0-.23v-.14Z"/><g class="cls-2"><path class="cls-44" d="M293.22,301.42a11,11,0,0,0-4.42-1.3c0-2.12,0-4.24,0-6.36a10.89,10.89,0,0,1,4.43,1.3,4,4,0,0,1,2.36,3.27v6.36A4.07,4.07,0,0,0,293.22,301.42Z"/><polygon class="cls-44" points="295.62 300.97 295.6 307.34 295.58 304.69 295.6 298.33 295.62 300.97"/><polygon class="cls-45" points="295.62 300.97 295.6 307.34 279.63 307.34 279.65 300.97 295.62 300.97"/><polygon class="cls-45" points="279.7 310.22 279.69 316.59 279.63 307.34 279.65 300.97 279.7 310.22"/><polygon class="cls-45" points="279.7 310.22 279.69 316.59 279.62 304.69 279.64 298.33 279.7 310.22"/><path class="cls-44" d="M279.65,301h3.2a12.09,12.09,0,0,1,4.73-.9c.41,0,.82,0,1.22.05,0-2.12,0-4.24,0-6.36a12,12,0,0,0-1.22-.06c-4.39,0-8,2.08-7.95,4.63l0,6.36c0-.12,0-.25,0-.37Z"/><polygon class="cls-44" points="300.19 300.98 300.17 307.34 295.6 307.34 295.62 300.97 300.19 300.98"/><path class="cls-44" d="M301.53,307.41a12.26,12.26,0,0,0-1.36-.07l0-6.37c.46,0,.91,0,1.35.07C301.54,303.16,301.53,305.28,301.53,307.41Z"/><path class="cls-44" d="M301.53,307.41c0-2.13,0-4.25,0-6.37a10.89,10.89,0,0,1,4.29,1.29,4.05,4.05,0,0,1,2.37,3.27l0,6.36a4,4,0,0,0-2.36-3.26A10.66,10.66,0,0,0,301.53,307.41Z"/><path class="cls-45" d="M308.2,305.6l0,6.36a4,4,0,0,1-2.33,3.27,11.37,11.37,0,0,1-5.63,1.36l0-6.37a11.48,11.48,0,0,0,5.63-1.35A4,4,0,0,0,308.2,305.6Z"/><polygon class="cls-45" points="300.24 310.22 300.22 316.59 295.65 316.59 295.67 310.22 300.24 310.22"/><polygon class="cls-45" points="295.67 310.22 295.65 316.59 279.69 316.59 279.7 310.22 295.67 310.22"/><polygon class="cls-45" points="295.67 310.22 295.65 316.59 279.69 316.59 279.7 310.22 295.67 310.22"/><path class="cls-41" d="M319.73,303.75l0,6.36c0,4.23-2.8,8.46-8.35,11.69-11.19,6.5-29.39,6.5-40.65,0-5.66-3.27-8.49-7.57-8.48-11.85l0-6.37c0,4.29,2.82,8.59,8.48,11.86,11.26,6.5,29.46,6.5,40.65,0C316.93,312.21,319.71,308,319.73,303.75Z"/></g><path class="cls-42" d="M311.24,291.9c-11.26-6.51-29.45-6.51-40.64,0s-11.13,17,.13,23.54,29.46,6.5,40.65,0S322.5,298.4,311.24,291.9Z"/><path class="cls-21" d="M286.61,293.77a6.38,6.38,0,0,0-6.1-.41c-1.3.76-1.15,1.8-.17,3,.7.84.81,1.28.25,1.6a2.44,2.44,0,0,1-2.4-.26,4.68,4.68,0,0,1-1.7-1.63l-2.08.73a5.3,5.3,0,0,0,2,1.79c2.47,1.43,4.91,1.36,6.41.49,1.26-.73,1.34-1.64.33-2.9-.72-.93-1-1.37-.41-1.7a2.27,2.27,0,0,1,2.17.26,3.76,3.76,0,0,1,1.46,1.33l2.09-.69a5.32,5.32,0,0,0-1.85-1.58Z"/><polygon class="cls-21" points="296.06 299.39 290.5 296.18 281.56 301.38 287.3 304.69 288.96 303.73 285.26 301.59 287.38 300.36 290.69 302.27 292.34 301.32 289.03 299.4 290.88 298.32 294.4 300.35 296.06 299.39 296.06 299.39"/><polygon class="cls-21" points="299.68 301.48 297.63 300.3 288.69 305.5 294.31 308.74 296.01 307.76 292.43 305.69 299.68 301.48 299.68 301.48"/><polygon class="cls-21" points="306.5 305.42 304.46 304.24 295.51 309.44 301.14 312.68 302.84 311.7 299.26 309.63 306.5 305.42 306.5 305.42"/><polygon class="cls-42" points="286.19 314.18 268.29 299.68 270.01 294.99 275.86 292.76 284.22 290.65 302.83 292.76 312.01 301.04 312.01 307.34 308.57 311.09 298.59 316.59 286.19 314.18"/><path class="cls-21" d="M295.68,304.34H288l0,6h7.65l0-6Zm-.06-10.4H288l0,6h7.65l0-6Z"/><polygon class="cls-21" points="305.96 299.91 295.65 299.91 288 299.91 277.7 299.91 277.72 304.34 288.03 304.34 295.68 304.34 305.98 304.34 305.96 299.91 305.96 299.91"/><path class="cls-40" d="M265.36,282.3c0-4.43-2.88-8.87-8.74-12.25-11.6-6.7-30.35-6.7-41.87,0-5.73,3.33-8.6,7.68-8.61,12v0a11,11,0,0,0,1.85,6l.15.24.47.66.3.38c.15.2.31.39.48.58l.52.56.18.18.09.09c.22.22.44.43.68.64a23.69,23.69,0,0,0,4,2.88c11.61,6.7,30.35,6.7,41.88,0a23.48,23.48,0,0,0,3.35-2.32l.41-.35h0l.39-.35c.39-.36.75-.73,1.08-1.1.12-.12.23-.25.33-.37s.11-.13.16-.19l.15-.19h0c.15-.18.29-.37.43-.56l.13-.19.14-.19v0l.36-.56a2,2,0,0,0,.11-.2,6.68,6.68,0,0,0,.42-.79,1.24,1.24,0,0,0,.1-.2c.12-.26.24-.53.34-.79s.14-.41.2-.61.13-.4.18-.6,0-.14,0-.21a9,9,0,0,0,.24-1.63,1.27,1.27,0,0,0,0-.2,1.77,1.77,0,0,0,0-.23v-.14Z"/><g class="cls-2"><path class="cls-41" d="M237.14,271.64a11,11,0,0,0-4.43-1.31q0-3.18,0-6.36a10.79,10.79,0,0,1,4.42,1.31,4,4,0,0,1,2.37,3.26l0,6.36A4,4,0,0,0,237.14,271.64Z"/><polygon class="cls-41" points="239.53 271.19 239.51 277.55 239.5 274.9 239.52 268.54 239.53 271.19"/><polygon class="cls-41" points="239.53 271.19 239.51 277.55 223.55 277.55 223.56 271.19 239.53 271.19"/><polygon class="cls-41" points="223.62 280.44 223.6 286.8 223.55 277.55 223.56 271.19 223.62 280.44"/><polygon class="cls-41" points="223.62 280.44 223.6 286.8 223.53 274.9 223.55 268.54 223.62 280.44"/><path class="cls-41" d="M223.56,271.19h3.2a12.08,12.08,0,0,1,4.73-.91c.41,0,.82,0,1.22.05q0-3.18,0-6.36c-.4,0-.81-.05-1.22-.05-4.39,0-8,2.08-8,4.62l0,6.36c0-.12,0-.24,0-.37Z"/><polygon class="cls-41" points="244.1 271.19 244.08 277.55 239.51 277.55 239.53 271.19 244.1 271.19"/><path class="cls-41" d="M245.44,277.62a12.14,12.14,0,0,0-1.36-.07l0-6.36a12.14,12.14,0,0,1,1.36.07Q245.45,274.44,245.44,277.62Z"/><path class="cls-41" d="M245.44,277.62q0-3.18,0-6.36a10.66,10.66,0,0,1,4.29,1.29,4,4,0,0,1,2.36,3.26l0,6.37a4,4,0,0,0-2.36-3.27A10.82,10.82,0,0,0,245.44,277.62Z"/><path class="cls-41" d="M252.11,275.81l0,6.37a4,4,0,0,1-2.32,3.26,11.44,11.44,0,0,1-5.64,1.36l0-6.36a11.37,11.37,0,0,0,5.63-1.36A4,4,0,0,0,252.11,275.81Z"/><polygon class="cls-41" points="244.15 280.44 244.13 286.8 239.57 286.8 239.58 280.44 244.15 280.44"/><polygon class="cls-41" points="239.58 280.44 239.57 286.8 223.6 286.8 223.62 280.44 239.58 280.44"/><polygon class="cls-41" points="239.58 280.44 239.57 286.8 223.6 286.8 223.62 280.44 239.58 280.44"/><path class="cls-41" d="M263.64,274l0,6.37c0,4.23-2.79,8.45-8.35,11.68-11.19,6.5-29.38,6.51-40.64,0-5.67-3.27-8.5-7.56-8.49-11.85l0-6.36c0,4.29,2.82,8.58,8.49,11.85,11.25,6.5,29.45,6.5,40.64,0C260.85,282.42,263.63,278.19,263.64,274Z"/></g><path class="cls-42" d="M255.16,262.11c-11.26-6.5-29.46-6.5-40.65,0s-11.13,17,.14,23.54,29.45,6.5,40.64,0S266.42,268.61,255.16,262.11Z"/><path class="cls-42" d="M230.53,264a6.35,6.35,0,0,0-6.1-.4c-1.31.75-1.15,1.79-.17,3,.69.85.8,1.28.24,1.6a2.42,2.42,0,0,1-2.39-.26,4.52,4.52,0,0,1-1.7-1.63l-2.09.74a5.62,5.62,0,0,0,2,1.79c2.47,1.42,4.9,1.35,6.4.48,1.27-.73,1.34-1.64.33-2.9-.72-.92-1-1.36-.41-1.7a2.29,2.29,0,0,1,2.18.26,4,4,0,0,1,1.46,1.33l2.08-.68a5.27,5.27,0,0,0-1.84-1.59Z"/><polygon class="cls-42" points="239.97 269.6 234.41 266.39 225.47 271.59 231.21 274.91 232.87 273.94 229.17 271.81 231.29 270.57 234.61 272.49 236.25 271.53 232.94 269.62 234.8 268.54 238.31 270.57 239.97 269.6 239.97 269.6"/><polygon class="cls-42" points="243.59 271.69 241.55 270.51 232.6 275.71 238.22 278.96 239.92 277.97 236.34 275.9 243.59 271.69 243.59 271.69"/><polygon class="cls-42" points="250.42 275.63 248.37 274.45 239.43 279.65 245.05 282.9 246.75 281.91 243.17 279.84 250.42 275.63 250.42 275.63"/><polygon class="cls-42" points="230.1 284.39 212.2 269.89 213.92 265.2 219.78 262.98 228.13 260.86 246.75 262.98 255.93 271.25 255.93 277.55 252.48 281.31 242.5 286.8 230.1 284.39"/><polygon class="cls-21" points="248.47 276.56 228.43 264.98 223.03 268.12 243.08 279.69 248.47 276.56 248.47 276.56"/><path class="cls-21" d="M246.12,266.31a6.29,6.29,0,0,0-5.67,0c-1.56.91-1.56,2.38,0,3.29a6.23,6.23,0,0,0,5.67,0c1.56-.91,1.56-2.38,0-3.29Z"/><path class="cls-21" d="M230.45,275.42a6.29,6.29,0,0,0-5.67,0c-1.56.91-1.56,2.38,0,3.29a6.29,6.29,0,0,0,5.67,0c1.56-.91,1.56-2.38,0-3.29Z"/><path class="cls-5" d="M315.87,395.42l-60.31,34.81-44.32-25.58v-4.28L268.62,370a5.89,5.89,0,0,1,5.86,0l45.17,23.38Z"/><polygon class="cls-46" points="309.47 391.31 249.37 425.97 204.84 400.31 264.95 365.61 309.47 391.31"/><polygon class="cls-47" points="205.54 389.31 205.54 400.31 249.2 425.48 249.2 414.55 205.54 389.31"/><path class="cls-46" d="M309.47,380.19l-60.1,34.7-44.53-25.71,58.34-33.67a3.5,3.5,0,0,1,3.54,0Z"/><polygon class="cls-48" points="309.47 380.19 249.37 414.89 249.37 426.67 309.47 391.97 309.47 380.19"/><polygon class="cls-49" points="249.37 414.89 249.37 415.74 204.84 389.99 204.84 389.18 249.37 414.89"/><polygon class="cls-49" points="249.37 425.97 249.37 426.67 204.84 400.97 204.84 400.31 249.37 425.97"/><polygon class="cls-49" points="249.37 415.17 248.52 414.68 248.52 425.48 249.37 425.97 249.37 415.17"/><path class="cls-50" d="M245.36,418.68l-2.76-1.6s-1.33,2.1-2.1,2.43a28.08,28.08,0,0,1-4.58,1.18l2.81,2.1a25.7,25.7,0,0,0,4.31-1.73C243.94,420.28,245.36,418.68,245.36,418.68Z"/><path class="cls-51" d="M260.67,367.63l23.77,13.72a1.31,1.31,0,0,1,0,2.47L277.27,388a4.72,4.72,0,0,1-4.27,0l-23.77-13.72a1.31,1.31,0,0,1,0-2.48l7.18-4.17a4.72,4.72,0,0,1,4.27,0Z"/><polygon class="cls-52" points="309.47 377.41 249.37 412.07 204.84 386.41 264.95 351.7 309.47 377.41"/><polygon class="cls-47" points="205.54 375.4 205.54 386.4 249.2 411.57 249.2 400.65 205.54 375.4"/><path class="cls-52" d="M309.47,366.29,249.37,401l-44.53-25.71,57.25-33a5.71,5.71,0,0,1,5.71,0Z"/><polygon class="cls-53" points="309.47 366.29 249.37 400.99 249.37 412.77 309.47 378.07 309.47 366.29"/><polygon class="cls-54" points="249.37 400.99 249.37 401.83 204.84 376.09 204.84 375.28 249.37 400.99"/><polygon class="cls-54" points="249.37 412.07 249.37 412.77 204.84 387.07 204.84 386.4 249.37 412.07"/><polygon class="cls-54" points="249.37 401.27 248.52 400.77 248.52 411.57 249.37 412.07 249.37 401.27"/><path class="cls-50" d="M245.36,404.78l-2.76-1.6s-1.33,2.1-2.1,2.43a27,27,0,0,1-4.58,1.17l2.81,2.11a25.7,25.7,0,0,0,4.31-1.73C243.94,406.37,245.36,404.78,245.36,404.78Z"/><path class="cls-51" d="M260.67,353.72l23.77,13.73a1.31,1.31,0,0,1,0,2.47l-7.19,4.18a4.72,4.72,0,0,1-4.27,0l-23.77-13.73a1.31,1.31,0,0,1,0-2.47l7.18-4.18a4.72,4.72,0,0,1,4.27,0Z"/><g class="cls-16"><polygon points="31.41 306.9 105.85 263.92 140.13 283.85 65.69 326.82 31.41 306.9 31.41 306.9"/></g><g id="books"><polygon class="cls-55" points="81.63 194.54 127.34 220.96 127.34 286.37 81.61 259.95 81.63 194.54"/><polygon class="cls-56" points="81.61 194.54 127.34 220.96 127.34 286.38 81.61 259.96 81.61 194.54"/><polygon class="cls-57" points="81.63 194.54 82.56 194 128.29 220.42 127.34 220.96 81.63 194.54"/><polygon class="cls-55" points="73.94 198.98 119.67 225.4 119.67 290.81 73.94 264.39 73.94 198.98"/><polygon class="cls-55" points="74.89 198.44 120.62 224.87 120.62 290.28 74.89 263.86 74.89 198.44"/><polygon class="cls-57" points="73.94 198.98 74.89 198.44 120.62 224.87 119.67 225.4 73.94 198.98"/><path class="cls-58" d="M119.67,225.4l8.62-5v65.42a14.33,14.33,0,0,1-3.14,2.83,14.19,14.19,0,0,1-5.48,2.14Z"/><path class="cls-21" d="M79.19,200.92s4.75.32,5.53-3.19L126,221.53l-5.71,3.13Z"/><path class="cls-57" d="M119.67,225.4a14.47,14.47,0,0,0,5.11-1.93,14.19,14.19,0,0,0,3.51-3.05l-.95-.55a24.07,24.07,0,0,1-8.52,5Z"/></g><g id="books-2" data-name="books"><polygon class="cls-59" points="71.29 198.64 117 225.05 117 290.47 71.27 264.04 71.29 198.64"/><polygon class="cls-60" points="71.27 198.64 117 225.06 117 290.47 71.27 264.05 71.27 198.64"/><polygon class="cls-61" points="71.29 198.64 72.22 198.09 117.95 224.52 117 225.05 71.29 198.64"/><polygon class="cls-59" points="63.6 203.07 109.33 229.5 109.33 294.91 63.6 268.49 63.6 203.07"/><polygon class="cls-59" points="64.56 202.54 110.28 228.96 110.28 294.38 64.56 267.95 64.56 202.54"/><polygon class="cls-61" points="63.6 203.07 64.56 202.54 110.28 228.96 109.33 229.5 63.6 203.07"/><path class="cls-62" d="M109.33,229.5l8.62-5v65.41a14.1,14.1,0,0,1-3.14,2.84,14.25,14.25,0,0,1-5.48,2.14Z"/><path class="cls-21" d="M68.85,205s4.75.31,5.53-3.19l41.26,23.8-5.71,3.13Z"/><path class="cls-61" d="M109.33,229.5a14.48,14.48,0,0,0,8.62-5l-1-.55a24.07,24.07,0,0,1-8.52,5Z"/></g><g id="books-3" data-name="books"><polygon class="cls-63" points="50.48 177.51 106.5 209.85 106.5 299.44 50.47 267.09 50.48 177.51"/><polygon class="cls-64" points="50.48 177.51 106.51 209.86 106.51 299.45 50.48 267.1 50.48 177.51"/><polygon class="cls-65" points="50.48 177.51 51.42 176.97 107.45 209.32 106.5 209.85 50.48 177.51"/><polygon class="cls-63" points="42.8 181.94 98.83 214.3 98.83 303.88 42.8 271.53 42.8 181.94"/><polygon class="cls-63" points="43.75 181.41 99.78 213.76 99.78 303.35 43.75 271 43.75 181.41"/><polygon class="cls-65" points="42.8 181.94 43.75 181.41 99.78 213.76 98.83 214.3 42.8 181.94"/><path class="cls-66" d="M98.83,214.3l8.62-5v89.59a14.33,14.33,0,0,1-3.14,2.83,14.19,14.19,0,0,1-5.48,2.14Z"/><path class="cls-21" d="M48,183.89s4.76.31,5.53-3.19l51.57,29.73-5.71,3.13Z"/><path class="cls-65" d="M98.83,214.3a14.4,14.4,0,0,0,8.62-5l-1-.55a24.07,24.07,0,0,1-8.52,5Z"/></g><g id="books-4" data-name="books"><polygon class="cls-67" points="61.34 233.29 93.46 251.83 93.46 303.19 61.33 284.65 61.34 233.29"/><polygon class="cls-68" points="61.34 233.29 61.88 232.98 94 251.53 93.46 251.83 61.34 233.29"/><polygon class="cls-69" points="61.34 233.29 93.53 251.92 94 302.89 61.88 284.34 61.34 233.29"/><polygon class="cls-67" points="48.97 240.43 81.09 258.97 81.09 310.33 48.97 291.79 48.97 240.43"/><polygon class="cls-67" points="49.51 240.12 81.64 258.67 81.64 310.03 49.51 291.48 49.51 240.12"/><polygon class="cls-68" points="48.97 240.43 49.51 240.12 81.64 258.67 81.09 258.97 48.97 240.43"/><path class="cls-70" d="M81.09,259,94,251.53v51.36a30.05,30.05,0,0,1-12.91,7.44Z"/><path class="cls-21" d="M52,241.54s7.12-2.64,10.29-7.08l30.82,17.6-11.65,6.49Z"/><path class="cls-68" d="M80.5,258.63a45.43,45.43,0,0,0,12.9-7.45l.6.35A42.44,42.44,0,0,1,81.09,259Z"/></g><g id="books-5" data-name="books"><polygon class="cls-71" points="33.2 221.27 78.91 247.69 78.91 313.1 33.18 286.68 33.2 221.27"/><polygon class="cls-72" points="33.18 221.27 78.91 247.7 78.91 313.11 33.18 286.69 33.18 221.27"/><polygon class="cls-73" points="33.2 221.27 34.13 220.73 79.86 247.16 78.91 247.69 33.2 221.27"/><polygon class="cls-71" points="25.51 225.71 71.24 252.13 71.24 317.55 25.51 291.13 25.51 225.71"/><polygon class="cls-71" points="26.46 225.18 72.19 251.6 72.19 317.01 26.46 290.59 26.46 225.18"/><polygon class="cls-73" points="25.51 225.71 26.46 225.18 72.19 251.6 71.24 252.13 25.51 225.71"/><path class="cls-74" d="M71.24,252.13l8.62-5v65.41a14.14,14.14,0,0,1-8.62,5Z"/><path class="cls-21" d="M30.76,227.66s4.75.31,5.53-3.19l41.26,23.79-5.71,3.14Z"/><path class="cls-73" d="M71.24,252.13a14.27,14.27,0,0,0,5.11-1.93,14.8,14.8,0,0,0,3.51-3l-1-.55a24.45,24.45,0,0,1-3.76,2.81,23.79,23.79,0,0,1-4.76,2.22Z"/></g><g id="books-6" data-name="books"><polygon class="cls-75" points="37.12 257.89 69.24 276.43 69.24 317.21 37.12 298.67 37.12 257.89"/><polygon class="cls-76" points="36.59 258.2 37.12 257.89 69.25 276.44 68.7 276.74 36.59 258.2"/><polygon class="cls-77" points="36.59 258.2 68.77 276.83 69.25 317.22 37.12 298.67 36.59 258.2"/><polygon class="cls-75" points="27 263.71 59.12 282.26 59.12 323.04 27 304.5 27 263.71"/><polygon class="cls-75" points="27.54 263.41 59.66 281.95 59.66 322.74 27.54 304.19 27.54 263.41"/><polygon class="cls-76" points="27 263.71 27.54 263.41 59.66 281.95 59.12 282.26 27 263.71"/><path class="cls-78" d="M59.12,282.26l10.12-5.83.51,41.45A18.09,18.09,0,0,1,65.1,321a50.9,50.9,0,0,1-6,2.06Z"/><path class="cls-21" d="M30,264.83a10.07,10.07,0,0,0,7.72-4.4l29.77,17L59.66,282Z"/><path class="cls-76" d="M58.46,281.88a35.41,35.41,0,0,0,10-5.88l.74.43a32.54,32.54,0,0,1-4.33,3.08,33.14,33.14,0,0,1-5.79,2.75Z"/></g><ellipse class="cls-5" cx="162.67" cy="360.18" rx="32.36" ry="15.34"/><path class="cls-79" d="M137.18,350.81s-2.9,8.05-.4,11.25,13.34,1.86,17.57.71,18.72-9.82,19.3-12-.9-2.73-3.72-2.15S137.18,350.81,137.18,350.81Z"/><path class="cls-80" d="M133.68,234.32s-4.28,9.33-2.51,18.58,8.51,35.37,8.36,40.66-5.85,13.36-4.39,21,3.07,34.2,2,36.26c0,0,8.67,5.72,14.39,0l5.87-50.76,1.62-58.52Z"/><path class="cls-79" d="M167.13,357.71s17.8-.39,18.76.7-2.43,7-8.59,8.85-12,2.5-13.14,3.39-8.21,3.59-9.94,2.25-4.27-3.79-1.62-12.7Z"/><path class="cls-81" d="M178.53,239.08l-3.77,63.14a30,30,0,0,1-.88,8.95c-1.17,3.67-6.75,46.54-6.75,46.54a15.9,15.9,0,0,1-14.53,2.49s1.76-22.46,0-27.74-.59-19.38,2.49-23.78c0,0,1-29.07-2.35-36.11s-12-19.7-8.19-32.53Z"/><path class="cls-82" d="M138.39,151.08c3.67,1.23,7.11,6.44,2,18.5s-10.74,20.95-13,27.73S117.75,229,117.75,229s-8.26,1.49-11.06-2.14c0,0,5.12-26.2,8.25-36s12.31-31.06,14.83-34.72S133.93,149.6,138.39,151.08Z"/><path class="cls-83" d="M106.69,226.89s-3.66,13.27.8,16.62,10.16-.36,10.5-4.43a71.81,71.81,0,0,0-.24-10.05Z"/><path class="cls-83" d="M168.71,142.24s-2,8.46-2.3,11.4c0,0-9.29,0-14.9-3.68l1.75-14.62Z"/><path class="cls-83" d="M166.34,114.46c5.72-.52,12.49.68,12.31,8s-1,22.64-3.16,23.49c0,0-11.07.64-17.23-4.47C158.26,141.48,150,116,166.34,114.46Z"/><path class="cls-84" d="M152.32,143.22c3.77.93,15.1,5.73,18.41-23.61,0,0,8.46,2,11.31-1.37s-5-7.91-14.16-9-16.74,2.76-16.37,6.35c0,0-5.61,2.3-4.69,11.68S150.26,142.72,152.32,143.22Z"/><path class="cls-83" d="M164.68,127.16c1.61-2.28,5.47,1.79,5.93,2.64,0,0,.12,3.52-1.9,4S162.39,130.37,164.68,127.16Z"/><path class="cls-85" d="M157.33,149.65c6.17,1.2,17.36,6.62,21.2,12.83s0,76.6,0,76.6-32.94,7.68-44.85-4.76c0,0-.93-25.93-3.17-35.52s-4.24-43.46,5.42-49.15C135.93,149.65,147.78,147.8,157.33,149.65Z"/><polygon class="cls-21" points="184.49 189.22 203.69 141.54 237.67 157.01 218.95 204.62 184.49 189.22"/><path class="cls-83" d="M210.17,198.8s4.54-8.39,5.62-13.34,3.86.58,2.94,6.67c0,0,4.33.83,6.26-2.73a10.34,10.34,0,0,1-1.16,7.89s-.08,5.1-2.16,7a43.36,43.36,0,0,1-6.34,4.34A13.05,13.05,0,0,0,210.17,198.8Z"/><path class="cls-82" d="M170.53,165.26c5.32-4,8.44-2.12,9.49.93s9.51,36.78,12.42,37.7,14.42-2.11,17.73-5.09c0,0,6.22,2.18,5.16,9.86,0,0-21.43,18.92-29,11.37s-21.3-39.69-21.83-43.13S165.35,169.13,170.53,165.26Z"/></g></g></svg>