<svg xmlns="http://www.w3.org/2000/svg" viewBox="0 0 561.72 479.11"><defs><style>.cls-1{fill:#45464b;}.cls-2{fill:#5a5a5a;}.cls-3{fill:#333;}.cls-4{fill:#3f3f3f;}.cls-5{fill:#2c2a2b;}.cls-6{fill:#555;}.cls-7{fill:#484646;}.cls-8{fill:#4c4c4c;}.cls-17,.cls-9{fill:#fff;}.cls-10{fill:#504e4f;}.cls-11{fill:#484848;}.cls-12{fill:#ea952e;}.cls-13{fill:#640;}.cls-14{fill:#ed1c24;}.cls-15{fill:#ff0;}.cls-16{fill:#39b54a;}.cls-17{opacity:0.35;}</style></defs><title>slide-4</title><g id="Layer_2" data-name="Layer 2"><g id="Layer_1-2" data-name="Layer 1"><path class="cls-1" d="M19.74,0H394.92a5.28,5.28,0,0,1,5.28,5.28V207a5.28,5.28,0,0,1-5.28,5.28H19.74A5.27,5.27,0,0,1,14.46,207V5.28A5.28,5.28,0,0,1,19.74,0Z"/><rect class="cls-2" x="132.7" y="-37.5" width="149.26" height="287.25" transform="translate(313.46 -101.2) rotate(90)"/><rect class="cls-3" x="146.67" y="-26.85" width="121.32" height="265.96" transform="translate(313.46 -101.2) rotate(90)"/><rect class="cls-4" x="63.7" y="170.27" width="287.25" height="36.72"/><rect class="cls-5" x="63.7" y="198.92" width="287.25" height="8.07"/><polygon class="cls-6" points="152.36 146.56 140.57 301.46 274.51 299.36 262.72 146.56 152.36 146.56"/><polygon class="cls-7" points="274.3 299.36 292.06 299.02 311.05 306.93 311.05 369.46 274.3 369.43 274.3 360 140.36 360 140.36 369.3 103.61 369.26 103.61 306.93 122.6 299.02 274.3 299.36"/><rect class="cls-5" x="274.3" y="369.43" width="20.84" height="7.2"/><rect class="cls-5" x="119.52" y="369.25" width="20.84" height="7.2"/><path class="cls-8" d="M28.64,297.22H99.08a4.84,4.84,0,0,1,4.84,4.84V370a0,0,0,0,1,0,0H23.81a0,0,0,0,1,0,0V302.06A4.84,4.84,0,0,1,28.64,297.22Z"/><polygon class="cls-5" points="23.81 369.98 31.27 376.79 97.39 376.63 103.92 369.98 23.81 369.98"/><rect class="cls-4" x="31.81" y="311.07" width="66.08" height="52.6"/><rect class="cls-9" x="45.14" y="274.6" width="40.01" height="22.62"/><path class="cls-7" d="M9.37,376.63H402.53A9.37,9.37,0,0,1,411.9,386v93.1a0,0,0,0,1,0,0H0a0,0,0,0,1,0,0V386a9.37,9.37,0,0,1,9.37-9.37Z"/><path class="cls-10" d="M158.7,233.9h91a3.53,3.53,0,0,1,3.53,3.53V626.3a3.53,3.53,0,0,1-3.53,3.53h-91a0,0,0,0,1,0,0V233.9A0,0,0,0,1,158.7,233.9Z" transform="translate(-225.91 637.82) rotate(-90)"/><path class="cls-11" d="M547.2,321.92v-16a7.27,7.27,0,0,0-7.27-7.26h-87.6a7.26,7.26,0,0,0-7.26,7.26V469.84a7.26,7.26,0,0,0,7.26,7.26h87.6a7.27,7.27,0,0,0,7.27-7.26V456.19a7.26,7.26,0,0,1,7.26-7.26,7.27,7.27,0,0,0,7.26-7.27V336.45a7.26,7.26,0,0,0-7.26-7.26A7.26,7.26,0,0,1,547.2,321.92Z"/><rect class="cls-5" x="548.52" y="343.57" width="7.04" height="93.33"/><rect class="cls-3" x="471.66" y="295.99" width="46.44" height="86.13" transform="translate(155.83 833.94) rotate(-90)"/><rect class="cls-12" x="453.58" y="317.6" width="82.61" height="42.92"/><rect class="cls-13" x="456.16" y="321.24" width="6.7" height="6.7"/><rect class="cls-13" x="464.64" y="321.24" width="6.7" height="6.7"/><rect class="cls-5" x="476.47" y="305.12" width="43.29" height="7.04" rx="0.54"/><path class="cls-9" d="M474.54,429.56h-17a4,4,0,0,1,0-7.93h17a4,4,0,0,1,0,7.93Z"/><path class="cls-9" d="M503.39,429.56h-17a4,4,0,0,1,0-7.93h17a4,4,0,0,1,0,7.93Z"/><path class="cls-9" d="M532.23,429.56h-17a4,4,0,1,1,0-7.93h17a4,4,0,0,1,0,7.93Z"/><path class="cls-9" d="M474.54,412h-17a4,4,0,0,1,0-7.93h17a4,4,0,0,1,0,7.93Z"/><path class="cls-9" d="M503.39,412h-17a4,4,0,0,1,0-7.93h17a4,4,0,0,1,0,7.93Z"/><path class="cls-9" d="M532.23,412h-17a4,4,0,1,1,0-7.93h17a4,4,0,0,1,0,7.93Z"/><path class="cls-9" d="M474.54,394.34h-17a4,4,0,0,1,0-7.92h17a4,4,0,0,1,0,7.92Z"/><path class="cls-9" d="M503.39,394.34h-17a4,4,0,0,1,0-7.92h17a4,4,0,1,1,0,7.92Z"/><path class="cls-9" d="M532.23,394.34h-17a4,4,0,1,1,0-7.92h17a4,4,0,1,1,0,7.92Z"/><path class="cls-9" d="M474.54,376.73h-17a4,4,0,0,1,0-7.92h17a4,4,0,0,1,0,7.92Z"/><path class="cls-9" d="M503.39,376.73h-17a4,4,0,1,1,0-7.92h17a4,4,0,1,1,0,7.92Z"/><path class="cls-9" d="M532.23,376.73h-17a4,4,0,1,1,0-7.92h17a4,4,0,1,1,0,7.92Z"/><rect class="cls-14" x="453.58" y="438.36" width="24.93" height="14.09"/><rect class="cls-15" x="482.42" y="438.36" width="24.93" height="14.09"/><rect class="cls-16" x="511.26" y="438.36" width="24.93" height="14.09"/><rect class="cls-4" x="453.58" y="455.6" width="82.61" height="4.18"/><path class="cls-13" d="M474.38,346.17v-9.06a.14.14,0,0,0-.16-.16h-.42a.14.14,0,0,1-.16-.16v-1.67c0-.1.05-.15.16-.15h2.13a.59.59,0,0,1,.43.15.54.54,0,0,1,.16.43v10.62a.14.14,0,0,1-.16.16h-1.82A.14.14,0,0,1,474.38,346.17Z"/><path class="cls-13" d="M483.57,343.94a1.43,1.43,0,0,0,.24-.81v-1.3c0-.08,0-.1-.05-.09l-.15.1a1.27,1.27,0,0,1-.31.16,1,1,0,0,1-.49.07h-3a3,3,0,0,1-.55-.05,1.32,1.32,0,0,1-.75-.39,2.88,2.88,0,0,1-.31-.36,2.25,2.25,0,0,1-.27-.43,3.11,3.11,0,0,1-.22-.53,3,3,0,0,1-.15-.59,3.82,3.82,0,0,1,0-.57v-.87a4.71,4.71,0,0,1,.11-1,3.93,3.93,0,0,1,.38-1.09,2.74,2.74,0,0,1,.77-.89,2.09,2.09,0,0,1,1.26-.36h3.85a2,2,0,0,1,1,.23,2.2,2.2,0,0,1,.7.58,2.41,2.41,0,0,1,.4.8,3,3,0,0,1,.13.86V343a3.58,3.58,0,0,1-.23,1.27,2.73,2.73,0,0,1-.7,1.05,3.22,3.22,0,0,1-1.18.72,5.13,5.13,0,0,1-1.69.26h-3.92a.14.14,0,0,1-.16-.16v-1.74a.14.14,0,0,1,.16-.16h4.39A.82.82,0,0,0,483.57,343.94Zm-1.49-3.9a2.65,2.65,0,0,0,.63-.07,1.58,1.58,0,0,0,.55-.21,1.24,1.24,0,0,0,.39-.4,1.32,1.32,0,0,0,.15-.62v-.45a1.34,1.34,0,0,0-.16-.68,1.09,1.09,0,0,0-.41-.39,1.59,1.59,0,0,0-.57-.16c-.21,0-.44,0-.67,0s-.49,0-.75,0a2.49,2.49,0,0,0-.69.14,1.17,1.17,0,0,0-.5.38,1.2,1.2,0,0,0-.2.72v.45a1.55,1.55,0,0,0,.13.69,1.09,1.09,0,0,0,.34.39,1.3,1.3,0,0,0,.46.18,4.23,4.23,0,0,0,.48,0Z"/><path class="cls-13" d="M493.3,343.94a1.43,1.43,0,0,0,.24-.81v-1.3c0-.08,0-.1-.05-.09l-.15.1a1.27,1.27,0,0,1-.31.16,1,1,0,0,1-.49.07h-3A3,3,0,0,1,489,342a1.32,1.32,0,0,1-.75-.39,2.88,2.88,0,0,1-.31-.36,2.25,2.25,0,0,1-.27-.43,3.11,3.11,0,0,1-.22-.53,3,3,0,0,1-.15-.59,3.82,3.82,0,0,1,0-.57v-.87a4.71,4.71,0,0,1,.11-1,3.65,3.65,0,0,1,.39-1.09,2.6,2.6,0,0,1,.76-.89,2.09,2.09,0,0,1,1.26-.36h3.85a2,2,0,0,1,1,.23,2.09,2.09,0,0,1,.7.58,2.41,2.41,0,0,1,.4.8,3,3,0,0,1,.13.86V343a3.58,3.58,0,0,1-.23,1.27,2.73,2.73,0,0,1-.7,1.05,3.22,3.22,0,0,1-1.18.72,5.13,5.13,0,0,1-1.69.26h-3.92a.14.14,0,0,1-.16-.16v-1.74a.14.14,0,0,1,.16-.16h4.39A.82.82,0,0,0,493.3,343.94Zm-1.49-3.9a2.65,2.65,0,0,0,.63-.07,1.58,1.58,0,0,0,.55-.21,1.24,1.24,0,0,0,.39-.4,1.32,1.32,0,0,0,.15-.62v-.45a1.34,1.34,0,0,0-.16-.68,1.09,1.09,0,0,0-.41-.39,1.59,1.59,0,0,0-.57-.16c-.21,0-.44,0-.67,0s-.49,0-.75,0a2.34,2.34,0,0,0-.68.14,1.15,1.15,0,0,0-.51.38,1.2,1.2,0,0,0-.2.72v.45a1.55,1.55,0,0,0,.13.69,1.09,1.09,0,0,0,.34.39,1.3,1.3,0,0,0,.46.18,4.23,4.23,0,0,0,.48,0Z"/><path class="cls-13" d="M497.22,344.19H499a.14.14,0,0,1,.16.16v1.82a.3.3,0,0,1,0,.1l-1,1.31a4.07,4.07,0,0,1-.93.08c-.12,0-.16,0-.13-.09l.52-1.11c0-.06,0-.09,0-.12h-.46a.14.14,0,0,1-.16-.16v-1.82A.14.14,0,0,1,497.22,344.19Z"/><path class="cls-13" d="M500.62,346.33c-.1,0-.15-.05-.15-.16v-1.66c0-.11,0-.16.15-.16h4.85a1.31,1.31,0,0,0,.94-.4,1.59,1.59,0,0,0,.41-1.19,2.29,2.29,0,0,0-.11-.77.88.88,0,0,0-.3-.43.86.86,0,0,0-.44-.18,2.74,2.74,0,0,0-.5,0h-4.85a.14.14,0,0,1-.15-.16v-6.06a.13.13,0,0,1,.15-.15h7.87a.13.13,0,0,1,.15.15v1.67a.14.14,0,0,1-.15.16H503a.14.14,0,0,0-.16.16v2a.15.15,0,0,0,.16.16h2.68a4.84,4.84,0,0,1,1.93.32,2.58,2.58,0,0,1,1.07.83,2.73,2.73,0,0,1,.46,1.13,8.28,8.28,0,0,1,.09,1.2,4.88,4.88,0,0,1-.19,1.4,3,3,0,0,1-.61,1.13,2.81,2.81,0,0,1-1.09.76,4.27,4.27,0,0,1-1.66.28Z"/><path class="cls-13" d="M510.37,342.45v-5a2.39,2.39,0,0,1,.67-1.82,2.62,2.62,0,0,1,1.87-.62h3.52a2.66,2.66,0,0,1,1.85.62,2.34,2.34,0,0,1,.7,1.82v5.89a4.52,4.52,0,0,1-.19,1.42,2.41,2.41,0,0,1-.51.94,2,2,0,0,1-.81.51,3.23,3.23,0,0,1-1.06.16h-3.19a4.33,4.33,0,0,1-1.26-.16,2.13,2.13,0,0,1-.88-.51,2.11,2.11,0,0,1-.53-.94,4.86,4.86,0,0,1-.18-1.42Zm3.39,1.9h1.81a1.33,1.33,0,0,0,1-.31,1.47,1.47,0,0,0,.25-.94v-4.92a1.39,1.39,0,0,0-.07-.44,1.07,1.07,0,0,0-.23-.4,1.26,1.26,0,0,0-.39-.28,1.32,1.32,0,0,0-.59-.11h-1.81a1.36,1.36,0,0,0-.9.28,1.17,1.17,0,0,0-.35.95v4.92a1.35,1.35,0,0,0,.28.94,1.25,1.25,0,0,0,1,.31Z"/><polygon class="cls-17" points="494.57 317.74 464.63 360.52 484.59 360.52 514.23 317.74 494.57 317.74"/><rect class="cls-3" x="47.41" y="276.82" width="17.44" height="1"/><rect class="cls-3" x="47.41" y="280.81" width="21.02" height="1.89"/><rect class="cls-3" x="47.41" y="284.97" width="15.3" height="3.38"/><rect class="cls-3" x="47.41" y="291.79" width="17.44" height="1.69"/></g></g></svg>