<svg xmlns="http://www.w3.org/2000/svg" xmlns:xlink="http://www.w3.org/1999/xlink" viewBox="0 0 657.58 397.75"><defs><style>.cls-1{isolation:isolate;}.cls-2{fill:#1a233a;}.cls-3{fill:#ff8303;}.cls-4{fill:#004f5b;}.cls-5{fill:#00606d;}.cls-6{fill:#c0d8db;}.cls-16,.cls-21,.cls-24,.cls-36,.cls-38,.cls-40,.cls-42,.cls-6,.cls-7{mix-blend-mode:multiply;}.cls-7{fill:#f6d2be;}.cls-8{fill:#dd4f00;}.cls-9{fill:#c2946c;}.cls-10{fill:#472917;}.cls-11{fill:#052e2f;}.cls-12{fill:#fff;}.cls-13{fill:#e6b586;}.cls-14{fill:#d36705;}.cls-15{fill:#e5720a;}.cls-17,.cls-21{fill:#e1c6ae;}.cls-18{fill:#ff9c03;}.cls-19{fill:#b38261;}.cls-20{fill:#eac38f;}.cls-22{fill:#ff6603;}.cls-23{fill:#096972;}.cls-24,.cls-26{fill:#e3cac8;}.cls-25{fill:#2a7a85;}.cls-27{fill:#1a3f40;}.cls-28{fill:#c99a69;}.cls-29{fill:#503323;}.cls-30{fill:#593a29;}.cls-31{fill:#966b40;}.cls-32{fill:#d9b7b5;}.cls-33{fill:#e8be85;}.cls-34{fill:url(#radial-gradient);}.cls-35{fill:#bf493f;}.cls-36{fill:url(#linear-gradient);}.cls-37{fill:url(#radial-gradient-2);}.cls-38{fill:url(#linear-gradient-2);}.cls-39{fill:url(#radial-gradient-3);}.cls-40{fill:url(#linear-gradient-3);}.cls-41{fill:url(#radial-gradient-4);}.cls-42{fill:url(#linear-gradient-4);}.cls-43{fill:#524a43;}</style><radialGradient id="radial-gradient" cx="-119.97" cy="4196.82" r="37.05" gradientTransform="matrix(0.76, 0.65, -0.65, 0.76, 3019.13, -3022.8)" gradientUnits="userSpaceOnUse"><stop offset="0.29" stop-color="#f8efe7"/><stop offset="1" stop-color="#d0c5bb"/></radialGradient><linearGradient id="linear-gradient" x1="-7.95" y1="338.72" x2="32.86" y2="373.15" gradientTransform="translate(219.82 -237.96) rotate(2.12)" gradientUnits="userSpaceOnUse"><stop offset="0" stop-color="#a6a5b1"/><stop offset="1" stop-color="#a6a5b1" stop-opacity="0"/></linearGradient><radialGradient id="radial-gradient-2" cx="-114.56" cy="4200.84" r="46.5" gradientTransform="matrix(0.76, 0.65, -0.65, 0.76, 3019.13, -3022.8)" gradientUnits="userSpaceOnUse"><stop offset="0.24" stop-color="#3d3c40"/><stop offset="0.72" stop-color="#3b3a3e"/><stop offset="0.99" stop-color="#323235"/><stop offset="1" stop-color="#323235"/></radialGradient><linearGradient id="linear-gradient-2" x1="-92.59" y1="4213.2" x2="-92.09" y2="4196.78" gradientTransform="matrix(0.76, 0.65, -0.65, 0.76, 3019.13, -3022.8)" xlink:href="#linear-gradient"/><radialGradient id="radial-gradient-3" cx="-116.57" cy="4209.17" r="42.5" gradientTransform="matrix(0.76, 0.65, -0.65, 0.76, 3019.13, -3022.8)" gradientUnits="userSpaceOnUse"><stop offset="0" stop-color="#3d3c40"/><stop offset="0.63" stop-color="#3b3a3e"/><stop offset="0.99" stop-color="#323235"/><stop offset="1" stop-color="#323235"/></radialGradient><linearGradient id="linear-gradient-3" x1="-92.99" y1="4223.42" x2="-92.74" y2="4204.83" gradientTransform="matrix(0.76, 0.65, -0.65, 0.76, 3019.13, -3022.8)" xlink:href="#linear-gradient"/><radialGradient id="radial-gradient-4" cx="-88.33" cy="4221.64" r="30.77" xlink:href="#radial-gradient"/><linearGradient id="linear-gradient-4" x1="-77.36" y1="4230.35" x2="-70.73" y2="4252.72" gradientTransform="matrix(0.76, 0.65, -0.65, 0.76, 3019.13, -3022.8)" xlink:href="#linear-gradient"/></defs><title>slide-1</title><g class="cls-1"><g id="Layer_2" data-name="Layer 2"><g id="Layer_1-2" data-name="Layer 1"><rect class="cls-2" x="570.07" y="191.01" width="1.98" height="9.71" transform="matrix(0.55, -0.83, 0.83, 0.55, 92.87, 564.38)"/><rect class="cls-2" x="608.56" y="216.43" width="1.98" height="9.71" transform="translate(88.88 607.84) rotate(-56.54)"/><rect class="cls-2" x="572.22" y="225.96" width="9.56" height="1.98" transform="translate(54.98 561.52) rotate(-54.13)"/><rect class="cls-2" x="598.84" y="189.2" width="9.55" height="1.98" transform="translate(95.79 567.86) rotate(-54.13)"/><rect class="cls-2" x="562.37" y="211.59" width="9.84" height="1.98" transform="translate(-28.02 100.27) rotate(-9.86)"/><rect class="cls-2" x="608.4" y="203.57" width="9.84" height="1.98" transform="translate(-25.97 108.03) rotate(-9.86)"/><rect class="cls-2" x="593.51" y="225.86" width="1.98" height="11.73" transform="translate(-28.12 92.2) rotate(-8.66)"/><rect class="cls-2" x="585.12" y="181.87" width="1.98" height="9.42" transform="translate(-24.59 113.18) rotate(-10.8)"/><rect class="cls-2" x="303.26" y="21.97" width="8.93" height="1.28" transform="translate(-0.62 34.04) rotate(-6.33)"/><rect class="cls-2" x="261.11" y="26.64" width="8.93" height="1.28" transform="translate(-1.39 29.43) rotate(-6.33)"/><rect class="cls-2" x="284.48" y="0.04" width="1.28" height="8.68" transform="translate(0.46 21.17) rotate(-4.25)"/><rect class="cls-2" x="287.53" y="41.17" width="1.28" height="8.69" transform="translate(-2.58 21.5) rotate(-4.25)"/><rect class="cls-2" x="295.99" y="8.11" width="8.97" height="1.28" transform="translate(98.62 231.49) rotate(-49.48)"/><rect class="cls-2" x="268.34" y="40.5" width="8.97" height="1.28" transform="translate(64.3 221.82) rotate(-49.48)"/><rect class="cls-2" x="270.03" y="7.73" width="1.28" height="8.65" transform="translate(91.33 215.14) rotate(-51.1)"/><rect class="cls-2" x="301.98" y="33.52" width="1.28" height="8.65" transform="translate(83.15 249.6) rotate(-51.1)"/><rect class="cls-2" x="164.22" y="333.41" width="2.11" height="10.35" transform="translate(-198.98 242.3) rotate(-49.17)"/><rect class="cls-2" x="201.42" y="365.55" width="2.11" height="10.35" transform="translate(-210.41 281.54) rotate(-49.17)"/><rect class="cls-2" x="162.2" y="371.2" width="10.18" height="2.11" transform="matrix(0.69, -0.73, 0.73, 0.69, -218.39, 238.79)"/><rect class="cls-2" x="195.36" y="335.99" width="10.18" height="2.11" transform="translate(-182.33 251.86) rotate(-46.71)"/><rect class="cls-2" x="153.76" y="354.68" width="10.48" height="2.11" transform="translate(-15.23 7.21) rotate(-2.48)"/><rect class="cls-2" x="203.51" y="352.51" width="10.48" height="2.11" transform="translate(-15.09 9.35) rotate(-2.48)"/><rect class="cls-2" x="184.25" y="373.44" width="2.11" height="10.05" transform="translate(-22.26 11.74) rotate(-3.42)"/><rect class="cls-2" x="181.39" y="325.81" width="2.11" height="10.04" transform="translate(-19.48 11.52) rotate(-3.43)"/><path class="cls-3" d="M309.3,296a7.16,7.16,0,0,1,1.89,6.32,7,7,0,0,1-1.94,3.61l-2.77,2.7c-7.8-4.84-13.55-8.73-20.49-19.49a16.21,16.21,0,0,0-1.3-1.78l3.08-3a6.86,6.86,0,0,1,6.22-1.9,6.77,6.77,0,0,1,3.68,1.95Z"/><path class="cls-4" d="M422.91,362.91s8.85-7.85,19.52-9.73c1.86-.27,3.72-.55,5.61-.89-4.91,16.35-23.84,24.9-13,37.21-7.33,3.65-11.92,6.1-11.92,6.1-14.09,4.37,0,0-39.74-14.39s-48.43-42-62.52-63.07c2.43,1.78,5,3.79,7.83,6.16,17.53,14.71,47.62,31,89.92,30.73Z"/><path class="cls-5" d="M559,341.3c-23.81,7.37-54.15-.93-53.18,15.37-9.79-3.73-13.62-5.67-13.62-5.67-24.11,8.13-37.88.07-37.88.07-2.14.45-4.24.85-6.32,1.22-1.89.34-3.75.62-5.61.89A170.8,170.8,0,0,1,418.61,355c-42.3.26-72.39-16-89.92-30.73-2.81-2.37-5.4-4.38-7.83-6.16-5.65-4.18-10.29-7-14.38-9.51l2.77-2.7a7,7,0,0,0,1.94-3.61c8.19-8.13,22.26-24.86,26.5-47.1,15.94,2.35,36.4,8.66,46.9,30.64,0,0,28,3.19,65.3,23.9,3.7,2,7.46,4.27,11.32,6.65,0,0,9.56.52,17.54,5.56,0,0,29.22-19.19,62.36,5.26C548.38,332.6,554.2,337.26,559,341.3Z"/><path class="cls-6" d="M549.63,333.71c-24.06,3.15-47.11,1.14-65.12-14.64a39.76,39.76,0,0,0-5.76,2.9c-8-5-17.54-5.56-17.54-5.56-3.86-2.38-7.62-4.62-11.32-6.65-24.62-13.67-45.12-19.68-56.25-22.21-13.37,6.25-30.87,6.09-46,3.16a31.88,31.88,0,0,1-18.8-11.55,105.74,105.74,0,0,1-17.63,23.16,7,7,0,0,1-1.94,3.61l-2.77,2.7c4.09,2.54,8.73,5.33,14.38,9.51,2.43,1.78,5,3.79,7.83,6.16.34.28.72.57,1.06.86,31.37-23.4,80.24-14.53,110.18,10.31a42.2,42.2,0,0,1,10.51,16.36c1.3-.25,2.59-.48,3.92-.76,0,0,.53.3,1.52.73a27.7,27.7,0,0,1,2.26-6.08c9-11.72,22-9.22,33.7-.22a25,25,0,0,1,3.86,7.07c2.19.95,5.47,2.32,10.16,4.1-1-16.3,29.37-8,53.18-15.37C556.27,339,553.13,336.45,549.63,333.71Z"/><path class="cls-3" d="M328.75,183.89a43.8,43.8,0,0,1,2.74,8.22c-32.55-25.94-57.92-27.43-57.92-27.43-12.35-19.81-39.79-28.92-52.15-14a41.15,41.15,0,0,0,4.69-10.12l0,0c26.68-9.83,72.26-14.66,131.28,2.49s99.07,29.55,162.31,22.38c0,0,20.63,16.6,7.57,38.79s-22.53,28-13.55,51.73S510.65,300.4,494,299.2s-39.26,2.39-44.1,10.56c-37.31-20.71-65.3-23.9-65.3-23.9-10.5-22-31-28.29-46.9-30.64-6.85-1-12.88-1.3-16.88-1.78a20.55,20.55,0,0,1-7.26-2.48c-11.36-6.25-22.5-23.14-22.72-42.81,11.48,3.54,25.28,5.26,39.9,1.57a19.72,19.72,0,0,1-3.39,5.74s28.39,20.44,63.7,27.2c1.91.35,3.38,2.09,4.21,3.73,9.81,19.29,9.9,20.49,21.67,20.85,18.75.56,17.18-5.7,9.93-16.06-4.87-7-12.41-12.64-20.2-17.8S362.9,196.89,347.46,187C315.81,166.82,326.52,176.56,328.75,183.89Z"/><path class="cls-7" d="M330.73,209.72l-.72.15.58.16C330.63,209.92,330.69,209.83,330.73,209.72Z"/><path class="cls-7" d="M423.1,246.59a43.73,43.73,0,0,1,3.75,4.59c7.25,10.36,8.82,16.62-9.93,16.06-11.77-.36-11.86-1.56-21.67-20.85-.83-1.64-2.3-3.38-4.21-3.73-35.31-6.76-63.7-27.2-63.7-27.2a20,20,0,0,0,3.25-5.43l-.58-.16c-14.35,3.46-27.89,1.76-39.18-1.72.22,19.67,11.36,36.56,22.72,42.81a20.55,20.55,0,0,0,7.26,2.48c4,.48,10,.75,16.88,1.78,15.94,2.35,36.4,8.66,46.9,30.64,0,0,28,3.19,65.3,23.9,4.84-8.17,27.41-11.75,44.1-10.56a18.69,18.69,0,0,0,14.35-5.28C480,277.31,451.86,261,423.1,246.59Z"/><path class="cls-7" d="M515.71,222.77c3-5.16,7.09-10.85,11.59-18.51,13.06-22.19-7.57-38.79-7.57-38.79-63.24,7.17-103.29-5.26-162.31-22.38s-104.6-12.32-131.28-2.49l0,0a41.15,41.15,0,0,1-4.69,10.12c10.32-12.48,31.13-8.15,44.91,5.14,14.77,0,29.11,3.64,45.46,6.8C380.06,176.64,447.06,209.71,515.71,222.77Z"/><path class="cls-8" d="M173.77,184.1l8.34,4.78s-8.35,1.75-16.87-5.56c0-1.37-.1-2.79-.2-4.33-.08-1.82-.16-3.76-.27-5.91C165.72,177.79,167.57,180.55,173.77,184.1Z"/><path class="cls-3" d="M221.4,150.73a25.82,25.82,0,0,0-5,10.16s-1.16,25-34.34,28c0,0,24.08-6.61,28.78-36.13Z"/><path class="cls-9" d="M190.21,140.83c2.5.37,3.29,3.65-.09,5.61s-4.8-.81-4.8-.81a6.89,6.89,0,0,0,3.27-1.8A5.84,5.84,0,0,0,190.21,140.83Z"/><path class="cls-9" d="M141.29,130.4c2.08.09,2.34,5.51,4.19,9.5-4.95-5.76-6.53-8-6.53-8Z"/><path class="cls-10" d="M210.89,152.75c-3.39.64-7.47,1.41-12,2.29-4.13.79-10.81-2.68-10.81-2.68,6.84-1.42,15-13.35,2.28-15a7.85,7.85,0,0,1-4.51-.67s28.6-18.65,13.53-32.48c8.07,6.68,15.52,15.79,24.85,19.93.84.38,1.61.72,2.36,1v0c.2.49,2.38,6.3-.45,15.38a41.15,41.15,0,0,1-4.69,10.12l0,0Z"/><path class="cls-11" d="M162,115.49c-5.37.77-4.79,4.81-4.79,4.81,6.87,6.58,9.67,5.85,9.67,5.85A19.5,19.5,0,0,0,162,115.49Zm2.36-7c16.65,8,20.27,18.36,14.67,25.45-14.72,18.57-27.4-14.37-34.66-16.51.87-.62,1.76-1.17,2.62-1.72a86.33,86.33,0,0,1,12.18-6.35c.5-.88,1-1.73,1.55-2.49C162,107.39,163.21,107.94,164.34,108.48Z"/><path class="cls-12" d="M162,115.49a19.5,19.5,0,0,1,4.88,10.66s-2.8.73-9.67-5.85C157.19,120.3,156.61,116.26,162,115.49Z"/><path class="cls-13" d="M190.12,146.44c3.38-2,2.59-5.24.09-5.61a5.84,5.84,0,0,1-1.62,3,6.89,6.89,0,0,1-3.27,1.8S186.77,148.39,190.12,146.44Zm.2-9.05c12.76,1.62,4.56,13.55-2.28,15,0,0,6.68,3.47,10.81,2.68,4.57-.88,8.65-1.65,12-2.29-4.7,29.52-28.78,36.13-28.78,36.13l-8.34-4.78c-6.2-3.55-8.05-6.31-9-11a.49.49,0,0,1,0-.21c-.31-1.57-.54-3.35-.76-5.46a70.55,70.55,0,0,1-12.57-3.48c-5.28-1.87-10.49-4-14.65-5.42-11.61-3.87-10.71-9.95-10.71-9.95,0-3.31,2.28-5.27,4.69-6.5s4.68-1.71,5.57-2.26,1.32-1.88,1.73-3.37a34.23,34.23,0,0,0,.91-4.52s1.58,2.23,6.53,8c-1.85-4-2.11-9.41-4.19-9.5l2.52-1.63-5-7a57.08,57.08,0,0,1,5.55-4.31c7.26,2.14,19.94,35.08,34.66,16.51,5.6-7.09,2-17.5-14.67-25.45-1.13-.54-2.36-1.09-3.64-1.62,8-11.78,18.27-10.48,18.27-10.48,6.52-.72,12,1.66,17.2,5.4l.83.57c.78.61,1.58,1.25,2.34,1.89,15.07,13.83-13.53,32.48-13.53,32.48A7.85,7.85,0,0,0,190.32,137.39Z"/><path class="cls-3" d="M217.15,222.41l-20,11.26a127.38,127.38,0,0,1-14.83-14.17A112.07,112.07,0,0,1,171,205.77Z"/><path class="cls-5" d="M290.83,208.15c.22,19.67,11.36,36.56,22.72,42.81C310.43,264.63,301,275.77,294,282.42a6.86,6.86,0,0,0-6.22,1.9l-3.08,3c-14.06-17.37-61.49-23.25-73-46v0a39.39,39.39,0,0,1-14.5-7.64l20-11.26L171,205.77c-4.84-7.3-5.33-12.57-5.76-22.45,8.52,7.31,16.87,5.56,16.87,5.56,33.18-3,34.34-28,34.34-28a25.82,25.82,0,0,1,5-10.16l0,0c12.36-14.94,39.8-5.83,52.15,14,0,0,25.37,1.49,57.92,27.43,1.11,5,1.66,11.57-.76,17.61C316.11,213.41,302.31,211.69,290.83,208.15Z"/><path class="cls-6" d="M330.73,209.72c2.42-6,1.87-12.61.76-17.61l-.62-.47C315.44,204,277.13,202.29,274,170.3c-4.3,10.38-14.11,19.13-27.35,22.83-20.86,3.41-30.95-9.59-31.43-26.59a29.67,29.67,0,0,1-4.75,8.91c12.15,18.72,24.17,36.09,25,54.56-.49,9.9-10.54,10.38-22.7,10.91,0,2.93,4.47,8,6.5,9.8,14.76-.13,27.88-14.26,40.9-9.21,12.48,8.61,30.17,26.34,32.19,40.79a7.06,7.06,0,0,1,1.59.12c7-6.65,16.44-17.79,19.56-31.46-11.36-6.25-22.5-23.14-22.72-42.81C302.31,211.69,316.11,213.41,330.73,209.72Z"/><path class="cls-6" d="M278.18,165.35c-.95-.18-1.79-.32-2.45-.42-.08.35-.18.69-.27,1A9,9,0,0,1,278.18,165.35Z"/><path class="cls-4" d="M164.77,173.08c.11,2.15.19,4.09.27,5.91q-7.5-8.4-13.63-15.06A70.55,70.55,0,0,0,164,167.41c.22,2.11.45,3.89.76,5.46A.49.49,0,0,0,164.77,173.08Z"/><path class="cls-4" d="M135.37,110.45,147,115.7c-.86.55-1.75,1.1-2.62,1.72a57.08,57.08,0,0,0-5.55,4.31l5,7-2.52,1.63L139,131.91a34.23,34.23,0,0,1-.91,4.52c-.41,1.49-1,2.91-1.73,3.37s-3.28,1.1-5.57,2.26c-4.42-4.5-6.64-6.64-6.64-6.64C129.11,131.41,135.09,123.81,135.37,110.45Z"/><path class="cls-3" d="M505.87,356.7c1.48.57,3.09,1.19,4.87,1.83-24.12,6-58,22.08-75.7,31-10.84-12.31,8.09-20.86,13-37.21,2.08-.37,4.18-.77,6.32-1.22,0,0,13.77,8.06,37.88-.07,0,0,3.83,1.94,13.62,5.67Z"/><path class="cls-3" d="M616.32,366.92C627.2,376,659.46,389,657.2,394.68c0,0-2.52,4.48-29.44,1.85s-38.94-12.74-80.43-25.68c-16.14-5-28.07-9.15-36.59-12.32-1.78-.64-3.39-1.26-4.87-1.83v0c-1-16.3,29.37-8,53.18-15.37C576.25,355.67,580.62,362,591,362.58,604.17,363.32,605.41,357.86,616.32,366.92Z"/><path class="cls-3" d="M320.81,253.44c4,.48,10,.75,16.88,1.78-4.24,22.24-18.31,39-26.5,47.1A7.16,7.16,0,0,0,309.3,296l-11.63-11.63a6.77,6.77,0,0,0-3.68-1.95c7-6.65,16.44-17.79,19.56-31.46A20.55,20.55,0,0,0,320.81,253.44Z"/><path class="cls-14" d="M331.49,192.11a43.8,43.8,0,0,0-2.74-8.22c-2.23-7.33-12.94-17.07,18.71,3.14,15.44,9.86,51.43,41.22,59.19,46.35s15.33,10.81,20.2,17.8c7.25,10.36,8.82,16.62-9.93,16.06-11.77-.36-11.86-1.56-21.67-20.85-.83-1.64-2.3-3.38-4.21-3.73-35.31-6.76-63.7-27.2-63.7-27.2a19.72,19.72,0,0,0,3.39-5.74C333.15,203.68,332.6,197.11,331.49,192.11Z"/><path class="cls-3" d="M135.34,107.6c0,1,0,1.92,0,2.85-.28,13.36-6.26,21-11.27,25a23.72,23.72,0,0,1-6.77,4C98.24,129,57.47,103.05,49.71,98.23s-21.93-5.1-25.53-8.66C14.42,79.9-.61,67.56,3.92,68.26c8.26,1.25,13.59,8.66,20.41,9.91s5-8.24-9-16.3S.09,41.41.09,41.41c13.29,6.5,28.32,9.66,37.37,17.31S58.05,82.21,58.05,82.21C96.83,90.82,135.34,107.6,135.34,107.6Z"/><path class="cls-5" d="M435.38,389.86c-4,2-7.94,4.07-11.86,6.17l0,0-.05,0c-1.34.42-2.68.85-4.06,1.23s-3,.8-4.51,0a41.05,41.05,0,0,1-3.57-2.41c-1.14-.8-2.32-1.54-3.52-2.25a115.27,115.27,0,0,0-15.14-7.19c-5.18-2.16-10.54-3.79-15.78-6a85.1,85.1,0,0,1-15-8.1,89.13,89.13,0,0,1-23.71-24.14c-6.43-9.32-11.4-19.47-17.54-28.85l.73-.5c8.67,7.91,15.17,17.49,22.26,25.57,1.75,2.05,3.54,4,5.4,5.88s3.63,3.76,5.55,5.48a107.85,107.85,0,0,0,12.15,9.35,126.94,126.94,0,0,0,13.54,7.4c1.18.55,2.41,1.07,3.55,1.54l1.9.76,1.93.81c2.65,1.15,5.3,2.34,7.94,3.59a96.06,96.06,0,0,1,15.42,9c1.25.9,2.43,1.94,3.59,3a31.17,31.17,0,0,1,2.53,2.46c0,.07-.56.08-.3.2a5,5,0,0,0,1.39.05c1.25-.09,2.68-.29,4.09-.48l-.57.24c2.16-.76,4.35-1.37,6.56-2s4.45-1.1,6.68-1.64Z"/><path class="cls-15" d="M510.93,358.71c-13.2,3.47-25.91,8.54-38.44,13.9s-25,11-37.21,17.05l-.2-.4a126.84,126.84,0,0,1,17.2-11.57,186.67,186.67,0,0,1,18.48-9.16,159.76,159.76,0,0,1,19.5-6.86,87.23,87.23,0,0,1,20.56-3.39Z"/><g class="cls-16"><path class="cls-17" d="M435,389.6a10.45,10.45,0,0,1-4.56-4A10.66,10.66,0,0,1,429,379c.51-4.65,2.9-8,5-11,2.27-2.89,4.54-5.46,6.88-7.93s4.57-5,7.08-7.88l.43.12a34.57,34.57,0,0,1-4.57,9.69c-1.94,3-4.16,5.81-6.27,8.65s-4.25,5.73-5.07,9.11.56,6.91,2.86,9.55Z"/></g><path class="cls-15" d="M435.07,389.56a14.18,14.18,0,0,1-2.84-4.56,9.68,9.68,0,0,1-.31-5.36c.81-3.57,3-6.55,5.05-9.42,4.31-5.61,9-11.16,11.07-18l.28.08a23.61,23.61,0,0,1-3,10.66,68.75,68.75,0,0,1-5.94,9c-2.09,2.76-4.12,5.43-5.15,8.16s-.53,5.85,1.1,9.21Z"/><path class="cls-5" d="M419,354.85c1.55,2.57,3,5.18,4.47,7.8l-.79-.14a43.4,43.4,0,0,1,9.26-6.19,33.73,33.73,0,0,1,10.57-3.45l.1.58a50.22,50.22,0,0,1-4.21,4.38c-1.34,1.22-2.61,2.37-3.94,3.37a43,43,0,0,1-4.1,2.8,36.19,36.19,0,0,1-4.3,2.31L419.85,369l-.83-3.88-.48-2.29a20.42,20.42,0,0,1-.31-2.4c-.11-.79,0-1.68-.06-2.52a18.11,18.11,0,0,1,.33-2.73Z"/><g class="cls-16"><path class="cls-17" d="M165.52,183.11a24.07,24.07,0,0,0,7.82,4.49,19,19,0,0,0,8.85.92h0c7.93-.77,15.89-3,22.35-7.69a29.27,29.27,0,0,0,8-8.76,27.63,27.63,0,0,0,3.81-11.22l.44,0a22.48,22.48,0,0,1-1.72,12.68A28,28,0,0,1,207,184.12a34,34,0,0,1-11.74,6.16,44.28,44.28,0,0,1-12.73,1.9l.39-.06a18,18,0,0,1-5.58-.39,21.63,21.63,0,0,1-4.85-1.78,21.25,21.25,0,0,1-4.11-2.83,19.26,19.26,0,0,1-3.17-3.67Z"/></g><path class="cls-18" d="M165.38,183.28a26.66,26.66,0,0,0,8.12,3.86,21.35,21.35,0,0,0,4.32.74,15.62,15.62,0,0,0,4.2-.22h.14a60.64,60.64,0,0,0,11.48-2.48A38.71,38.71,0,0,0,204,180a31.63,31.63,0,0,0,12.6-19.18,25.54,25.54,0,0,1-3,11.84,28.86,28.86,0,0,1-8,9.55,35.19,35.19,0,0,1-11.1,5.68,49.21,49.21,0,0,1-12.16,2.15l.14,0a16.83,16.83,0,0,1-4.93-.12A21.19,21.19,0,0,1,173,188.6,22.77,22.77,0,0,1,165.38,183.28Z"/><path class="cls-19" d="M141.45,130.28c1,.11,1.46,1.16,1.8,1.94a26.57,26.57,0,0,1,.84,2.57,34.92,34.92,0,0,0,1.63,5.11l-.13.06a6.75,6.75,0,0,1-1.88-2.23,18.45,18.45,0,0,1-1-2.55c-.15-.88-.39-1.72-.49-2.54a6.6,6.6,0,0,0-.21-1.17c-.1-.4-.05-.69-.55-1Z"/><path class="cls-20" d="M141.45,130.28c.43-.3,1.21.07,1.63.37a7.1,7.1,0,0,1,1,1.22,14.47,14.47,0,0,1,1.12,2.6c.14.9.39,1.74.46,2.63a15.25,15.25,0,0,1,0,2.8l-.13.06a33,33,0,0,1-1.78-5.09c-.24-.87-.46-1.74-.77-2.57s-.7-1.75-1.62-1.87Z"/><path class="cls-21" d="M4,68.44c-.45,0-.58.12-.44.14a3.33,3.33,0,0,0,.51.7,16,16,0,0,0,1.54,1.4c1.05.93,2.15,1.82,3.27,2.71l6.82,5.21,6.66,5.47,3.31,2.81a7.81,7.81,0,0,0,.71.6c.42.34.17.09.48.27a10.16,10.16,0,0,0,1.48.55c4.85,1.25,10.78,2,16.65,3.64a30.58,30.58,0,0,1,4.48,1.67,24.44,24.44,0,0,1,2.25,1.19l1.87,1.14,7.31,4.5c9.62,6.16,19.25,12.29,28.62,18.85l14.1,9.75c4.59,3.45,9.32,6.64,13.92,10.13l-.22.38c-10-5.48-19.82-11.41-29.6-17.33l-29.18-18L51.33,99.6a28.3,28.3,0,0,0-7.6-3.69c-5.39-1.81-11.1-2.47-16.58-4.38a8.89,8.89,0,0,1-3.68-2.37l-3.08-3-6.25-5.86L7.89,74.44c-1-1-2-2-3-3.07A15,15,0,0,1,3.5,69.69,2.59,2.59,0,0,1,3,68.62.56.56,0,0,1,3.46,68a1.74,1.74,0,0,1,.6,0Z"/><path class="cls-7" d="M28.13,77.15A2.36,2.36,0,0,1,27,78.89a5.55,5.55,0,0,1-2.05.7c-.28,0-.78,0-1,0a6.25,6.25,0,0,1-.95,0A11,11,0,0,1,21,79.29a21.41,21.41,0,0,1-6.49-3.08c-1.85-1.31-3.54-2.6-5.18-3.93S6.05,69.74,4,68.37l.05-.29c4.53.62,8.43,3.23,12.12,5.68a33.8,33.8,0,0,0,5.73,3.38,12,12,0,0,0,3.16.89,2.68,2.68,0,0,0,2.8-1Z"/><path class="cls-21" d="M.44,41.34a54.12,54.12,0,0,0,6.93,9,46.35,46.35,0,0,0,3.87,3.58,34.9,34.9,0,0,0,4.18,3.15c.73.53,1.39,1,2.24,1.5s1.82,1.13,2.62,1.77A29.79,29.79,0,0,1,25,64.78a20.31,20.31,0,0,1,3.49,5.64,11.7,11.7,0,0,1,.77,3.39,4.24,4.24,0,0,1-1,3.36L27.81,77c.74-1.71-.31-3.71-1.3-5.27a22.78,22.78,0,0,0-3.88-4.33c-2.89-2.68-6.3-4.51-9.7-6.62A32.8,32.8,0,0,1,4.5,52.35a26.88,26.88,0,0,1-4.5-11Z"/><path class="cls-21" d="M135.39,107.78,115.81,102Q106.12,99,96.35,96.29c-6.5-1.82-13-3.7-19.48-5.4s-13-3.31-19.54-4.87l-1.49-.36L55,84.5c-3.44-4.78-7.23-9.46-11-14-1.9-2.28-3.84-4.5-5.86-6.58a40,40,0,0,0-6.25-5.59c-4.62-3.27-10.15-5.65-15.62-8.2S5.24,45,.12,41.56l.2-.4C5.76,43.8,11.44,45.87,17.11,48s11.37,4.28,16.58,7.47S43,63.3,47.1,67.77s7.8,9.28,11.44,14.14l-.26-.16A388.21,388.21,0,0,1,97.48,92.9c12.87,4.34,25.59,9.12,38.08,14.47Z"/><polygon class="cls-12" points="198.07 234.94 196.62 232.36 213.76 222.69 170.64 207.12 171.64 204.34 220.82 222.09 198.07 234.94"/><path class="cls-22" d="M520.05,165.21A31.53,31.53,0,0,1,534,187a28,28,0,0,1-1.81,13.58,33.11,33.11,0,0,1-3,6c-1.09,1.86-2.31,3.61-3.51,5.38l-7.51,10.22A37.3,37.3,0,0,0,512.23,233a24.61,24.61,0,0,0-.38,12.15c.78,4.09,2.44,7.84,4.12,11.78,3.38,8,4.69,17.39,2.1,26.29a29.49,29.49,0,0,1-6.74,12.21,21.69,21.69,0,0,1-12.81,6.71,22.82,22.82,0,0,1-3.69.14l-3.22-.24c-2-.13-4.09-.18-6.13-.23a121.49,121.49,0,0,0-12.36.48,75.46,75.46,0,0,0-12.18,2c-3.89,1.11-8,2.39-10.65,5.56l-.51-.3a12.91,12.91,0,0,1,4.41-4.9,29,29,0,0,1,5.77-3.18,65.45,65.45,0,0,1,12.48-3.77,88.94,88.94,0,0,1,12.91-1.6c2.18-.14,4.34-.16,6.55-.1l3.11.11a15.3,15.3,0,0,0,2.63-.21c7-1,12.75-7,15.12-14.32s2.27-15.69.16-23.57c-2.51-8-4.78-16.9-2.54-25.51s7.08-15.85,11-23.19c2.05-3.67,4.38-7.2,5.86-10.69a26.38,26.38,0,0,0,2.11-11.25c-.29-7.76-4.25-15.4-9.73-21.72Z"/><path class="cls-18" d="M226.12,140.14a150.41,150.41,0,0,1,36.47-8,217.05,217.05,0,0,1,37.38-.42A269.84,269.84,0,0,1,337,137c12.23,2.53,24.17,6.21,36.11,9.61,23.87,7,47.84,13.77,72.43,17.37a285.56,285.56,0,0,0,74.29,1l.1.88a221.94,221.94,0,0,1-75.38,5c-12.69-1.12-25.17-3.59-37.5-6.23-12.31-2.8-24.38-6.2-36.4-9.52l-17.82-5.33c-5.83-1.72-11.71-3.19-17.6-4.63a315.8,315.8,0,0,0-35.76-6.55c-24.07-2.79-48.64-3-73,2.33Z"/><g class="cls-16"><path class="cls-17" d="M239,188.63a50.57,50.57,0,0,0,10.28,2.5,38,38,0,0,0,10.49.1l.31,0,.26.2a93.34,93.34,0,0,0,15.89,9.87,105.72,105.72,0,0,0,17.44,6.8,74.27,74.27,0,0,0,37.07,1.22l.22.86a43.68,43.68,0,0,1-19,7.09,65.63,65.63,0,0,1-10.31.39,85.75,85.75,0,0,1-10.21-1.38A71.23,71.23,0,0,1,272.38,209a66.27,66.27,0,0,1-16.27-12.47l4.63,1.31a25.63,25.63,0,0,1-6.3-.61,29.87,29.87,0,0,1-5.78-1.69,33.42,33.42,0,0,1-5.27-2.58,27.15,27.15,0,0,1-4.69-3.46Z"/></g><path class="cls-23" d="M239,188.76c1.8.22,3.62.31,5.38.42s3.51.15,5.24.08,3.4-.11,5-.33a44.38,44.38,0,0,0,4.72-.89l1.21-.29,1.87,1.16a160.43,160.43,0,0,0,15.78,8.47c2.69,1.32,5.48,2.42,8.23,3.54a87.66,87.66,0,0,0,8.41,3,81.35,81.35,0,0,0,8.58,2.4,83.63,83.63,0,0,0,8.81,1.73,121.18,121.18,0,0,0,18.57,1.36l.14.58a73.3,73.3,0,0,1-37.6-.64,88.38,88.38,0,0,1-17.71-6.87,95.85,95.85,0,0,1-16-10.21l.33.09a37.5,37.5,0,0,1-10.79-.25,50,50,0,0,1-10.41-2.8Z"/><g class="cls-16"><path class="cls-17" d="M164.21,167.32a62.82,62.82,0,0,0,1.92,7.21,12.07,12.07,0,0,0,4.13,5.45,41.28,41.28,0,0,0,6.31,3.63l6.61,3.65-1.4-.18a43.23,43.23,0,0,0,10.09-5.36,41.65,41.65,0,0,0,8.5-7.9,46.79,46.79,0,0,0,6.35-9.86,66.86,66.86,0,0,0,4.18-11.27l.22,0A47.89,47.89,0,0,1,201.88,175a43.53,43.53,0,0,1-8.74,8.46A38.59,38.59,0,0,1,182.32,189l-.08,0-.07,0-6.54-3.78a40.28,40.28,0,0,1-6.33-4.14,12.4,12.4,0,0,1-4.09-6.3,48.35,48.35,0,0,1-1.22-7.46Z"/></g><path class="cls-18" d="M164.17,167.32a47.51,47.51,0,0,0,1.25,7.42,12.08,12.08,0,0,0,4.05,6.17,40,40,0,0,0,6.31,4.08l6.55,3.75h-.1a39.65,39.65,0,0,0,10.7-5.56,42.83,42.83,0,0,0,8.71-8.35,47.74,47.74,0,0,0,9.3-22.12l.14,0a48.21,48.21,0,0,1-2.57,12,43.06,43.06,0,0,1-5.86,10.91,44.57,44.57,0,0,1-8.88,8.74A36.9,36.9,0,0,1,182.59,190l-.48.15-.45-.27-6.51-3.83a40.55,40.55,0,0,1-6.32-4.43,12.36,12.36,0,0,1-4-6.73,49.12,49.12,0,0,1-.79-7.58Z"/><path class="cls-24" d="M211.05,240.61l.81.23a31.48,31.48,0,0,0,14.48.29,59.69,59.69,0,0,0,13.86-4.83l.26.54a45.7,45.7,0,0,1-13.5,7.35,33.7,33.7,0,0,1-12.09,1.67Z"/><path class="cls-3" d="M165,183.22l-.46-10.37.59,0c1.26,4.29,2,8.7,2.86,13Z"/><path class="cls-25" d="M168,185.79c.11.55.22,1.1.34,1.65.87,4.84,2.08,9,4.33,12.6a71.67,71.67,0,0,0,8.65,10.59c3.22,3.49,6.64,7.1,10,10.44a103.18,103.18,0,0,0,10.25,9.52,38.88,38.88,0,0,0,11.2,6.61c8,3,17.69,1.53,27.39-.9l.26.54a60.5,60.5,0,0,1-14,5,32.3,32.3,0,0,1-14.86-.15,39.43,39.43,0,0,1-13.33-6.64,96.62,96.62,0,0,1-11.14-9.85c-3.45-3.56-6.79-7.18-10-10.94a62.27,62.27,0,0,1-8.6-12.14c-2.31-4.49-3-9.58-3.29-14.49l-.2-4.42Z"/><g class="cls-16"><path class="cls-17" d="M327.31,215.28a37.89,37.89,0,0,0,1.5-7.95,28.35,28.35,0,0,0,.12-3.68,29.64,29.64,0,0,0-.18-3.65,71,71,0,0,0-1-7.39c-.45-2.46-1-5.1-1.54-7.47L326,184l.09.69c-.07-.6-.17-1.31-.29-2.05s-.35-1.5-.48-2.32-.36-1.62-.44-2.52a8.86,8.86,0,0,1-.07-1.39,1.74,1.74,0,0,1,.63-1.5l.28.34c-.27.39.16,1.32.46,2s.73,1.4,1.11,2.11a27.43,27.43,0,0,1,2,4.41l0-.05a42.93,42.93,0,0,1,2.72,7.93A34.87,34.87,0,0,1,333,200a26.71,26.71,0,0,1-1.22,8.32,20.5,20.5,0,0,1-4.11,7.29Z"/></g><path class="cls-7" d="M117.41,139.22a54.43,54.43,0,0,0,6.83-6.6,40.3,40.3,0,0,0,5-7.39,49,49,0,0,0,3.48-8.33c.93-3,1.67-6,2.59-9.32h.29a37.15,37.15,0,0,1-3.75,19.05,28.92,28.92,0,0,1-6.06,7.71,26.22,26.22,0,0,1-8.3,5.17Z"/><path class="cls-21" d="M460.55,304.41c-4.08-2.62-8.23-5.13-12.53-7.4q-9.56-5.06-19.55-9.3A167.73,167.73,0,0,0,408,280.38c-3.51-1-7-1.93-10.66-2.74-1.8-.4-3.62-.78-5.47-1.12l-.49-.08A59.07,59.07,0,0,0,366,254a68.54,68.54,0,0,0-18-5.61,126.8,126.8,0,0,0-17.76-1.76c-2.86-.14-5.73-.06-8.24-.13a11.83,11.83,0,0,1-1.47-.1,6.28,6.28,0,0,1-1.18-.18,16.53,16.53,0,0,1-2.9-1,36.83,36.83,0,0,1-11.34-8.68,57.6,57.6,0,0,1-13.58-28.5h-1.18a55.91,55.91,0,0,0,10.31,31.71A40.71,40.71,0,0,0,313,251.42a21.51,21.51,0,0,0,8.15,2.82c2.8.32,5.57.52,8.34.8,11,1,22.08,3.11,31.88,8.16a49,49,0,0,1,22.39,23.11l.25.52.61.08a140.32,140.32,0,0,1,20,4.67q9.86,3,19.45,6.89a240.85,240.85,0,0,1,25.59,12.22,25.92,25.92,0,0,1,3.82-3.61A70.82,70.82,0,0,1,460.55,304.41Z"/><path class="cls-25" d="M313.66,250.24a39.42,39.42,0,0,1-12-11.16,54.73,54.73,0,0,1-10.28-31h-.89a53.48,53.48,0,0,0,7.83,33.39A41.41,41.41,0,0,0,311,254.85c.39.24.78.48,1.19.71Z"/><path class="cls-15" d="M338.08,254.56c-2.82-.41-5.65-.73-8.47-1l-8.31-.75a20,20,0,0,1-7.64-2.6l-1.43,5.32a28.57,28.57,0,0,0,3.28,1.62,21.57,21.57,0,0,0,2.62.89,23.75,23.75,0,0,0,2.5.56c3,.48,5.68.88,8.4,1.24,2.47.32,4.91.7,7.3,1.16Z"/><path class="cls-25" d="M336.33,261a77.67,77.67,0,0,1,22.28,7.55,44,44,0,0,1,11.32,8.77,48.46,48.46,0,0,1,7.82,11.82l1.78,3.73,4.32.62c2.71.39,6.17,1.12,9.28,1.88s6.37,1.67,9.54,2.65c6.32,2,12.62,4.18,18.83,6.65s12.31,5.24,18.29,8.26,12,6.12,17.75,9.54l1.76,1.05,1.68,0a29.1,29.1,0,0,1,3.61.39,38,38,0,0,1,3.81.83,32.06,32.06,0,0,1,6.92,2.77l4.27,2.3,3-2.36a17.45,17.45,0,0,1,1.75-1.11c.68-.39,1.39-.78,2.12-1.14a48.12,48.12,0,0,1,4.52-2,51.77,51.77,0,0,1,29.74-1.86A63.9,63.9,0,0,1,540,329.69c6.33,3.87,12.6,7.85,18.87,11.93l.57-.68q-8.55-7.19-17.52-13.84a65.67,65.67,0,0,0-19.81-10.39,54.72,54.72,0,0,0-22.28-2.23,53.77,53.77,0,0,0-21,6.68,36.34,36.34,0,0,0-8.22-3.7,43.83,43.83,0,0,0-9.05-1.79,248.85,248.85,0,0,0-36.8-19,198,198,0,0,0-19.62-7,142.94,142.94,0,0,0-19.94-4.54,50.36,50.36,0,0,0-23.13-23.4,78.08,78.08,0,0,0-24-7.15Z"/><path class="cls-15" d="M607.76,362.07a29.58,29.58,0,0,0-6.6,2,33.21,33.21,0,0,1-7.22,1.69,25,25,0,0,1-7.87-.17,24.3,24.3,0,0,1-7.55-3.11,56.23,56.23,0,0,1-10.83-9.73,77.6,77.6,0,0,1-8.64-11.31l.29-.34c3.59,3,7.12,6,10.65,9a97,97,0,0,0,10.89,8.6,21.47,21.47,0,0,0,6.21,2.81,27.34,27.34,0,0,0,6.83.72,47.17,47.17,0,0,0,6.91-.52,19,19,0,0,1,7-.11Z"/><path class="cls-15" d="M657.19,394.61c.11-1.2-1-1.95-1.84-2.69a23.68,23.68,0,0,0-3.12-1.88c-2.14-1.2-4.38-2.27-6.6-3.38q-6.72-3.27-13.39-6.86a99.22,99.22,0,0,1-12.89-8.24,68.74,68.74,0,0,1-5.71-5.16,20.92,20.92,0,0,0-5.87-4.4l.07-.29a18.81,18.81,0,0,1,6.73,3.45c2,1.54,3.91,3.15,6,4.49,4.2,2.74,8.63,5.15,13,7.57s8.82,4.85,13.15,7.43c2.16,1.3,4.31,2.63,6.35,4.13a22.51,22.51,0,0,1,2.89,2.46c.8.88,1.87,2.06,1.43,3.45Z"/><path class="cls-15" d="M506.08,356.46c6.47,1.56,12.79,3.42,19.22,5,6.36,1.77,12.71,3.51,19.09,5.16s12.8,3.56,19.14,5.56,12.56,4.43,18.76,6.8c12.35,4.93,24.18,10.2,36.63,13.14a145.79,145.79,0,0,0,19.2,3.08,93.39,93.39,0,0,0,9.72.79,41.06,41.06,0,0,0,4.84-.19,9.13,9.13,0,0,0,4.46-1.22l.39.22c-1.34,1.35-3,1.6-4.64,2a41.47,41.47,0,0,1-4.94.64,91.4,91.4,0,0,1-9.93.08,145.15,145.15,0,0,1-19.73-2c-13.1-2.33-25.34-7.65-37.62-12.4s-24.7-9.3-37.32-13.19-25.1-8.24-37.43-13Z"/><path class="cls-21" d="M332.39,336.94l.79.56A114.76,114.76,0,0,0,349.05,347a139,139,0,0,0,34.7,12,149.06,149.06,0,0,0,38.46,2.45l-4.12-7.05a148.7,148.7,0,0,1-32.57-3.51A135.93,135.93,0,0,1,353,339.14a137.36,137.36,0,0,1-14.85-8.84c-4.8-3.2-9.1-7-13.73-10.63-1.31-1-2.65-2-4-3Z"/><path class="cls-21" d="M425.25,361.14a166.2,166.2,0,0,0,28.87-5l.87.31c.9.3,1.79.56,2.68.77a40,40,0,0,0,5.33,1,49.12,49.12,0,0,0,10.5,0,63.36,63.36,0,0,0,19-5.08c2.09.77,4.12,1.42,6.21,2,2.39.7,4.78,1.35,7.17,2l.32-.83c-4.57-1.79-9.16-3.61-13.55-5.73l-.18-.09-.19.07A66.14,66.14,0,0,1,473.38,354a47.85,47.85,0,0,1-9.57-.65,31.46,31.46,0,0,1-9-2.85l-.21-.11-.2,0c-3.38.71-6.79,1.32-10.2,1.84Z"/><path class="cls-18" d="M284.31,287.79c1.61,2.06,3,4.52,4.68,6.64a50.91,50.91,0,0,0,5.89,6.56A70.41,70.41,0,0,0,306,309.1l5.24-6.4a69.38,69.38,0,0,1-11.05-7.42,44.06,44.06,0,0,1-5.2-5.43c-.8-1-1.63-2.05-2.41-3.1l-1.32-1.82c-.49-.67-1-1.31-1.54-1.91Z"/><path class="cls-25" d="M289.7,283c-.08-.1-.17-.19-.26-.29-5.06-5.43-10.77-8.41-16.27-11.09s-11.14-4.58-16.62-6.58-10.92-3.88-16.28-5.88a114.48,114.48,0,0,1-15.42-7.06c-4.81-2.83-9.43-6.2-12.62-11l-.78.42c2.67,5.28,7.09,9.46,11.83,12.83A101.46,101.46,0,0,0,238.49,263c10.51,5,21.47,9,31.71,14.33,5.06,2.71,10.08,5.76,13.77,10.07.11.15.23.29.34.43Z"/><path class="cls-25" d="M306,309.1l3.22,2A161,161,0,0,1,323.44,321c4.52,3.55,8.9,7.49,13.75,10.75a120.93,120.93,0,0,0,15.05,9,137.9,137.9,0,0,0,32.95,11.63c22.8,5,46.56,4.16,69.24-.65a33,33,0,0,0,9.2,2.84,48.52,48.52,0,0,0,9.78.6,66.61,66.61,0,0,0,19-3.63c4.43,2.09,8.94,3.86,13.47,5.61l.32-.83-6.54-3.47c-2.13-1.19-4.34-2.39-6.33-3.59l-.55-.33-1,.22A69.63,69.63,0,0,1,473.28,351a47.45,47.45,0,0,1-8.84-1.27,35.83,35.83,0,0,1-4.12-1.25c-.66-.25-1.29-.52-1.9-.81a9.92,9.92,0,0,1-1.47-.81l-1-.91-2.42.35c-22.43,3.26-45.12,3.18-66.53-2.09a136.06,136.06,0,0,1-30.75-11.34,158.35,158.35,0,0,1-14-8.36c-2.24-1.53-4.45-3.14-6.56-4.8s-4.52-3.71-6.93-5.52a137.86,137.86,0,0,0-15.12-10.12l-2.35-1.37Z"/><g class="cls-16"><path class="cls-17" d="M505.77,356.67a8.28,8.28,0,0,1,1.2-8.29,16,16,0,0,1,7.34-4.67c5.21-1.8,10.31-2.15,15.27-2.52,5-.2,9.83-.28,14.7-.21l14.84.09.13.42c-9.53,3-19.57,3.51-29.43,4.12a91.22,91.22,0,0,0-14.7,1.5,14.58,14.58,0,0,0-6.54,3,7.89,7.89,0,0,0-2.36,6.55Z"/></g><path class="cls-15" d="M505.85,356.66a8.33,8.33,0,0,1,2.41-6.9,15,15,0,0,1,6.74-3.19,90.94,90.94,0,0,1,14.78-1.7c9.87-.49,19.86-.89,29.36-3.73l.09.28a43.71,43.71,0,0,1-7,3c-2.42.72-4.9,1.28-7.37,1.79a111.69,111.69,0,0,1-14.9,1.65c-4.92.26-9.82.37-14.41,1a15.31,15.31,0,0,0-6.21,2.06c-1.84,1.08-2.8,3.26-3.19,5.75Z"/><g class="cls-16"><path class="cls-26" d="M294,282.27c1.54-2.91,3.25-5.51,4.94-8.08s3.39-5.06,5-7.61,3.22-5.06,4.81-7.64l4.75-8.08.28.06a53,53,0,0,1-7.37,17.27,81.36,81.36,0,0,1-12.21,14.3Z"/></g><path class="cls-15" d="M294.05,282.3a81.51,81.51,0,0,0,12-14.39,53,53,0,0,0,7.55-17l.22,0c.06,6.49-2.45,12.8-5.91,18.19a42.08,42.08,0,0,1-13.66,13.35Z"/><g class="cls-16"><path class="cls-17" d="M311.22,302.17a105.16,105.16,0,0,0,16.62-21.64,81.35,81.35,0,0,0,9.83-25.37l.3.05a45.88,45.88,0,0,1-.43,7,68.06,68.06,0,0,1-1.58,6.86A57.78,57.78,0,0,1,330.39,282a60.18,60.18,0,0,1-19,20.37Z"/></g><path class="cls-15" d="M311.24,302.2c1.32-1.92,2.75-3.69,4-5.59s2.69-3.66,3.93-5.54a134.37,134.37,0,0,0,7.19-11.39,106.6,106.6,0,0,0,6.21-11.9c1-2,1.85-4.1,2.65-6.22s1.63-4.24,2.48-6.4l.22.05a81.43,81.43,0,0,1-9.65,25.58,105.23,105.23,0,0,1-16.88,21.57Z"/><path class="cls-21" d="M139.46,121.76a65.14,65.14,0,0,1,8.35-6.13l-4.25-1.57a52.62,52.62,0,0,0-5.68,4s0-.09,0-.13a22.44,22.44,0,0,0-.75-6.64l-1.93-.92a35.83,35.83,0,0,1-4,15.94,28.28,28.28,0,0,1-5.81,7.63c-.43.4-.88.79-1.34,1.17l2.12,2.41c.55-.3,1.09-.63,1.61-1a22.61,22.61,0,0,0,4.16-3.6,28.36,28.36,0,0,0,3.16-4.54,25.53,25.53,0,0,0,1.53-3.72l2,3-1.62,1-1.49.93-.27,1.87a24.64,24.64,0,0,1-1.08,4.74q-.08.19-.15.36l-1.71.6a23.58,23.58,0,0,0-4.3,2l3.21,3.26a26.08,26.08,0,0,1,2.61-1.09,26.43,26.43,0,0,0,2.73-1.07,4.72,4.72,0,0,0,1.71-2.6,28.2,28.2,0,0,0,1.2-5.49l4.7-3,.35-.22-.24-.33Z"/><path class="cls-21" d="M155.21,167.89c1.5.38,3,.73,4.57,1a28.31,28.31,0,0,0,8.62.55,13,13,0,0,0,4.45-1.27,8.15,8.15,0,0,0,2-1.46l.72-.83.62-.8c1.67-2.13,3.24-4.34,4.83-6.55l-.33-.3-5.49,5.94a8.34,8.34,0,0,1-6.9,3.17c-5.33.06-10.55-1.69-15.61-3.4l-1.68-.6Z"/><path class="cls-20" d="M144.19,117.37a58.31,58.31,0,0,0-5.33,4.21l.2.22c1.86-.9,3.53-1.91,5.37-2.71l1.67-.81Z"/><path class="cls-27" d="M146.1,118.28l3.62-1.77c1.78-.8,3.51-1.67,5.29-2.44s3.56-1.64,5.27-2.29l.86-.33.47-.83c.52-.94,1.08-1.87,1.67-2.75l-2.73-1.11c-.52.76-1,1.54-1.46,2.33a87.58,87.58,0,0,0-10.55,5.44c-1.48.9-2.94,1.84-4.35,2.84Z"/><path class="cls-20" d="M163.28,107.87c.47-.7,1-1.38,1.5-2a30.14,30.14,0,0,1,3.84-4.15,23.74,23.74,0,0,1,10.47-5.21l0-.29a19,19,0,0,0-11.84,3.6,26.88,26.88,0,0,0-6.73,7Z"/><path class="cls-28" d="M143.85,128.81l-2.58-3.47-2.4-3.59.18-.13a5.89,5.89,0,0,1,4,2.45,5.78,5.78,0,0,1,.95,4.61Z"/><path class="cls-29" d="M196.41,101.64c3.6,1.17,7.38,3.58,9.05,7.88a12.78,12.78,0,0,1,.66,6.64,19.6,19.6,0,0,1-2.14,6,30.36,30.36,0,0,1-7.88,8.93,58,58,0,0,1-4.78,3.29,34,34,0,0,1-5.28,2.41l-.16-.25a66.6,66.6,0,0,0,8.63-7.1,38.25,38.25,0,0,0,6.88-8.71c1.82-3.17,2.9-7,1.84-10.56s-3.9-6.3-7-8.31Z"/><path class="cls-28" d="M144.54,117.26a10.93,10.93,0,0,1,4.12,3.25c1.17,1.31,2.25,2.68,3.32,4.06,2.15,2.75,4.27,5.53,6.63,8.07s5,5,8.23,6.11a8.46,8.46,0,0,0,5,.26,10.92,10.92,0,0,0,4.41-2.47c2.54-2.25,4.84-5.15,5.06-8.61s-1.25-6.78-3.41-9.44c-4.42-5.39-10.75-8.83-17.11-11.54l.12-.28a50.66,50.66,0,0,1,10,3.73,33.6,33.6,0,0,1,8.79,6.65,15.12,15.12,0,0,1,4.3,11.09,13.1,13.1,0,0,1-2,6.12,22.71,22.71,0,0,1-3.83,4.52,13.81,13.81,0,0,1-5.64,3,11.32,11.32,0,0,1-6.59-.45,22.19,22.19,0,0,1-9-7.09c-2.29-2.83-4.24-5.78-6.17-8.68-.92-1.49-1.83-3-2.82-4.37a12.22,12.22,0,0,0-3.49-3.63Z"/><path class="cls-30" d="M226.9,125.06c1.66,4.32,1.34,9.06.39,13.46a39.07,39.07,0,0,1-5.57,12.29l-.38-.23a33.11,33.11,0,0,1,.47-7.09c.28-2.13.79-4.06,1.17-6,.29-1,.51-1.9.73-2.86s.47-1.91.82-2.89c.54-2,1.2-4,2-6.51Z"/><path class="cls-31" d="M139.08,131.87l.91-.64c1.19,1.93,2.57,3.88,3.92,5.79l4.18,5.71-5-5c-1.37-1.41-2.72-2.79-4.05-4.28Z"/><path class="cls-10" d="M164.44,108.14a7.35,7.35,0,0,1,5.94-2.69c2.21-.08,4,1.35,5.67,2.39a24.13,24.13,0,0,1,4.56,3.67,27.15,27.15,0,0,1,3.53,4.49l-.43.4a40.46,40.46,0,0,0-4.8-2.48,37.3,37.3,0,0,0-4.83-1.78c-1.62-.46-3.3-.19-4.66-.86-.71-.29-1.42-.64-2.21-1s-1.56-.85-2.67-1.5Z"/><g class="cls-16"><path class="cls-32" d="M190.51,137.15a8.21,8.21,0,0,1,4.88-.52,7.25,7.25,0,0,1,2.71,1.28,6.48,6.48,0,0,1,2,2.88,9.09,9.09,0,0,1-.29,6.37,15.33,15.33,0,0,1-3,4.51c-2.52,2.33-5.67,4.43-10.13,4a7,7,0,0,1-3.17-1.26,6.22,6.22,0,0,1-2-2.52,6.77,6.77,0,0,1,.07-5l.44-.06a8.36,8.36,0,0,0,1.43,3.7,4,4,0,0,0,3.27,1.66c2.62,0,5.05-1.66,6.9-3.54s3.48-4.41,3-7a4.33,4.33,0,0,0-2.4-2.83,11.92,11.92,0,0,0-3.85-1.19Z"/></g><path class="cls-28" d="M160.61,142.59a7.7,7.7,0,0,1-.68,3.52,8.81,8.81,0,0,1-1.69,2.54,9.15,9.15,0,0,1-2.48,1.77,7.75,7.75,0,0,1-3.49.8l-.22-.21,4.07-4.41,4.27-4.22Z"/><path class="cls-28" d="M138.33,136.4a3.48,3.48,0,0,0,1.38,1.91,8.25,8.25,0,0,0,2,1.45l-.13.27a3.57,3.57,0,0,1-2.17,1.05,2.4,2.4,0,0,1-1.68-.56,3.08,3.08,0,0,1-.61-.83Z"/><path class="cls-20" d="M138.26,136.4a3.6,3.6,0,0,0,.72.35,3.26,3.26,0,0,0,.54.25c.34.15.54.38.87.54s.49.49.69.87a4.78,4.78,0,0,1,.61,1.42l-.06.13a9.11,9.11,0,0,1-2.22-1.32,3.73,3.73,0,0,1-1.3-2.23Z"/><g class="cls-16"><path class="cls-26" d="M284.72,287.23a27,27,0,0,1,1.61-2.52c.29-.43.51-.79.87-1.27a7.61,7.61,0,0,1,1.13-1.25,8.52,8.52,0,0,1,10.41-.18l.75.62.54.48,1.1,1,4.21,4,4,4.23,2,2.29a8.52,8.52,0,0,1,1.05,1.6,8.4,8.4,0,0,1,.64,1.8,8.64,8.64,0,0,1-1.3,7,9.47,9.47,0,0,1-2.49,2.13,26.92,26.92,0,0,1-2.53,1.58l-.21-.21c1.3-1.43,2.93-2.63,3.87-4.27a6.71,6.71,0,0,0,.48-5.47c-.55-1.85-2.13-3.07-3.49-4.46l-4.14-4.1-4.1-4.15c-.68-.68-1.35-1.43-2-2a6.69,6.69,0,0,0-2.48-1.29,6.84,6.84,0,0,0-5.45.79,47.22,47.22,0,0,0-4.24,3.93Z"/></g><path class="cls-8" d="M284.72,287.23a45.23,45.23,0,0,1,4.26-4,7.2,7.2,0,0,1,8.42.44c.78.66,1.41,1.36,2.12,2l4.15,4.1,4.09,4.16c1.31,1.37,3,2.69,3.54,4.68a7.19,7.19,0,0,1-.57,5.79,10,10,0,0,1-1.91,2.26l-2.08,2-.21-.21c.88-1.76,2.48-3.35,2.84-4.85a5.3,5.3,0,0,0-.24-4.31,4.43,4.43,0,0,0-.57-.84,7.49,7.49,0,0,0-.68-.74l-2.09-1.86-4.22-4-4-4.22-1.78-2a5.91,5.91,0,0,0-1.65-1.11,5.75,5.75,0,0,0-4.3,0c-1.52.56-3.11,2.05-4.89,2.93Z"/><g class="cls-16"><path class="cls-17" d="M243.7,126.61c-.83,1.7-2.71,2.38-4.36,2.73a21.51,21.51,0,0,1-5.11.37,41,41,0,0,1-9.69-2l-2.32-.79c-.83-.34-1.63-.71-2.38-1.09a44.27,44.27,0,0,1-4.41-2.53,75.51,75.51,0,0,1-7.65-6.1c-4.66-4.37-8.79-8.86-13.14-12.78s-9.13-7.09-15.51-7.85l0-.44c6.34-.84,12.61,1.79,17.6,5.47s9.48,8.17,14.09,12.33,9.37,8.24,15.14,10.56a48.28,48.28,0,0,0,8.79,2.94,19,19,0,0,0,4.57.46c1.47-.06,3.16-.39,4-1.49Z"/></g><path class="cls-20" d="M139,131.8q2.37-1.67,4.86-3.12l.08.13a3.89,3.89,0,0,1-.69,1.59,7.83,7.83,0,0,1-1.06,1,7.1,7.1,0,0,1-1.37.54,3.81,3.81,0,0,1-1.74,0Z"/><path class="cls-20" d="M181,158.5l-5.45,6a8.47,8.47,0,0,1-3.18,2.55,11.29,11.29,0,0,1-4,.81c-5.48.09-10.72-1.64-15.82-3.33s-10.1-3.78-15.17-5.58a25.89,25.89,0,0,1-7.31-3.54c-2.14-1.61-4.17-4-4.06-6.9v0a6.59,6.59,0,0,1,2.49-5.16,16.59,16.59,0,0,1,5.12-2.67,26,26,0,0,0,2.65-1,4.23,4.23,0,0,0,1.45-2.26,28.48,28.48,0,0,0,1.24-5.56l.3,0a23,23,0,0,1-.59,5.86,4.93,4.93,0,0,1-1.76,3.07,28.16,28.16,0,0,1-2.74,1.38,14.61,14.61,0,0,0-4.39,2.67,4.31,4.31,0,0,0-1.41,3.64l0,.31h-.05a8.78,8.78,0,0,0,.31,1,5.8,5.8,0,0,0,.67,1.24,9.44,9.44,0,0,0,2.31,2.22,23.62,23.62,0,0,0,6.66,3c5.3,1.61,10.13,3.94,15.13,5.73,2.48.93,5,1.74,7.47,2.47a29.33,29.33,0,0,0,7.4,1.47,9.86,9.86,0,0,0,3.43-.41,9.67,9.67,0,0,0,1.41-.64l.73-.57.76-.67c2-1.79,4-3.61,6.16-5.32Z"/><path class="cls-33" d="M190.5,137.22a12.51,12.51,0,0,1,4,1.09,4.85,4.85,0,0,1,2.73,3.15c.59,2.95-1.18,5.63-3,7.62s-4.53,3.59-7.45,3.61a4.51,4.51,0,0,1-3.67-1.95,9,9,0,0,1-1.38-4l.29,0a9.93,9.93,0,0,0,2.35,3.07,2.81,2.81,0,0,0,2.46.55,11.59,11.59,0,0,0,5.29-3.36c1.62-1.55,2.84-3.63,2.88-5a2.93,2.93,0,0,0-1.18-2.3,17,17,0,0,0-3.36-2.19Z"/><g class="cls-16"><path class="cls-17" d="M216.3,160.77a23,23,0,0,1,9-17,25,25,0,0,1,9.7-4,33.85,33.85,0,0,1,10.39-.09,45.48,45.48,0,0,1,18.75,7.57,49.94,49.94,0,0,1,14,14.64L274,159.37a44.85,44.85,0,0,1,4.76.71c1.48.3,2.93.63,4.36,1a67.67,67.67,0,0,1,8.38,2.7,97.87,97.87,0,0,1,15.62,7.56,106.07,106.07,0,0,1,14,9.85,111.18,111.18,0,0,1,12.19,11.87l-.37.46a156.51,156.51,0,0,0-27.9-18.15,121.16,121.16,0,0,0-15.33-6.44,74.73,74.73,0,0,0-16.1-3.72l-.3,0-.15-.24a48,48,0,0,0-12.32-13.16,42.91,42.91,0,0,0-16.39-7.46c-5.87-1.21-12.29-.87-17.52,2.19s-8.63,8.57-10.11,14.42Z"/></g><path class="cls-25" d="M216.3,160.77c1.45-5.93,4.83-11.74,10.3-14.9s12.05-3.63,18.08-2.44a44,44,0,0,1,16.83,7.49,47.26,47.26,0,0,1,12.68,13.41l-.46-.27A74.92,74.92,0,0,1,290.09,168a121.1,121.1,0,0,1,15.4,6.63,157.53,157.53,0,0,1,27.87,18.46l-.37.46c-5-2.67-9.72-5.55-14.72-7.92-4.9-2.53-9.86-4.82-14.83-7a160.32,160.32,0,0,0-15.11-5.51c-2.56-.73-5.1-1.42-7.64-2-1.27-.29-2.55-.55-3.8-.77s-2.64-.39-3.51-.44l-2.64-.16-1.52-2.32a45.43,45.43,0,0,0-11-11.92,42.12,42.12,0,0,0-14.46-7.38,26.9,26.9,0,0,0-7.88-1,18.56,18.56,0,0,0-7.63,1.57,17.78,17.78,0,0,0-6.62,4.75,22.74,22.74,0,0,0-2.56,3.53,28.94,28.94,0,0,0-2.18,4Z"/><g class="cls-16"><path class="cls-17" d="M325.39,174.85c.89-.5,1.63-.11,2.32,0s1.36.43,2,.68c1.31.5,2.6,1.07,3.87,1.64,2.53,1.21,5,2.49,7.46,3.79l7.34,3.95c2.48,1.35,4.9,2.83,7.26,4.32,9.31,6.22,18.17,12.89,27.06,19.52q6.67,5,13.17,10.08c4.32,3.35,8.75,6.87,13,9.8,2,1.3,4.65,3,6.92,4.67s4.65,3.48,6.9,5.43a62,62,0,0,1,6.39,6.46,59.5,59.5,0,0,1,5.25,7.5,26.43,26.43,0,0,1,2.19,4.67,11.5,11.5,0,0,1,.28,7.47,9.23,9.23,0,0,1-2.65,3.93,11.38,11.38,0,0,1-3.19,2,20.87,20.87,0,0,1-5.36,1.34,54.8,54.8,0,0,1-9.15.26c-2.83-.2-6-.05-10-1.75a14.61,14.61,0,0,1-4.95-3.71,27.69,27.69,0,0,1-2.92-4.12c-1.56-2.65-2.78-5.17-4-7.69l-3.47-7.18a4.08,4.08,0,0,0-.47-.7c-.17-.2-.28-.26-.28-.32a8.08,8.08,0,0,0-1.29-.34L387,246a164.24,164.24,0,0,1-31.63-12q-7.45-3.93-14.51-8.46a121.78,121.78,0,0,1-13.51-9.85l.35-.48a183.44,183.44,0,0,0,28.94,15.95,163.61,163.61,0,0,0,31.34,10.38c1.37.32,2.64.47,4.11.9a7.16,7.16,0,0,1,3.27,2.9c1.38,2.47,2.55,4.93,3.84,7.38s2.54,4.9,4,7.22,3.1,4.55,5.53,5.57,5.23,1.06,8,1.17a50.58,50.58,0,0,0,8.18-.29,15,15,0,0,0,3.87-1,4.28,4.28,0,0,0,2.59-2.43c.67-2.34-.77-5-2-7.31-5.33-9.7-14.43-16.4-23.59-22.48-8.87-6.68-17.23-13.89-25.81-20.86s-17.11-14-26-20.55c-4.41-3.31-9.11-6.2-13.79-9.14-2.35-1.45-4.71-2.89-7.1-4.26-1.2-.68-2.4-1.34-3.63-2-.62-.3-1.24-.58-1.87-.82s-1.37-.48-1.73-.24Z"/></g><path class="cls-21" d="M432.09,263a4.83,4.83,0,0,1-2.67,2.91,14,14,0,0,1-3.78,1.12,43.5,43.5,0,0,1-7.81.44,38.18,38.18,0,0,1-7.81-.68,10.85,10.85,0,0,1-6.34-4.58c-3-4.32-5.17-9.06-7.59-13.64a25.31,25.31,0,0,0-1.85-3.34,5.51,5.51,0,0,0-2.85-2.13c-2.47-.52-5.08-1-7.59-1.67a168.35,168.35,0,0,1-29.33-10.52,181.73,181.73,0,0,1-27.11-15.33l.25-.36c4.72,2.25,9.33,4.59,14.11,6.56s9.45,4.07,14.2,6a227.62,227.62,0,0,0,28.95,9.38l3.67.9,1.82.41,1,.2c.36.08.48.08,1.23.29a9.72,9.72,0,0,1,5.1,3.75,23.51,23.51,0,0,1,2.17,4c2.18,4.66,4.36,9.54,6.68,13.48a7.93,7.93,0,0,0,4.26,3.73,34.82,34.82,0,0,0,7.11,1.25,44.52,44.52,0,0,0,7.53.45A13.54,13.54,0,0,0,429,265a4.07,4.07,0,0,0,2.7-2.14Z"/><path class="cls-3" d="M325.43,174.91c.89-.42,1.62,0,2.31.23s1.37.58,2,.9c1.32.65,2.61,1.36,3.89,2.08,2.55,1.46,5.06,3,7.55,4.52,5,3.07,10,6.21,14.66,9.75,9.43,7,18.53,14.4,27.63,21.79l13.59,11.17c2.27,1.85,4.55,3.7,6.86,5.48s4.78,3.34,7.17,5.06a74.76,74.76,0,0,1,13.31,11.55,51.82,51.82,0,0,1,5.15,7.17,27.21,27.21,0,0,1,2,4,7.41,7.41,0,0,1,.51,4.44l-.43-.12a6.71,6.71,0,0,0-1-3.95,26.73,26.73,0,0,0-2.3-3.57,48.23,48.23,0,0,0-5.65-6.39,74.15,74.15,0,0,0-13.52-10.28l-3.72-2.22c-1.31-.76-2.64-1.72-3.83-2.57-2.44-1.75-4.79-3.53-7.13-5.32-4.66-3.61-9.19-7.33-13.77-11l-26.88-22.45c-2.22-1.86-4.48-3.7-6.74-5.4l-7.1-5.13c-2.33-1.78-4.67-3.54-7.05-5.23-1.19-.84-2.4-1.66-3.61-2.44-.61-.4-1.22-.79-1.84-1.13s-1.33-.72-1.81-.54Z"/><path class="cls-3" d="M327.37,215.32A23,23,0,0,0,332.32,200a43.34,43.34,0,0,0-3.62-16v0a27.23,27.23,0,0,0-1.88-4.34c-.35-.72-.72-1.43-1.05-2.16a9.06,9.06,0,0,1-.43-1.13,1.31,1.31,0,0,1,.12-1.3l.19.23c-.1.55.55,1.21,1,1.81l1.49,1.89a20.15,20.15,0,0,1,2.68,4.37l-.11-.29a32.87,32.87,0,0,1,4.47,16.94,23.6,23.6,0,0,1-1.95,8.78,16.31,16.31,0,0,1-5.59,6.8Z"/><path class="cls-34" d="M208.25,134.59c-4.62-5.75-9.81-18-15.53-21.85s-11.82-6.18-15.87-10.49c-.26-.38-.53-.77-.83-1.19-3-4.1-7.56-9.35-4.91-9.48.91-.06,2.79,1.1,4,.61a21,21,0,0,0,4.09-2.71,30.23,30.23,0,0,1,7.17-4.15c8.44-3.3,24.26-1.71,42.25,14.37.86.77,1.66,1.56,2.41,2.38,14.85,15.87,7.71,37.1,1.27,44.41C228,153.66,212.86,140.36,208.25,134.59Z"/><path class="cls-35" d="M220.19,145.13c1.25.35,1.87.53,3.08.9,0,.26,0,.39,0,.66l.45.12V147a.46.46,0,0,0,.34.39c1.1.34,1.64.5,2.7.85v.09l.39.08v-.05l.32.1a5.17,5.17,0,0,0,3.09-.38l-.1,0c0-.24,0-.36,0-.6l-.43-.16v-.19a.43.43,0,0,0-.3-.4c-1-.38-1.54-.57-2.6-.93,0-1.06,0-1.58,0-2.64l.67.25c0-.17,0-.25,0-.41l.21.09a.23.23,0,0,0,.33-.17c0-1,0-1.48.09-2.47,1.18.46,1.75.69,2.89,1.16,0,.24,0,.36,0,.61l.42.17,0,.21a.47.47,0,0,0,.27.39c.91.38,1.41.6,2.21.95.4-.63.8-1.31,1.19-2l-.38-.18c.11-1.12.18-1.69.34-2.81.25.11.38.16.62.28l0-.39.19.08c.16.07.32,0,.34-.14.15-.95.23-1.42.42-2.37l.68.33c0-.11.07-.22.1-.33l-.7-.33c.09-.43.13-.64.23-1.07s.17-.77.3-1.28a.36.36,0,0,0-.21-.41l-.21-.1c0-.15.07-.23.11-.39l-.64-.3c.25-1,.39-1.48.69-2.45l1.85.88c.15-.85.27-1.71.37-2.58l-1.41-.67c.4-1,.61-1.57,1.06-2.58l.56.26a34.31,34.31,0,0,0-.2-4.94s0,0,0,.07c-.21.35-.31.53-.5.89l-3.16-1.49.27-.5-.49-.23.07-.16a.32.32,0,0,0-.21-.4l-2.93-1.36c.42-.85.64-1.26,1.1-2l.78.35c.06-.12.1-.18.17-.3l.25.12a.45.45,0,0,0,.5,0,10.45,10.45,0,0,0,1-1.69l2,1.15-.09-.34-1.86-1a11,11,0,0,1,.77-1.44c0-.09,0-.24-.22-.33l-.21-.11c.06-.09.08-.14.14-.22l-.68-.38.41-.62c-.07-.15-.14-.31-.22-.46a9.51,9.51,0,0,0-.6.86l-.68-.38c-.06.08-.08.13-.14.22l-.23-.13c-.18-.1-.36-.11-.42,0a9.05,9.05,0,0,1-.85,1.47l-3.42-1.6.3-.41-.52-.25a.91.91,0,0,1,.08-.13c.1-.09,0-.26-.22-.35l-3.17-1.46a16.6,16.6,0,0,1,1.42-1.82l.83.38L229,106l.27.13c.22.1.42.13.46.05a7.65,7.65,0,0,1,.8-1.13c1.27.71,1.91,1.06,3.18,1.75l-.24.27.47.26-.08.09c-.06.06,0,.21.21.31.7.38,1.19.65,1.73.93-.38-.68-.79-1.35-1.23-2l-.46-.25-.26.25c-1.27-.68-1.91-1-3.18-1.73.16-.19.25-.28.42-.46s.32-.31.55-.51c.09,0,0-.18-.23-.29l-.23-.12.18-.14-.75-.41c.27-.22.49-.37.71-.53l-.31-.33c-.28.19-.52.36-.85.62l-.75-.4-.17.14-.25-.14a.6.6,0,0,0-.47-.09,5.9,5.9,0,0,0-.5.5c-.16.18-.24.27-.38.45a38,38,0,0,0-3.38-1.76l.34-.28-.55-.26.09-.09c.11-.06,0-.2-.22-.3-1.52-.7-2.27-1-3.79-1.7-1.33-.58-2-.87-3.32-1.42a1.23,1.23,0,0,0-.36-.06.36.36,0,0,0-.18.07l-.11.1-.55-.22-.32.34c-1.44-.57-2.16-.84-3.6-1.35.22-.27.33-.4.56-.65s.41-.44.69-.71c.08-.08,0-.2-.26-.29l-.23-.1.19-.19-.82-.32a7.22,7.22,0,0,1,1.44-1c1.28.46,2,.74,3.28,1.32a1,1,0,0,0,.57.09l.12-.06.56.25a.77.77,0,0,0,.23-.19L221.3,96a6.13,6.13,0,0,0-.86.73c-.08.06,0,.19.25.28l.23.13a1,1,0,0,1-.18.14c.33.16.5.23.79.39-.33.35-.82.58-1.37,1.08l.48.2c.56-.49,1-.7,1.33-1l.73.4.15-.13.21.12c.21.11.41.15.46.1a7,7,0,0,1,1-.72l3.43,1.79-.28.17.51.27-.09.06c-.07.05.05.17.25.28l2,1.06c-.55-.55-1.11-1.09-1.71-1.63l-.42-.36-.1.06-3.46-1.8a9.62,9.62,0,0,1,.91-.51c-.66-.54-1.32-1-2-1.54l-.15-.08-.2.09-.26-.13a.7.7,0,0,0-.47-.11,8.77,8.77,0,0,0-1.05.61l-3.25-1.66.2-.18-.48-.23.08,0s-.07-.16-.26-.26c-1.17-.58-1.68-.87-3-1.4a11.07,11.07,0,0,0,1.22-.77l.72.35.18-.1.24.12a.68.68,0,0,0,.45.1l.41-.2c-.93-.58-1.85-1.14-2.75-1.64a6.66,6.66,0,0,0-.67.37c-.06,0,0,.15.22.23l.24.12-.17.1.7.34a11.15,11.15,0,0,1-1.27.79c-1.27-.51-1.89-.74-3.11-1.15a.78.78,0,0,0-.54,0l-.12.07-.5-.16-.37.23c-1.33-.4-2-.57-3.27-.88.56-.43.85-.64,1.42-1,.09-.06,0-.15-.16-.2l-.24-.07.24-.16-.74-.19c.68-.48,1-.7,1.69-1.13a18.68,18.68,0,0,1,2.78,1,.68.68,0,0,0,.42.06l.08-.06.45.21h0a49,49,0,0,0-8.31-3.2c-.46-.1-.91-.18-1.51-.29l.08-.06c-.89-.21-1.77-.39-2.62-.53l-.21.16c-1.15-.15-1.72-.21-2.86-.31l.25-.21a27.28,27.28,0,0,0-7.42.33h.2l-.12.11c-.09.08,0,.15.12.16l2.51.09-1.73,1.56-.62,0-.25.23h-.21a.85.85,0,0,0-.47.15c-.58.56-.88.84-1.45,1.43L185,88c.14-.15.21-.23.36-.37h-.42l.11-.11c.11-.1.05-.18-.11-.18l-2.47,0,.06-.07c-.91.54-1.7,1.09-2.44,1.62h.48c-.61.66-.91,1-1.51,1.7l-.62,0-.24.28H178a.61.61,0,0,0-.45.18l-.77,1-.61.8-2.74-.09.31-.41-.26,0h-.12l0,0c-.46-.12-.92-.28-1.33-.4l-1.21-.07,0-.05c-.73.17-.65.92-.09,2l1.16,0a.51.51,0,0,0,.43-.2l.11-.15.42,0,.33-.46c1.09,0,1.64.06,2.73.09-.53.72-.79,1.1-1.29,1.86-.09.11,0,.22.15.23H175l-.19.31.61,0c-.59.92-.88,1.39-1.43,2.37h-.42l1.69,2.25h.37a.48.48,0,0,0,.43-.25l.09-.18h.41c.11-.22.16-.32.28-.54h2.7c-.45.85-.66,1.28-1.06,2.16-.08.14,0,.25.17.24l.19,0-.15.35h.62c-.35.79-.55,1.27-.82,2l.28.22c.32-.83.53-1.33.91-2.2h.63c.06-.15.1-.22.17-.37h.19a.52.52,0,0,0,.41-.27c.41-.88.63-1.31,1.08-2.15L185,99l-.27.54h.43l-.11.17a.17.17,0,0,0,.17.25l2.61,0c-.46.9-.68,1.36-1.1,2.31h-.66l-.17.38h-.21a.49.49,0,0,0-.42.29c-.21.49-.31.75-.5,1.26s-.25.62-.41,1l-2.82,0,.2-.6-.41,0a1.27,1.27,0,0,0,.06-.18c.07-.17,0-.29-.19-.28l-2.13,0q1.08.86,2.25,1.62c0-.08,0-.16.09-.27l2.83,0a18,18,0,0,0-.57,1.78c.72.43,1.46.85,2.21,1.28l0-.18h.23a.36.36,0,0,0,.41-.28c.22-1,.34-1.54.59-2.55,1.29.09,1.95.14,3.28.28-.06.25-.1.38-.16.64l.51,0a1.8,1.8,0,0,0-.06.22.31.31,0,0,0,.29.35c1.21.14,1.83.21,3.07.39-.3,1.21-.44,1.83-.69,3.07l-.76-.11c0,.17-.06.26-.09.43l-.26,0a.37.37,0,0,0-.41.27c-.06.35-.11.63-.16.9.35.23.7.44,1,.68a14.07,14.07,0,0,1,2.27,2c1.05.17,1.76.29,3,.52-.05.27-.08.4-.13.68l.52.1c0,.08,0,.12,0,.21a.37.37,0,0,0,.32.39c1.24.24,1.87.37,3.12.64-.18,1.12-.26,1.69-.4,2.83l-.8-.15c0,.17,0,.26,0,.43l-.25,0a.34.34,0,0,0-.42.24c0,.25,0,.44-.06.63,1,1.55,1.94,3.16,2.88,4.75,0-.49.07-1,.12-1.59,1.36.31,2,.48,3.39.82,0,.27,0,.4-.06.67l.51.13v.21a.38.38,0,0,0,.31.4c1.24.32,1.85.48,3.08.83-.11,1.25-.16,1.88-.24,3.15l-.78-.19c0,.17,0,.26,0,.43l-.23-.05c-.2,0-.39.05-.39.23,0,1.08-.07,1.63-.1,2.72l-.87-.22c.12.17.24.33.37.49l.48.11c0,.19,0,.35,0,.51a40.8,40.8,0,0,0,2.91,3.22.25.25,0,0,0,.22-.23c0-1.08,0-1.61.06-2.69,1.34.36,2,.55,3.33.93,0,.26,0,.4,0,.66l.5.15c0,.08,0,.12,0,.21a.4.4,0,0,0,.32.4c1.18.34,1.76.51,2.92.87,0,1.11,0,1.66-.05,2.78l-.72-.22c0,.18,0,.26,0,.44l-.21-.06c-.21-.07-.36,0-.36.21v1.82c1,.77,2,1.51,3.05,2.18Zm14.19-10c-.18.95-.26,1.42-.4,2.37a.52.52,0,0,0,.25.43l.21.1c0,.15,0,.23-.06.39l.64.28c-.16,1.13-.23,1.7-.34,2.83-1-.45-1.48-.67-2.49-1.11a.21.21,0,0,0-.32.17v.19l-.43-.18-.05.61c-1.12-.47-1.7-.7-2.87-1.15.06-1,.1-1.5.19-2.49a.49.49,0,0,0-.31-.42l-.2-.07c0-.16,0-.24,0-.41l-.68-.28c.11-1.17.18-1.76.34-2.93l2.68,1.13c.17.07.33,0,.35-.16l0-.19.43.18.1-.6C232.67,134.36,233.25,134.62,234.38,135.15Zm2.59-5.3c-.31,1-.44,1.46-.7,2.45l-.64-.3-.1.39-.22-.11a.24.24,0,0,0-.36.15c-.13.51-.19.77-.3,1.28s-.13.65-.21,1.08c-1.13-.53-1.71-.79-2.88-1.31,0-.25.06-.37.11-.61l-.44-.2c0-.06,0-.1,0-.17a.4.4,0,0,0-.26-.43c-1.06-.47-1.61-.71-2.71-1.17.18-1,.27-1.55.49-2.57l.71.3c0-.16.06-.24.09-.4l.2.09c.2.09.37,0,.4-.13.23-1,.35-1.42.62-2.35l3.06,1.37c-.06.24-.1.36-.16.6l.44.19a1.06,1.06,0,0,0-.06.19.42.42,0,0,0,.23.43Zm-12.27-.1c0,.08,0,.13,0,.21l-.48-.19c0,.25-.06.38-.09.63-1.25-.48-1.88-.71-3.16-1.17.05-.46.08-.69.15-1.15s.13-.84.22-1.4c0-.14-.1-.33-.31-.42l-.23-.07c0-.17,0-.25.07-.42l-.74-.27c.18-1.07.28-1.61.5-2.66,1.19.45,1.78.67,3,1.14.2.07.4,0,.42-.15l.05-.2.49.2c.05-.25.08-.38.14-.62,1.28.52,1.92.79,3.18,1.33-.26.94-.37,1.42-.59,2.38a.47.47,0,0,0,.27.44l.24.1c0,.15-.05.23-.07.39l.7.3c-.22,1-.32,1.54-.5,2.58l-2.82-1.15A.24.24,0,0,0,224.7,129.75Zm9.75-9c.19.08.41,0,.46-.09l.08-.17.48.22.26-.51,3.13,1.47c-.42.81-.62,1.22-1,2.07a.32.32,0,0,0,.2.39l.23.11a3.92,3.92,0,0,0-.16.36l.7.31c-.45,1-.66,1.54-1.06,2.59l-2.7-1.25a.31.31,0,0,0-.42.11c0,.07,0,.11,0,.18l-.46-.21c-.07.23-.1.35-.17.59l-3.09-1.4c.27-.92.42-1.38.73-2.27a.36.36,0,0,0-.24-.43l-.24-.11c.06-.14.08-.22.14-.37l-.72-.32c.37-1.07.58-1.59,1-2.6Zm-3.32-1.52c-.43,1-.63,1.53-1,2.6l-.73-.32-.13.37-.24-.11a.3.3,0,0,0-.42.14c-.3.91-.44,1.37-.7,2.31-1.25-.54-1.88-.8-3.17-1.32l.15-.62-.48-.18,0-.19a.38.38,0,0,0-.27-.43c-1.18-.48-1.78-.71-3-1.17.3-1.15.46-1.71.8-2.81l.76.3.13-.38.23.11c.2.07.4,0,.44-.14.31-.91.48-1.35.82-2.22,1.35.55,2,.83,3.34,1.4-.09.22-.13.33-.21.56l.48.2-.07.18c0,.14.07.33.26.41C229.37,118.41,230,118.67,231.13,119.2Zm-13.89.16-.51-.18c0,.26-.08.39-.13.64-1.36-.47-2-.69-3.41-1.13.2-1,.31-1.52.55-2.51,0-.15-.09-.33-.29-.39l-.24-.1c0-.16,0-.24.09-.4l-.79-.25c.3-1.17.46-1.75.81-2.87,1.26.41,1.88.62,3.13,1.07.21.06.43,0,.47-.14s0-.12.07-.19l.52.19c.07-.24.11-.36.19-.59,1.38.51,2.08.78,3.45,1.32-.33.89-.48,1.35-.77,2.28-.06.14.07.33.27.4l.24.1-.1.38.76.3c-.34,1.11-.5,1.67-.8,2.82-1.2-.45-1.8-.68-3-1.11-.2-.06-.41,0-.44.16Zm11.31-8.47c.2.09.43.06.49-.06l.1-.14.52.23.29-.43,3.4,1.58a20.54,20.54,0,0,0-1.15,1.76c-.08.1,0,.27.22.38l.24.1a3.21,3.21,0,0,1-.19.31l.78.35c-.47.79-.69,1.2-1.12,2-1.19-.54-1.79-.81-3-1.34a.4.4,0,0,0-.32,0,.25.25,0,0,0-.16.1,1,1,0,0,0-.06.16l-.51-.22-.22.54c-1.33-.58-2-.86-3.35-1.43.16-.38.24-.57.41-1s.3-.69.51-1.14c.08-.14,0-.32-.25-.4l-.25-.11.16-.33-.78-.34c.42-.85.64-1.27,1.1-2.05C226.67,110,227.3,110.32,228.55,110.89Zm-3.62-1.6c-.45.79-.67,1.2-1.08,2.06l-.79-.33a3.54,3.54,0,0,1-.16.34l-.25-.09a.37.37,0,0,0-.49.09c-.2.46-.3.69-.49,1.17l-.4,1c-1.37-.54-2.06-.8-3.44-1.31.08-.23.12-.34.21-.56l-.53-.2.08-.18a.38.38,0,0,0-.29-.4c-1.26-.46-1.89-.69-3.16-1.12.35-1,.54-1.43.93-2.34l.8.29.16-.35.27.1c.19.08.41,0,.46-.11.39-.83.6-1.23,1-2,1.43.55,2.14.84,3.56,1.43-.11.18-.17.28-.27.47l.53.22-.09.15c-.08.11,0,.28.26.36C223,108.48,223.68,108.74,224.93,109.29Zm-2.35-7.54c.22.09.46.1.54,0l.12-.09.53.23.33-.31a37.16,37.16,0,0,1,3.46,1.74c-.32.41-.61.66-1.11,1.21-.08.1,0,.25.22.35l.26.1-.21.24.84.39a16.09,16.09,0,0,0-1.45,1.82c-1.28-.57-1.92-.85-3.21-1.39-.19-.09-.42-.07-.49,0l-.11.13-.52-.21-.28.45c-1.42-.59-2.13-.88-3.56-1.43a19.57,19.57,0,0,1,1.1-1.8c.06-.11-.06-.27-.27-.35l-.25-.12.17-.27-.81-.33a15.14,15.14,0,0,1,1.42-1.84C220.61,100.88,221.27,101.17,222.58,101.75ZM214,106.59c-.06.14-.1.21-.16.36l.8.28c-.39.91-.57,1.38-.92,2.35-1.27-.43-1.9-.64-3.17-1-.21-.06-.44,0-.48.15l-.07.2-.53-.16c-.07.24-.11.36-.18.61-1.4-.42-2.1-.62-3.49-1,.13-.44.2-.66.33-1.09s.27-.77.45-1.27c.05-.16-.08-.32-.27-.39l-.27-.07.12-.37-.8-.22c.36-1,.55-1.46.94-2.38,1.29.35,1.94.54,3.24.93a.36.36,0,0,0,.48-.11l.08-.18.54.18.25-.52c1.42.46,2.14.7,3.56,1.2-.41.79-.61,1.21-1,2.07-.07.12.06.29.29.38Zm-4.58-8.24a2.9,2.9,0,0,1,.19-.29l.27.09a.53.53,0,0,0,.53-.08,19.32,19.32,0,0,1,1.17-1.62c1.44.51,2.17.78,3.61,1.35l-.31.36.55.22-.1.12c-.09.08,0,.23.25.31,1.31.52,2,.78,3.29,1.33A17.46,17.46,0,0,0,217.4,102l-.83-.34-.19.29-.26-.09c-.19-.08-.44-.06-.5.06-.44.71-.65,1.08-1.06,1.87-1.43-.51-2.15-.76-3.58-1.22l.27-.5-.55-.18a1.4,1.4,0,0,0,.09-.17c.08-.11,0-.27-.28-.35-1.29-.42-1.94-.62-3.23-1,.49-1,.74-1.42,1.27-2.28Zm-2.57,1.88c-1.29-.37-1.94-.55-3.22-.87a.43.43,0,0,0-.49.16l-.1.16-.52-.11-.25.53c-1.42-.34-2.13-.49-3.54-.77.38-.89.58-1.31,1-2.14.06-.14-.06-.28-.25-.33l-.26,0a1.65,1.65,0,0,1,.2-.31l-.75,0c.59-.83.9-1.22,1.53-2,1.16.13,1.75.2,3,.37a.61.61,0,0,0,.5-.13l.09-.11.5.08.34-.35a22.53,22.53,0,0,1,3.56,1,18,18,0,0,0-1.15,1.7c-.09.13,0,.27.24.33l.26.07-.19.3.81.25C207.54,98.81,207.28,99.27,206.8,100.23Zm-2.05-8.87c.56-.49.84-.72,1.41-1.16,1.29.31,2,.48,3.29.88l-.36.24.51.15-.1.08c-.11.07,0,.17.19.23,1.22.35,1.85.55,3.12,1a7.27,7.27,0,0,0-1.46,1c-.33-.12-.5-.19-.82-.28a1.3,1.3,0,0,0-.22.19l-.25-.09a.79.79,0,0,0-.54,0,4.08,4.08,0,0,0-.69.74c-.23.27-.34.4-.55.69a22.45,22.45,0,0,0-3.56-.94l.35-.34-.5-.09.11-.11c.09-.08,0-.18-.17-.22-1.21-.21-1.8-.3-3-.46.59-.6.89-.89,1.49-1.43l.72.13a2.41,2.41,0,0,1,.24-.21l.23,0A.73.73,0,0,0,204.75,91.36Zm-4.82-4.82.24-.2.22,0a.68.68,0,0,0,.49-.09c.57-.46.86-.68,1.43-1.12,1.16.21,1.74.33,2.93.61l-.36.25.46.11-.1.08c-.09.07,0,.16.15.2,1.1.26,1.66.4,2.8.74-.67.44-1,.67-1.69,1.15l-.73-.18-.22.17-.24,0a.72.72,0,0,0-.5.06c-.57.43-.86.65-1.44,1.12-1.23-.23-1.84-.32-3-.48l.36-.33-.44,0,.12-.11c.09-.08,0-.17-.14-.19-1.09-.15-1.62-.21-2.68-.32.69-.61,1-.91,1.72-1.48Zm-4.76,4.66H195l.24-.25-.69,0c.6-.64.9-1,1.52-1.55,1.06.08,1.59.13,2.68.25a.75.75,0,0,0,.5-.12l.09-.1.46.06.35-.33c1.21.16,1.81.25,3.06.48-.58.47-.86.72-1.43,1.24-.11.09,0,.19.16.21l.24,0a2.5,2.5,0,0,0-.24.22l.7.1h0c-.6.55-.9.84-1.49,1.45-1.14-.15-1.7-.22-2.81-.32a.65.65,0,0,0-.48.16l-.11.11-.44,0-.35.39c-1.21-.09-1.81-.12-3-.17.24-.3.36-.45.61-.74s.45-.52.75-.85C195.4,91.31,195.36,91.22,195.17,91.2Zm-2.35-6.44c1,0,1.5.08,2.51.16a.8.8,0,0,0,.48-.13l.1-.09.42,0,.36-.32c1.13.1,1.71.16,2.87.31l-1.44,1.18c-.09.08,0,.17.13.18l.22,0-.25.2.66.08c-.68.58-1,.87-1.71,1.49-1-.1-1.57-.14-2.61-.21a.69.69,0,0,0-.48.14l-.1.11-.43,0-.37.35-2.83-.11c.57-.58.86-.86,1.44-1.4.12-.09.06-.17-.12-.18h-.2l.25-.22-.63,0C191.79,85.67,192.13,85.36,192.82,84.76Zm-5.68,5.52h.65L188,90h.21a.74.74,0,0,0,.47-.18c.57-.63.86-.93,1.44-1.51,1.12,0,1.69.06,2.84.11l-.37.36.43,0-.12.12c-.09.09,0,.17.13.19,1,0,1.55.08,2.61.16-.61.6-.91.91-1.51,1.56l-.66,0-.24.26H193a.71.71,0,0,0-.49.17c-.3.34-.45.52-.75.88l-.62.76c-1.16,0-1.73-.05-2.86-.06l.35-.43h-.43l.09-.13c.1-.11.05-.21-.13-.21-1,0-1.52,0-2.52,0C186.25,91.3,186.54,91,187.14,90.28Zm-7.72.27c.6-.7.9-1,1.51-1.69l2.47,0a.76.76,0,0,0,.47-.17l.12-.13h.41l.37-.38,2.73.07c-.59.59-.87.89-1.45,1.52-.08.1,0,.19.12.2h.2l-.24.27h.66c-.61.67-.91,1-1.49,1.75h-2.51a.57.57,0,0,0-.44.2l-.12.13h-.4l-.35.44-2.73,0c.24-.32.37-.47.62-.79s.46-.57.77-.94c.09-.11,0-.2-.14-.2h-.2l.24-.27Zm2.31,5.58-.21.33h-.2a.57.57,0,0,0-.45.24c-.48.79-.72,1.2-1.17,2-1.09,0-1.63,0-2.7,0,.11-.21.17-.31.29-.52h-.41a1.09,1.09,0,0,1,.08-.15c.08-.15,0-.25-.15-.26-1,0-1.47,0-2.45,0,.55-1,.84-1.45,1.43-2.37l.62,0c.08-.13.12-.2.21-.33l.18,0a.63.63,0,0,0,.45-.22c.51-.77.77-1.14,1.3-1.86l2.73,0-.33.45h.41l-.12.15c-.08.12,0,.21.15.21h2.48c-.62.86-.93,1.31-1.52,2.24Zm4.67,1.63A.58.58,0,0,0,186,98a.8.8,0,0,0-.08.16h-.42c-.12.2-.18.31-.29.52l-2.84,0c.46-.84.69-1.24,1.18-2,.1-.14,0-.24-.14-.23h-.21a3.7,3.7,0,0,1,.21-.33h-.63c.59-.93.89-1.38,1.52-2.25h2.52a.56.56,0,0,0,.46-.21l.12-.15h.42l.34-.45,2.86,0c-.54.69-.8,1-1.32,1.78-.07.12,0,.22.16.23h.2l-.21.31h.67c-.6.88-.89,1.34-1.46,2.29Zm3,0c.56-.94.85-1.4,1.46-2.28l.66,0,.22-.31H192a.69.69,0,0,0,.48-.21c.51-.72.77-1.06,1.31-1.73,1.18.05,1.78.08,3,.17l-.34.41.46,0-.12.13c-.08.11,0,.21.16.22,1.12.08,1.69.12,2.84.23-.63.76-.94,1.15-1.53,2l-.74,0c-.07.12-.11.17-.19.29h-.22a.62.62,0,0,0-.49.2,8.55,8.55,0,0,0-1.17,1.91,16.24,16.24,0,0,0-3.08-.09l.3-.5h-.46l.1-.16c.08-.12,0-.23-.18-.25Zm2.27,6.74a.41.41,0,0,0-.45.25,1.42,1.42,0,0,1,0,.2l-.5-.06-.18.63c-1.33-.14-2-.19-3.29-.28.12-.46.17-.68.29-1.14s.31-.75.52-1.24a.18.18,0,0,0-.2-.27h-.22l.17-.37h-.66c.41-.94.63-1.4,1.09-2.29l2.68,0a.52.52,0,0,0,.46-.24l.07-.16h.46c.11-.2.17-.31.29-.51a16.58,16.58,0,0,1,3.1.11c-.36.91-.53,1.38-.86,2.33-.06.15.05.31.25.33l.26,0c-.06.16-.08.24-.14.4l.8.11c-.34,1-.5,1.54-.81,2.6C193.51,104.7,192.89,104.62,191.66,104.48Zm3.54.49c.3-1.06.47-1.58.81-2.59l.78.13.15-.39.26,0a.4.4,0,0,0,.46-.23c.34-.93.52-1.39.89-2.28,1.41.28,2.12.43,3.54.77-.1.22-.15.33-.24.55l.53.13-.07.15c-.08.16.05.32.26.36,1.28.31,1.92.47,3.2.82-.39.93-.57,1.4-.92,2.38l-.82-.2c-.06.16-.08.24-.14.39l-.23-.06a.38.38,0,0,0-.48.18c-.18.52-.26.78-.42,1.31s-.21.65-.35,1.09c-1.41-.32-2.11-.46-3.51-.73l.17-.64-.51-.09c0-.08,0-.12.06-.2a.34.34,0,0,0-.28-.37C197.08,105.26,196.45,105.16,195.2,105Zm3.91,8.88c-.2,0-.41.06-.43.24s0,.13,0,.22l-.52-.11-.12.67c-1.37-.26-2.05-.38-3.41-.6.16-1.07.26-1.6.45-2.65a.31.31,0,0,0-.28-.36l-.26,0c0-.17.06-.26.09-.44l-.79-.1c.25-1.24.39-1.86.69-3.07,1.24.18,1.86.29,3.12.51a.41.41,0,0,0,.46-.23c0-.08,0-.12,0-.19l.53.1c.06-.26.09-.39.16-.64,1.4.27,2.11.42,3.52.74-.28,1-.42,1.48-.67,2.49a.33.33,0,0,0,.3.39l.26.06-.1.43.79.18c-.29,1.21-.42,1.83-.66,3.06C201,114.23,200.36,114.1,199.11,113.85Zm3.59.76c.24-1.23.37-1.85.66-3l.79.19.1-.42.27.07a.35.35,0,0,0,.44-.22c.26-1,.39-1.49.68-2.46,1.39.36,2.09.56,3.48,1-.08.24-.12.36-.19.6l.53.16-.05.19a.34.34,0,0,0,.29.4c1.26.38,1.89.58,3.15,1-.35,1.13-.51,1.7-.8,2.88l-.79-.25c0,.17-.06.25-.11.42l-.24-.1a.33.33,0,0,0-.43.2c-.24,1-.35,1.51-.55,2.53-1.37-.39-2.06-.57-3.43-.92,0-.27.07-.4.11-.67l-.5-.12a1.7,1.7,0,0,1,0-.22.38.38,0,0,0-.33-.39C204.57,115.06,204,114.9,202.7,114.61Zm7.61,10c-1.23-.35-1.84-.52-3.08-.84a.29.29,0,0,0-.39.23c0,.09,0,.14,0,.23l-.51-.14c0,.27-.05.41-.08.68-1.35-.34-2-.5-3.37-.8,0-.49.06-.74.11-1.23s.09-.89.16-1.48a.44.44,0,0,0-.33-.41l-.24,0c0-.18,0-.27.06-.45l-.79-.16c.14-1.14.22-1.71.39-2.83,1.25.27,1.88.42,3.13.72a.34.34,0,0,0,.43-.21c0-.08,0-.13,0-.21l.52.14c0-.27.06-.4.11-.67,1.38.35,2.07.54,3.44.94-.2,1-.29,1.54-.45,2.58a.38.38,0,0,0,.31.42l.26.08c0,.17,0,.26-.07.43l.77.23c-.16,1.11-.24,1.67-.37,2.79l.44.11c.14-1.12.22-1.67.39-2.77.31.09.47.13.77.23,0-.18.05-.26.08-.44l.23.06a.29.29,0,0,0,.43-.19c.17-1,.26-1.54.47-2.55,1.36.43,2,.65,3.39,1.11,0,.25-.08.37-.13.63l.5.17a1.3,1.3,0,0,1,0,.21.43.43,0,0,0,.32.42c1.21.42,1.81.63,3,1.07-.22,1.06-.32,1.59-.5,2.66l-.74-.27-.08.43-.25-.09a.28.28,0,0,0-.39.16c-.09.57-.13.85-.21,1.42s-.09.7-.14,1.17c-1.32-.45-2-.67-3.33-1.09,0-.26,0-.39.09-.65l-.51-.16c0-.09,0-.13,0-.22a.39.39,0,0,0-.32-.39C212.42,125.22,211.72,125,210.31,124.62Zm5.36,9.85c-.19-.05-.35.05-.35.22a1.38,1.38,0,0,0,0,.2l-.48-.12c0,.26,0,.39,0,.66-1.32-.38-2-.57-3.33-.93,0-1.07.06-1.6.12-2.67a.49.49,0,0,0-.34-.42l-.25-.07.05-.43-.8-.22c.08-1.27.12-1.91.23-3.17,1.24.33,1.85.51,3.07.87a.25.25,0,0,0,.36-.2l0-.2.48.13c0-.26.05-.39.08-.65,1.34.41,2,.63,3.32,1.07-.12,1-.18,1.55-.27,2.59a.47.47,0,0,0,.34.41l.21.08c0,.17,0,.25,0,.42l.75.27c-.11,1.22-.15,1.83-.22,3.06C217.44,135,216.85,134.82,215.67,134.47Zm3.36,1c.07-1.24.11-1.86.21-3.08l.73.25c0-.18,0-.26,0-.43l.24.08c.17.07.36,0,.36-.17.09-1,.15-1.54.27-2.57,1.28.46,1.92.7,3.17,1.18,0,.25-.05.38-.08.63l.47.18c0,.09,0,.13,0,.21a.41.41,0,0,0,.29.4c1.13.45,1.69.67,2.79,1.13-.16,1.17-.22,1.76-.33,2.94l-.68-.27c0,.16,0,.25,0,.41l-.23-.09a.25.25,0,0,0-.36.17c-.08,1-.11,1.51-.15,2.52-1.2-.45-1.81-.67-3-1.11,0-.25,0-.38,0-.63l-.48-.17c0-.09,0-.13,0-.21a.44.44,0,0,0-.32-.4C220.77,136.08,220.2,135.89,219,135.51Zm1.14,8.08c0-.58,0-.87,0-1.44a.48.48,0,0,0-.35-.41l-.22-.08c0-.17,0-.26,0-.42l-.72-.22c0-1.11,0-1.67,0-2.78,1.16.37,1.74.55,2.87.94.19,0,.34,0,.34-.21v-.22l.47.17c0-.26,0-.39,0-.64,1.23.42,1.83.64,3,1.07,0,1-.06,1.52-.08,2.52a.48.48,0,0,0,.32.41l.2.07v.41l.68.24c0,1.06,0,1.59,0,2.65-1.06-.37-1.6-.55-2.7-.9-.18-.05-.33,0-.34.19v.21l-.46-.14c0,.26,0,.39,0,.65-1.22-.37-1.84-.56-3.1-.92C220.18,144.28,220.18,144.05,220.17,143.59Z"/><path class="cls-36" d="M232.3,146.49c6.44-7.31,13.58-28.54-1.27-44.41,2.51,7.77-.66,13.64-4.08,14-4.49.41-14.59-6.43-14.59-6.43L191.18,97.09S182,92,177.18,92a9.44,9.44,0,0,1,1.88-1.45s.05-.4.14-1.06a21,21,0,0,1-4.09,2.71c-1.21.49-3.09-.67-4-.61-2.65.13,1.94,5.38,4.91,9.48-.94-3-.91-5.39-.1-7.2,6.67,5.25,35.64,32.22,40.26,38.15-2.09.61-6.43-2-9.89-7.9s-7-8.24-13.57-11.37c5.72,3.9,10.91,16.1,15.53,21.85S228,153.66,232.3,146.49Z"/><path class="cls-37" d="M236.12,140.55c-15.18-6.45-55.65-51.47-56.73-52.39a2.41,2.41,0,0,1,.45-1.33,3.88,3.88,0,0,1,4.93-1.23c2.41,1.25,5.83,3.71,17.95,14.1,6.91,5.92,16.93,16,24.58,23.91,5.74,6,10.15,10.78,10.84,11.77C239.77,137.65,239,140,236.12,140.55Z"/><path class="cls-38" d="M236.12,140.55c-15.18-6.45-55.65-51.47-56.73-52.39a2.41,2.41,0,0,1,.45-1.33,10.16,10.16,0,0,0,1.59,1.5c6,4.4,13.55,10.69,18.39,14.75,6.42,5.45,17.31,15.55,20.57,18.88,2.65,2.72,6.09,4.61,6.91,1.65,5.74,6,10.15,10.78,10.84,11.77C239.77,137.65,239,140,236.12,140.55Z"/><path class="cls-39" d="M232.92,145.4c-5.19-4.56-28.2-29.07-37.42-36.54s-16.58-13.6-20.39-16.66a3.29,3.29,0,0,1,.27-3.08,2.93,2.93,0,0,1,4-.94c5.38,4,6.69,5,18.77,15.07C205,109,215.72,119.51,224,128c6.34,6.46,11.3,11.69,12.09,12.6C237.15,142.43,235.67,145.88,232.92,145.4Z"/><path class="cls-40" d="M232.92,145.4c-5.19-4.56-28.2-29.07-37.42-36.54s-16.58-13.6-20.39-16.66a3.29,3.29,0,0,1,.27-3.08,12.14,12.14,0,0,0,2.94,3.33c6,4.42,13.56,10.71,18.37,14.78,6.43,5.43,16.48,15.75,19.73,19.09,2.58,2.64,6.5,4.4,7.61,1.63,6.34,6.46,11.3,11.69,12.09,12.6C237.15,142.43,235.67,145.88,232.92,145.4Z"/><path class="cls-41" d="M218.24,167.31c-7.69,2.06-11.7-3.41-13.29-11.23s-4.46-26.64-6.42-32.48c-1.85-5.54-6.37-11-11.2-14.43h0l-.75-.54c15.38,6.28,21.69,26,28.48,31.32,4.32,3.38,10.3,3.75,15.58,3a36.91,36.91,0,0,0,8-2.06c-1.77,2.62-4.38,12.24-7.43,17.52S225.94,165.25,218.24,167.31Z"/><path class="cls-35" d="M192,111.61a14.12,14.12,0,0,1,.36,2c.7.76,1.36,1.56,2,2.38l.06,0,0-.5.15.06c.15.08.24,0,.21-.23-.08-.78-.15-1.3-.25-1.86A30.76,30.76,0,0,0,192,111.61Z"/><path class="cls-35" d="M207.93,130.86a1.36,1.36,0,0,0,0,.2.36.36,0,0,0,.13.36l.57.29-.87-1.36c0,.12,0,.23,0,.38Z"/><path class="cls-35" d="M237.24,141.55l.15.31.73-.16a9.63,9.63,0,0,1,.48-.84c-.6.23-1.26.45-2,.67a.44.44,0,0,0,.36.08Z"/><path class="cls-35" d="M186.56,108.61a31.81,31.81,0,0,1,2.55,1.94c0-.12,0-.24-.08-.4.67.23,1.15.41,1.61.6A27.23,27.23,0,0,0,186.56,108.61Z"/><path class="cls-35" d="M229.55,143.55l-.75.07.13.32-.24,0c-.19,0-.31.14-.27.26.16.45.24.67.41,1.11s.22.54.36.91c-1.34.12-2,.17-3.33.23-.06-.22-.09-.32-.16-.54l-.49,0-.06-.16a.4.4,0,0,0-.4-.23c-1.17,0-1.74,0-2.88,0-.21-.9-.3-1.36-.46-2.27h.68c0-.14-.05-.21-.08-.34h.21l.07,0a20.77,20.77,0,0,1-2.59-.62c0,.09,0,.18,0,.29a.39.39,0,0,0,.34.28h.21c0,.15,0,.22.06.36H221c.16.91.25,1.37.45,2.28-1.12,0-1.67,0-2.74-.08a.23.23,0,0,0-.26.26l0,.16-.43,0c0,.22.05.34.08.56-1.18,0-1.76-.08-2.87-.15,0-.41-.06-.61-.07-1s0-.75,0-1.25a.31.31,0,0,0-.27-.31h-.17v-.39l-.55-.07c0-1,0-1.47.07-2.45.83.13,1.25.19,2.14.3a.26.26,0,0,0,.22-.14,13.22,13.22,0,0,1-1.56-1,14.61,14.61,0,0,1-1.79-1.75l-1.07-.24c-.12-.05-.22.06-.23.21l0,.2-.3-.08c0,.24,0,.36-.06.59-.8-.19-1.18-.29-1.91-.51.13-1,.19-1.45.3-2.42a.33.33,0,0,0-.16-.34l-.11,0c0-.16,0-.24,0-.39l-.39-.15c.1-.76.15-1.27.21-1.85l-.2-.31c-.06.69-.12,1.22-.23,2.08l-.37-.16-.05.41-.13-.05c-.08,0-.18.05-.2.2-.14,1-.21,1.49-.38,2.49-.66-.24-1-.36-1.58-.62.05-.26.07-.39.12-.66l-.23-.1,0-.2c0-.17,0-.33-.12-.37-.52-.25-.78-.38-1.27-.64.24-1.25.35-1.87.53-3.09l.3.19c0-.17,0-.25.06-.42l.09.05c.08.07.16,0,.18-.2.14-1,.19-1.49.28-2.47.44.3.71.47,1.12.7l-.39-.6-.7-.46c0-.23,0-.4,0-.57l-1.17-1.8c0,.12,0,.23,0,.39,0,.44,0,.66-.07,1.1-.5-.37-.74-.56-1.22-1,0-.27,0-.4,0-.66l-.18-.13c0-.09,0-.13,0-.21a.75.75,0,0,0-.11-.42l-1.1-.94c0-.83.05-1.33.05-2l-.17-.24c0,.68,0,1.21,0,2.07l-1.12-1c-.08-.07-.15,0-.15.21a1.48,1.48,0,0,1,0,.21l-.19-.16-.05.71c-.51-.41-.78-.61-1.34-1,0-.53,0-.79.05-1.31s0-.93,0-1.54a.65.65,0,0,0-.15-.43l-.11-.09c0-.18,0-.28,0-.46l-.35-.25c0-.6,0-1-.08-1.46l-.21-.26c0,.46.06.92.09,1.55l-.37-.25c0,.18,0,.28,0,.46a1.25,1.25,0,0,1-.12-.09c-.1-.06-.17,0-.16.24,0,.63,0,1,0,1.59s0,.82-.05,1.38l0,0c.12.32.27.65.38,1,.27.78.54,1.81.83,3,.13-.95.19-1.56.26-2.58.56.38.83.58,1.34,1,0,.29,0,.43-.07.73l.19.15c0,.08,0,.13,0,.22a.58.58,0,0,0,.1.45l1.11.83v0c-.15,1.29-.25,2-.49,3.32l-.28-.16c0,.19-.05.29-.08.48l-.1-.07c-.07,0-.16.09-.2.27-.14.72-.25,1.24-.4,1.79.2,1,.4,2.09.6,3.17.08-.26.16-.55.24-.89l1.3.67c-.07.28-.11.42-.18.71l.2.1a1.7,1.7,0,0,0,0,.22c-.06.18,0,.36,0,.41l1.26.56c-.27,1.15-.41,1.73-.72,2.91l-.36-.1c-.05.19-.07.28-.13.47l-.1-.05c-.09,0-.21.1-.26.27s-.14.42-.19.6c.22,1.24.43,2.46.64,3.67.06-.23.13-.46.21-.74a16.18,16.18,0,0,0,1.82.41l-.15.66.29.05,0,.19c-.05.19,0,.34.14.35l1.9.25c-.2,1.2-.31,1.81-.45,3l-.53-.06c0,.16,0,.24-.06.41l-.15,0a.28.28,0,0,0-.3.26c-.13,1-.18,1.44-.26,2.38l-1.17-.11c0,.13,0,.24.07.36l1.07.1c-.07.94-.09,1.4-.1,2.32a.26.26,0,0,0,.27.28h.2c0,.15,0,.23,0,.38l.63,0c0,1,.07,1.43.17,2.37l-1.06,0a22.16,22.16,0,0,0,.82,2.34l.55,0c.12.74.22,1.22.34,1.81a11.46,11.46,0,0,0,2.65,3.22c-.2-.63-.33-1.06-.52-1.79,0-.13-.22-.25-.43-.27h-.24l-.1-.35-.76,0c-.23-1-.34-1.55-.52-2.59l3,.09c.18,0,.32-.11.3-.24s0-.11,0-.18h.52c-.06-.22-.09-.33-.14-.56,1.36,0,2.06,0,3.5,0,.22.87.35,1.3.6,2.14a.52.52,0,0,0,.49.24l.26,0c.05.13.08.2.12.33h.85c.33,1,.5,1.49.86,2.45-1.37,0-2.05.07-3.38.08-.24,0-.38.12-.33.25l.06.18h-.56l.17.52c-1.34,0-2.08,0-3.27,0,.15.11.31.21.47.31,1,0,1.71,0,2.92,0,.06.2.1.3.17.5h.56l.07.16a.5.5,0,0,0,.49.23c1.17,0,1.87,0,2.94-.1l.29-.06a45.33,45.33,0,0,0,4.74-1.49h0l-.22-.49-.56,0-.08-.15c0-.14-.28-.23-.5-.2-1.4.09-2.1.13-3.47.19-.36-1-.53-1.45-.87-2.45l.86,0-.12-.35h.25c.25,0,.39-.12.33-.26-.28-.83-.41-1.25-.67-2.11,1.47,0,2.23-.06,3.75-.14l.17.53.59,0,.06.17c.05.14.28.23.51.21,1.4-.08,2.11-.13,3.53-.26.36.94.55,1.4.92,2.3l-.9.1.13.32-.3,0c-.22,0-.36.14-.31.28l.24.59a12.35,12.35,0,0,0,1.66-1.39c-.36-.89-.55-1.35-.91-2.28,1.23-.12,2-.2,3-.36.31-.46.61-1,.92-1.5l-.2-.41-.55.09-.08-.15a.52.52,0,0,0-.52-.19c-1.37.17-2.06.24-3.44.37-.36-.88-.54-1.33-.89-2.22l.85-.07-.14-.34.28,0c.21,0,.34-.15.28-.28-.34-.84-.51-1.25-.84-2.09,1.45-.09,2.18-.16,3.64-.32l.22.51.55-.06.05.16a.6.6,0,0,0,.51.2c1.13-.15,1.8-.25,2.8-.43.31-.78.63-1.57.93-2.36l-1,.18c-.48-.93-.71-1.39-1.16-2.32l.79-.11c-.07-.13-.1-.2-.16-.33l.26,0c.2,0,.31-.17.26-.28-.39-.78-.58-1.16-.94-1.94,1.33-.19,2-.3,3.35-.56l.23.47.26-.05c.26-.67.5-1.32.74-1.91l-1,.19c-.19.05-.3.18-.23.3l.08.16-.51.09c.1.19.14.29.24.48-1.33.25-2,.36-3.32.55L232,145c-.19-.43-.28-.64-.46-1.07a.48.48,0,0,0-.45-.2l-.22,0-.13-.33-.74.09-.19-.5-.41,0C229.42,143.21,229.48,143.37,229.55,143.55Zm-26-9.07c-.09-.06-.18.06-.21.24l0,.23-.2-.11c-.06.28-.09.42-.16.71l-1.28-.67c.28-1.18.41-1.77.62-2.91a.56.56,0,0,0-.06-.43l-.09,0c0-.19.05-.29.09-.48l-.29-.17c.24-1.36.34-2,.48-3.32l1.09.85c.07.07.14,0,.17-.2s0-.12,0-.21l.18.15c0-.26,0-.4.06-.66.49.39.73.59,1.23,1-.09,1-.15,1.5-.29,2.53,0,.17,0,.35.1.39l.09.07c0,.17,0,.25-.06.43l.29.19c-.18,1.22-.29,1.84-.53,3.1C204.29,134.88,204.05,134.74,203.59,134.48Zm14.61,12.29c0,.22.06.34.09.56h.47v.18a.42.42,0,0,0,.4.26c1.12,0,1.7,0,2.87,0,.28,1,.43,1.52.75,2.54H222c0,.14.07.21.11.36h-.23c-.2,0-.34.1-.3.26.27.86.41,1.29.69,2.16-1.4,0-2.1,0-3.47,0-.06-.23-.08-.34-.14-.56h-.51a.85.85,0,0,0-.06-.17c0-.15-.2-.27-.42-.28-1.2,0-1.79,0-2.95-.05-.16-1.08-.23-1.61-.34-2.69l.68,0-.05-.37.22,0a.26.26,0,0,0,.3-.25c-.13-.9-.18-1.34-.26-2.25C216.42,146.69,217,146.73,218.2,146.77Zm-12.28-2.86c-.11,0-.23.11-.27.28l-.05.21-.28-.05-.15.66a16.52,16.52,0,0,1-1.81-.4c.14-.46.21-.7.34-1.19s.24-.9.39-1.5c0-.18,0-.35-.09-.39l-.11,0c0-.17.06-.26.11-.44l-.35-.11c.3-1.18.45-1.76.71-2.92.52.22.79.33,1.35.54.09,0,.19-.07.23-.23s0-.13,0-.21l.23.08c0-.26.08-.39.13-.65.61.25.93.37,1.61.61-.17,1-.26,1.5-.45,2.52,0,.16,0,.32.15.34l.12,0c0,.16,0,.25-.07.42l.42.11h0c-.18,1.06-.28,1.59-.46,2.66C206.94,144.13,206.59,144.06,205.92,143.91Zm2,.4c.17-1.06.26-1.6.43-2.65l.45.12c0-.17,0-.25.06-.41l.14,0c.1,0,.22-.06.24-.23l.35-2.46c.73.22,1.12.32,1.93.52,0,.24,0,.36-.07.59l.31.07,0,.2a.28.28,0,0,0,.21.32c.76.16,1.15.23,2,.37-.05,1-.07,1.47-.1,2.46l-.54-.08c0,.16,0,.23,0,.39l-.18,0c-.13,0-.25.08-.28.24,0,.51,0,.77,0,1.28s0,.63,0,1.05c-1-.1-1.5-.16-2.44-.28,0-.24,0-.36.06-.6l-.34-.05,0-.21a.28.28,0,0,0-.22-.31C209.06,144.51,208.68,144.45,207.94,144.31Zm0,8.68c0-.93.05-1.39.13-2.34a.27.27,0,0,0-.26-.29l-.18,0c0-.16,0-.23,0-.39l-.55-.05c.14-1.14.24-1.76.43-2.95l2.06.24a.25.25,0,0,0,.29-.25l0-.2.36,0c0-.24,0-.36.06-.6.93.11,1.42.16,2.44.26,0,.93,0,1.39,0,2.31a.35.35,0,0,0,.33.28h.19c0,.15,0,.22,0,.37l.67,0c.1,1.08.16,1.61.31,2.69l-2.79-.08a.29.29,0,0,0-.31.26v.2h-.44c0,.24,0,.35,0,.59C209.6,153.05,209,153,207.92,153Zm3,6.71c0-.22-.08-.33-.13-.56h-.48c0-.08,0-.12,0-.19a.42.42,0,0,0-.41-.26l-2.84-.11c-.1-.94-.14-1.42-.19-2.37l.66,0c0-.15,0-.23,0-.38h.22a.25.25,0,0,0,.28-.27c-.05-.9-.06-1.35-.05-2.27l2.9.08.05.59h.47v.18a.37.37,0,0,0,.38.27l2.95,0c.17,1,.26,1.46.47,2.41h-.79l.07.37h-.24c-.21,0-.35.1-.31.25.11.49.16.74.27,1.23s.14.59.23,1C213,159.74,212.26,159.73,210.91,159.7Zm13-3.88c.06.14.09.21.14.35l.85,0c.34.9.52,1.35.87,2.24-1.39.12-2.09.17-3.48.24-.21,0-.38.11-.32.25l0,.18-.58,0c.07.21.11.32.17.53-1.52.07-2.27.1-3.74.13-.12-.39-.18-.58-.29-1l-.3-1.2a.45.45,0,0,0-.46-.25h-.27c0-.15-.06-.23-.09-.38h-.81c-.21-1-.31-1.43-.48-2.4,1.22,0,1.85,0,3.12,0,.23,0,.36-.12.32-.27l0-.18h.53c-.06-.22-.08-.33-.14-.56,1.37,0,2.07,0,3.47,0,.3.86.45,1.29.76,2.15,0,.13.25.23.45.23Zm5.43-9.3c.33.81.51,1.21.87,2a.47.47,0,0,0,.47.2l.24,0,.15.33.79-.1c.45.93.68,1.39,1.15,2.31-1.28.2-1.92.29-3.21.44-.21,0-.31.14-.25.28l.05.15-.51.06.22.51c-1.45.16-2.17.22-3.62.31-.32-.83-.48-1.25-.78-2.09a.47.47,0,0,0-.47-.24h-.26c0-.14-.07-.21-.12-.35l-.77,0c-.33-1-.49-1.51-.78-2.52,1.18,0,1.78,0,3-.07.2,0,.31-.13.26-.27a1.15,1.15,0,0,1-.06-.17h.49l-.17-.53C227.3,146.7,228,146.65,229.3,146.52Z"/><path class="cls-42" d="M218.24,167.31c-7.69,2.06-11.7-3.41-13.29-11.23s-4.46-26.64-6.42-32.48c-1.85-5.54-6.37-11-11.2-14.43,4.51,2.61,9.82,7.45,12.21,14,2.64,7.25,6.93,19.3,10.71,23.62,3.39,3.88,14.18,1,20.37-3.85a36.91,36.91,0,0,0,8-2.06c-1.77,2.62-4.38,12.24-7.43,17.52S225.94,165.25,218.24,167.31Z"/><path class="cls-43" d="M238.6,140.86a33,33,0,0,1-16.57,2,15,15,0,0,1-7.55-3.48,35.35,35.35,0,0,1-5.17-6.64c-3.07-4.71-5.95-9.57-9.59-13.87a35,35,0,0,0-13.16-10.3,31.45,31.45,0,0,1,7.51,4,41.57,41.57,0,0,1,6.24,5.84c3.82,4.25,6.71,9.18,9.83,13.81a35,35,0,0,0,4.94,6.5,14.88,14.88,0,0,0,7.09,3.41,27.08,27.08,0,0,0,8.2.31A38.25,38.25,0,0,0,238.6,140.86Z"/></g></g></g></svg>